<?xml version="1.0" encoding="UTF-8" standalone="no"?><svg xmlns="http://www.w3.org/2000/svg" xmlns:xlink="http://www.w3.org/1999/xlink" clip-rule="evenodd" stroke-miterlimit="4.00" viewBox="0 0 1024 768"><desc>SVG generated by Keynote</desc><defs></defs><g transform="matrix(1.00, 0.00, -0.00, -1.00, 0.0, 768.0)"><path d="M 0.0 768.0 L 1024.0 768.0 L 1024.0 0.0 L 0.0 0.0 Z M 0.0 768.0 " fill="#566291"></path><text xml:space="preserve" font-family="Lato-Regular" font-size="24.0" fill="#FEFFFF" transform="matrix(1.00, 0.00, -0.00, -1.00, 459.0, 99.0)">W</text><text xml:space="preserve" font-family="Lato-Regular" font-size="24.0" fill="#FEFFFF" transform="matrix(1.00, 0.00, -0.00, -1.00, 483.5, 99.0)">i</text><text xml:space="preserve" font-family="Lato-Regular" font-size="24.0" fill="#FEFFFF" transform="matrix(1.00, 0.00, -0.00, -1.00, 489.6, 99.0)">k</text><text xml:space="preserve" font-family="Lato-Regular" font-size="24.0" fill="#FEFFFF" transform="matrix(1.00, 0.00, -0.00, -1.00, 502.2, 99.0)">i</text><text xml:space="preserve" font-family="Lato-Regular" font-size="24.0" fill="#FEFFFF" transform="matrix(1.00, 0.00, -0.00, -1.00, 508.3, 99.0)">p</text><text xml:space="preserve" font-family="Lato-Regular" font-size="24.0" fill="#FEFFFF" transform="matrix(1.00, 0.00, -0.00, -1.00, 521.6, 99.0)">e</text><text xml:space="preserve" font-family="Lato-Regular" font-size="24.0" fill="#FEFFFF" transform="matrix(1.00, 0.00, -0.00, -1.00, 534.1, 99.0)">d</text><text xml:space="preserve" font-family="Lato-Regular" font-size="24.0" fill="#FEFFFF" transform="matrix(1.00, 0.00, -0.00, -1.00, 547.6, 99.0)">i</text><text xml:space="preserve" font-family="Lato-Regular" font-size="24.0" fill="#FEFFFF" transform="matrix(1.00, 0.00, -0.00, -1.00, 553.7, 99.0)">a</text><g><clipPath id="clip-22"><path d="M 457.6 95.7 L 565.4 95.7 L 565.4 99.2 L 457.6 99.2 Z M 457.6 95.7 "></path></clipPath><g clip-path="url(#clip-22)"><path d="M 358.6 29.6 L 465.4 29.6 " fill="none" stroke="#FEFFFF" stroke-width="1.44" stroke-miterlimit="0.00" transform="matrix(1.00, 0.00, 0.00, -1.00, 100.0, 127.0)"></path></g></g><text xml:space="preserve" font-family="Lato-Regular" font-size="51.0" fill="#FEFFFF" transform="matrix(1.00, 0.00, -0.00, -1.00, 214.0, 532.0)">“</text><text xml:space="preserve" font-family="Lato-Regular" font-size="51.0" fill="#FEFFFF" transform="matrix(1.00, 0.00, -0.00, -1.00, 227.9, 532.0)">A</text><text xml:space="preserve" font-family="Lato-Regular" font-size="51.0" fill="#FEFFFF" transform="matrix(1.00, 0.00, -0.00, -1.00, 262.6, 532.0)">c</text><text xml:space="preserve" font-family="Lato-Regular" font-size="51.0" fill="#FEFFFF" transform="matrix(1.00, 0.00, -0.00, -1.00, 286.4, 532.0)">c</text><text xml:space="preserve" font-family="Lato-Regular" font-size="51.0" fill="#FEFFFF" transform="matrix(1.00, 0.00, -0.00, -1.00, 310.2, 532.0)">o</text><text xml:space="preserve" font-family="Lato-Regular" font-size="51.0" fill="#FEFFFF" transform="matrix(1.00, 0.00, -0.00, -1.00, 338.6, 532.0)">r</text><text xml:space="preserve" font-family="Lato-Regular" font-size="51.0" fill="#FEFFFF" transform="matrix(1.00, 0.00, -0.00, -1.00, 359.1, 532.0)">d</text><text xml:space="preserve" font-family="Lato-Regular" font-size="51.0" fill="#FEFFFF" transform="matrix(1.00, 0.00, -0.00, -1.00, 387.7, 532.0)">i</text><text xml:space="preserve" font-family="Lato-Regular" font-size="51.0" fill="#FEFFFF" transform="matrix(1.00, 0.00, -0.00, -1.00, 400.7, 532.0)">n</text><text xml:space="preserve" font-family="Lato-Regular" font-size="51.0" fill="#FEFFFF" transform="matrix(1.00, 0.00, -0.00, -1.00, 429.1, 532.0)">g</text><text xml:space="preserve" font-family="Lato-Regular" font-size="51.0" fill="#FEFFFF" transform="matrix(1.00, 0.00, -0.00, -1.00, 455.1, 532.0)"> </text><text xml:space="preserve" font-family="Lato-Regular" font-size="51.0" fill="#FEFFFF" transform="matrix(1.00, 0.00, -0.00, -1.00, 465.0, 532.0)">t</text><text xml:space="preserve" font-family="Lato-Regular" font-size="51.0" fill="#FEFFFF" transform="matrix(1.00, 0.00, -0.00, -1.00, 484.0, 532.0)">o</text><text xml:space="preserve" font-family="Lato-Regular" font-size="51.0" fill="#FEFFFF" transform="matrix(1.00, 0.00, -0.00, -1.00, 512.3, 532.0)"> </text><text xml:space="preserve" font-family="Lato-Regular" font-size="51.0" fill="#FEFFFF" transform="matrix(1.00, 0.00, -0.00, -1.00, 522.2, 532.0)">l</text><text xml:space="preserve" font-family="Lato-Regular" font-size="51.0" fill="#FEFFFF" transform="matrix(1.00, 0.00, -0.00, -1.00, 535.2, 532.0)">e</text><text xml:space="preserve" font-family="Lato-Regular" font-size="51.0" fill="#FEFFFF" transform="matrix(1.00, 0.00, -0.00, -1.00, 562.0, 532.0)">g</text><text xml:space="preserve" font-family="Lato-Regular" font-size="51.0" fill="#FEFFFF" transform="matrix(1.00, 0.00, -0.00, -1.00, 588.0, 532.0)">e</text><text xml:space="preserve" font-family="Lato-Regular" font-size="51.0" fill="#FEFFFF" transform="matrix(1.00, 0.00, -0.00, -1.00, 614.8, 532.0)">n</text><text xml:space="preserve" font-family="Lato-Regular" font-size="51.0" fill="#FEFFFF" transform="matrix(1.00, 0.00, -0.00, -1.00, 643.1, 532.0)">d</text><text xml:space="preserve" font-family="Lato-Regular" font-size="51.0" fill="#FEFFFF" transform="matrix(1.00, 0.00, -0.00, -1.00, 671.6, 532.0)">,</text><text xml:space="preserve" font-family="Lato-Regular" font-size="51.0" fill="#FEFFFF" transform="matrix(1.00, 0.00, -0.00, -1.00, 682.4, 532.0)"> </text><text xml:space="preserve" font-family="Lato-Regular" font-size="51.0" fill="#FEFFFF" transform="matrix(1.00, 0.00, -0.00, -1.00, 692.3, 532.0)">i</text><text xml:space="preserve" font-family="Lato-Regular" font-size="51.0" fill="#FEFFFF" transform="matrix(1.00, 0.00, -0.00, -1.00, 705.3, 532.0)">t</text><text xml:space="preserve" font-family="Lato-Regular" font-size="51.0" fill="#FEFFFF" transform="matrix(1.00, 0.00, -0.00, -1.00, 724.4, 532.0)"> </text><text xml:space="preserve" font-family="Lato-Regular" font-size="51.0" fill="#FEFFFF" transform="matrix(1.00, 0.00, -0.00, -1.00, 734.2, 532.0)">h</text><text xml:space="preserve" font-family="Lato-Regular" font-size="51.0" fill="#FEFFFF" transform="matrix(1.00, 0.00, -0.00, -1.00, 762.6, 532.0)">a</text><text xml:space="preserve" font-family="Lato-Regular" font-size="51.0" fill="#FEFFFF" transform="matrix(1.00, 0.00, -0.00, -1.00, 788.4, 532.0)">s</text><text xml:space="preserve" font-family="Lato-Regular" font-size="51.0" fill="#FEFFFF" transform="matrix(1.00, 0.00, -0.00, -1.00, 810.5, 532.0)"> </text><text xml:space="preserve" font-family="Lato-Regular" font-size="51.0" fill="#FEFFFF" transform="matrix(1.00, 0.00, -0.00, -1.00, 279.0, 459.0)">s</text><text xml:space="preserve" font-family="Lato-Regular" font-size="51.0" fill="#FEFFFF" transform="matrix(1.00, 0.00, -0.00, -1.00, 301.1, 459.0)">p</text><text xml:space="preserve" font-family="Lato-Regular" font-size="51.0" fill="#FEFFFF" transform="matrix(1.00, 0.00, -0.00, -1.00, 329.3, 459.0)">e</text><text xml:space="preserve" font-family="Lato-Regular" font-size="51.0" fill="#FEFFFF" transform="matrix(1.00, 0.00, -0.00, -1.00, 356.0, 459.0)">c</text><text xml:space="preserve" font-family="Lato-Regular" font-size="51.0" fill="#FEFFFF" transform="matrix(1.00, 0.00, -0.00, -1.00, 379.8, 459.0)">i</text><text xml:space="preserve" font-family="Lato-Regular" font-size="51.0" fill="#FEFFFF" transform="matrix(1.00, 0.00, -0.00, -1.00, 392.9, 459.0)">a</text><text xml:space="preserve" font-family="Lato-Regular" font-size="51.0" fill="#FEFFFF" transform="matrix(1.00, 0.00, -0.00, -1.00, 418.7, 459.0)">l</text><text xml:space="preserve" font-family="Lato-Regular" font-size="51.0" fill="#FEFFFF" transform="matrix(1.00, 0.00, -0.00, -1.00, 431.8, 459.0)"> </text><text xml:space="preserve" font-family="Lato-Regular" font-size="51.0" fill="#FEFFFF" transform="matrix(1.00, 0.00, -0.00, -1.00, 441.6, 459.0)">p</text><text xml:space="preserve" font-family="Lato-Regular" font-size="51.0" fill="#FEFFFF" transform="matrix(1.00, 0.00, -0.00, -1.00, 469.8, 459.0)">o</text><text xml:space="preserve" font-family="Lato-Regular" font-size="51.0" fill="#FEFFFF" transform="matrix(1.00, 0.00, -0.00, -1.00, 498.1, 459.0)">w</text><text xml:space="preserve" font-family="Lato-Regular" font-size="51.0" fill="#FEFFFF" transform="matrix(1.00, 0.00, -0.00, -1.00, 537.2, 459.0)">e</text><text xml:space="preserve" font-family="Lato-Regular" font-size="51.0" fill="#FEFFFF" transform="matrix(1.00, 0.00, -0.00, -1.00, 563.9, 459.0)">r</text><text xml:space="preserve" font-family="Lato-Regular" font-size="51.0" fill="#FEFFFF" transform="matrix(1.00, 0.00, -0.00, -1.00, 584.5, 459.0)">s</text><text xml:space="preserve" font-family="Lato-Regular" font-size="51.0" fill="#FEFFFF" transform="matrix(1.00, 0.00, -0.00, -1.00, 606.6, 459.0)"> </text><text xml:space="preserve" font-family="Lato-Regular" font-size="51.0" fill="#FEFFFF" transform="matrix(1.00, 0.00, -0.00, -1.00, 616.5, 459.0)">a</text><text xml:space="preserve" font-family="Lato-Regular" font-size="51.0" fill="#FEFFFF" transform="matrix(1.00, 0.00, -0.00, -1.00, 642.3, 459.0)">n</text><text xml:space="preserve" font-family="Lato-Regular" font-size="51.0" fill="#FEFFFF" transform="matrix(1.00, 0.00, -0.00, -1.00, 670.7, 459.0)">d</text><text xml:space="preserve" font-family="Lato-Regular" font-size="51.0" fill="#FEFFFF" transform="matrix(1.00, 0.00, -0.00, -1.00, 699.2, 459.0)"> </text><text xml:space="preserve" font-family="Lato-Regular" font-size="51.0" fill="#FEFFFF" transform="matrix(1.00, 0.00, -0.00, -1.00, 709.0, 459.0)">i</text><text xml:space="preserve" font-family="Lato-Regular" font-size="51.0" fill="#FEFFFF" transform="matrix(1.00, 0.00, -0.00, -1.00, 722.1, 459.0)">s</text><text xml:space="preserve" font-family="Lato-Regular" font-size="51.0" fill="#FEFFFF" transform="matrix(1.00, 0.00, -0.00, -1.00, 744.2, 459.0)"> </text><text xml:space="preserve" font-family="Lato-Regular" font-size="51.0" fill="#FEFFFF" transform="matrix(1.00, 0.00, -0.00, -1.00, 293.0, 385.0)">d</text><text xml:space="preserve" font-family="Lato-Regular" font-size="51.0" fill="#FEFFFF" transform="matrix(1.00, 0.00, -0.00, -1.00, 321.5, 385.0)">e</text><text xml:space="preserve" font-family="Lato-Regular" font-size="51.0" fill="#FEFFFF" transform="matrix(1.00, 0.00, -0.00, -1.00, 348.2, 385.0)">s</text><text xml:space="preserve" font-family="Lato-Regular" font-size="51.0" fill="#FEFFFF" transform="matrix(1.00, 0.00, -0.00, -1.00, 370.4, 385.0)">i</text><text xml:space="preserve" font-family="Lato-Regular" font-size="51.0" fill="#FEFFFF" transform="matrix(1.00, 0.00, -0.00, -1.00, 383.4, 385.0)">g</text><text xml:space="preserve" font-family="Lato-Regular" font-size="51.0" fill="#FEFFFF" transform="matrix(1.00, 0.00, -0.00, -1.00, 409.5, 385.0)">n</text><text xml:space="preserve" font-family="Lato-Regular" font-size="51.0" fill="#FEFFFF" transform="matrix(1.00, 0.00, -0.00, -1.00, 437.8, 385.0)">e</text><text xml:space="preserve" font-family="Lato-Regular" font-size="51.0" fill="#FEFFFF" transform="matrix(1.00, 0.00, -0.00, -1.00, 464.6, 385.0)">d</text><text xml:space="preserve" font-family="Lato-Regular" font-size="51.0" fill="#FEFFFF" transform="matrix(1.00, 0.00, -0.00, -1.00, 493.1, 385.0)"> </text><text xml:space="preserve" font-family="Lato-Regular" font-size="51.0" fill="#FEFFFF" transform="matrix(1.00, 0.00, -0.00, -1.00, 502.9, 385.0)">t</text><text xml:space="preserve" font-family="Lato-Regular" font-size="51.0" fill="#FEFFFF" transform="matrix(1.00, 0.00, -0.00, -1.00, 521.9, 385.0)">o</text><text xml:space="preserve" font-family="Lato-Regular" font-size="51.0" fill="#FEFFFF" transform="matrix(1.00, 0.00, -0.00, -1.00, 550.3, 385.0)"> </text><text xml:space="preserve" font-family="Lato-Regular" font-size="51.0" fill="#FEFFFF" transform="matrix(1.00, 0.00, -0.00, -1.00, 560.1, 385.0)">p</text><text xml:space="preserve" font-family="Lato-Regular" font-size="51.0" fill="#FEFFFF" transform="matrix(1.00, 0.00, -0.00, -1.00, 588.3, 385.0)">r</text><text xml:space="preserve" font-family="Lato-Regular" font-size="51.0" fill="#FEFFFF" transform="matrix(1.00, 0.00, -0.00, -1.00, 608.8, 385.0)">o</text><text xml:space="preserve" font-family="Lato-Regular" font-size="51.0" fill="#FEFFFF" transform="matrix(1.00, 0.00, -0.00, -1.00, 636.5, 385.0)">v</text><text xml:space="preserve" font-family="Lato-Regular" font-size="51.0" fill="#FEFFFF" transform="matrix(1.00, 0.00, -0.00, -1.00, 662.6, 385.0)">i</text><text xml:space="preserve" font-family="Lato-Regular" font-size="51.0" fill="#FEFFFF" transform="matrix(1.00, 0.00, -0.00, -1.00, 675.7, 385.0)">d</text><text xml:space="preserve" font-family="Lato-Regular" font-size="51.0" fill="#FEFFFF" transform="matrix(1.00, 0.00, -0.00, -1.00, 704.2, 385.0)">e</text><text xml:space="preserve" font-family="Lato-Regular" font-size="51.0" fill="#FEFFFF" transform="matrix(1.00, 0.00, -0.00, -1.00, 730.9, 385.0)"> </text><text xml:space="preserve" font-family="Lato-Regular" font-size="51.0" fill="#FEFFFF" transform="matrix(1.00, 0.00, -0.00, -1.00, 194.0, 312.0)">h</text><text xml:space="preserve" font-family="Lato-Regular" font-size="51.0" fill="#FEFFFF" transform="matrix(1.00, 0.00, -0.00, -1.00, 222.4, 312.0)">a</text><text xml:space="preserve" font-family="Lato-Regular" font-size="51.0" fill="#FEFFFF" transform="matrix(1.00, 0.00, -0.00, -1.00, 248.2, 312.0)">p</text><text xml:space="preserve" font-family="Lato-Regular" font-size="51.0" fill="#FEFFFF" transform="matrix(1.00, 0.00, -0.00, -1.00, 276.4, 312.0)">p</text><text xml:space="preserve" font-family="Lato-Regular" font-size="51.0" fill="#FEFFFF" transform="matrix(1.00, 0.00, -0.00, -1.00, 304.5, 312.0)">i</text><text xml:space="preserve" font-family="Lato-Regular" font-size="51.0" fill="#FEFFFF" transform="matrix(1.00, 0.00, -0.00, -1.00, 317.6, 312.0)">n</text><text xml:space="preserve" font-family="Lato-Regular" font-size="51.0" fill="#FEFFFF" transform="matrix(1.00, 0.00, -0.00, -1.00, 345.9, 312.0)">e</text><text xml:space="preserve" font-family="Lato-Regular" font-size="51.0" fill="#FEFFFF" transform="matrix(1.00, 0.00, -0.00, -1.00, 372.7, 312.0)">s</text><text xml:space="preserve" font-family="Lato-Regular" font-size="51.0" fill="#FEFFFF" transform="matrix(1.00, 0.00, -0.00, -1.00, 394.8, 312.0)">s</text><text xml:space="preserve" font-family="Lato-Regular" font-size="51.0" fill="#FEFFFF" transform="matrix(1.00, 0.00, -0.00, -1.00, 416.9, 312.0)">,</text><text xml:space="preserve" font-family="Lato-Regular" font-size="51.0" fill="#FEFFFF" transform="matrix(1.00, 0.00, -0.00, -1.00, 427.7, 312.0)"> </text><text xml:space="preserve" font-family="Lato-Regular" font-size="51.0" fill="#FEFFFF" transform="matrix(1.00, 0.00, -0.00, -1.00, 437.6, 312.0)">e</text><text xml:space="preserve" font-family="Lato-Regular" font-size="51.0" fill="#FEFFFF" transform="matrix(1.00, 0.00, -0.00, -1.00, 464.3, 312.0)">t</text><text xml:space="preserve" font-family="Lato-Regular" font-size="51.0" fill="#FEFFFF" transform="matrix(1.00, 0.00, -0.00, -1.00, 483.3, 312.0)">e</text><text xml:space="preserve" font-family="Lato-Regular" font-size="51.0" fill="#FEFFFF" transform="matrix(1.00, 0.00, -0.00, -1.00, 510.0, 312.0)">r</text><text xml:space="preserve" font-family="Lato-Regular" font-size="51.0" fill="#FEFFFF" transform="matrix(1.00, 0.00, -0.00, -1.00, 530.6, 312.0)">n</text><text xml:space="preserve" font-family="Lato-Regular" font-size="51.0" fill="#FEFFFF" transform="matrix(1.00, 0.00, -0.00, -1.00, 559.0, 312.0)">a</text><text xml:space="preserve" font-family="Lato-Regular" font-size="51.0" fill="#FEFFFF" transform="matrix(1.00, 0.00, -0.00, -1.00, 584.8, 312.0)">l</text><text xml:space="preserve" font-family="Lato-Regular" font-size="51.0" fill="#FEFFFF" transform="matrix(1.00, 0.00, -0.00, -1.00, 597.9, 312.0)"> </text><text xml:space="preserve" font-family="Lato-Regular" font-size="51.0" fill="#FEFFFF" transform="matrix(1.00, 0.00, -0.00, -1.00, 607.7, 312.0)">y</text><text xml:space="preserve" font-family="Lato-Regular" font-size="51.0" fill="#FEFFFF" transform="matrix(1.00, 0.00, -0.00, -1.00, 633.2, 312.0)">o</text><text xml:space="preserve" font-family="Lato-Regular" font-size="51.0" fill="#FEFFFF" transform="matrix(1.00, 0.00, -0.00, -1.00, 661.5, 312.0)">u</text><text xml:space="preserve" font-family="Lato-Regular" font-size="51.0" fill="#FEFFFF" transform="matrix(1.00, 0.00, -0.00, -1.00, 689.9, 312.0)">t</text><text xml:space="preserve" font-family="Lato-Regular" font-size="51.0" fill="#FEFFFF" transform="matrix(1.00, 0.00, -0.00, -1.00, 708.9, 312.0)">h</text><text xml:space="preserve" font-family="Lato-Regular" font-size="51.0" fill="#FEFFFF" transform="matrix(1.00, 0.00, -0.00, -1.00, 737.3, 312.0)"> </text><text xml:space="preserve" font-family="Lato-Regular" font-size="51.0" fill="#FEFFFF" transform="matrix(1.00, 0.00, -0.00, -1.00, 747.1, 312.0)">a</text><text xml:space="preserve" font-family="Lato-Regular" font-size="51.0" fill="#FEFFFF" transform="matrix(1.00, 0.00, -0.00, -1.00, 773.0, 312.0)">n</text><text xml:space="preserve" font-family="Lato-Regular" font-size="51.0" fill="#FEFFFF" transform="matrix(1.00, 0.00, -0.00, -1.00, 801.3, 312.0)">d</text><text xml:space="preserve" font-family="Lato-Regular" font-size="51.0" fill="#FEFFFF" transform="matrix(1.00, 0.00, -0.00, -1.00, 829.8, 312.0)"> </text><text xml:space="preserve" font-family="Lato-Regular" font-size="51.0" fill="#FEFFFF" transform="matrix(1.00, 0.00, -0.00, -1.00, 213.0, 239.0)">f</text><text xml:space="preserve" font-family="Lato-Regular" font-size="51.0" fill="#FEFFFF" transform="matrix(1.00, 0.00, -0.00, -1.00, 230.2, 239.0)">o</text><text xml:space="preserve" font-family="Lato-Regular" font-size="51.0" fill="#FEFFFF" transform="matrix(1.00, 0.00, -0.00, -1.00, 258.5, 239.0)">o</text><text xml:space="preserve" font-family="Lato-Regular" font-size="51.0" fill="#FEFFFF" transform="matrix(1.00, 0.00, -0.00, -1.00, 286.9, 239.0)">d</text><text xml:space="preserve" font-family="Lato-Regular" font-size="51.0" fill="#FEFFFF" transform="matrix(1.00, 0.00, -0.00, -1.00, 315.4, 239.0)"> </text><text xml:space="preserve" font-family="Lato-Regular" font-size="51.0" fill="#FEFFFF" transform="matrix(1.00, 0.00, -0.00, -1.00, 325.3, 239.0)">i</text><text xml:space="preserve" font-family="Lato-Regular" font-size="51.0" fill="#FEFFFF" transform="matrix(1.00, 0.00, -0.00, -1.00, 338.3, 239.0)">n</text><text xml:space="preserve" font-family="Lato-Regular" font-size="51.0" fill="#FEFFFF" transform="matrix(1.00, 0.00, -0.00, -1.00, 366.7, 239.0)"> </text><text xml:space="preserve" font-family="Lato-Regular" font-size="51.0" fill="#FEFFFF" transform="matrix(1.00, 0.00, -0.00, -1.00, 376.5, 239.0)">i</text><text xml:space="preserve" font-family="Lato-Regular" font-size="51.0" fill="#FEFFFF" transform="matrix(1.00, 0.00, -0.00, -1.00, 389.6, 239.0)">n</text><text xml:space="preserve" font-family="Lato-Regular" font-size="51.0" fill="#FEFFFF" transform="matrix(1.00, 0.00, -0.00, -1.00, 417.9, 239.0)">ﬁ</text><text xml:space="preserve" font-family="Lato-Regular" font-size="51.0" fill="#FEFFFF" transform="matrix(1.00, 0.00, -0.00, -1.00, 447.0, 239.0)">n</text><text xml:space="preserve" font-family="Lato-Regular" font-size="51.0" fill="#FEFFFF" transform="matrix(1.00, 0.00, -0.00, -1.00, 475.3, 239.0)">i</text><text xml:space="preserve" font-family="Lato-Regular" font-size="51.0" fill="#FEFFFF" transform="matrix(1.00, 0.00, -0.00, -1.00, 488.4, 239.0)">t</text><text xml:space="preserve" font-family="Lato-Regular" font-size="51.0" fill="#FEFFFF" transform="matrix(1.00, 0.00, -0.00, -1.00, 507.4, 239.0)">e</text><text xml:space="preserve" font-family="Lato-Regular" font-size="51.0" fill="#FEFFFF" transform="matrix(1.00, 0.00, -0.00, -1.00, 534.1, 239.0)"> </text><text xml:space="preserve" font-family="Lato-Regular" font-size="51.0" fill="#FEFFFF" transform="matrix(1.00, 0.00, -0.00, -1.00, 544.0, 239.0)">a</text><text xml:space="preserve" font-family="Lato-Regular" font-size="51.0" fill="#FEFFFF" transform="matrix(1.00, 0.00, -0.00, -1.00, 569.8, 239.0)">b</text><text xml:space="preserve" font-family="Lato-Regular" font-size="51.0" fill="#FEFFFF" transform="matrix(1.00, 0.00, -0.00, -1.00, 598.4, 239.0)">u</text><text xml:space="preserve" font-family="Lato-Regular" font-size="51.0" fill="#FEFFFF" transform="matrix(1.00, 0.00, -0.00, -1.00, 626.7, 239.0)">n</text><text xml:space="preserve" font-family="Lato-Regular" font-size="51.0" fill="#FEFFFF" transform="matrix(1.00, 0.00, -0.00, -1.00, 655.1, 239.0)">d</text><text xml:space="preserve" font-family="Lato-Regular" font-size="51.0" fill="#FEFFFF" transform="matrix(1.00, 0.00, -0.00, -1.00, 683.6, 239.0)">a</text><text xml:space="preserve" font-family="Lato-Regular" font-size="51.0" fill="#FEFFFF" transform="matrix(1.00, 0.00, -0.00, -1.00, 709.4, 239.0)">n</text><text xml:space="preserve" font-family="Lato-Regular" font-size="51.0" fill="#FEFFFF" transform="matrix(1.00, 0.00, -0.00, -1.00, 737.8, 239.0)">c</text><text xml:space="preserve" font-family="Lato-Regular" font-size="51.0" fill="#FEFFFF" transform="matrix(1.00, 0.00, -0.00, -1.00, 761.6, 239.0)">e</text><text xml:space="preserve" font-family="Lato-Regular" font-size="51.0" fill="#FEFFFF" transform="matrix(1.00, 0.00, -0.00, -1.00, 788.3, 239.0)">.</text><text xml:space="preserve" font-family="Lato-Regular" font-size="51.0" fill="#FEFFFF" transform="matrix(1.00, 0.00, -0.00, -1.00, 793.3, 239.0)">”</text><text xml:space="preserve" font-family="Lato-Regular" font-size="51.0" fill="#FEFFFF" transform="matrix(1.00, 0.00, -0.00, -1.00, 811.9, 239.0)"> </text></g></svg>