<?xml version="1.0" encoding="UTF-8" standalone="no"?><svg xmlns="http://www.w3.org/2000/svg" xmlns:xlink="http://www.w3.org/1999/xlink" clip-rule="evenodd" stroke-miterlimit="4.00" viewBox="0 0 1024 768"><desc>SVG generated by Keynote</desc><defs></defs><g transform="matrix(1.00, 0.00, -0.00, -1.00, 0.0, 768.0)"><path d="M 0.0 768.0 L 1024.0 768.0 L 1024.0 0.0 L 0.0 0.0 Z M 0.0 768.0 " fill="#FEFFFF"></path><text xml:space="preserve" font-family="Adventure" font-size="100.1" fill="#52575F" transform="matrix(1.00, 0.00, -0.00, -1.00, 294.0, 404.0)">T</text><text xml:space="preserve" font-family="Adventure" font-size="100.1" fill="#52575F" transform="matrix(1.00, 0.00, -0.00, -1.00, 347.8, 404.0)">H</text><text xml:space="preserve" font-family="Adventure" font-size="100.1" fill="#52575F" transform="matrix(1.00, 0.00, -0.00, -1.00, 408.9, 404.0)">E</text><text xml:space="preserve" font-family="Adventure" font-size="100.1" fill="#52575F" transform="matrix(1.00, 0.00, -0.00, -1.00, 457.8, 404.0)"> </text><text xml:space="preserve" font-family="Adventure" font-size="100.1" fill="#52575F" transform="matrix(1.00, 0.00, -0.00, -1.00, 489.6, 404.0)">S</text><text xml:space="preserve" font-family="Adventure" font-size="100.1" fill="#52575F" transform="matrix(1.00, 0.00, -0.00, -1.00, 528.7, 404.0)">A</text><text xml:space="preserve" font-family="Adventure" font-size="100.1" fill="#52575F" transform="matrix(1.00, 0.00, -0.00, -1.00, 587.3, 404.0)">M</text><text xml:space="preserve" font-family="Adventure" font-size="100.1" fill="#52575F" transform="matrix(1.00, 0.00, -0.00, -1.00, 680.2, 404.0)">E</text><text xml:space="preserve" font-family="Adventure" font-size="100.1" fill="#52575F" transform="matrix(1.00, 0.00, -0.00, -1.00, 729.1, 404.0)"> </text><text xml:space="preserve" font-family="Adventure" font-size="100.1" fill="#1BBAFF" transform="matrix(1.00, 0.00, -0.00, -1.00, 373.0, 278.0)">A</text><text xml:space="preserve" font-family="Adventure" font-size="100.1" fill="#1BBAFF" transform="matrix(1.00, 0.00, -0.00, -1.00, 431.6, 278.0)">S</text><text xml:space="preserve" font-family="Adventure" font-size="100.1" fill="#1BBAFF" transform="matrix(1.00, 0.00, -0.00, -1.00, 470.7, 278.0)">S</text><text xml:space="preserve" font-family="Adventure" font-size="100.1" fill="#1BBAFF" transform="matrix(1.00, 0.00, -0.00, -1.00, 509.8, 278.0)">E</text><text xml:space="preserve" font-family="Adventure" font-size="100.1" fill="#1BBAFF" transform="matrix(1.00, 0.00, -0.00, -1.00, 558.7, 278.0)">T</text><text xml:space="preserve" font-family="Adventure" font-size="100.1" fill="#1BBAFF" transform="matrix(1.00, 0.00, -0.00, -1.00, 612.4, 278.0)">S</text></g></svg>