<?xml version="1.0" encoding="UTF-8" standalone="no"?><svg xmlns="http://www.w3.org/2000/svg" xmlns:xlink="http://www.w3.org/1999/xlink" clip-rule="evenodd" stroke-miterlimit="4.00" viewBox="0 0 1024 768"><desc>SVG generated by Keynote</desc><defs></defs><g transform="matrix(1.00, 0.00, -0.00, -1.00, 0.0, 768.0)"><path d="M 0.0 768.0 L 1024.0 768.0 L 1024.0 0.0 L 0.0 0.0 Z M 0.0 768.0 " fill="#566291"></path><text xml:space="preserve" font-family="Lato-Regular" font-size="24.0" fill="#FEFFFF" transform="matrix(1.00, 0.00, -0.00, -1.00, 436.0, 239.0)">–</text><text xml:space="preserve" font-family="Lato-Regular" font-size="24.0" fill="#FEFFFF" transform="matrix(1.00, 0.00, -0.00, -1.00, 449.3, 239.0)"> </text><text xml:space="preserve" font-family="Lato-Regular" font-size="24.0" fill="#FEFFFF" transform="matrix(1.00, 0.00, -0.00, -1.00, 454.0, 239.0)">S</text><text xml:space="preserve" font-family="Lato-Regular" font-size="24.0" fill="#FEFFFF" transform="matrix(1.00, 0.00, -0.00, -1.00, 466.7, 239.0)">t</text><text xml:space="preserve" font-family="Lato-Regular" font-size="24.0" fill="#FEFFFF" transform="matrix(1.00, 0.00, -0.00, -1.00, 475.6, 239.0)">e</text><text xml:space="preserve" font-family="Lato-Regular" font-size="24.0" fill="#FEFFFF" transform="matrix(1.00, 0.00, -0.00, -1.00, 488.2, 239.0)">p</text><text xml:space="preserve" font-family="Lato-Regular" font-size="24.0" fill="#FEFFFF" transform="matrix(1.00, 0.00, -0.00, -1.00, 501.5, 239.0)">h</text><text xml:space="preserve" font-family="Lato-Regular" font-size="24.0" fill="#FEFFFF" transform="matrix(1.00, 0.00, -0.00, -1.00, 514.8, 239.0)">e</text><text xml:space="preserve" font-family="Lato-Regular" font-size="24.0" fill="#FEFFFF" transform="matrix(1.00, 0.00, -0.00, -1.00, 527.4, 239.0)">n</text><text xml:space="preserve" font-family="Lato-Regular" font-size="24.0" fill="#FEFFFF" transform="matrix(1.00, 0.00, -0.00, -1.00, 540.7, 239.0)"> </text><text xml:space="preserve" font-family="Lato-Regular" font-size="24.0" fill="#FEFFFF" transform="matrix(1.00, 0.00, -0.00, -1.00, 545.4, 239.0)">H</text><text xml:space="preserve" font-family="Lato-Regular" font-size="24.0" fill="#FEFFFF" transform="matrix(1.00, 0.00, -0.00, -1.00, 563.5, 239.0)">a</text><text xml:space="preserve" font-family="Lato-Regular" font-size="24.0" fill="#FEFFFF" transform="matrix(1.00, 0.00, -0.00, -1.00, 575.3, 239.0)">y</text><g><clipPath id="clip-18"><path d="M 453.2 235.7 L 587.8 235.7 L 587.8 239.2 L 453.2 239.2 Z M 453.2 235.7 "></path></clipPath><g clip-path="url(#clip-18)"><path d="M 354.2 29.6 L 487.8 29.6 " fill="none" stroke="#FEFFFF" stroke-width="1.44" stroke-miterlimit="0.00" transform="matrix(1.00, 0.00, 0.00, -1.00, 100.0, 267.0)"></path></g></g><text xml:space="preserve" font-family="Lato-Regular" font-size="38.0" fill="#FEFFFF" transform="matrix(1.00, 0.00, -0.00, -1.00, 153.0, 413.0)">“</text><text xml:space="preserve" font-family="Lato-Regular" font-size="38.0" fill="#FEFFFF" transform="matrix(1.00, 0.00, -0.00, -1.00, 167.7, 413.0)">W</text><text xml:space="preserve" font-family="Lato-Regular" font-size="38.0" fill="#FEFFFF" transform="matrix(1.00, 0.00, -0.00, -1.00, 205.9, 413.0)">e</text><text xml:space="preserve" font-family="Lato-Regular" font-size="38.0" fill="#FEFFFF" transform="matrix(1.00, 0.00, -0.00, -1.00, 224.0, 413.0)">’</text><text xml:space="preserve" font-family="Lato-Regular" font-size="38.0" fill="#FEFFFF" transform="matrix(1.00, 0.00, -0.00, -1.00, 232.1, 413.0)">r</text><text xml:space="preserve" font-family="Lato-Regular" font-size="38.0" fill="#FEFFFF" transform="matrix(1.00, 0.00, -0.00, -1.00, 247.4, 413.0)">e</text><text xml:space="preserve" font-family="Lato-Regular" font-size="38.0" fill="#FEFFFF" transform="matrix(1.00, 0.00, -0.00, -1.00, 267.3, 413.0)"> </text><text xml:space="preserve" font-family="Lato-Regular" font-size="38.0" fill="#FEFFFF" transform="matrix(1.00, 0.00, -0.00, -1.00, 274.6, 413.0)">n</text><text xml:space="preserve" font-family="Lato-Regular" font-size="38.0" fill="#FEFFFF" transform="matrix(1.00, 0.00, -0.00, -1.00, 295.8, 413.0)">o</text><text xml:space="preserve" font-family="Lato-Regular" font-size="38.0" fill="#FEFFFF" transform="matrix(1.00, 0.00, -0.00, -1.00, 316.9, 413.0)">t</text><text xml:space="preserve" font-family="Lato-Regular" font-size="38.0" fill="#FEFFFF" transform="matrix(1.00, 0.00, -0.00, -1.00, 331.1, 413.0)"> </text><text xml:space="preserve" font-family="Lato-Regular" font-size="38.0" fill="#FEFFFF" transform="matrix(1.00, 0.00, -0.00, -1.00, 338.4, 413.0)">d</text><text xml:space="preserve" font-family="Lato-Regular" font-size="38.0" fill="#FEFFFF" transform="matrix(1.00, 0.00, -0.00, -1.00, 359.6, 413.0)">e</text><text xml:space="preserve" font-family="Lato-Regular" font-size="38.0" fill="#FEFFFF" transform="matrix(1.00, 0.00, -0.00, -1.00, 379.6, 413.0)">s</text><text xml:space="preserve" font-family="Lato-Regular" font-size="38.0" fill="#FEFFFF" transform="matrix(1.00, 0.00, -0.00, -1.00, 396.0, 413.0)">i</text><text xml:space="preserve" font-family="Lato-Regular" font-size="38.0" fill="#FEFFFF" transform="matrix(1.00, 0.00, -0.00, -1.00, 405.8, 413.0)">g</text><text xml:space="preserve" font-family="Lato-Regular" font-size="38.0" fill="#FEFFFF" transform="matrix(1.00, 0.00, -0.00, -1.00, 425.2, 413.0)">n</text><text xml:space="preserve" font-family="Lato-Regular" font-size="38.0" fill="#FEFFFF" transform="matrix(1.00, 0.00, -0.00, -1.00, 446.3, 413.0)">i</text><text xml:space="preserve" font-family="Lato-Regular" font-size="38.0" fill="#FEFFFF" transform="matrix(1.00, 0.00, -0.00, -1.00, 456.1, 413.0)">n</text><text xml:space="preserve" font-family="Lato-Regular" font-size="38.0" fill="#FEFFFF" transform="matrix(1.00, 0.00, -0.00, -1.00, 477.2, 413.0)">g</text><text xml:space="preserve" font-family="Lato-Regular" font-size="38.0" fill="#FEFFFF" transform="matrix(1.00, 0.00, -0.00, -1.00, 496.6, 413.0)"> </text><text xml:space="preserve" font-family="Lato-Regular" font-size="38.0" fill="#FEFFFF" transform="matrix(1.00, 0.00, -0.00, -1.00, 503.9, 413.0)">p</text><text xml:space="preserve" font-family="Lato-Regular" font-size="38.0" fill="#FEFFFF" transform="matrix(1.00, 0.00, -0.00, -1.00, 524.9, 413.0)">a</text><text xml:space="preserve" font-family="Lato-Regular" font-size="38.0" fill="#FEFFFF" transform="matrix(1.00, 0.00, -0.00, -1.00, 544.2, 413.0)">g</text><text xml:space="preserve" font-family="Lato-Regular" font-size="38.0" fill="#FEFFFF" transform="matrix(1.00, 0.00, -0.00, -1.00, 563.6, 413.0)">e</text><text xml:space="preserve" font-family="Lato-Regular" font-size="38.0" fill="#FEFFFF" transform="matrix(1.00, 0.00, -0.00, -1.00, 583.5, 413.0)">s</text><text xml:space="preserve" font-family="Lato-Regular" font-size="38.0" fill="#FEFFFF" transform="matrix(1.00, 0.00, -0.00, -1.00, 600.0, 413.0)">,</text><text xml:space="preserve" font-family="Lato-Regular" font-size="38.0" fill="#FEFFFF" transform="matrix(1.00, 0.00, -0.00, -1.00, 608.0, 413.0)"> </text><text xml:space="preserve" font-family="Lato-Regular" font-size="38.0" fill="#FEFFFF" transform="matrix(1.00, 0.00, -0.00, -1.00, 615.4, 413.0)">w</text><text xml:space="preserve" font-family="Lato-Regular" font-size="38.0" fill="#FEFFFF" transform="matrix(1.00, 0.00, -0.00, -1.00, 644.5, 413.0)">e</text><text xml:space="preserve" font-family="Lato-Regular" font-size="38.0" fill="#FEFFFF" transform="matrix(1.00, 0.00, -0.00, -1.00, 662.7, 413.0)">’</text><text xml:space="preserve" font-family="Lato-Regular" font-size="38.0" fill="#FEFFFF" transform="matrix(1.00, 0.00, -0.00, -1.00, 670.7, 413.0)">r</text><text xml:space="preserve" font-family="Lato-Regular" font-size="38.0" fill="#FEFFFF" transform="matrix(1.00, 0.00, -0.00, -1.00, 686.0, 413.0)">e</text><text xml:space="preserve" font-family="Lato-Regular" font-size="38.0" fill="#FEFFFF" transform="matrix(1.00, 0.00, -0.00, -1.00, 705.9, 413.0)"> </text><text xml:space="preserve" font-family="Lato-Regular" font-size="38.0" fill="#FEFFFF" transform="matrix(1.00, 0.00, -0.00, -1.00, 713.3, 413.0)">d</text><text xml:space="preserve" font-family="Lato-Regular" font-size="38.0" fill="#FEFFFF" transform="matrix(1.00, 0.00, -0.00, -1.00, 734.5, 413.0)">e</text><text xml:space="preserve" font-family="Lato-Regular" font-size="38.0" fill="#FEFFFF" transform="matrix(1.00, 0.00, -0.00, -1.00, 754.4, 413.0)">s</text><text xml:space="preserve" font-family="Lato-Regular" font-size="38.0" fill="#FEFFFF" transform="matrix(1.00, 0.00, -0.00, -1.00, 770.9, 413.0)">i</text><text xml:space="preserve" font-family="Lato-Regular" font-size="38.0" fill="#FEFFFF" transform="matrix(1.00, 0.00, -0.00, -1.00, 780.6, 413.0)">g</text><text xml:space="preserve" font-family="Lato-Regular" font-size="38.0" fill="#FEFFFF" transform="matrix(1.00, 0.00, -0.00, -1.00, 800.1, 413.0)">n</text><text xml:space="preserve" font-family="Lato-Regular" font-size="38.0" fill="#FEFFFF" transform="matrix(1.00, 0.00, -0.00, -1.00, 821.2, 413.0)">i</text><text xml:space="preserve" font-family="Lato-Regular" font-size="38.0" fill="#FEFFFF" transform="matrix(1.00, 0.00, -0.00, -1.00, 830.9, 413.0)">n</text><text xml:space="preserve" font-family="Lato-Regular" font-size="38.0" fill="#FEFFFF" transform="matrix(1.00, 0.00, -0.00, -1.00, 852.0, 413.0)">g</text><text xml:space="preserve" font-family="Lato-Regular" font-size="38.0" fill="#FEFFFF" transform="matrix(1.00, 0.00, -0.00, -1.00, 871.5, 413.0)"> </text><text xml:space="preserve" font-family="Lato-Regular" font-size="38.0" fill="#FEFFFF" transform="matrix(1.00, 0.00, -0.00, -1.00, 309.0, 367.0)">s</text><text xml:space="preserve" font-family="Lato-Regular" font-size="38.0" fill="#FEFFFF" transform="matrix(1.00, 0.00, -0.00, -1.00, 325.5, 367.0)">y</text><text xml:space="preserve" font-family="Lato-Regular" font-size="38.0" fill="#FEFFFF" transform="matrix(1.00, 0.00, -0.00, -1.00, 344.9, 367.0)">s</text><text xml:space="preserve" font-family="Lato-Regular" font-size="38.0" fill="#FEFFFF" transform="matrix(1.00, 0.00, -0.00, -1.00, 361.4, 367.0)">t</text><text xml:space="preserve" font-family="Lato-Regular" font-size="38.0" fill="#FEFFFF" transform="matrix(1.00, 0.00, -0.00, -1.00, 375.6, 367.0)">e</text><text xml:space="preserve" font-family="Lato-Regular" font-size="38.0" fill="#FEFFFF" transform="matrix(1.00, 0.00, -0.00, -1.00, 395.5, 367.0)">m</text><text xml:space="preserve" font-family="Lato-Regular" font-size="38.0" fill="#FEFFFF" transform="matrix(1.00, 0.00, -0.00, -1.00, 426.7, 367.0)">s</text><text xml:space="preserve" font-family="Lato-Regular" font-size="38.0" fill="#FEFFFF" transform="matrix(1.00, 0.00, -0.00, -1.00, 443.2, 367.0)"> </text><text xml:space="preserve" font-family="Lato-Regular" font-size="38.0" fill="#FEFFFF" transform="matrix(1.00, 0.00, -0.00, -1.00, 450.6, 367.0)">o</text><text xml:space="preserve" font-family="Lato-Regular" font-size="38.0" fill="#FEFFFF" transform="matrix(1.00, 0.00, -0.00, -1.00, 471.7, 367.0)">f</text><text xml:space="preserve" font-family="Lato-Regular" font-size="38.0" fill="#FEFFFF" transform="matrix(1.00, 0.00, -0.00, -1.00, 484.5, 367.0)"> </text><text xml:space="preserve" font-family="Lato-Regular" font-size="38.0" fill="#FEFFFF" transform="matrix(1.00, 0.00, -0.00, -1.00, 491.8, 367.0)">c</text><text xml:space="preserve" font-family="Lato-Regular" font-size="38.0" fill="#FEFFFF" transform="matrix(1.00, 0.00, -0.00, -1.00, 509.6, 367.0)">o</text><text xml:space="preserve" font-family="Lato-Regular" font-size="38.0" fill="#FEFFFF" transform="matrix(1.00, 0.00, -0.00, -1.00, 530.7, 367.0)">m</text><text xml:space="preserve" font-family="Lato-Regular" font-size="38.0" fill="#FEFFFF" transform="matrix(1.00, 0.00, -0.00, -1.00, 561.9, 367.0)">p</text><text xml:space="preserve" font-family="Lato-Regular" font-size="38.0" fill="#FEFFFF" transform="matrix(1.00, 0.00, -0.00, -1.00, 582.9, 367.0)">o</text><text xml:space="preserve" font-family="Lato-Regular" font-size="38.0" fill="#FEFFFF" transform="matrix(1.00, 0.00, -0.00, -1.00, 604.0, 367.0)">n</text><text xml:space="preserve" font-family="Lato-Regular" font-size="38.0" fill="#FEFFFF" transform="matrix(1.00, 0.00, -0.00, -1.00, 625.1, 367.0)">e</text><text xml:space="preserve" font-family="Lato-Regular" font-size="38.0" fill="#FEFFFF" transform="matrix(1.00, 0.00, -0.00, -1.00, 645.0, 367.0)">n</text><text xml:space="preserve" font-family="Lato-Regular" font-size="38.0" fill="#FEFFFF" transform="matrix(1.00, 0.00, -0.00, -1.00, 666.2, 367.0)">t</text><text xml:space="preserve" font-family="Lato-Regular" font-size="38.0" fill="#FEFFFF" transform="matrix(1.00, 0.00, -0.00, -1.00, 680.3, 367.0)">s</text><text xml:space="preserve" font-family="Lato-Regular" font-size="38.0" fill="#FEFFFF" transform="matrix(1.00, 0.00, -0.00, -1.00, 696.8, 367.0)">.</text><text xml:space="preserve" font-family="Lato-Regular" font-size="38.0" fill="#FEFFFF" transform="matrix(1.00, 0.00, -0.00, -1.00, 700.6, 367.0)">”</text><text xml:space="preserve" font-family="Lato-Regular" font-size="38.0" fill="#FEFFFF" transform="matrix(1.00, 0.00, -0.00, -1.00, 714.4, 367.0)"> </text></g></svg>