<?xml version="1.0" encoding="UTF-8" standalone="no"?><svg xmlns="http://www.w3.org/2000/svg" xmlns:xlink="http://www.w3.org/1999/xlink" clip-rule="evenodd" stroke-miterlimit="4.00" viewBox="0 0 768 39"><desc>SVG generated by Keynote</desc><defs></defs><g transform="matrix(1.00, 0.00, -0.00, -1.00, 0.0, 39.0)"><text xml:space="preserve" font-family="Lato-Light" font-size="27.0" fill="#000000" transform="matrix(1.00, 0.00, -0.00, -1.00, 0.0, 12.3)">•</text><text xml:space="preserve" font-family="Lato-Light" font-size="36.0" fill="#000000" transform="matrix(1.00, 0.00, -0.00, -1.00, 35.0, 9.0)">C</text><text xml:space="preserve" font-family="Lato-Light" font-size="36.0" fill="#000000" transform="matrix(1.00, 0.00, -0.00, -1.00, 60.3, 9.0)">r</text><text xml:space="preserve" font-family="Lato-Light" font-size="36.0" fill="#000000" transform="matrix(1.00, 0.00, -0.00, -1.00, 74.6, 9.0)">e</text><text xml:space="preserve" font-family="Lato-Light" font-size="36.0" fill="#000000" transform="matrix(1.00, 0.00, -0.00, -1.00, 93.0, 9.0)">a</text><text xml:space="preserve" font-family="Lato-Light" font-size="36.0" fill="#000000" transform="matrix(1.00, 0.00, -0.00, -1.00, 110.5, 9.0)">t</text><text xml:space="preserve" font-family="Lato-Light" font-size="36.0" fill="#000000" transform="matrix(1.00, 0.00, -0.00, -1.00, 123.3, 9.0)">e</text><text xml:space="preserve" font-family="Lato-Light" font-size="36.0" fill="#000000" transform="matrix(1.00, 0.00, -0.00, -1.00, 141.7, 9.0)"> </text><text xml:space="preserve" font-family="Lato-Light" font-size="36.0" fill="#000000" transform="matrix(1.00, 0.00, -0.00, -1.00, 148.7, 9.0)">a</text><text xml:space="preserve" font-family="Lato-Light" font-size="36.0" fill="#000000" transform="matrix(1.00, 0.00, -0.00, -1.00, 166.1, 9.0)"> </text><text xml:space="preserve" font-family="Lato-Light" font-size="36.0" fill="#000000" transform="matrix(1.00, 0.00, -0.00, -1.00, 173.1, 9.0)">d</text><text xml:space="preserve" font-family="Lato-Light" font-size="36.0" fill="#000000" transform="matrix(1.00, 0.00, -0.00, -1.00, 192.8, 9.0)">e</text><text xml:space="preserve" font-family="Lato-Light" font-size="36.0" fill="#000000" transform="matrix(1.00, 0.00, -0.00, -1.00, 211.1, 9.0)">s</text><text xml:space="preserve" font-family="Lato-Light" font-size="36.0" fill="#000000" transform="matrix(1.00, 0.00, -0.00, -1.00, 226.6, 9.0)">i</text><text xml:space="preserve" font-family="Lato-Light" font-size="36.0" fill="#000000" transform="matrix(1.00, 0.00, -0.00, -1.00, 235.2, 9.0)">g</text><text xml:space="preserve" font-family="Lato-Light" font-size="36.0" fill="#000000" transform="matrix(1.00, 0.00, -0.00, -1.00, 253.3, 9.0)">n</text><text xml:space="preserve" font-family="Lato-Light" font-size="36.0" fill="#000000" transform="matrix(1.00, 0.00, -0.00, -1.00, 272.8, 9.0)"> </text><text xml:space="preserve" font-family="Lato-Light" font-size="36.0" fill="#000000" transform="matrix(1.00, 0.00, -0.00, -1.00, 279.7, 9.0)">s</text><text xml:space="preserve" font-family="Lato-Light" font-size="36.0" fill="#000000" transform="matrix(1.00, 0.00, -0.00, -1.00, 295.2, 9.0)">y</text><text xml:space="preserve" font-family="Lato-Light" font-size="36.0" fill="#000000" transform="matrix(1.00, 0.00, -0.00, -1.00, 312.7, 9.0)">s</text><text xml:space="preserve" font-family="Lato-Light" font-size="36.0" fill="#000000" transform="matrix(1.00, 0.00, -0.00, -1.00, 328.2, 9.0)">t</text><text xml:space="preserve" font-family="Lato-Light" font-size="36.0" fill="#000000" transform="matrix(1.00, 0.00, -0.00, -1.00, 341.0, 9.0)">e</text><text xml:space="preserve" font-family="Lato-Light" font-size="36.0" fill="#000000" transform="matrix(1.00, 0.00, -0.00, -1.00, 359.4, 9.0)">m</text><text xml:space="preserve" font-family="Lato-Light" font-size="36.0" fill="#000000" transform="matrix(1.00, 0.00, -0.00, -1.00, 388.1, 9.0)">,</text><text xml:space="preserve" font-family="Lato-Light" font-size="36.0" fill="#000000" transform="matrix(1.00, 0.00, -0.00, -1.00, 395.1, 9.0)"> </text><text xml:space="preserve" font-family="Lato-Light" font-size="36.0" fill="#000000" transform="matrix(1.00, 0.00, -0.00, -1.00, 402.1, 9.0)">d</text><text xml:space="preserve" font-family="Lato-Light" font-size="36.0" fill="#000000" transform="matrix(1.00, 0.00, -0.00, -1.00, 421.7, 9.0)">e</text><text xml:space="preserve" font-family="Lato-Light" font-size="36.0" fill="#000000" transform="matrix(1.00, 0.00, -0.00, -1.00, 439.8, 9.0)">v</text><text xml:space="preserve" font-family="Lato-Light" font-size="36.0" fill="#000000" transform="matrix(1.00, 0.00, -0.00, -1.00, 457.0, 9.0)">e</text><text xml:space="preserve" font-family="Lato-Light" font-size="36.0" fill="#000000" transform="matrix(1.00, 0.00, -0.00, -1.00, 475.4, 9.0)">l</text><text xml:space="preserve" font-family="Lato-Light" font-size="36.0" fill="#000000" transform="matrix(1.00, 0.00, -0.00, -1.00, 484.0, 9.0)">o</text><text xml:space="preserve" font-family="Lato-Light" font-size="36.0" fill="#000000" transform="matrix(1.00, 0.00, -0.00, -1.00, 503.4, 9.0)">p</text><text xml:space="preserve" font-family="Lato-Light" font-size="36.0" fill="#000000" transform="matrix(1.00, 0.00, -0.00, -1.00, 522.7, 9.0)"> </text><text xml:space="preserve" font-family="Lato-Light" font-size="36.0" fill="#000000" transform="matrix(1.00, 0.00, -0.00, -1.00, 529.6, 9.0)">a</text><text xml:space="preserve" font-family="Lato-Light" font-size="36.0" fill="#000000" transform="matrix(1.00, 0.00, -0.00, -1.00, 547.1, 9.0)"> </text><text xml:space="preserve" font-family="Lato-Light" font-size="36.0" fill="#000000" transform="matrix(1.00, 0.00, -0.00, -1.00, 554.1, 9.0)">d</text><text xml:space="preserve" font-family="Lato-Light" font-size="36.0" fill="#000000" transform="matrix(1.00, 0.00, -0.00, -1.00, 573.7, 9.0)">e</text><text xml:space="preserve" font-family="Lato-Light" font-size="36.0" fill="#000000" transform="matrix(1.00, 0.00, -0.00, -1.00, 592.1, 9.0)">s</text><text xml:space="preserve" font-family="Lato-Light" font-size="36.0" fill="#000000" transform="matrix(1.00, 0.00, -0.00, -1.00, 607.6, 9.0)">i</text><text xml:space="preserve" font-family="Lato-Light" font-size="36.0" fill="#000000" transform="matrix(1.00, 0.00, -0.00, -1.00, 616.1, 9.0)">g</text><text xml:space="preserve" font-family="Lato-Light" font-size="36.0" fill="#000000" transform="matrix(1.00, 0.00, -0.00, -1.00, 634.3, 9.0)">n</text><text xml:space="preserve" font-family="Lato-Light" font-size="36.0" fill="#000000" transform="matrix(1.00, 0.00, -0.00, -1.00, 653.8, 9.0)"> </text><text xml:space="preserve" font-family="Lato-Light" font-size="36.0" fill="#000000" transform="matrix(1.00, 0.00, -0.00, -1.00, 660.7, 9.0)">s</text><text xml:space="preserve" font-family="Lato-Light" font-size="36.0" fill="#000000" transform="matrix(1.00, 0.00, -0.00, -1.00, 676.2, 9.0)">y</text><text xml:space="preserve" font-family="Lato-Light" font-size="36.0" fill="#000000" transform="matrix(1.00, 0.00, -0.00, -1.00, 693.7, 9.0)">s</text><text xml:space="preserve" font-family="Lato-Light" font-size="36.0" fill="#000000" transform="matrix(1.00, 0.00, -0.00, -1.00, 709.2, 9.0)">t</text><text xml:space="preserve" font-family="Lato-Light" font-size="36.0" fill="#000000" transform="matrix(1.00, 0.00, -0.00, -1.00, 722.0, 9.0)">e</text><text xml:space="preserve" font-family="Lato-Light" font-size="36.0" fill="#000000" transform="matrix(1.00, 0.00, -0.00, -1.00, 740.4, 9.0)">m</text></g></svg>