<?xml version="1.0" encoding="UTF-8" standalone="no"?><svg xmlns="http://www.w3.org/2000/svg" xmlns:xlink="http://www.w3.org/1999/xlink" clip-rule="evenodd" stroke-miterlimit="4.00" viewBox="0 0 468 39"><desc>SVG generated by Keynote</desc><defs></defs><g transform="matrix(1.00, 0.00, -0.00, -1.00, 0.0, 39.0)"><text xml:space="preserve" font-family="Lato-Light" font-size="27.0" fill="#000000" transform="matrix(1.00, 0.00, -0.00, -1.00, 0.0, 12.3)">•</text><text xml:space="preserve" font-family="Lato-Light" font-size="36.0" fill="#000000" transform="matrix(1.00, 0.00, -0.00, -1.00, 35.0, 9.0)">D</text><text xml:space="preserve" font-family="Lato-Light" font-size="36.0" fill="#000000" transform="matrix(1.00, 0.00, -0.00, -1.00, 62.4, 9.0)">e</text><text xml:space="preserve" font-family="Lato-Light" font-size="36.0" fill="#000000" transform="matrix(1.00, 0.00, -0.00, -1.00, 80.8, 9.0)">s</text><text xml:space="preserve" font-family="Lato-Light" font-size="36.0" fill="#000000" transform="matrix(1.00, 0.00, -0.00, -1.00, 96.2, 9.0)">i</text><text xml:space="preserve" font-family="Lato-Light" font-size="36.0" fill="#000000" transform="matrix(1.00, 0.00, -0.00, -1.00, 104.8, 9.0)">g</text><text xml:space="preserve" font-family="Lato-Light" font-size="36.0" fill="#000000" transform="matrix(1.00, 0.00, -0.00, -1.00, 122.9, 9.0)">n</text><text xml:space="preserve" font-family="Lato-Light" font-size="36.0" fill="#000000" transform="matrix(1.00, 0.00, -0.00, -1.00, 142.4, 9.0)"> </text><text xml:space="preserve" font-family="Lato-Light" font-size="36.0" fill="#000000" transform="matrix(1.00, 0.00, -0.00, -1.00, 149.3, 9.0)">p</text><text xml:space="preserve" font-family="Lato-Light" font-size="36.0" fill="#000000" transform="matrix(1.00, 0.00, -0.00, -1.00, 168.6, 9.0)">a</text><text xml:space="preserve" font-family="Lato-Light" font-size="36.0" fill="#000000" transform="matrix(1.00, 0.00, -0.00, -1.00, 186.1, 9.0)">g</text><text xml:space="preserve" font-family="Lato-Light" font-size="36.0" fill="#000000" transform="matrix(1.00, 0.00, -0.00, -1.00, 204.2, 9.0)">e</text><text xml:space="preserve" font-family="Lato-Light" font-size="36.0" fill="#000000" transform="matrix(1.00, 0.00, -0.00, -1.00, 222.6, 9.0)">s</text><text xml:space="preserve" font-family="Lato-Light" font-size="36.0" fill="#000000" transform="matrix(1.00, 0.00, -0.00, -1.00, 238.1, 9.0)">,</text><text xml:space="preserve" font-family="Lato-Light" font-size="36.0" fill="#000000" transform="matrix(1.00, 0.00, -0.00, -1.00, 245.2, 9.0)"> </text><text xml:space="preserve" font-family="Lato-Light" font-size="36.0" fill="#000000" transform="matrix(1.00, 0.00, -0.00, -1.00, 252.2, 9.0)">d</text><text xml:space="preserve" font-family="Lato-Light" font-size="36.0" fill="#000000" transform="matrix(1.00, 0.00, -0.00, -1.00, 271.8, 9.0)">e</text><text xml:space="preserve" font-family="Lato-Light" font-size="36.0" fill="#000000" transform="matrix(1.00, 0.00, -0.00, -1.00, 289.9, 9.0)">v</text><text xml:space="preserve" font-family="Lato-Light" font-size="36.0" fill="#000000" transform="matrix(1.00, 0.00, -0.00, -1.00, 307.1, 9.0)">e</text><text xml:space="preserve" font-family="Lato-Light" font-size="36.0" fill="#000000" transform="matrix(1.00, 0.00, -0.00, -1.00, 325.5, 9.0)">l</text><text xml:space="preserve" font-family="Lato-Light" font-size="36.0" fill="#000000" transform="matrix(1.00, 0.00, -0.00, -1.00, 334.0, 9.0)">o</text><text xml:space="preserve" font-family="Lato-Light" font-size="36.0" fill="#000000" transform="matrix(1.00, 0.00, -0.00, -1.00, 353.5, 9.0)">p</text><text xml:space="preserve" font-family="Lato-Light" font-size="36.0" fill="#000000" transform="matrix(1.00, 0.00, -0.00, -1.00, 372.8, 9.0)"> </text><text xml:space="preserve" font-family="Lato-Light" font-size="36.0" fill="#000000" transform="matrix(1.00, 0.00, -0.00, -1.00, 379.7, 9.0)">p</text><text xml:space="preserve" font-family="Lato-Light" font-size="36.0" fill="#000000" transform="matrix(1.00, 0.00, -0.00, -1.00, 399.0, 9.0)">a</text><text xml:space="preserve" font-family="Lato-Light" font-size="36.0" fill="#000000" transform="matrix(1.00, 0.00, -0.00, -1.00, 416.5, 9.0)">g</text><text xml:space="preserve" font-family="Lato-Light" font-size="36.0" fill="#000000" transform="matrix(1.00, 0.00, -0.00, -1.00, 434.6, 9.0)">e</text><text xml:space="preserve" font-family="Lato-Light" font-size="36.0" fill="#000000" transform="matrix(1.00, 0.00, -0.00, -1.00, 453.0, 9.0)">s</text></g></svg>