<?xml version="1.0" encoding="UTF-8" standalone="no"?><svg xmlns="http://www.w3.org/2000/svg" xmlns:xlink="http://www.w3.org/1999/xlink" clip-rule="evenodd" stroke-miterlimit="4.00" viewBox="0 0 1024 768"><desc>SVG generated by Keynote</desc><defs></defs><g transform="matrix(1.00, 0.00, -0.00, -1.00, 0.0, 768.0)"><path d="M 0.0 768.0 L 1024.0 768.0 L 1024.0 0.0 L 0.0 0.0 Z M 0.0 768.0 " fill="#FEFFFF"></path><text xml:space="preserve" font-family="Adventure" font-size="48.0" fill="#000000" transform="matrix(1.00, 0.00, -0.00, -1.00, 159.0, 429.0)">K</text><text xml:space="preserve" font-family="Adventure" font-size="48.0" fill="#000000" transform="matrix(1.00, 0.00, -0.00, -1.00, 187.1, 429.0)">N</text><text xml:space="preserve" font-family="Adventure" font-size="48.0" fill="#000000" transform="matrix(1.00, 0.00, -0.00, -1.00, 215.2, 429.0)">O</text><text xml:space="preserve" font-family="Adventure" font-size="48.0" fill="#000000" transform="matrix(1.00, 0.00, -0.00, -1.00, 248.0, 429.0)">W</text><text xml:space="preserve" font-family="Adventure" font-size="48.0" fill="#000000" transform="matrix(1.00, 0.00, -0.00, -1.00, 290.2, 429.0)">I</text><text xml:space="preserve" font-family="Adventure" font-size="48.0" fill="#000000" transform="matrix(1.00, 0.00, -0.00, -1.00, 312.5, 429.0)">N</text><text xml:space="preserve" font-family="Adventure" font-size="48.0" fill="#000000" transform="matrix(1.00, 0.00, -0.00, -1.00, 340.6, 429.0)">G</text><text xml:space="preserve" font-family="Adventure" font-size="48.0" fill="#000000" transform="matrix(1.00, 0.00, -0.00, -1.00, 374.6, 429.0)"> </text><text xml:space="preserve" font-family="Adventure" font-size="48.0" fill="#000000" transform="matrix(1.00, 0.00, -0.00, -1.00, 389.9, 429.0)">W</text><text xml:space="preserve" font-family="Adventure" font-size="48.0" fill="#000000" transform="matrix(1.00, 0.00, -0.00, -1.00, 432.1, 429.0)">H</text><text xml:space="preserve" font-family="Adventure" font-size="48.0" fill="#000000" transform="matrix(1.00, 0.00, -0.00, -1.00, 461.4, 429.0)">E</text><text xml:space="preserve" font-family="Adventure" font-size="48.0" fill="#000000" transform="matrix(1.00, 0.00, -0.00, -1.00, 484.8, 429.0)">N</text><text xml:space="preserve" font-family="Adventure" font-size="48.0" fill="#000000" transform="matrix(1.00, 0.00, -0.00, -1.00, 513.0, 429.0)"> </text><text xml:space="preserve" font-family="Adventure" font-size="48.0" fill="#000000" transform="matrix(1.00, 0.00, -0.00, -1.00, 528.3, 429.0)">T</text><text xml:space="preserve" font-family="Adventure" font-size="48.0" fill="#000000" transform="matrix(1.00, 0.00, -0.00, -1.00, 554.0, 429.0)">O</text><text xml:space="preserve" font-family="Adventure" font-size="48.0" fill="#000000" transform="matrix(1.00, 0.00, -0.00, -1.00, 586.8, 429.0)"> </text><text xml:space="preserve" font-family="Adventure" font-size="48.0" fill="#000000" transform="matrix(1.00, 0.00, -0.00, -1.00, 602.1, 429.0)">H</text><text xml:space="preserve" font-family="Adventure" font-size="48.0" fill="#000000" transform="matrix(1.00, 0.00, -0.00, -1.00, 631.4, 429.0)">A</text><text xml:space="preserve" font-family="Adventure" font-size="48.0" fill="#000000" transform="matrix(1.00, 0.00, -0.00, -1.00, 659.6, 429.0)">R</text><text xml:space="preserve" font-family="Adventure" font-size="48.0" fill="#000000" transform="matrix(1.00, 0.00, -0.00, -1.00, 688.9, 429.0)">D</text><text xml:space="preserve" font-family="Adventure" font-size="48.0" fill="#000000" transform="matrix(1.00, 0.00, -0.00, -1.00, 717.0, 429.0)">-</text><text xml:space="preserve" font-family="Adventure" font-size="48.0" fill="#000000" transform="matrix(1.00, 0.00, -0.00, -1.00, 738.1, 429.0)">C</text><text xml:space="preserve" font-family="Adventure" font-size="48.0" fill="#000000" transform="matrix(1.00, 0.00, -0.00, -1.00, 769.8, 429.0)">O</text><text xml:space="preserve" font-family="Adventure" font-size="48.0" fill="#000000" transform="matrix(1.00, 0.00, -0.00, -1.00, 802.6, 429.0)">D</text><text xml:space="preserve" font-family="Adventure" font-size="48.0" fill="#000000" transform="matrix(1.00, 0.00, -0.00, -1.00, 830.7, 429.0)">E</text><text xml:space="preserve" font-family="Adventure" font-size="48.0" fill="#000000" transform="matrix(1.00, 0.00, -0.00, -1.00, 854.1, 429.0)">.</text><text xml:space="preserve" font-family="Adventure" font-size="48.0" fill="#000000" transform="matrix(1.00, 0.00, -0.00, -1.00, 865.8, 429.0)"> </text><text xml:space="preserve" font-family="Adventure" font-size="48.0" fill="#000000" transform="matrix(1.00, 0.00, -0.00, -1.00, 185.0, 368.0)">D</text><text xml:space="preserve" font-family="Adventure" font-size="48.0" fill="#000000" transform="matrix(1.00, 0.00, -0.00, -1.00, 213.1, 368.0)">O</text><text xml:space="preserve" font-family="Adventure" font-size="48.0" fill="#000000" transform="matrix(1.00, 0.00, -0.00, -1.00, 245.9, 368.0)">N</text><text xml:space="preserve" font-family="Adventure" font-size="48.0" fill="#000000" transform="matrix(1.00, 0.00, -0.00, -1.00, 274.0, 368.0)">'</text><text xml:space="preserve" font-family="Adventure" font-size="48.0" fill="#000000" transform="matrix(1.00, 0.00, -0.00, -1.00, 285.8, 368.0)">T</text><text xml:space="preserve" font-family="Adventure" font-size="48.0" fill="#000000" transform="matrix(1.00, 0.00, -0.00, -1.00, 311.5, 368.0)"> </text><text xml:space="preserve" font-family="Adventure" font-size="48.0" fill="#000000" transform="matrix(1.00, 0.00, -0.00, -1.00, 326.8, 368.0)">A</text><text xml:space="preserve" font-family="Adventure" font-size="48.0" fill="#000000" transform="matrix(1.00, 0.00, -0.00, -1.00, 355.0, 368.0)">B</text><text xml:space="preserve" font-family="Adventure" font-size="48.0" fill="#000000" transform="matrix(1.00, 0.00, -0.00, -1.00, 383.1, 368.0)">S</text><text xml:space="preserve" font-family="Adventure" font-size="48.0" fill="#000000" transform="matrix(1.00, 0.00, -0.00, -1.00, 401.8, 368.0)">T</text><text xml:space="preserve" font-family="Adventure" font-size="48.0" fill="#000000" transform="matrix(1.00, 0.00, -0.00, -1.00, 427.6, 368.0)">R</text><text xml:space="preserve" font-family="Adventure" font-size="48.0" fill="#000000" transform="matrix(1.00, 0.00, -0.00, -1.00, 456.9, 368.0)">A</text><text xml:space="preserve" font-family="Adventure" font-size="48.0" fill="#000000" transform="matrix(1.00, 0.00, -0.00, -1.00, 485.0, 368.0)">C</text><text xml:space="preserve" font-family="Adventure" font-size="48.0" fill="#000000" transform="matrix(1.00, 0.00, -0.00, -1.00, 516.7, 368.0)">T</text><text xml:space="preserve" font-family="Adventure" font-size="48.0" fill="#000000" transform="matrix(1.00, 0.00, -0.00, -1.00, 542.5, 368.0)"> </text><text xml:space="preserve" font-family="Adventure" font-size="48.0" fill="#000000" transform="matrix(1.00, 0.00, -0.00, -1.00, 557.8, 368.0)">E</text><text xml:space="preserve" font-family="Adventure" font-size="48.0" fill="#000000" transform="matrix(1.00, 0.00, -0.00, -1.00, 581.2, 368.0)">V</text><text xml:space="preserve" font-family="Adventure" font-size="48.0" fill="#000000" transform="matrix(1.00, 0.00, -0.00, -1.00, 609.3, 368.0)">E</text><text xml:space="preserve" font-family="Adventure" font-size="48.0" fill="#000000" transform="matrix(1.00, 0.00, -0.00, -1.00, 632.8, 368.0)">R</text><text xml:space="preserve" font-family="Adventure" font-size="48.0" fill="#000000" transform="matrix(1.00, 0.00, -0.00, -1.00, 662.1, 368.0)">Y</text><text xml:space="preserve" font-family="Adventure" font-size="48.0" fill="#000000" transform="matrix(1.00, 0.00, -0.00, -1.00, 687.9, 368.0)">T</text><text xml:space="preserve" font-family="Adventure" font-size="48.0" fill="#000000" transform="matrix(1.00, 0.00, -0.00, -1.00, 713.7, 368.0)">H</text><text xml:space="preserve" font-family="Adventure" font-size="48.0" fill="#000000" transform="matrix(1.00, 0.00, -0.00, -1.00, 743.0, 368.0)">I</text><text xml:space="preserve" font-family="Adventure" font-size="48.0" fill="#000000" transform="matrix(1.00, 0.00, -0.00, -1.00, 765.3, 368.0)">N</text><text xml:space="preserve" font-family="Adventure" font-size="48.0" fill="#000000" transform="matrix(1.00, 0.00, -0.00, -1.00, 793.4, 368.0)">G</text><text xml:space="preserve" font-family="Adventure" font-size="48.0" fill="#000000" transform="matrix(1.00, 0.00, -0.00, -1.00, 827.4, 368.0)">.</text><text xml:space="preserve" font-family="Lato-Regular" font-size="36.0" fill="#000000" transform="matrix(1.00, 0.00, -0.00, -1.00, 403.0, 150.0)">V</text><text xml:space="preserve" font-family="Lato-Regular" font-size="36.0" fill="#000000" transform="matrix(1.00, 0.00, -0.00, -1.00, 427.5, 150.0)">i</text><text xml:space="preserve" font-family="Lato-Regular" font-size="36.0" fill="#000000" transform="matrix(1.00, 0.00, -0.00, -1.00, 436.7, 150.0)">e</text><text xml:space="preserve" font-family="Lato-Regular" font-size="36.0" fill="#000000" transform="matrix(1.00, 0.00, -0.00, -1.00, 455.6, 150.0)">w</text><text xml:space="preserve" font-family="Lato-Regular" font-size="36.0" fill="#000000" transform="matrix(1.00, 0.00, -0.00, -1.00, 483.1, 150.0)"> </text><text xml:space="preserve" font-family="Lato-Regular" font-size="36.0" fill="#000000" transform="matrix(1.00, 0.00, -0.00, -1.00, 490.1, 150.0)">e</text><text xml:space="preserve" font-family="Lato-Regular" font-size="36.0" fill="#000000" transform="matrix(1.00, 0.00, -0.00, -1.00, 507.9, 150.0)">x</text><text xml:space="preserve" font-family="Lato-Regular" font-size="36.0" fill="#000000" transform="matrix(1.00, 0.00, -0.00, -1.00, 526.0, 150.0)">a</text><text xml:space="preserve" font-family="Lato-Regular" font-size="36.0" fill="#000000" transform="matrix(1.00, 0.00, -0.00, -1.00, 544.3, 150.0)">m</text><text xml:space="preserve" font-family="Lato-Regular" font-size="36.0" fill="#000000" transform="matrix(1.00, 0.00, -0.00, -1.00, 573.8, 150.0)">p</text><text xml:space="preserve" font-family="Lato-Regular" font-size="36.0" fill="#000000" transform="matrix(1.00, 0.00, -0.00, -1.00, 593.7, 150.0)">l</text><text xml:space="preserve" font-family="Lato-Regular" font-size="36.0" fill="#000000" transform="matrix(1.00, 0.00, -0.00, -1.00, 602.9, 150.0)">e</text><g><clipPath id="clip-29"><path d="M 401.6 145.1 L 621.4 145.1 L 621.4 149.2 L 401.6 149.2 Z M 401.6 145.1 "></path></clipPath><g clip-path="url(#clip-29)"><path d="M 4.5 42.9 L 223.3 42.9 " fill="none" stroke="#000000" stroke-width="2.16" stroke-miterlimit="0.00" transform="matrix(1.00, 0.00, 0.00, -1.00, 398.1, 190.0)"></path></g></g></g></svg>