<?xml version="1.0" encoding="UTF-8" standalone="no"?><svg xmlns="http://www.w3.org/2000/svg" xmlns:xlink="http://www.w3.org/1999/xlink" clip-rule="evenodd" stroke-miterlimit="4.00" viewBox="0 0 1024 768"><desc>SVG generated by Keynote</desc><defs></defs><g transform="matrix(1.00, 0.00, -0.00, -1.00, 0.0, 768.0)"><path d="M 0.0 768.0 L 1024.0 768.0 L 1024.0 0.0 L 0.0 0.0 Z M 0.0 768.0 " fill="#566291"></path><text xml:space="preserve" font-family="Lato-Regular" font-size="38.0" fill="#FEFFFF" transform="matrix(1.00, 0.00, -0.00, -1.00, 120.0, 436.0)">“</text><text xml:space="preserve" font-family="Lato-Regular" font-size="38.0" fill="#FEFFFF" transform="matrix(1.00, 0.00, -0.00, -1.00, 130.4, 436.0)">A</text><text xml:space="preserve" font-family="Lato-Regular" font-size="38.0" fill="#FEFFFF" transform="matrix(1.00, 0.00, -0.00, -1.00, 156.2, 436.0)"> </text><text xml:space="preserve" font-family="Lato-Regular" font-size="38.0" fill="#FEFFFF" transform="matrix(1.00, 0.00, -0.00, -1.00, 163.5, 436.0)">f</text><text xml:space="preserve" font-family="Lato-Regular" font-size="38.0" fill="#FEFFFF" transform="matrix(1.00, 0.00, -0.00, -1.00, 176.4, 436.0)">a</text><text xml:space="preserve" font-family="Lato-Regular" font-size="38.0" fill="#FEFFFF" transform="matrix(1.00, 0.00, -0.00, -1.00, 195.6, 436.0)">s</text><text xml:space="preserve" font-family="Lato-Regular" font-size="38.0" fill="#FEFFFF" transform="matrix(1.00, 0.00, -0.00, -1.00, 212.1, 436.0)">t</text><text xml:space="preserve" font-family="Lato-Regular" font-size="38.0" fill="#FEFFFF" transform="matrix(1.00, 0.00, -0.00, -1.00, 226.3, 436.0)">e</text><text xml:space="preserve" font-family="Lato-Regular" font-size="38.0" fill="#FEFFFF" transform="matrix(1.00, 0.00, -0.00, -1.00, 246.2, 436.0)">r</text><text xml:space="preserve" font-family="Lato-Regular" font-size="38.0" fill="#FEFFFF" transform="matrix(1.00, 0.00, -0.00, -1.00, 259.0, 436.0)">,</text><text xml:space="preserve" font-family="Lato-Regular" font-size="38.0" fill="#FEFFFF" transform="matrix(1.00, 0.00, -0.00, -1.00, 267.1, 436.0)"> </text><text xml:space="preserve" font-family="Lato-Regular" font-size="38.0" fill="#FEFFFF" transform="matrix(1.00, 0.00, -0.00, -1.00, 274.4, 436.0)">e</text><text xml:space="preserve" font-family="Lato-Regular" font-size="38.0" fill="#FEFFFF" transform="matrix(1.00, 0.00, -0.00, -1.00, 294.3, 436.0)">a</text><text xml:space="preserve" font-family="Lato-Regular" font-size="38.0" fill="#FEFFFF" transform="matrix(1.00, 0.00, -0.00, -1.00, 313.6, 436.0)">s</text><text xml:space="preserve" font-family="Lato-Regular" font-size="38.0" fill="#FEFFFF" transform="matrix(1.00, 0.00, -0.00, -1.00, 330.1, 436.0)">i</text><text xml:space="preserve" font-family="Lato-Regular" font-size="38.0" fill="#FEFFFF" transform="matrix(1.00, 0.00, -0.00, -1.00, 339.8, 436.0)">e</text><text xml:space="preserve" font-family="Lato-Regular" font-size="38.0" fill="#FEFFFF" transform="matrix(1.00, 0.00, -0.00, -1.00, 359.7, 436.0)">r</text><text xml:space="preserve" font-family="Lato-Regular" font-size="38.0" fill="#FEFFFF" transform="matrix(1.00, 0.00, -0.00, -1.00, 375.0, 436.0)"> </text><text xml:space="preserve" font-family="Lato-Regular" font-size="38.0" fill="#FEFFFF" transform="matrix(1.00, 0.00, -0.00, -1.00, 382.4, 436.0)">a</text><text xml:space="preserve" font-family="Lato-Regular" font-size="38.0" fill="#FEFFFF" transform="matrix(1.00, 0.00, -0.00, -1.00, 401.6, 436.0)">n</text><text xml:space="preserve" font-family="Lato-Regular" font-size="38.0" fill="#FEFFFF" transform="matrix(1.00, 0.00, -0.00, -1.00, 422.7, 436.0)">d</text><text xml:space="preserve" font-family="Lato-Regular" font-size="38.0" fill="#FEFFFF" transform="matrix(1.00, 0.00, -0.00, -1.00, 444.0, 436.0)"> </text><text xml:space="preserve" font-family="Lato-Regular" font-size="38.0" fill="#FEFFFF" transform="matrix(1.00, 0.00, -0.00, -1.00, 451.3, 436.0)">m</text><text xml:space="preserve" font-family="Lato-Regular" font-size="38.0" fill="#FEFFFF" transform="matrix(1.00, 0.00, -0.00, -1.00, 482.5, 436.0)">o</text><text xml:space="preserve" font-family="Lato-Regular" font-size="38.0" fill="#FEFFFF" transform="matrix(1.00, 0.00, -0.00, -1.00, 503.6, 436.0)">r</text><text xml:space="preserve" font-family="Lato-Regular" font-size="38.0" fill="#FEFFFF" transform="matrix(1.00, 0.00, -0.00, -1.00, 519.0, 436.0)">e</text><text xml:space="preserve" font-family="Lato-Regular" font-size="38.0" fill="#FEFFFF" transform="matrix(1.00, 0.00, -0.00, -1.00, 538.9, 436.0)"> </text><text xml:space="preserve" font-family="Lato-Regular" font-size="38.0" fill="#FEFFFF" transform="matrix(1.00, 0.00, -0.00, -1.00, 546.2, 436.0)">p</text><text xml:space="preserve" font-family="Lato-Regular" font-size="38.0" fill="#FEFFFF" transform="matrix(1.00, 0.00, -0.00, -1.00, 567.2, 436.0)">o</text><text xml:space="preserve" font-family="Lato-Regular" font-size="38.0" fill="#FEFFFF" transform="matrix(1.00, 0.00, -0.00, -1.00, 588.3, 436.0)">w</text><text xml:space="preserve" font-family="Lato-Regular" font-size="38.0" fill="#FEFFFF" transform="matrix(1.00, 0.00, -0.00, -1.00, 617.4, 436.0)">e</text><text xml:space="preserve" font-family="Lato-Regular" font-size="38.0" fill="#FEFFFF" transform="matrix(1.00, 0.00, -0.00, -1.00, 637.3, 436.0)">r</text><text xml:space="preserve" font-family="Lato-Regular" font-size="38.0" fill="#FEFFFF" transform="matrix(1.00, 0.00, -0.00, -1.00, 652.6, 436.0)">f</text><text xml:space="preserve" font-family="Lato-Regular" font-size="38.0" fill="#FEFFFF" transform="matrix(1.00, 0.00, -0.00, -1.00, 665.5, 436.0)">u</text><text xml:space="preserve" font-family="Lato-Regular" font-size="38.0" fill="#FEFFFF" transform="matrix(1.00, 0.00, -0.00, -1.00, 686.6, 436.0)">l</text><text xml:space="preserve" font-family="Lato-Regular" font-size="38.0" fill="#FEFFFF" transform="matrix(1.00, 0.00, -0.00, -1.00, 696.3, 436.0)"> </text><text xml:space="preserve" font-family="Lato-Regular" font-size="38.0" fill="#FEFFFF" transform="matrix(1.00, 0.00, -0.00, -1.00, 703.6, 436.0)">w</text><text xml:space="preserve" font-family="Lato-Regular" font-size="38.0" fill="#FEFFFF" transform="matrix(1.00, 0.00, -0.00, -1.00, 732.7, 436.0)">a</text><text xml:space="preserve" font-family="Lato-Regular" font-size="38.0" fill="#FEFFFF" transform="matrix(1.00, 0.00, -0.00, -1.00, 751.4, 436.0)">y</text><text xml:space="preserve" font-family="Lato-Regular" font-size="38.0" fill="#FEFFFF" transform="matrix(1.00, 0.00, -0.00, -1.00, 770.9, 436.0)"> </text><text xml:space="preserve" font-family="Lato-Regular" font-size="38.0" fill="#FEFFFF" transform="matrix(1.00, 0.00, -0.00, -1.00, 778.2, 436.0)">t</text><text xml:space="preserve" font-family="Lato-Regular" font-size="38.0" fill="#FEFFFF" transform="matrix(1.00, 0.00, -0.00, -1.00, 792.4, 436.0)">o</text><text xml:space="preserve" font-family="Lato-Regular" font-size="38.0" fill="#FEFFFF" transform="matrix(1.00, 0.00, -0.00, -1.00, 813.5, 436.0)"> </text><text xml:space="preserve" font-family="Lato-Regular" font-size="38.0" fill="#FEFFFF" transform="matrix(1.00, 0.00, -0.00, -1.00, 820.8, 436.0)">b</text><text xml:space="preserve" font-family="Lato-Regular" font-size="38.0" fill="#FEFFFF" transform="matrix(1.00, 0.00, -0.00, -1.00, 842.1, 436.0)">u</text><text xml:space="preserve" font-family="Lato-Regular" font-size="38.0" fill="#FEFFFF" transform="matrix(1.00, 0.00, -0.00, -1.00, 863.2, 436.0)">i</text><text xml:space="preserve" font-family="Lato-Regular" font-size="38.0" fill="#FEFFFF" transform="matrix(1.00, 0.00, -0.00, -1.00, 872.9, 436.0)">l</text><text xml:space="preserve" font-family="Lato-Regular" font-size="38.0" fill="#FEFFFF" transform="matrix(1.00, 0.00, -0.00, -1.00, 882.7, 436.0)">d</text><text xml:space="preserve" font-family="Lato-Regular" font-size="38.0" fill="#FEFFFF" transform="matrix(1.00, 0.00, -0.00, -1.00, 903.9, 436.0)"> </text><text xml:space="preserve" font-family="Lato-Regular" font-size="38.0" fill="#FEFFFF" transform="matrix(1.00, 0.00, -0.00, -1.00, 110.0, 390.0)">t</text><text xml:space="preserve" font-family="Lato-Regular" font-size="38.0" fill="#FEFFFF" transform="matrix(1.00, 0.00, -0.00, -1.00, 124.2, 390.0)">h</text><text xml:space="preserve" font-family="Lato-Regular" font-size="38.0" fill="#FEFFFF" transform="matrix(1.00, 0.00, -0.00, -1.00, 145.3, 390.0)">e</text><text xml:space="preserve" font-family="Lato-Regular" font-size="38.0" fill="#FEFFFF" transform="matrix(1.00, 0.00, -0.00, -1.00, 165.2, 390.0)">m</text><text xml:space="preserve" font-family="Lato-Regular" font-size="38.0" fill="#FEFFFF" transform="matrix(1.00, 0.00, -0.00, -1.00, 196.4, 390.0)">e</text><text xml:space="preserve" font-family="Lato-Regular" font-size="38.0" fill="#FEFFFF" transform="matrix(1.00, 0.00, -0.00, -1.00, 216.3, 390.0)">s</text><text xml:space="preserve" font-family="Lato-Regular" font-size="38.0" fill="#FEFFFF" transform="matrix(1.00, 0.00, -0.00, -1.00, 232.8, 390.0)">.</text><text xml:space="preserve" font-family="Lato-Regular" font-size="38.0" fill="#FEFFFF" transform="matrix(1.00, 0.00, -0.00, -1.00, 240.9, 390.0)"> </text><text xml:space="preserve" font-family="Lato-Regular" font-size="38.0" fill="#FEFFFF" transform="matrix(1.00, 0.00, -0.00, -1.00, 248.2, 390.0)">B</text><text xml:space="preserve" font-family="Lato-Regular" font-size="38.0" fill="#FEFFFF" transform="matrix(1.00, 0.00, -0.00, -1.00, 272.8, 390.0)">e</text><text xml:space="preserve" font-family="Lato-Regular" font-size="38.0" fill="#FEFFFF" transform="matrix(1.00, 0.00, -0.00, -1.00, 292.7, 390.0)">c</text><text xml:space="preserve" font-family="Lato-Regular" font-size="38.0" fill="#FEFFFF" transform="matrix(1.00, 0.00, -0.00, -1.00, 310.5, 390.0)">a</text><text xml:space="preserve" font-family="Lato-Regular" font-size="38.0" fill="#FEFFFF" transform="matrix(1.00, 0.00, -0.00, -1.00, 329.7, 390.0)">u</text><text xml:space="preserve" font-family="Lato-Regular" font-size="38.0" fill="#FEFFFF" transform="matrix(1.00, 0.00, -0.00, -1.00, 350.8, 390.0)">s</text><text xml:space="preserve" font-family="Lato-Regular" font-size="38.0" fill="#FEFFFF" transform="matrix(1.00, 0.00, -0.00, -1.00, 367.3, 390.0)">e</text><text xml:space="preserve" font-family="Lato-Regular" font-size="38.0" fill="#FEFFFF" transform="matrix(1.00, 0.00, -0.00, -1.00, 387.2, 390.0)"> </text><text xml:space="preserve" font-family="Lato-Regular" font-size="38.0" fill="#FEFFFF" transform="matrix(1.00, 0.00, -0.00, -1.00, 394.6, 390.0)">W</text><text xml:space="preserve" font-family="Lato-Regular" font-size="38.0" fill="#FEFFFF" transform="matrix(1.00, 0.00, -0.00, -1.00, 432.7, 390.0)">o</text><text xml:space="preserve" font-family="Lato-Regular" font-size="38.0" fill="#FEFFFF" transform="matrix(1.00, 0.00, -0.00, -1.00, 453.8, 390.0)">r</text><text xml:space="preserve" font-family="Lato-Regular" font-size="38.0" fill="#FEFFFF" transform="matrix(1.00, 0.00, -0.00, -1.00, 469.1, 390.0)">d</text><text xml:space="preserve" font-family="Lato-Regular" font-size="38.0" fill="#FEFFFF" transform="matrix(1.00, 0.00, -0.00, -1.00, 490.4, 390.0)">P</text><text xml:space="preserve" font-family="Lato-Regular" font-size="38.0" fill="#FEFFFF" transform="matrix(1.00, 0.00, -0.00, -1.00, 513.6, 390.0)">r</text><text xml:space="preserve" font-family="Lato-Regular" font-size="38.0" fill="#FEFFFF" transform="matrix(1.00, 0.00, -0.00, -1.00, 528.9, 390.0)">e</text><text xml:space="preserve" font-family="Lato-Regular" font-size="38.0" fill="#FEFFFF" transform="matrix(1.00, 0.00, -0.00, -1.00, 548.8, 390.0)">s</text><text xml:space="preserve" font-family="Lato-Regular" font-size="38.0" fill="#FEFFFF" transform="matrix(1.00, 0.00, -0.00, -1.00, 565.3, 390.0)">s</text><text xml:space="preserve" font-family="Lato-Regular" font-size="38.0" fill="#FEFFFF" transform="matrix(1.00, 0.00, -0.00, -1.00, 581.8, 390.0)"> </text><text xml:space="preserve" font-family="Lato-Regular" font-size="38.0" fill="#FEFFFF" transform="matrix(1.00, 0.00, -0.00, -1.00, 589.1, 390.0)">i</text><text xml:space="preserve" font-family="Lato-Regular" font-size="38.0" fill="#FEFFFF" transform="matrix(1.00, 0.00, -0.00, -1.00, 598.9, 390.0)">s</text><text xml:space="preserve" font-family="Lato-Regular" font-size="38.0" fill="#FEFFFF" transform="matrix(1.00, 0.00, -0.00, -1.00, 615.4, 390.0)"> </text><text xml:space="preserve" font-family="Lato-Regular" font-size="38.0" fill="#FEFFFF" transform="matrix(1.00, 0.00, -0.00, -1.00, 622.7, 390.0)">a</text><text xml:space="preserve" font-family="Lato-Regular" font-size="38.0" fill="#FEFFFF" transform="matrix(1.00, 0.00, -0.00, -1.00, 641.7, 390.0)">w</text><text xml:space="preserve" font-family="Lato-Regular" font-size="38.0" fill="#FEFFFF" transform="matrix(1.00, 0.00, -0.00, -1.00, 670.8, 390.0)">e</text><text xml:space="preserve" font-family="Lato-Regular" font-size="38.0" fill="#FEFFFF" transform="matrix(1.00, 0.00, -0.00, -1.00, 690.7, 390.0)">s</text><text xml:space="preserve" font-family="Lato-Regular" font-size="38.0" fill="#FEFFFF" transform="matrix(1.00, 0.00, -0.00, -1.00, 707.2, 390.0)">o</text><text xml:space="preserve" font-family="Lato-Regular" font-size="38.0" fill="#FEFFFF" transform="matrix(1.00, 0.00, -0.00, -1.00, 728.3, 390.0)">m</text><text xml:space="preserve" font-family="Lato-Regular" font-size="38.0" fill="#FEFFFF" transform="matrix(1.00, 0.00, -0.00, -1.00, 759.5, 390.0)">e</text><text xml:space="preserve" font-family="Lato-Regular" font-size="38.0" fill="#FEFFFF" transform="matrix(1.00, 0.00, -0.00, -1.00, 779.4, 390.0)">,</text><text xml:space="preserve" font-family="Lato-Regular" font-size="38.0" fill="#FEFFFF" transform="matrix(1.00, 0.00, -0.00, -1.00, 787.5, 390.0)"> </text><text xml:space="preserve" font-family="Lato-Regular" font-size="38.0" fill="#FEFFFF" transform="matrix(1.00, 0.00, -0.00, -1.00, 794.8, 390.0)">b</text><text xml:space="preserve" font-family="Lato-Regular" font-size="38.0" fill="#FEFFFF" transform="matrix(1.00, 0.00, -0.00, -1.00, 816.0, 390.0)">u</text><text xml:space="preserve" font-family="Lato-Regular" font-size="38.0" fill="#FEFFFF" transform="matrix(1.00, 0.00, -0.00, -1.00, 837.2, 390.0)">t</text><text xml:space="preserve" font-family="Lato-Regular" font-size="38.0" fill="#FEFFFF" transform="matrix(1.00, 0.00, -0.00, -1.00, 851.3, 390.0)"> </text><text xml:space="preserve" font-family="Lato-Regular" font-size="38.0" fill="#FEFFFF" transform="matrix(1.00, 0.00, -0.00, -1.00, 858.7, 390.0)">t</text><text xml:space="preserve" font-family="Lato-Regular" font-size="38.0" fill="#FEFFFF" transform="matrix(1.00, 0.00, -0.00, -1.00, 872.9, 390.0)">h</text><text xml:space="preserve" font-family="Lato-Regular" font-size="38.0" fill="#FEFFFF" transform="matrix(1.00, 0.00, -0.00, -1.00, 894.0, 390.0)">e</text><text xml:space="preserve" font-family="Lato-Regular" font-size="38.0" fill="#FEFFFF" transform="matrix(1.00, 0.00, -0.00, -1.00, 913.9, 390.0)"> </text><text xml:space="preserve" font-family="Lato-Regular" font-size="38.0" fill="#FEFFFF" transform="matrix(1.00, 0.00, -0.00, -1.00, 429.0, 344.0)">l</text><text xml:space="preserve" font-family="Lato-Regular" font-size="38.0" fill="#FEFFFF" transform="matrix(1.00, 0.00, -0.00, -1.00, 438.7, 344.0)">o</text><text xml:space="preserve" font-family="Lato-Regular" font-size="38.0" fill="#FEFFFF" transform="matrix(1.00, 0.00, -0.00, -1.00, 459.9, 344.0)">o</text><text xml:space="preserve" font-family="Lato-Regular" font-size="38.0" fill="#FEFFFF" transform="matrix(1.00, 0.00, -0.00, -1.00, 481.0, 344.0)">p</text><text xml:space="preserve" font-family="Lato-Regular" font-size="38.0" fill="#FEFFFF" transform="matrix(1.00, 0.00, -0.00, -1.00, 502.0, 344.0)"> </text><text xml:space="preserve" font-family="Lato-Regular" font-size="38.0" fill="#FEFFFF" transform="matrix(1.00, 0.00, -0.00, -1.00, 509.3, 344.0)">i</text><text xml:space="preserve" font-family="Lato-Regular" font-size="38.0" fill="#FEFFFF" transform="matrix(1.00, 0.00, -0.00, -1.00, 519.0, 344.0)">s</text><text xml:space="preserve" font-family="Lato-Regular" font-size="38.0" fill="#FEFFFF" transform="matrix(1.00, 0.00, -0.00, -1.00, 535.5, 344.0)">n</text><text xml:space="preserve" font-family="Lato-Regular" font-size="38.0" fill="#FEFFFF" transform="matrix(1.00, 0.00, -0.00, -1.00, 555.3, 344.0)">’</text><text xml:space="preserve" font-family="Lato-Regular" font-size="38.0" fill="#FEFFFF" transform="matrix(1.00, 0.00, -0.00, -1.00, 563.3, 344.0)">t</text><text xml:space="preserve" font-family="Lato-Regular" font-size="38.0" fill="#FEFFFF" transform="matrix(1.00, 0.00, -0.00, -1.00, 577.5, 344.0)">.</text><text xml:space="preserve" font-family="Lato-Regular" font-size="38.0" fill="#FEFFFF" transform="matrix(1.00, 0.00, -0.00, -1.00, 581.2, 344.0)">”</text><text xml:space="preserve" font-family="Lato-Regular" font-size="38.0" fill="#FEFFFF" transform="matrix(1.00, 0.00, -0.00, -1.00, 595.1, 344.0)"> </text></g></svg>