<?xml version="1.0" encoding="UTF-8" standalone="no"?><svg xmlns="http://www.w3.org/2000/svg" xmlns:xlink="http://www.w3.org/1999/xlink" clip-rule="evenodd" stroke-miterlimit="4.00" viewBox="0 0 1024 768"><desc>SVG generated by Keynote</desc><defs></defs><g transform="matrix(1.00, 0.00, -0.00, -1.00, 0.0, 768.0)"><path d="M 0.0 768.0 L 1024.0 768.0 L 1024.0 0.0 L 0.0 0.0 Z M 0.0 768.0 " fill="#FEFFFF"></path><text xml:space="preserve" font-family="Adventure" font-size="48.0" fill="#000000" transform="matrix(1.00, 0.00, -0.00, -1.00, 363.0, 632.0)">C</text><text xml:space="preserve" font-family="Adventure" font-size="48.0" fill="#000000" transform="matrix(1.00, 0.00, -0.00, -1.00, 394.7, 632.0)">O</text><text xml:space="preserve" font-family="Adventure" font-size="48.0" fill="#000000" transform="matrix(1.00, 0.00, -0.00, -1.00, 427.4, 632.0)">N</text><text xml:space="preserve" font-family="Adventure" font-size="48.0" fill="#000000" transform="matrix(1.00, 0.00, -0.00, -1.00, 455.6, 632.0)">T</text><text xml:space="preserve" font-family="Adventure" font-size="48.0" fill="#000000" transform="matrix(1.00, 0.00, -0.00, -1.00, 481.3, 632.0)">R</text><text xml:space="preserve" font-family="Adventure" font-size="48.0" fill="#000000" transform="matrix(1.00, 0.00, -0.00, -1.00, 510.7, 632.0)">O</text><text xml:space="preserve" font-family="Adventure" font-size="48.0" fill="#000000" transform="matrix(1.00, 0.00, -0.00, -1.00, 543.4, 632.0)">L</text><text xml:space="preserve" font-family="Adventure" font-size="48.0" fill="#000000" transform="matrix(1.00, 0.00, -0.00, -1.00, 566.9, 632.0)">L</text><text xml:space="preserve" font-family="Adventure" font-size="48.0" fill="#000000" transform="matrix(1.00, 0.00, -0.00, -1.00, 590.3, 632.0)">E</text><text xml:space="preserve" font-family="Adventure" font-size="48.0" fill="#000000" transform="matrix(1.00, 0.00, -0.00, -1.00, 613.8, 632.0)">R</text><text xml:space="preserve" font-family="Adventure" font-size="48.0" fill="#000000" transform="matrix(1.00, 0.00, -0.00, -1.00, 643.1, 632.0)">S</text><text xml:space="preserve" font-family="Monaco" font-size="32.0" fill="#323343" transform="matrix(1.00, 0.00, -0.00, -1.00, 127.0, 440.0)">&lt;</text><text xml:space="preserve" font-family="Monaco" font-size="32.0" fill="#323343" transform="matrix(1.00, 0.00, -0.00, -1.00, 146.2, 440.0)">?</text><text xml:space="preserve" font-family="Monaco" font-size="32.0" fill="#323343" transform="matrix(1.00, 0.00, -0.00, -1.00, 165.4, 440.0)">p</text><text xml:space="preserve" font-family="Monaco" font-size="32.0" fill="#323343" transform="matrix(1.00, 0.00, -0.00, -1.00, 184.6, 440.0)">h</text><text xml:space="preserve" font-family="Monaco" font-size="32.0" fill="#323343" transform="matrix(1.00, 0.00, -0.00, -1.00, 203.8, 440.0)">p</text><text xml:space="preserve" font-family="Monaco" font-size="32.0" fill="#00B418" transform="matrix(1.00, 0.00, -0.00, -1.00, 127.0, 397.0)">/</text><text xml:space="preserve" font-family="Monaco" font-size="32.0" fill="#00B418" transform="matrix(1.00, 0.00, -0.00, -1.00, 146.2, 397.0)">/</text><text xml:space="preserve" font-family="Monaco" font-size="32.0" fill="#00B418" transform="matrix(1.00, 0.00, -0.00, -1.00, 165.4, 397.0)"> </text><text xml:space="preserve" font-family="Monaco" font-size="32.0" fill="#00B418" transform="matrix(1.00, 0.00, -0.00, -1.00, 184.6, 397.0)">s</text><text xml:space="preserve" font-family="Monaco" font-size="32.0" fill="#00B418" transform="matrix(1.00, 0.00, -0.00, -1.00, 203.8, 397.0)">i</text><text xml:space="preserve" font-family="Monaco" font-size="32.0" fill="#00B418" transform="matrix(1.00, 0.00, -0.00, -1.00, 223.0, 397.0)">n</text><text xml:space="preserve" font-family="Monaco" font-size="32.0" fill="#00B418" transform="matrix(1.00, 0.00, -0.00, -1.00, 242.2, 397.0)">g</text><text xml:space="preserve" font-family="Monaco" font-size="32.0" fill="#00B418" transform="matrix(1.00, 0.00, -0.00, -1.00, 261.4, 397.0)">l</text><text xml:space="preserve" font-family="Monaco" font-size="32.0" fill="#00B418" transform="matrix(1.00, 0.00, -0.00, -1.00, 280.7, 397.0)">e</text><text xml:space="preserve" font-family="Monaco" font-size="32.0" fill="#00B418" transform="matrix(1.00, 0.00, -0.00, -1.00, 299.9, 397.0)">.</text><text xml:space="preserve" font-family="Monaco" font-size="32.0" fill="#00B418" transform="matrix(1.00, 0.00, -0.00, -1.00, 319.1, 397.0)">p</text><text xml:space="preserve" font-family="Monaco" font-size="32.0" fill="#00B418" transform="matrix(1.00, 0.00, -0.00, -1.00, 338.3, 397.0)">h</text><text xml:space="preserve" font-family="Monaco" font-size="32.0" fill="#00B418" transform="matrix(1.00, 0.00, -0.00, -1.00, 357.5, 397.0)">p</text><text xml:space="preserve" font-family="Monaco" font-size="32.0" fill="#0432FF" transform="matrix(1.00, 0.00, -0.00, -1.00, 127.0, 354.0)">$</text><text xml:space="preserve" font-family="Monaco" font-size="32.0" fill="#0432FF" transform="matrix(1.00, 0.00, -0.00, -1.00, 146.2, 354.0)">c</text><text xml:space="preserve" font-family="Monaco" font-size="32.0" fill="#0432FF" transform="matrix(1.00, 0.00, -0.00, -1.00, 165.4, 354.0)">o</text><text xml:space="preserve" font-family="Monaco" font-size="32.0" fill="#0432FF" transform="matrix(1.00, 0.00, -0.00, -1.00, 184.6, 354.0)">n</text><text xml:space="preserve" font-family="Monaco" font-size="32.0" fill="#0432FF" transform="matrix(1.00, 0.00, -0.00, -1.00, 203.8, 354.0)">t</text><text xml:space="preserve" font-family="Monaco" font-size="32.0" fill="#0432FF" transform="matrix(1.00, 0.00, -0.00, -1.00, 223.0, 354.0)">e</text><text xml:space="preserve" font-family="Monaco" font-size="32.0" fill="#0432FF" transform="matrix(1.00, 0.00, -0.00, -1.00, 242.2, 354.0)">x</text><text xml:space="preserve" font-family="Monaco" font-size="32.0" fill="#0432FF" transform="matrix(1.00, 0.00, -0.00, -1.00, 261.4, 354.0)">t</text><text xml:space="preserve" font-family="Monaco" font-size="32.0" fill="#323343" transform="matrix(1.00, 0.00, -0.00, -1.00, 280.6, 354.0)"> </text><text xml:space="preserve" font-family="Monaco" font-size="32.0" fill="#0221B6" transform="matrix(1.00, 0.00, -0.00, -1.00, 299.8, 354.0)">=</text><text xml:space="preserve" font-family="Monaco" font-size="32.0" fill="#323343" transform="matrix(1.00, 0.00, -0.00, -1.00, 319.0, 354.0)"> </text><text xml:space="preserve" font-family="Monaco" font-size="32.0" fill="#6D78DE" transform="matrix(1.00, 0.00, -0.00, -1.00, 338.2, 354.0)">T</text><text xml:space="preserve" font-family="Monaco" font-size="32.0" fill="#6D78DE" transform="matrix(1.00, 0.00, -0.00, -1.00, 357.4, 354.0)">i</text><text xml:space="preserve" font-family="Monaco" font-size="32.0" fill="#6D78DE" transform="matrix(1.00, 0.00, -0.00, -1.00, 376.6, 354.0)">m</text><text xml:space="preserve" font-family="Monaco" font-size="32.0" fill="#6D78DE" transform="matrix(1.00, 0.00, -0.00, -1.00, 395.9, 354.0)">b</text><text xml:space="preserve" font-family="Monaco" font-size="32.0" fill="#6D78DE" transform="matrix(1.00, 0.00, -0.00, -1.00, 415.1, 354.0)">e</text><text xml:space="preserve" font-family="Monaco" font-size="32.0" fill="#6D78DE" transform="matrix(1.00, 0.00, -0.00, -1.00, 434.3, 354.0)">r</text><text xml:space="preserve" font-family="Monaco" font-size="32.0" fill="#0221B6" transform="matrix(1.00, 0.00, -0.00, -1.00, 453.5, 354.0)">:</text><text xml:space="preserve" font-family="Monaco" font-size="32.0" fill="#0221B6" transform="matrix(1.00, 0.00, -0.00, -1.00, 472.7, 354.0)">:</text><text xml:space="preserve" font-family="Monaco" font-size="32.0" fill="#323343" transform="matrix(1.00, 0.00, -0.00, -1.00, 491.9, 354.0)">g</text><text xml:space="preserve" font-family="Monaco" font-size="32.0" fill="#323343" transform="matrix(1.00, 0.00, -0.00, -1.00, 511.1, 354.0)">e</text><text xml:space="preserve" font-family="Monaco" font-size="32.0" fill="#323343" transform="matrix(1.00, 0.00, -0.00, -1.00, 530.3, 354.0)">t</text><text xml:space="preserve" font-family="Monaco" font-size="32.0" fill="#323343" transform="matrix(1.00, 0.00, -0.00, -1.00, 549.5, 354.0)">_</text><text xml:space="preserve" font-family="Monaco" font-size="32.0" fill="#323343" transform="matrix(1.00, 0.00, -0.00, -1.00, 568.7, 354.0)">c</text><text xml:space="preserve" font-family="Monaco" font-size="32.0" fill="#323343" transform="matrix(1.00, 0.00, -0.00, -1.00, 587.9, 354.0)">o</text><text xml:space="preserve" font-family="Monaco" font-size="32.0" fill="#323343" transform="matrix(1.00, 0.00, -0.00, -1.00, 607.1, 354.0)">n</text><text xml:space="preserve" font-family="Monaco" font-size="32.0" fill="#323343" transform="matrix(1.00, 0.00, -0.00, -1.00, 626.3, 354.0)">t</text><text xml:space="preserve" font-family="Monaco" font-size="32.0" fill="#323343" transform="matrix(1.00, 0.00, -0.00, -1.00, 645.5, 354.0)">e</text><text xml:space="preserve" font-family="Monaco" font-size="32.0" fill="#323343" transform="matrix(1.00, 0.00, -0.00, -1.00, 664.7, 354.0)">x</text><text xml:space="preserve" font-family="Monaco" font-size="32.0" fill="#323343" transform="matrix(1.00, 0.00, -0.00, -1.00, 683.9, 354.0)">t</text><text xml:space="preserve" font-family="Monaco" font-size="32.0" fill="#323343" transform="matrix(1.00, 0.00, -0.00, -1.00, 703.1, 354.0)">(</text><text xml:space="preserve" font-family="Monaco" font-size="32.0" fill="#323343" transform="matrix(1.00, 0.00, -0.00, -1.00, 722.3, 354.0)">)</text><text xml:space="preserve" font-family="Monaco" font-size="32.0" fill="#323343" transform="matrix(1.00, 0.00, -0.00, -1.00, 741.5, 354.0)">;</text><text xml:space="preserve" font-family="Monaco" font-size="32.0" fill="#0432FF" transform="matrix(1.00, 0.00, -0.00, -1.00, 127.0, 268.0)">$</text><text xml:space="preserve" font-family="Monaco" font-size="32.0" fill="#0432FF" transform="matrix(1.00, 0.00, -0.00, -1.00, 146.2, 268.0)">c</text><text xml:space="preserve" font-family="Monaco" font-size="32.0" fill="#0432FF" transform="matrix(1.00, 0.00, -0.00, -1.00, 165.4, 268.0)">o</text><text xml:space="preserve" font-family="Monaco" font-size="32.0" fill="#0432FF" transform="matrix(1.00, 0.00, -0.00, -1.00, 184.6, 268.0)">n</text><text xml:space="preserve" font-family="Monaco" font-size="32.0" fill="#0432FF" transform="matrix(1.00, 0.00, -0.00, -1.00, 203.8, 268.0)">t</text><text xml:space="preserve" font-family="Monaco" font-size="32.0" fill="#0432FF" transform="matrix(1.00, 0.00, -0.00, -1.00, 223.0, 268.0)">e</text><text xml:space="preserve" font-family="Monaco" font-size="32.0" fill="#0432FF" transform="matrix(1.00, 0.00, -0.00, -1.00, 242.2, 268.0)">x</text><text xml:space="preserve" font-family="Monaco" font-size="32.0" fill="#0432FF" transform="matrix(1.00, 0.00, -0.00, -1.00, 261.4, 268.0)">t</text><text xml:space="preserve" font-family="Monaco" font-size="32.0" fill="#323343" transform="matrix(1.00, 0.00, -0.00, -1.00, 280.6, 268.0)">[</text><text xml:space="preserve" font-family="Monaco" font-size="32.0" fill="#D71E00" transform="matrix(1.00, 0.00, -0.00, -1.00, 299.8, 268.0)">'</text><text xml:space="preserve" font-family="Monaco" font-size="32.0" fill="#D71E00" transform="matrix(1.00, 0.00, -0.00, -1.00, 319.0, 268.0)">f</text><text xml:space="preserve" font-family="Monaco" font-size="32.0" fill="#D71E00" transform="matrix(1.00, 0.00, -0.00, -1.00, 338.2, 268.0)">o</text><text xml:space="preserve" font-family="Monaco" font-size="32.0" fill="#D71E00" transform="matrix(1.00, 0.00, -0.00, -1.00, 357.4, 268.0)">o</text><text xml:space="preserve" font-family="Monaco" font-size="32.0" fill="#D71E00" transform="matrix(1.00, 0.00, -0.00, -1.00, 376.7, 268.0)">'</text><text xml:space="preserve" font-family="Monaco" font-size="32.0" fill="#323343" transform="matrix(1.00, 0.00, -0.00, -1.00, 395.8, 268.0)">]</text><text xml:space="preserve" font-family="Monaco" font-size="32.0" fill="#323343" transform="matrix(1.00, 0.00, -0.00, -1.00, 415.1, 268.0)"> </text><text xml:space="preserve" font-family="Monaco" font-size="32.0" fill="#0221B6" transform="matrix(1.00, 0.00, -0.00, -1.00, 434.2, 268.0)">=</text><text xml:space="preserve" font-family="Monaco" font-size="32.0" fill="#323343" transform="matrix(1.00, 0.00, -0.00, -1.00, 453.5, 268.0)"> </text><text xml:space="preserve" font-family="Monaco" font-size="32.0" fill="#D71E00" transform="matrix(1.00, 0.00, -0.00, -1.00, 472.7, 268.0)">'</text><text xml:space="preserve" font-family="Monaco" font-size="32.0" fill="#D71E00" transform="matrix(1.00, 0.00, -0.00, -1.00, 491.9, 268.0)">B</text><text xml:space="preserve" font-family="Monaco" font-size="32.0" fill="#D71E00" transform="matrix(1.00, 0.00, -0.00, -1.00, 511.1, 268.0)">a</text><text xml:space="preserve" font-family="Monaco" font-size="32.0" fill="#D71E00" transform="matrix(1.00, 0.00, -0.00, -1.00, 530.3, 268.0)">r</text><text xml:space="preserve" font-family="Monaco" font-size="32.0" fill="#D71E00" transform="matrix(1.00, 0.00, -0.00, -1.00, 549.5, 268.0)">!</text><text xml:space="preserve" font-family="Monaco" font-size="32.0" fill="#D71E00" transform="matrix(1.00, 0.00, -0.00, -1.00, 568.7, 268.0)">'</text><text xml:space="preserve" font-family="Monaco" font-size="32.0" fill="#323343" transform="matrix(1.00, 0.00, -0.00, -1.00, 587.9, 268.0)">;</text><text xml:space="preserve" font-family="Monaco" font-size="32.0" fill="#0432FF" transform="matrix(1.00, 0.00, -0.00, -1.00, 127.0, 225.0)">$</text><text xml:space="preserve" font-family="Monaco" font-size="32.0" fill="#0432FF" transform="matrix(1.00, 0.00, -0.00, -1.00, 146.2, 225.0)">c</text><text xml:space="preserve" font-family="Monaco" font-size="32.0" fill="#0432FF" transform="matrix(1.00, 0.00, -0.00, -1.00, 165.4, 225.0)">o</text><text xml:space="preserve" font-family="Monaco" font-size="32.0" fill="#0432FF" transform="matrix(1.00, 0.00, -0.00, -1.00, 184.6, 225.0)">n</text><text xml:space="preserve" font-family="Monaco" font-size="32.0" fill="#0432FF" transform="matrix(1.00, 0.00, -0.00, -1.00, 203.8, 225.0)">t</text><text xml:space="preserve" font-family="Monaco" font-size="32.0" fill="#0432FF" transform="matrix(1.00, 0.00, -0.00, -1.00, 223.0, 225.0)">e</text><text xml:space="preserve" font-family="Monaco" font-size="32.0" fill="#0432FF" transform="matrix(1.00, 0.00, -0.00, -1.00, 242.2, 225.0)">x</text><text xml:space="preserve" font-family="Monaco" font-size="32.0" fill="#0432FF" transform="matrix(1.00, 0.00, -0.00, -1.00, 261.4, 225.0)">t</text><text xml:space="preserve" font-family="Monaco" font-size="32.0" fill="#323343" transform="matrix(1.00, 0.00, -0.00, -1.00, 280.6, 225.0)">[</text><text xml:space="preserve" font-family="Monaco" font-size="32.0" fill="#D71E00" transform="matrix(1.00, 0.00, -0.00, -1.00, 299.8, 225.0)">'</text><text xml:space="preserve" font-family="Monaco" font-size="32.0" fill="#D71E00" transform="matrix(1.00, 0.00, -0.00, -1.00, 319.0, 225.0)">p</text><text xml:space="preserve" font-family="Monaco" font-size="32.0" fill="#D71E00" transform="matrix(1.00, 0.00, -0.00, -1.00, 338.2, 225.0)">o</text><text xml:space="preserve" font-family="Monaco" font-size="32.0" fill="#D71E00" transform="matrix(1.00, 0.00, -0.00, -1.00, 357.4, 225.0)">s</text><text xml:space="preserve" font-family="Monaco" font-size="32.0" fill="#D71E00" transform="matrix(1.00, 0.00, -0.00, -1.00, 376.7, 225.0)">t</text><text xml:space="preserve" font-family="Monaco" font-size="32.0" fill="#D71E00" transform="matrix(1.00, 0.00, -0.00, -1.00, 395.9, 225.0)">'</text><text xml:space="preserve" font-family="Monaco" font-size="32.0" fill="#323343" transform="matrix(1.00, 0.00, -0.00, -1.00, 415.0, 225.0)">]</text><text xml:space="preserve" font-family="Monaco" font-size="32.0" fill="#323343" transform="matrix(1.00, 0.00, -0.00, -1.00, 434.3, 225.0)"> </text><text xml:space="preserve" font-family="Monaco" font-size="32.0" fill="#0221B6" transform="matrix(1.00, 0.00, -0.00, -1.00, 453.5, 225.0)">=</text><text xml:space="preserve" font-family="Monaco" font-size="32.0" fill="#323343" transform="matrix(1.00, 0.00, -0.00, -1.00, 472.7, 225.0)"> </text><text xml:space="preserve" font-family="Monaco" font-size="32.0" fill="#0221B6" transform="matrix(1.00, 0.00, -0.00, -1.00, 491.9, 225.0)">n</text><text xml:space="preserve" font-family="Monaco" font-size="32.0" fill="#0221B6" transform="matrix(1.00, 0.00, -0.00, -1.00, 511.1, 225.0)">e</text><text xml:space="preserve" font-family="Monaco" font-size="32.0" fill="#0221B6" transform="matrix(1.00, 0.00, -0.00, -1.00, 530.3, 225.0)">w</text><text xml:space="preserve" font-family="Monaco" font-size="32.0" fill="#323343" transform="matrix(1.00, 0.00, -0.00, -1.00, 549.5, 225.0)"> </text><text xml:space="preserve" font-family="Monaco" font-size="32.0" fill="#6D78DE" transform="matrix(1.00, 0.00, -0.00, -1.00, 568.7, 225.0)">T</text><text xml:space="preserve" font-family="Monaco" font-size="32.0" fill="#6D78DE" transform="matrix(1.00, 0.00, -0.00, -1.00, 587.9, 225.0)">i</text><text xml:space="preserve" font-family="Monaco" font-size="32.0" fill="#6D78DE" transform="matrix(1.00, 0.00, -0.00, -1.00, 607.1, 225.0)">m</text><text xml:space="preserve" font-family="Monaco" font-size="32.0" fill="#6D78DE" transform="matrix(1.00, 0.00, -0.00, -1.00, 626.3, 225.0)">b</text><text xml:space="preserve" font-family="Monaco" font-size="32.0" fill="#6D78DE" transform="matrix(1.00, 0.00, -0.00, -1.00, 645.5, 225.0)">e</text><text xml:space="preserve" font-family="Monaco" font-size="32.0" fill="#6D78DE" transform="matrix(1.00, 0.00, -0.00, -1.00, 664.7, 225.0)">r</text><text xml:space="preserve" font-family="Monaco" font-size="32.0" fill="#0221B6" transform="matrix(1.00, 0.00, -0.00, -1.00, 683.9, 225.0)">/</text><text xml:space="preserve" font-family="Monaco" font-size="32.0" fill="#323343" transform="matrix(1.00, 0.00, -0.00, -1.00, 703.1, 225.0)">P</text><text xml:space="preserve" font-family="Monaco" font-size="32.0" fill="#323343" transform="matrix(1.00, 0.00, -0.00, -1.00, 722.3, 225.0)">o</text><text xml:space="preserve" font-family="Monaco" font-size="32.0" fill="#323343" transform="matrix(1.00, 0.00, -0.00, -1.00, 741.5, 225.0)">s</text><text xml:space="preserve" font-family="Monaco" font-size="32.0" fill="#323343" transform="matrix(1.00, 0.00, -0.00, -1.00, 760.7, 225.0)">t</text><text xml:space="preserve" font-family="Monaco" font-size="32.0" fill="#323343" transform="matrix(1.00, 0.00, -0.00, -1.00, 779.9, 225.0)">(</text><text xml:space="preserve" font-family="Monaco" font-size="32.0" fill="#323343" transform="matrix(1.00, 0.00, -0.00, -1.00, 799.1, 225.0)">)</text><text xml:space="preserve" font-family="Monaco" font-size="32.0" fill="#323343" transform="matrix(1.00, 0.00, -0.00, -1.00, 818.3, 225.0)">;</text><text xml:space="preserve" font-family="Monaco" font-size="32.0" fill="#6D78DE" transform="matrix(1.00, 0.00, -0.00, -1.00, 127.0, 139.0)">T</text><text xml:space="preserve" font-family="Monaco" font-size="32.0" fill="#6D78DE" transform="matrix(1.00, 0.00, -0.00, -1.00, 146.2, 139.0)">i</text><text xml:space="preserve" font-family="Monaco" font-size="32.0" fill="#6D78DE" transform="matrix(1.00, 0.00, -0.00, -1.00, 165.4, 139.0)">m</text><text xml:space="preserve" font-family="Monaco" font-size="32.0" fill="#6D78DE" transform="matrix(1.00, 0.00, -0.00, -1.00, 184.6, 139.0)">b</text><text xml:space="preserve" font-family="Monaco" font-size="32.0" fill="#6D78DE" transform="matrix(1.00, 0.00, -0.00, -1.00, 203.8, 139.0)">e</text><text xml:space="preserve" font-family="Monaco" font-size="32.0" fill="#6D78DE" transform="matrix(1.00, 0.00, -0.00, -1.00, 223.0, 139.0)">r</text><text xml:space="preserve" font-family="Monaco" font-size="32.0" fill="#0221B6" transform="matrix(1.00, 0.00, -0.00, -1.00, 242.2, 139.0)">:</text><text xml:space="preserve" font-family="Monaco" font-size="32.0" fill="#0221B6" transform="matrix(1.00, 0.00, -0.00, -1.00, 261.4, 139.0)">:</text><text xml:space="preserve" font-family="Monaco" font-size="32.0" fill="#323343" transform="matrix(1.00, 0.00, -0.00, -1.00, 280.6, 139.0)">r</text><text xml:space="preserve" font-family="Monaco" font-size="32.0" fill="#323343" transform="matrix(1.00, 0.00, -0.00, -1.00, 299.8, 139.0)">e</text><text xml:space="preserve" font-family="Monaco" font-size="32.0" fill="#323343" transform="matrix(1.00, 0.00, -0.00, -1.00, 319.0, 139.0)">n</text><text xml:space="preserve" font-family="Monaco" font-size="32.0" fill="#323343" transform="matrix(1.00, 0.00, -0.00, -1.00, 338.2, 139.0)">d</text><text xml:space="preserve" font-family="Monaco" font-size="32.0" fill="#323343" transform="matrix(1.00, 0.00, -0.00, -1.00, 357.5, 139.0)">e</text><text xml:space="preserve" font-family="Monaco" font-size="32.0" fill="#323343" transform="matrix(1.00, 0.00, -0.00, -1.00, 376.7, 139.0)">r</text><text xml:space="preserve" font-family="Monaco" font-size="32.0" fill="#323343" transform="matrix(1.00, 0.00, -0.00, -1.00, 395.9, 139.0)">(</text><text xml:space="preserve" font-family="Monaco" font-size="32.0" fill="#D71E00" transform="matrix(1.00, 0.00, -0.00, -1.00, 415.0, 139.0)">'</text><text xml:space="preserve" font-family="Monaco" font-size="32.0" fill="#D71E00" transform="matrix(1.00, 0.00, -0.00, -1.00, 434.3, 139.0)">s</text><text xml:space="preserve" font-family="Monaco" font-size="32.0" fill="#D71E00" transform="matrix(1.00, 0.00, -0.00, -1.00, 453.5, 139.0)">i</text><text xml:space="preserve" font-family="Monaco" font-size="32.0" fill="#D71E00" transform="matrix(1.00, 0.00, -0.00, -1.00, 472.7, 139.0)">n</text><text xml:space="preserve" font-family="Monaco" font-size="32.0" fill="#D71E00" transform="matrix(1.00, 0.00, -0.00, -1.00, 491.9, 139.0)">g</text><text xml:space="preserve" font-family="Monaco" font-size="32.0" fill="#D71E00" transform="matrix(1.00, 0.00, -0.00, -1.00, 511.1, 139.0)">l</text><text xml:space="preserve" font-family="Monaco" font-size="32.0" fill="#D71E00" transform="matrix(1.00, 0.00, -0.00, -1.00, 530.3, 139.0)">e</text><text xml:space="preserve" font-family="Monaco" font-size="32.0" fill="#D71E00" transform="matrix(1.00, 0.00, -0.00, -1.00, 549.5, 139.0)">.</text><text xml:space="preserve" font-family="Monaco" font-size="32.0" fill="#D71E00" transform="matrix(1.00, 0.00, -0.00, -1.00, 568.7, 139.0)">t</text><text xml:space="preserve" font-family="Monaco" font-size="32.0" fill="#D71E00" transform="matrix(1.00, 0.00, -0.00, -1.00, 587.9, 139.0)">w</text><text xml:space="preserve" font-family="Monaco" font-size="32.0" fill="#D71E00" transform="matrix(1.00, 0.00, -0.00, -1.00, 607.1, 139.0)">i</text><text xml:space="preserve" font-family="Monaco" font-size="32.0" fill="#D71E00" transform="matrix(1.00, 0.00, -0.00, -1.00, 626.3, 139.0)">g</text><text xml:space="preserve" font-family="Monaco" font-size="32.0" fill="#D71E00" transform="matrix(1.00, 0.00, -0.00, -1.00, 645.5, 139.0)">'</text><text xml:space="preserve" font-family="Monaco" font-size="32.0" fill="#323343" transform="matrix(1.00, 0.00, -0.00, -1.00, 664.7, 139.0)">,</text><text xml:space="preserve" font-family="Monaco" font-size="32.0" fill="#323343" transform="matrix(1.00, 0.00, -0.00, -1.00, 683.9, 139.0)"> </text><text xml:space="preserve" font-family="Monaco" font-size="32.0" fill="#0432FF" transform="matrix(1.00, 0.00, -0.00, -1.00, 703.1, 139.0)">$</text><text xml:space="preserve" font-family="Monaco" font-size="32.0" fill="#0432FF" transform="matrix(1.00, 0.00, -0.00, -1.00, 722.3, 139.0)">c</text><text xml:space="preserve" font-family="Monaco" font-size="32.0" fill="#0432FF" transform="matrix(1.00, 0.00, -0.00, -1.00, 741.5, 139.0)">o</text><text xml:space="preserve" font-family="Monaco" font-size="32.0" fill="#0432FF" transform="matrix(1.00, 0.00, -0.00, -1.00, 760.7, 139.0)">n</text><text xml:space="preserve" font-family="Monaco" font-size="32.0" fill="#0432FF" transform="matrix(1.00, 0.00, -0.00, -1.00, 779.9, 139.0)">t</text><text xml:space="preserve" font-family="Monaco" font-size="32.0" fill="#0432FF" transform="matrix(1.00, 0.00, -0.00, -1.00, 799.1, 139.0)">e</text><text xml:space="preserve" font-family="Monaco" font-size="32.0" fill="#0432FF" transform="matrix(1.00, 0.00, -0.00, -1.00, 818.3, 139.0)">x</text><text xml:space="preserve" font-family="Monaco" font-size="32.0" fill="#0432FF" transform="matrix(1.00, 0.00, -0.00, -1.00, 837.5, 139.0)">t</text><text xml:space="preserve" font-family="Monaco" font-size="32.0" fill="#323343" transform="matrix(1.00, 0.00, -0.00, -1.00, 856.7, 139.0)">)</text><text xml:space="preserve" font-family="Monaco" font-size="32.0" fill="#323343" transform="matrix(1.00, 0.00, -0.00, -1.00, 875.9, 139.0)">;</text></g></svg>