<?xml version="1.0" encoding="UTF-8" standalone="no"?><svg xmlns="http://www.w3.org/2000/svg" xmlns:xlink="http://www.w3.org/1999/xlink" clip-rule="evenodd" stroke-miterlimit="4.00" viewBox="0 0 532 175"><desc>SVG generated by Keynote</desc><defs></defs><g transform="matrix(1.00, 0.00, -0.00, -1.00, 0.0, 175.0)"><text xml:space="preserve" font-family="Monaco" font-size="34.0" fill="#00B418" transform="matrix(1.00, 0.00, -0.00, -1.00, 1.0, 146.0)">/</text><text xml:space="preserve" font-family="Monaco" font-size="34.0" fill="#00B418" transform="matrix(1.00, 0.00, -0.00, -1.00, 21.4, 146.0)">/</text><text xml:space="preserve" font-family="Monaco" font-size="34.0" fill="#00B418" transform="matrix(1.00, 0.00, -0.00, -1.00, 41.8, 146.0)"> </text><text xml:space="preserve" font-family="Monaco" font-size="34.0" fill="#00B418" transform="matrix(1.00, 0.00, -0.00, -1.00, 62.2, 146.0)">d</text><text xml:space="preserve" font-family="Monaco" font-size="34.0" fill="#00B418" transform="matrix(1.00, 0.00, -0.00, -1.00, 82.6, 146.0)">a</text><text xml:space="preserve" font-family="Monaco" font-size="34.0" fill="#00B418" transform="matrix(1.00, 0.00, -0.00, -1.00, 103.0, 146.0)">t</text><text xml:space="preserve" font-family="Monaco" font-size="34.0" fill="#00B418" transform="matrix(1.00, 0.00, -0.00, -1.00, 123.4, 146.0)">a</text><text xml:space="preserve" font-family="Monaco" font-size="34.0" fill="#00B418" transform="matrix(1.00, 0.00, -0.00, -1.00, 143.8, 146.0)">.</text><text xml:space="preserve" font-family="Monaco" font-size="34.0" fill="#00B418" transform="matrix(1.00, 0.00, -0.00, -1.00, 164.3, 146.0)">j</text><text xml:space="preserve" font-family="Monaco" font-size="34.0" fill="#00B418" transform="matrix(1.00, 0.00, -0.00, -1.00, 184.7, 146.0)">s</text><text xml:space="preserve" font-family="Monaco" font-size="34.0" fill="#00B418" transform="matrix(1.00, 0.00, -0.00, -1.00, 205.1, 146.0)">o</text><text xml:space="preserve" font-family="Monaco" font-size="34.0" fill="#00B418" transform="matrix(1.00, 0.00, -0.00, -1.00, 225.5, 146.0)">n</text><text xml:space="preserve" font-family="Monaco" font-size="34.0" fill="#323343" transform="matrix(1.00, 0.00, -0.00, -1.00, 1.0, 100.0)">{</text><text xml:space="preserve" font-family="Monaco" font-size="34.0" fill="#323343" transform="matrix(1.00, 0.00, -0.00, -1.00, 1.0, 54.0)"> </text><text xml:space="preserve" font-family="Monaco" font-size="34.0" fill="#323343" transform="matrix(1.00, 0.00, -0.00, -1.00, 21.4, 54.0)"> </text><text xml:space="preserve" font-family="Monaco" font-size="34.0" fill="#323343" transform="matrix(1.00, 0.00, -0.00, -1.00, 41.8, 54.0)"> </text><text xml:space="preserve" font-family="Monaco" font-size="34.0" fill="#323343" transform="matrix(1.00, 0.00, -0.00, -1.00, 62.2, 54.0)"> </text><text xml:space="preserve" font-family="Monaco" font-size="34.0" fill="#D71E00" transform="matrix(1.00, 0.00, -0.00, -1.00, 82.6, 54.0)">"</text><text xml:space="preserve" font-family="Monaco" font-size="34.0" fill="#D71E00" transform="matrix(1.00, 0.00, -0.00, -1.00, 103.0, 54.0)">t</text><text xml:space="preserve" font-family="Monaco" font-size="34.0" fill="#D71E00" transform="matrix(1.00, 0.00, -0.00, -1.00, 123.4, 54.0)">i</text><text xml:space="preserve" font-family="Monaco" font-size="34.0" fill="#D71E00" transform="matrix(1.00, 0.00, -0.00, -1.00, 143.8, 54.0)">t</text><text xml:space="preserve" font-family="Monaco" font-size="34.0" fill="#D71E00" transform="matrix(1.00, 0.00, -0.00, -1.00, 164.2, 54.0)">l</text><text xml:space="preserve" font-family="Monaco" font-size="34.0" fill="#D71E00" transform="matrix(1.00, 0.00, -0.00, -1.00, 184.6, 54.0)">e</text><text xml:space="preserve" font-family="Monaco" font-size="34.0" fill="#D71E00" transform="matrix(1.00, 0.00, -0.00, -1.00, 205.1, 54.0)">"</text><text xml:space="preserve" font-family="Monaco" font-size="34.0" fill="#0221B6" transform="matrix(1.00, 0.00, -0.00, -1.00, 225.4, 54.0)">:</text><text xml:space="preserve" font-family="Monaco" font-size="34.0" fill="#323343" transform="matrix(1.00, 0.00, -0.00, -1.00, 245.8, 54.0)"> </text><text xml:space="preserve" font-family="Monaco" font-size="34.0" fill="#D71E00" transform="matrix(1.00, 0.00, -0.00, -1.00, 266.2, 54.0)">"</text><text xml:space="preserve" font-family="Monaco" font-size="34.0" fill="#D71E00" transform="matrix(1.00, 0.00, -0.00, -1.00, 286.6, 54.0)">H</text><text xml:space="preserve" font-family="Monaco" font-size="34.0" fill="#D71E00" transform="matrix(1.00, 0.00, -0.00, -1.00, 307.1, 54.0)">e</text><text xml:space="preserve" font-family="Monaco" font-size="34.0" fill="#D71E00" transform="matrix(1.00, 0.00, -0.00, -1.00, 327.5, 54.0)">l</text><text xml:space="preserve" font-family="Monaco" font-size="34.0" fill="#D71E00" transform="matrix(1.00, 0.00, -0.00, -1.00, 347.9, 54.0)">l</text><text xml:space="preserve" font-family="Monaco" font-size="34.0" fill="#D71E00" transform="matrix(1.00, 0.00, -0.00, -1.00, 368.3, 54.0)">o</text><text xml:space="preserve" font-family="Monaco" font-size="34.0" fill="#D71E00" transform="matrix(1.00, 0.00, -0.00, -1.00, 388.7, 54.0)"> </text><text xml:space="preserve" font-family="Monaco" font-size="34.0" fill="#D71E00" transform="matrix(1.00, 0.00, -0.00, -1.00, 409.1, 54.0)">W</text><text xml:space="preserve" font-family="Monaco" font-size="34.0" fill="#D71E00" transform="matrix(1.00, 0.00, -0.00, -1.00, 429.5, 54.0)">o</text><text xml:space="preserve" font-family="Monaco" font-size="34.0" fill="#D71E00" transform="matrix(1.00, 0.00, -0.00, -1.00, 449.9, 54.0)">r</text><text xml:space="preserve" font-family="Monaco" font-size="34.0" fill="#D71E00" transform="matrix(1.00, 0.00, -0.00, -1.00, 470.3, 54.0)">l</text><text xml:space="preserve" font-family="Monaco" font-size="34.0" fill="#D71E00" transform="matrix(1.00, 0.00, -0.00, -1.00, 490.7, 54.0)">d</text><text xml:space="preserve" font-family="Monaco" font-size="34.0" fill="#D71E00" transform="matrix(1.00, 0.00, -0.00, -1.00, 511.1, 54.0)">"</text><text xml:space="preserve" font-family="Monaco" font-size="34.0" fill="#323343" transform="matrix(1.00, 0.00, -0.00, -1.00, 1.0, 8.0)">}</text></g></svg>