<?xml version="1.0" encoding="UTF-8" standalone="no"?><svg xmlns="http://www.w3.org/2000/svg" xmlns:xlink="http://www.w3.org/1999/xlink" clip-rule="evenodd" stroke-miterlimit="4.00" viewBox="0 0 840 85"><desc>SVG generated by Keynote</desc><defs></defs><g transform="matrix(1.00, 0.00, -0.00, -1.00, 0.0, 85.0)"><text xml:space="preserve" font-family="Monaco" font-size="34.0" fill="#00B418" transform="matrix(1.00, 0.00, -0.00, -1.00, 1.0, 56.0)">/</text><text xml:space="preserve" font-family="Monaco" font-size="34.0" fill="#00B418" transform="matrix(1.00, 0.00, -0.00, -1.00, 21.4, 56.0)">/</text><text xml:space="preserve" font-family="Monaco" font-size="34.0" fill="#00B418" transform="matrix(1.00, 0.00, -0.00, -1.00, 41.8, 56.0)"> </text><text xml:space="preserve" font-family="Monaco" font-size="34.0" fill="#00B418" transform="matrix(1.00, 0.00, -0.00, -1.00, 62.2, 56.0)">t</text><text xml:space="preserve" font-family="Monaco" font-size="34.0" fill="#00B418" transform="matrix(1.00, 0.00, -0.00, -1.00, 82.6, 56.0)">e</text><text xml:space="preserve" font-family="Monaco" font-size="34.0" fill="#00B418" transform="matrix(1.00, 0.00, -0.00, -1.00, 103.0, 56.0)">m</text><text xml:space="preserve" font-family="Monaco" font-size="34.0" fill="#00B418" transform="matrix(1.00, 0.00, -0.00, -1.00, 123.4, 56.0)">p</text><text xml:space="preserve" font-family="Monaco" font-size="34.0" fill="#00B418" transform="matrix(1.00, 0.00, -0.00, -1.00, 143.8, 56.0)">l</text><text xml:space="preserve" font-family="Monaco" font-size="34.0" fill="#00B418" transform="matrix(1.00, 0.00, -0.00, -1.00, 164.3, 56.0)">a</text><text xml:space="preserve" font-family="Monaco" font-size="34.0" fill="#00B418" transform="matrix(1.00, 0.00, -0.00, -1.00, 184.7, 56.0)">t</text><text xml:space="preserve" font-family="Monaco" font-size="34.0" fill="#00B418" transform="matrix(1.00, 0.00, -0.00, -1.00, 205.1, 56.0)">e</text><text xml:space="preserve" font-family="Monaco" font-size="34.0" fill="#00B418" transform="matrix(1.00, 0.00, -0.00, -1.00, 225.5, 56.0)">.</text><text xml:space="preserve" font-family="Monaco" font-size="34.0" fill="#00B418" transform="matrix(1.00, 0.00, -0.00, -1.00, 245.9, 56.0)">t</text><text xml:space="preserve" font-family="Monaco" font-size="34.0" fill="#00B418" transform="matrix(1.00, 0.00, -0.00, -1.00, 266.3, 56.0)">w</text><text xml:space="preserve" font-family="Monaco" font-size="34.0" fill="#00B418" transform="matrix(1.00, 0.00, -0.00, -1.00, 286.7, 56.0)">i</text><text xml:space="preserve" font-family="Monaco" font-size="34.0" fill="#00B418" transform="matrix(1.00, 0.00, -0.00, -1.00, 307.1, 56.0)">g</text><text xml:space="preserve" font-family="Monaco" font-size="34.0" fill="#323343" transform="matrix(1.00, 0.00, -0.00, -1.00, 1.0, 10.0)">&lt;</text><text xml:space="preserve" font-family="Monaco" font-size="34.0" fill="#323343" transform="matrix(1.00, 0.00, -0.00, -1.00, 21.4, 10.0)">h</text><text xml:space="preserve" font-family="Monaco" font-size="34.0" fill="#323343" transform="matrix(1.00, 0.00, -0.00, -1.00, 41.8, 10.0)">1</text><text xml:space="preserve" font-family="Monaco" font-size="34.0" fill="#323343" transform="matrix(1.00, 0.00, -0.00, -1.00, 62.2, 10.0)"> </text><text xml:space="preserve" font-family="Monaco" font-size="34.0" fill="#323343" transform="matrix(1.00, 0.00, -0.00, -1.00, 82.6, 10.0)">c</text><text xml:space="preserve" font-family="Monaco" font-size="34.0" fill="#323343" transform="matrix(1.00, 0.00, -0.00, -1.00, 103.0, 10.0)">l</text><text xml:space="preserve" font-family="Monaco" font-size="34.0" fill="#323343" transform="matrix(1.00, 0.00, -0.00, -1.00, 123.4, 10.0)">a</text><text xml:space="preserve" font-family="Monaco" font-size="34.0" fill="#323343" transform="matrix(1.00, 0.00, -0.00, -1.00, 143.8, 10.0)">s</text><text xml:space="preserve" font-family="Monaco" font-size="34.0" fill="#323343" transform="matrix(1.00, 0.00, -0.00, -1.00, 164.3, 10.0)">s</text><text xml:space="preserve" font-family="Monaco" font-size="34.0" fill="#0221B6" transform="matrix(1.00, 0.00, -0.00, -1.00, 184.6, 10.0)">=</text><text xml:space="preserve" font-family="Monaco" font-size="34.0" fill="#D71E00" transform="matrix(1.00, 0.00, -0.00, -1.00, 205.0, 10.0)">"</text><text xml:space="preserve" font-family="Monaco" font-size="34.0" fill="#D71E00" transform="matrix(1.00, 0.00, -0.00, -1.00, 225.4, 10.0)">p</text><text xml:space="preserve" font-family="Monaco" font-size="34.0" fill="#D71E00" transform="matrix(1.00, 0.00, -0.00, -1.00, 245.8, 10.0)">a</text><text xml:space="preserve" font-family="Monaco" font-size="34.0" fill="#D71E00" transform="matrix(1.00, 0.00, -0.00, -1.00, 266.3, 10.0)">g</text><text xml:space="preserve" font-family="Monaco" font-size="34.0" fill="#D71E00" transform="matrix(1.00, 0.00, -0.00, -1.00, 286.7, 10.0)">e</text><text xml:space="preserve" font-family="Monaco" font-size="34.0" fill="#D71E00" transform="matrix(1.00, 0.00, -0.00, -1.00, 307.1, 10.0)">-</text><text xml:space="preserve" font-family="Monaco" font-size="34.0" fill="#D71E00" transform="matrix(1.00, 0.00, -0.00, -1.00, 327.5, 10.0)">h</text><text xml:space="preserve" font-family="Monaco" font-size="34.0" fill="#D71E00" transform="matrix(1.00, 0.00, -0.00, -1.00, 347.9, 10.0)">e</text><text xml:space="preserve" font-family="Monaco" font-size="34.0" fill="#D71E00" transform="matrix(1.00, 0.00, -0.00, -1.00, 368.3, 10.0)">a</text><text xml:space="preserve" font-family="Monaco" font-size="34.0" fill="#D71E00" transform="matrix(1.00, 0.00, -0.00, -1.00, 388.7, 10.0)">d</text><text xml:space="preserve" font-family="Monaco" font-size="34.0" fill="#D71E00" transform="matrix(1.00, 0.00, -0.00, -1.00, 409.1, 10.0)">i</text><text xml:space="preserve" font-family="Monaco" font-size="34.0" fill="#D71E00" transform="matrix(1.00, 0.00, -0.00, -1.00, 429.5, 10.0)">n</text><text xml:space="preserve" font-family="Monaco" font-size="34.0" fill="#D71E00" transform="matrix(1.00, 0.00, -0.00, -1.00, 449.9, 10.0)">g</text><text xml:space="preserve" font-family="Monaco" font-size="34.0" fill="#D71E00" transform="matrix(1.00, 0.00, -0.00, -1.00, 470.3, 10.0)">"</text><text xml:space="preserve" font-family="Monaco" font-size="34.0" fill="#323343" transform="matrix(1.00, 0.00, -0.00, -1.00, 490.7, 10.0)">&gt;</text><text xml:space="preserve" font-family="Monaco" font-size="34.0" fill="#323343" transform="matrix(1.00, 0.00, -0.00, -1.00, 511.1, 10.0)">{</text><text xml:space="preserve" font-family="Monaco" font-size="34.0" fill="#323343" transform="matrix(1.00, 0.00, -0.00, -1.00, 531.5, 10.0)">{</text><text xml:space="preserve" font-family="Monaco" font-size="34.0" fill="#323343" transform="matrix(1.00, 0.00, -0.00, -1.00, 551.9, 10.0)"> </text><text xml:space="preserve" font-family="Monaco" font-size="34.0" fill="#3C4C72" transform="matrix(1.00, 0.00, -0.00, -1.00, 572.3, 10.0)">t</text><text xml:space="preserve" font-family="Monaco" font-size="34.0" fill="#3C4C72" transform="matrix(1.00, 0.00, -0.00, -1.00, 592.7, 10.0)">i</text><text xml:space="preserve" font-family="Monaco" font-size="34.0" fill="#3C4C72" transform="matrix(1.00, 0.00, -0.00, -1.00, 613.1, 10.0)">t</text><text xml:space="preserve" font-family="Monaco" font-size="34.0" fill="#3C4C72" transform="matrix(1.00, 0.00, -0.00, -1.00, 633.5, 10.0)">l</text><text xml:space="preserve" font-family="Monaco" font-size="34.0" fill="#3C4C72" transform="matrix(1.00, 0.00, -0.00, -1.00, 653.9, 10.0)">e</text><text xml:space="preserve" font-family="Monaco" font-size="34.0" fill="#323343" transform="matrix(1.00, 0.00, -0.00, -1.00, 674.3, 10.0)"> </text><text xml:space="preserve" font-family="Monaco" font-size="34.0" fill="#323343" transform="matrix(1.00, 0.00, -0.00, -1.00, 694.7, 10.0)">}</text><text xml:space="preserve" font-family="Monaco" font-size="34.0" fill="#323343" transform="matrix(1.00, 0.00, -0.00, -1.00, 715.1, 10.0)">}</text><text xml:space="preserve" font-family="Monaco" font-size="34.0" fill="#323343" transform="matrix(1.00, 0.00, -0.00, -1.00, 735.5, 10.0)">&lt;</text><text xml:space="preserve" font-family="Monaco" font-size="34.0" fill="#0221B6" transform="matrix(1.00, 0.00, -0.00, -1.00, 755.9, 10.0)">/</text><text xml:space="preserve" font-family="Monaco" font-size="34.0" fill="#323343" transform="matrix(1.00, 0.00, -0.00, -1.00, 776.3, 10.0)">h</text><text xml:space="preserve" font-family="Monaco" font-size="34.0" fill="#323343" transform="matrix(1.00, 0.00, -0.00, -1.00, 796.7, 10.0)">1</text><text xml:space="preserve" font-family="Monaco" font-size="34.0" fill="#323343" transform="matrix(1.00, 0.00, -0.00, -1.00, 817.1, 10.0)">&gt;</text></g></svg>