<?xml version="1.0" encoding="UTF-8" standalone="no"?><svg xmlns="http://www.w3.org/2000/svg" xmlns:xlink="http://www.w3.org/1999/xlink" clip-rule="evenodd" stroke-miterlimit="4.00" viewBox="0 0 1024 768"><desc>SVG generated by Keynote</desc><defs></defs><g transform="matrix(1.00, 0.00, -0.00, -1.00, 0.0, 768.0)"><path d="M 0.0 768.0 L 1024.0 768.0 L 1024.0 0.0 L 0.0 0.0 Z M 0.0 768.0 " fill="#FEFFFF"></path><text xml:space="preserve" font-family="Monaco" font-size="34.0" fill="#00B418" transform="matrix(1.00, 0.00, -0.00, -1.00, 93.0, 598.0)">/</text><text xml:space="preserve" font-family="Monaco" font-size="34.0" fill="#00B418" transform="matrix(1.00, 0.00, -0.00, -1.00, 113.4, 598.0)">/</text><text xml:space="preserve" font-family="Monaco" font-size="34.0" fill="#00B418" transform="matrix(1.00, 0.00, -0.00, -1.00, 133.8, 598.0)"> </text><text xml:space="preserve" font-family="Monaco" font-size="34.0" fill="#00B418" transform="matrix(1.00, 0.00, -0.00, -1.00, 154.2, 598.0)">t</text><text xml:space="preserve" font-family="Monaco" font-size="34.0" fill="#00B418" transform="matrix(1.00, 0.00, -0.00, -1.00, 174.6, 598.0)">e</text><text xml:space="preserve" font-family="Monaco" font-size="34.0" fill="#00B418" transform="matrix(1.00, 0.00, -0.00, -1.00, 195.0, 598.0)">m</text><text xml:space="preserve" font-family="Monaco" font-size="34.0" fill="#00B418" transform="matrix(1.00, 0.00, -0.00, -1.00, 215.4, 598.0)">p</text><text xml:space="preserve" font-family="Monaco" font-size="34.0" fill="#00B418" transform="matrix(1.00, 0.00, -0.00, -1.00, 235.8, 598.0)">l</text><text xml:space="preserve" font-family="Monaco" font-size="34.0" fill="#00B418" transform="matrix(1.00, 0.00, -0.00, -1.00, 256.3, 598.0)">a</text><text xml:space="preserve" font-family="Monaco" font-size="34.0" fill="#00B418" transform="matrix(1.00, 0.00, -0.00, -1.00, 276.7, 598.0)">t</text><text xml:space="preserve" font-family="Monaco" font-size="34.0" fill="#00B418" transform="matrix(1.00, 0.00, -0.00, -1.00, 297.1, 598.0)">e</text><text xml:space="preserve" font-family="Monaco" font-size="34.0" fill="#00B418" transform="matrix(1.00, 0.00, -0.00, -1.00, 317.5, 598.0)">.</text><text xml:space="preserve" font-family="Monaco" font-size="34.0" fill="#00B418" transform="matrix(1.00, 0.00, -0.00, -1.00, 337.9, 598.0)">t</text><text xml:space="preserve" font-family="Monaco" font-size="34.0" fill="#00B418" transform="matrix(1.00, 0.00, -0.00, -1.00, 358.3, 598.0)">w</text><text xml:space="preserve" font-family="Monaco" font-size="34.0" fill="#00B418" transform="matrix(1.00, 0.00, -0.00, -1.00, 378.7, 598.0)">i</text><text xml:space="preserve" font-family="Monaco" font-size="34.0" fill="#00B418" transform="matrix(1.00, 0.00, -0.00, -1.00, 399.1, 598.0)">g</text><text xml:space="preserve" font-family="Monaco" font-size="34.0" fill="#323343" transform="matrix(1.00, 0.00, -0.00, -1.00, 93.0, 552.0)">&lt;</text><text xml:space="preserve" font-family="Monaco" font-size="34.0" fill="#323343" transform="matrix(1.00, 0.00, -0.00, -1.00, 113.4, 552.0)">h</text><text xml:space="preserve" font-family="Monaco" font-size="34.0" fill="#323343" transform="matrix(1.00, 0.00, -0.00, -1.00, 133.8, 552.0)">1</text><text xml:space="preserve" font-family="Monaco" font-size="34.0" fill="#323343" transform="matrix(1.00, 0.00, -0.00, -1.00, 154.2, 552.0)"> </text><text xml:space="preserve" font-family="Monaco" font-size="34.0" fill="#323343" transform="matrix(1.00, 0.00, -0.00, -1.00, 174.6, 552.0)">c</text><text xml:space="preserve" font-family="Monaco" font-size="34.0" fill="#323343" transform="matrix(1.00, 0.00, -0.00, -1.00, 195.0, 552.0)">l</text><text xml:space="preserve" font-family="Monaco" font-size="34.0" fill="#323343" transform="matrix(1.00, 0.00, -0.00, -1.00, 215.4, 552.0)">a</text><text xml:space="preserve" font-family="Monaco" font-size="34.0" fill="#323343" transform="matrix(1.00, 0.00, -0.00, -1.00, 235.8, 552.0)">s</text><text xml:space="preserve" font-family="Monaco" font-size="34.0" fill="#323343" transform="matrix(1.00, 0.00, -0.00, -1.00, 256.3, 552.0)">s</text><text xml:space="preserve" font-family="Monaco" font-size="34.0" fill="#0221B6" transform="matrix(1.00, 0.00, -0.00, -1.00, 276.6, 552.0)">=</text><text xml:space="preserve" font-family="Monaco" font-size="34.0" fill="#D71E00" transform="matrix(1.00, 0.00, -0.00, -1.00, 297.0, 552.0)">"</text><text xml:space="preserve" font-family="Monaco" font-size="34.0" fill="#D71E00" transform="matrix(1.00, 0.00, -0.00, -1.00, 317.4, 552.0)">p</text><text xml:space="preserve" font-family="Monaco" font-size="34.0" fill="#D71E00" transform="matrix(1.00, 0.00, -0.00, -1.00, 337.8, 552.0)">a</text><text xml:space="preserve" font-family="Monaco" font-size="34.0" fill="#D71E00" transform="matrix(1.00, 0.00, -0.00, -1.00, 358.3, 552.0)">g</text><text xml:space="preserve" font-family="Monaco" font-size="34.0" fill="#D71E00" transform="matrix(1.00, 0.00, -0.00, -1.00, 378.7, 552.0)">e</text><text xml:space="preserve" font-family="Monaco" font-size="34.0" fill="#D71E00" transform="matrix(1.00, 0.00, -0.00, -1.00, 399.1, 552.0)">-</text><text xml:space="preserve" font-family="Monaco" font-size="34.0" fill="#D71E00" transform="matrix(1.00, 0.00, -0.00, -1.00, 419.5, 552.0)">h</text><text xml:space="preserve" font-family="Monaco" font-size="34.0" fill="#D71E00" transform="matrix(1.00, 0.00, -0.00, -1.00, 439.9, 552.0)">e</text><text xml:space="preserve" font-family="Monaco" font-size="34.0" fill="#D71E00" transform="matrix(1.00, 0.00, -0.00, -1.00, 460.3, 552.0)">a</text><text xml:space="preserve" font-family="Monaco" font-size="34.0" fill="#D71E00" transform="matrix(1.00, 0.00, -0.00, -1.00, 480.7, 552.0)">d</text><text xml:space="preserve" font-family="Monaco" font-size="34.0" fill="#D71E00" transform="matrix(1.00, 0.00, -0.00, -1.00, 501.1, 552.0)">i</text><text xml:space="preserve" font-family="Monaco" font-size="34.0" fill="#D71E00" transform="matrix(1.00, 0.00, -0.00, -1.00, 521.5, 552.0)">n</text><text xml:space="preserve" font-family="Monaco" font-size="34.0" fill="#D71E00" transform="matrix(1.00, 0.00, -0.00, -1.00, 541.9, 552.0)">g</text><text xml:space="preserve" font-family="Monaco" font-size="34.0" fill="#D71E00" transform="matrix(1.00, 0.00, -0.00, -1.00, 562.3, 552.0)">"</text><text xml:space="preserve" font-family="Monaco" font-size="34.0" fill="#323343" transform="matrix(1.00, 0.00, -0.00, -1.00, 582.7, 552.0)">&gt;</text><text xml:space="preserve" font-family="Monaco" font-size="34.0" fill="#323343" transform="matrix(1.00, 0.00, -0.00, -1.00, 603.1, 552.0)">{</text><text xml:space="preserve" font-family="Monaco" font-size="34.0" fill="#323343" transform="matrix(1.00, 0.00, -0.00, -1.00, 623.5, 552.0)">{</text><text xml:space="preserve" font-family="Monaco" font-size="34.0" fill="#323343" transform="matrix(1.00, 0.00, -0.00, -1.00, 643.9, 552.0)"> </text><text xml:space="preserve" font-family="Monaco" font-size="34.0" fill="#3C4C72" transform="matrix(1.00, 0.00, -0.00, -1.00, 664.3, 552.0)">t</text><text xml:space="preserve" font-family="Monaco" font-size="34.0" fill="#3C4C72" transform="matrix(1.00, 0.00, -0.00, -1.00, 684.7, 552.0)">i</text><text xml:space="preserve" font-family="Monaco" font-size="34.0" fill="#3C4C72" transform="matrix(1.00, 0.00, -0.00, -1.00, 705.1, 552.0)">t</text><text xml:space="preserve" font-family="Monaco" font-size="34.0" fill="#3C4C72" transform="matrix(1.00, 0.00, -0.00, -1.00, 725.5, 552.0)">l</text><text xml:space="preserve" font-family="Monaco" font-size="34.0" fill="#3C4C72" transform="matrix(1.00, 0.00, -0.00, -1.00, 745.9, 552.0)">e</text><text xml:space="preserve" font-family="Monaco" font-size="34.0" fill="#323343" transform="matrix(1.00, 0.00, -0.00, -1.00, 766.3, 552.0)"> </text><text xml:space="preserve" font-family="Monaco" font-size="34.0" fill="#323343" transform="matrix(1.00, 0.00, -0.00, -1.00, 786.7, 552.0)">}</text><text xml:space="preserve" font-family="Monaco" font-size="34.0" fill="#323343" transform="matrix(1.00, 0.00, -0.00, -1.00, 807.1, 552.0)">}</text><text xml:space="preserve" font-family="Monaco" font-size="34.0" fill="#323343" transform="matrix(1.00, 0.00, -0.00, -1.00, 827.5, 552.0)">&lt;</text><text xml:space="preserve" font-family="Monaco" font-size="34.0" fill="#0221B6" transform="matrix(1.00, 0.00, -0.00, -1.00, 847.9, 552.0)">/</text><text xml:space="preserve" font-family="Monaco" font-size="34.0" fill="#323343" transform="matrix(1.00, 0.00, -0.00, -1.00, 868.3, 552.0)">h</text><text xml:space="preserve" font-family="Monaco" font-size="34.0" fill="#323343" transform="matrix(1.00, 0.00, -0.00, -1.00, 888.7, 552.0)">1</text><text xml:space="preserve" font-family="Monaco" font-size="34.0" fill="#323343" transform="matrix(1.00, 0.00, -0.00, -1.00, 909.1, 552.0)">&gt;</text><text xml:space="preserve" font-family="Monaco" font-size="34.0" fill="#00B418" transform="matrix(1.00, 0.00, -0.00, -1.00, 92.0, 317.0)">/</text><text xml:space="preserve" font-family="Monaco" font-size="34.0" fill="#00B418" transform="matrix(1.00, 0.00, -0.00, -1.00, 112.4, 317.0)">/</text><text xml:space="preserve" font-family="Monaco" font-size="34.0" fill="#00B418" transform="matrix(1.00, 0.00, -0.00, -1.00, 132.8, 317.0)"> </text><text xml:space="preserve" font-family="Monaco" font-size="34.0" fill="#00B418" transform="matrix(1.00, 0.00, -0.00, -1.00, 153.2, 317.0)">d</text><text xml:space="preserve" font-family="Monaco" font-size="34.0" fill="#00B418" transform="matrix(1.00, 0.00, -0.00, -1.00, 173.6, 317.0)">a</text><text xml:space="preserve" font-family="Monaco" font-size="34.0" fill="#00B418" transform="matrix(1.00, 0.00, -0.00, -1.00, 194.0, 317.0)">t</text><text xml:space="preserve" font-family="Monaco" font-size="34.0" fill="#00B418" transform="matrix(1.00, 0.00, -0.00, -1.00, 214.4, 317.0)">a</text><text xml:space="preserve" font-family="Monaco" font-size="34.0" fill="#00B418" transform="matrix(1.00, 0.00, -0.00, -1.00, 234.8, 317.0)">.</text><text xml:space="preserve" font-family="Monaco" font-size="34.0" fill="#00B418" transform="matrix(1.00, 0.00, -0.00, -1.00, 255.3, 317.0)">j</text><text xml:space="preserve" font-family="Monaco" font-size="34.0" fill="#00B418" transform="matrix(1.00, 0.00, -0.00, -1.00, 275.7, 317.0)">s</text><text xml:space="preserve" font-family="Monaco" font-size="34.0" fill="#00B418" transform="matrix(1.00, 0.00, -0.00, -1.00, 296.1, 317.0)">o</text><text xml:space="preserve" font-family="Monaco" font-size="34.0" fill="#00B418" transform="matrix(1.00, 0.00, -0.00, -1.00, 316.5, 317.0)">n</text><text xml:space="preserve" font-family="Monaco" font-size="34.0" fill="#323343" transform="matrix(1.00, 0.00, -0.00, -1.00, 92.0, 271.0)">{</text><text xml:space="preserve" font-family="Monaco" font-size="34.0" fill="#323343" transform="matrix(1.00, 0.00, -0.00, -1.00, 92.0, 225.0)"> </text><text xml:space="preserve" font-family="Monaco" font-size="34.0" fill="#323343" transform="matrix(1.00, 0.00, -0.00, -1.00, 112.4, 225.0)"> </text><text xml:space="preserve" font-family="Monaco" font-size="34.0" fill="#323343" transform="matrix(1.00, 0.00, -0.00, -1.00, 132.8, 225.0)"> </text><text xml:space="preserve" font-family="Monaco" font-size="34.0" fill="#323343" transform="matrix(1.00, 0.00, -0.00, -1.00, 153.2, 225.0)"> </text><text xml:space="preserve" font-family="Monaco" font-size="34.0" fill="#D71E00" transform="matrix(1.00, 0.00, -0.00, -1.00, 173.6, 225.0)">"</text><text xml:space="preserve" font-family="Monaco" font-size="34.0" fill="#D71E00" transform="matrix(1.00, 0.00, -0.00, -1.00, 194.0, 225.0)">t</text><text xml:space="preserve" font-family="Monaco" font-size="34.0" fill="#D71E00" transform="matrix(1.00, 0.00, -0.00, -1.00, 214.4, 225.0)">i</text><text xml:space="preserve" font-family="Monaco" font-size="34.0" fill="#D71E00" transform="matrix(1.00, 0.00, -0.00, -1.00, 234.8, 225.0)">t</text><text xml:space="preserve" font-family="Monaco" font-size="34.0" fill="#D71E00" transform="matrix(1.00, 0.00, -0.00, -1.00, 255.2, 225.0)">l</text><text xml:space="preserve" font-family="Monaco" font-size="34.0" fill="#D71E00" transform="matrix(1.00, 0.00, -0.00, -1.00, 275.6, 225.0)">e</text><text xml:space="preserve" font-family="Monaco" font-size="34.0" fill="#D71E00" transform="matrix(1.00, 0.00, -0.00, -1.00, 296.1, 225.0)">"</text><text xml:space="preserve" font-family="Monaco" font-size="34.0" fill="#0221B6" transform="matrix(1.00, 0.00, -0.00, -1.00, 316.4, 225.0)">:</text><text xml:space="preserve" font-family="Monaco" font-size="34.0" fill="#323343" transform="matrix(1.00, 0.00, -0.00, -1.00, 336.8, 225.0)"> </text><text xml:space="preserve" font-family="Monaco" font-size="34.0" fill="#D71E00" transform="matrix(1.00, 0.00, -0.00, -1.00, 357.2, 225.0)">"</text><text xml:space="preserve" font-family="Monaco" font-size="34.0" fill="#D71E00" transform="matrix(1.00, 0.00, -0.00, -1.00, 377.6, 225.0)">H</text><text xml:space="preserve" font-family="Monaco" font-size="34.0" fill="#D71E00" transform="matrix(1.00, 0.00, -0.00, -1.00, 398.1, 225.0)">e</text><text xml:space="preserve" font-family="Monaco" font-size="34.0" fill="#D71E00" transform="matrix(1.00, 0.00, -0.00, -1.00, 418.5, 225.0)">l</text><text xml:space="preserve" font-family="Monaco" font-size="34.0" fill="#D71E00" transform="matrix(1.00, 0.00, -0.00, -1.00, 438.9, 225.0)">l</text><text xml:space="preserve" font-family="Monaco" font-size="34.0" fill="#D71E00" transform="matrix(1.00, 0.00, -0.00, -1.00, 459.3, 225.0)">o</text><text xml:space="preserve" font-family="Monaco" font-size="34.0" fill="#D71E00" transform="matrix(1.00, 0.00, -0.00, -1.00, 479.7, 225.0)"> </text><text xml:space="preserve" font-family="Monaco" font-size="34.0" fill="#D71E00" transform="matrix(1.00, 0.00, -0.00, -1.00, 500.1, 225.0)">W</text><text xml:space="preserve" font-family="Monaco" font-size="34.0" fill="#D71E00" transform="matrix(1.00, 0.00, -0.00, -1.00, 520.5, 225.0)">o</text><text xml:space="preserve" font-family="Monaco" font-size="34.0" fill="#D71E00" transform="matrix(1.00, 0.00, -0.00, -1.00, 540.9, 225.0)">r</text><text xml:space="preserve" font-family="Monaco" font-size="34.0" fill="#D71E00" transform="matrix(1.00, 0.00, -0.00, -1.00, 561.3, 225.0)">l</text><text xml:space="preserve" font-family="Monaco" font-size="34.0" fill="#D71E00" transform="matrix(1.00, 0.00, -0.00, -1.00, 581.7, 225.0)">d</text><text xml:space="preserve" font-family="Monaco" font-size="34.0" fill="#D71E00" transform="matrix(1.00, 0.00, -0.00, -1.00, 602.1, 225.0)">"</text><text xml:space="preserve" font-family="Monaco" font-size="34.0" fill="#323343" transform="matrix(1.00, 0.00, -0.00, -1.00, 92.0, 179.0)">}</text></g></svg>