<?xml version="1.0" encoding="UTF-8" standalone="no"?><svg xmlns="http://www.w3.org/2000/svg" xmlns:xlink="http://www.w3.org/1999/xlink" clip-rule="evenodd" stroke-miterlimit="4.00" viewBox="0 0 1024 768"><desc>SVG generated by Keynote</desc><defs></defs><g transform="matrix(1.00, 0.00, -0.00, -1.00, 0.0, 768.0)"><path d="M 0.0 768.0 L 1024.0 768.0 L 1024.0 0.0 L 0.0 0.0 Z M 0.0 768.0 " fill="#FEFFFF"></path><text xml:space="preserve" font-family="Adventure" font-size="48.0" fill="#000000" transform="matrix(1.00, 0.00, -0.00, -1.00, 233.0, 628.0)">K</text><text xml:space="preserve" font-family="Adventure" font-size="48.0" fill="#000000" transform="matrix(1.00, 0.00, -0.00, -1.00, 261.1, 628.0)">E</text><text xml:space="preserve" font-family="Adventure" font-size="48.0" fill="#000000" transform="matrix(1.00, 0.00, -0.00, -1.00, 284.6, 628.0)">E</text><text xml:space="preserve" font-family="Adventure" font-size="48.0" fill="#000000" transform="matrix(1.00, 0.00, -0.00, -1.00, 308.0, 628.0)">P</text><text xml:space="preserve" font-family="Adventure" font-size="48.0" fill="#000000" transform="matrix(1.00, 0.00, -0.00, -1.00, 336.1, 628.0)"> </text><text xml:space="preserve" font-family="Adventure" font-size="48.0" fill="#000000" transform="matrix(1.00, 0.00, -0.00, -1.00, 351.4, 628.0)">Y</text><text xml:space="preserve" font-family="Adventure" font-size="48.0" fill="#000000" transform="matrix(1.00, 0.00, -0.00, -1.00, 377.2, 628.0)">O</text><text xml:space="preserve" font-family="Adventure" font-size="48.0" fill="#000000" transform="matrix(1.00, 0.00, -0.00, -1.00, 410.0, 628.0)">U</text><text xml:space="preserve" font-family="Adventure" font-size="48.0" fill="#000000" transform="matrix(1.00, 0.00, -0.00, -1.00, 440.5, 628.0)">R</text><text xml:space="preserve" font-family="Adventure" font-size="48.0" fill="#000000" transform="matrix(1.00, 0.00, -0.00, -1.00, 469.8, 628.0)"> </text><text xml:space="preserve" font-family="Adventure" font-size="48.0" fill="#000000" transform="matrix(1.00, 0.00, -0.00, -1.00, 485.1, 628.0)">C</text><text xml:space="preserve" font-family="Adventure" font-size="48.0" fill="#000000" transform="matrix(1.00, 0.00, -0.00, -1.00, 516.8, 628.0)">O</text><text xml:space="preserve" font-family="Adventure" font-size="48.0" fill="#000000" transform="matrix(1.00, 0.00, -0.00, -1.00, 549.6, 628.0)">M</text><text xml:space="preserve" font-family="Adventure" font-size="48.0" fill="#000000" transform="matrix(1.00, 0.00, -0.00, -1.00, 594.1, 628.0)">P</text><text xml:space="preserve" font-family="Adventure" font-size="48.0" fill="#000000" transform="matrix(1.00, 0.00, -0.00, -1.00, 622.2, 628.0)">O</text><text xml:space="preserve" font-family="Adventure" font-size="48.0" fill="#000000" transform="matrix(1.00, 0.00, -0.00, -1.00, 655.0, 628.0)">N</text><text xml:space="preserve" font-family="Adventure" font-size="48.0" fill="#000000" transform="matrix(1.00, 0.00, -0.00, -1.00, 683.2, 628.0)">E</text><text xml:space="preserve" font-family="Adventure" font-size="48.0" fill="#000000" transform="matrix(1.00, 0.00, -0.00, -1.00, 706.6, 628.0)">N</text><text xml:space="preserve" font-family="Adventure" font-size="48.0" fill="#000000" transform="matrix(1.00, 0.00, -0.00, -1.00, 734.7, 628.0)">T</text><text xml:space="preserve" font-family="Adventure" font-size="48.0" fill="#000000" transform="matrix(1.00, 0.00, -0.00, -1.00, 760.5, 628.0)">’</text><text xml:space="preserve" font-family="Adventure" font-size="48.0" fill="#000000" transform="matrix(1.00, 0.00, -0.00, -1.00, 772.2, 628.0)">S</text><text xml:space="preserve" font-family="Adventure" font-size="48.0" fill="#000000" transform="matrix(1.00, 0.00, -0.00, -1.00, 790.9, 628.0)"> </text><text xml:space="preserve" font-family="Adventure" font-size="48.0" fill="#000000" transform="matrix(1.00, 0.00, -0.00, -1.00, 806.3, 628.0)"> </text><text xml:space="preserve" font-family="Adventure" font-size="48.0" fill="#000000" transform="matrix(1.00, 0.00, -0.00, -1.00, 153.0, 567.0)">S</text><text xml:space="preserve" font-family="Adventure" font-size="48.0" fill="#000000" transform="matrix(1.00, 0.00, -0.00, -1.00, 171.7, 567.0)">A</text><text xml:space="preserve" font-family="Adventure" font-size="48.0" fill="#000000" transform="matrix(1.00, 0.00, -0.00, -1.00, 199.8, 567.0)">S</text><text xml:space="preserve" font-family="Adventure" font-size="48.0" fill="#000000" transform="matrix(1.00, 0.00, -0.00, -1.00, 218.6, 567.0)">S</text><text xml:space="preserve" font-family="Adventure" font-size="48.0" fill="#000000" transform="matrix(1.00, 0.00, -0.00, -1.00, 237.3, 567.0)"> </text><text xml:space="preserve" font-family="Adventure" font-size="48.0" fill="#000000" transform="matrix(1.00, 0.00, -0.00, -1.00, 252.6, 567.0)">A</text><text xml:space="preserve" font-family="Adventure" font-size="48.0" fill="#000000" transform="matrix(1.00, 0.00, -0.00, -1.00, 280.7, 567.0)">N</text><text xml:space="preserve" font-family="Adventure" font-size="48.0" fill="#000000" transform="matrix(1.00, 0.00, -0.00, -1.00, 308.8, 567.0)">D</text><text xml:space="preserve" font-family="Adventure" font-size="48.0" fill="#000000" transform="matrix(1.00, 0.00, -0.00, -1.00, 336.9, 567.0)"> </text><text xml:space="preserve" font-family="Adventure" font-size="48.0" fill="#000000" transform="matrix(1.00, 0.00, -0.00, -1.00, 352.2, 567.0)">J</text><text xml:space="preserve" font-family="Adventure" font-size="48.0" fill="#000000" transform="matrix(1.00, 0.00, -0.00, -1.00, 379.2, 567.0)">S</text><text xml:space="preserve" font-family="Adventure" font-size="48.0" fill="#000000" transform="matrix(1.00, 0.00, -0.00, -1.00, 397.9, 567.0)"> </text><text xml:space="preserve" font-family="Adventure" font-size="48.0" fill="#000000" transform="matrix(1.00, 0.00, -0.00, -1.00, 413.2, 567.0)">W</text><text xml:space="preserve" font-family="Adventure" font-size="48.0" fill="#000000" transform="matrix(1.00, 0.00, -0.00, -1.00, 455.4, 567.0)">I</text><text xml:space="preserve" font-family="Adventure" font-size="48.0" fill="#000000" transform="matrix(1.00, 0.00, -0.00, -1.00, 477.6, 567.0)">T</text><text xml:space="preserve" font-family="Adventure" font-size="48.0" fill="#000000" transform="matrix(1.00, 0.00, -0.00, -1.00, 503.4, 567.0)">H</text><text xml:space="preserve" font-family="Adventure" font-size="48.0" fill="#000000" transform="matrix(1.00, 0.00, -0.00, -1.00, 532.8, 567.0)"> </text><text xml:space="preserve" font-family="Adventure" font-size="48.0" fill="#000000" transform="matrix(1.00, 0.00, -0.00, -1.00, 548.1, 567.0)">Y</text><text xml:space="preserve" font-family="Adventure" font-size="48.0" fill="#000000" transform="matrix(1.00, 0.00, -0.00, -1.00, 573.9, 567.0)">O</text><text xml:space="preserve" font-family="Adventure" font-size="48.0" fill="#000000" transform="matrix(1.00, 0.00, -0.00, -1.00, 606.7, 567.0)">U</text><text xml:space="preserve" font-family="Adventure" font-size="48.0" fill="#000000" transform="matrix(1.00, 0.00, -0.00, -1.00, 637.1, 567.0)">R</text><text xml:space="preserve" font-family="Adventure" font-size="48.0" fill="#000000" transform="matrix(1.00, 0.00, -0.00, -1.00, 666.4, 567.0)"> </text><text xml:space="preserve" font-family="Adventure" font-size="48.0" fill="#000000" transform="matrix(1.00, 0.00, -0.00, -1.00, 681.8, 567.0)">M</text><text xml:space="preserve" font-family="Adventure" font-size="48.0" fill="#000000" transform="matrix(1.00, 0.00, -0.00, -1.00, 726.3, 567.0)">A</text><text xml:space="preserve" font-family="Adventure" font-size="48.0" fill="#000000" transform="matrix(1.00, 0.00, -0.00, -1.00, 754.4, 567.0)">R</text><text xml:space="preserve" font-family="Adventure" font-size="48.0" fill="#000000" transform="matrix(1.00, 0.00, -0.00, -1.00, 783.7, 567.0)">K</text><text xml:space="preserve" font-family="Adventure" font-size="48.0" fill="#000000" transform="matrix(1.00, 0.00, -0.00, -1.00, 811.8, 567.0)">U</text><text xml:space="preserve" font-family="Adventure" font-size="48.0" fill="#000000" transform="matrix(1.00, 0.00, -0.00, -1.00, 842.3, 567.0)">P</text><image xlink:href="../../C2D396B1-B170-459A-88F2-2FEB5F58E0EE/assets/9FB724A89DC2653D6BC56DAEC9993822.png" width="362.00" height="430.00" transform="matrix(1.00, 0.00, -0.00, -1.00, 331.0, 513.0)"></image></g></svg>