<?xml version="1.0" encoding="UTF-8" standalone="no"?><svg xmlns="http://www.w3.org/2000/svg" xmlns:xlink="http://www.w3.org/1999/xlink" clip-rule="evenodd" stroke-miterlimit="4.00" viewBox="0 0 1024 768"><desc>SVG generated by Keynote</desc><defs></defs><g transform="matrix(1.00, 0.00, -0.00, -1.00, 0.0, 768.0)"><path d="M 0.0 768.0 L 1024.0 768.0 L 1024.0 0.0 L 0.0 0.0 Z M 0.0 768.0 " fill="#FEFFFF"></path><text xml:space="preserve" font-family="Monaco" font-size="25.0" fill="#323343" transform="matrix(1.00, 0.00, -0.00, -1.00, 31.0, 507.0)">{</text><text xml:space="preserve" font-family="Monaco" font-size="25.0" fill="#0221B6" transform="matrix(1.00, 0.00, -0.00, -1.00, 46.0, 507.0)">%</text><text xml:space="preserve" font-family="Monaco" font-size="25.0" fill="#323343" transform="matrix(1.00, 0.00, -0.00, -1.00, 61.0, 507.0)"> </text><text xml:space="preserve" font-family="Monaco" font-size="25.0" fill="#6D78DE" transform="matrix(1.00, 0.00, -0.00, -1.00, 76.0, 507.0)">s</text><text xml:space="preserve" font-family="Monaco" font-size="25.0" fill="#6D78DE" transform="matrix(1.00, 0.00, -0.00, -1.00, 91.0, 507.0)">e</text><text xml:space="preserve" font-family="Monaco" font-size="25.0" fill="#6D78DE" transform="matrix(1.00, 0.00, -0.00, -1.00, 106.0, 507.0)">t</text><text xml:space="preserve" font-family="Monaco" font-size="25.0" fill="#323343" transform="matrix(1.00, 0.00, -0.00, -1.00, 121.0, 507.0)"> </text><text xml:space="preserve" font-family="Monaco" font-size="25.0" fill="#323343" transform="matrix(1.00, 0.00, -0.00, -1.00, 136.0, 507.0)">c</text><text xml:space="preserve" font-family="Monaco" font-size="25.0" fill="#323343" transform="matrix(1.00, 0.00, -0.00, -1.00, 151.0, 507.0)">o</text><text xml:space="preserve" font-family="Monaco" font-size="25.0" fill="#323343" transform="matrix(1.00, 0.00, -0.00, -1.00, 166.0, 507.0)">l</text><text xml:space="preserve" font-family="Monaco" font-size="25.0" fill="#323343" transform="matrix(1.00, 0.00, -0.00, -1.00, 181.0, 507.0)">o</text><text xml:space="preserve" font-family="Monaco" font-size="25.0" fill="#323343" transform="matrix(1.00, 0.00, -0.00, -1.00, 196.0, 507.0)">u</text><text xml:space="preserve" font-family="Monaco" font-size="25.0" fill="#323343" transform="matrix(1.00, 0.00, -0.00, -1.00, 211.0, 507.0)">r</text><text xml:space="preserve" font-family="Monaco" font-size="25.0" fill="#323343" transform="matrix(1.00, 0.00, -0.00, -1.00, 226.0, 507.0)"> </text><text xml:space="preserve" font-family="Monaco" font-size="25.0" fill="#0221B6" transform="matrix(1.00, 0.00, -0.00, -1.00, 241.0, 507.0)">=</text><text xml:space="preserve" font-family="Monaco" font-size="25.0" fill="#323343" transform="matrix(1.00, 0.00, -0.00, -1.00, 256.0, 507.0)"> </text><text xml:space="preserve" font-family="Monaco" font-size="25.0" fill="#D71E00" transform="matrix(1.00, 0.00, -0.00, -1.00, 271.0, 507.0)">'</text><text xml:space="preserve" font-family="Monaco" font-size="25.0" fill="#D71E00" transform="matrix(1.00, 0.00, -0.00, -1.00, 286.0, 507.0)">b</text><text xml:space="preserve" font-family="Monaco" font-size="25.0" fill="#D71E00" transform="matrix(1.00, 0.00, -0.00, -1.00, 301.0, 507.0)">a</text><text xml:space="preserve" font-family="Monaco" font-size="25.0" fill="#D71E00" transform="matrix(1.00, 0.00, -0.00, -1.00, 316.1, 507.0)">d</text><text xml:space="preserve" font-family="Monaco" font-size="25.0" fill="#D71E00" transform="matrix(1.00, 0.00, -0.00, -1.00, 331.1, 507.0)">'</text><text xml:space="preserve" font-family="Monaco" font-size="25.0" fill="#323343" transform="matrix(1.00, 0.00, -0.00, -1.00, 346.1, 507.0)"> </text><text xml:space="preserve" font-family="Monaco" font-size="25.0" fill="#0221B6" transform="matrix(1.00, 0.00, -0.00, -1.00, 361.1, 507.0)">%</text><text xml:space="preserve" font-family="Monaco" font-size="25.0" fill="#323343" transform="matrix(1.00, 0.00, -0.00, -1.00, 376.1, 507.0)">}</text><text xml:space="preserve" font-family="Monaco" font-size="25.0" fill="#323343" transform="matrix(1.00, 0.00, -0.00, -1.00, 31.0, 441.0)">{</text><text xml:space="preserve" font-family="Monaco" font-size="25.0" fill="#0221B6" transform="matrix(1.00, 0.00, -0.00, -1.00, 46.0, 441.0)">%</text><text xml:space="preserve" font-family="Monaco" font-size="25.0" fill="#323343" transform="matrix(1.00, 0.00, -0.00, -1.00, 61.0, 441.0)"> </text><text xml:space="preserve" font-family="Monaco" font-size="25.0" fill="#0221B6" transform="matrix(1.00, 0.00, -0.00, -1.00, 76.0, 441.0)">i</text><text xml:space="preserve" font-family="Monaco" font-size="25.0" fill="#0221B6" transform="matrix(1.00, 0.00, -0.00, -1.00, 91.0, 441.0)">f</text><text xml:space="preserve" font-family="Monaco" font-size="25.0" fill="#323343" transform="matrix(1.00, 0.00, -0.00, -1.00, 106.0, 441.0)"> </text><text xml:space="preserve" font-family="Monaco" font-size="25.0" fill="#323343" transform="matrix(1.00, 0.00, -0.00, -1.00, 121.0, 441.0)">s</text><text xml:space="preserve" font-family="Monaco" font-size="25.0" fill="#323343" transform="matrix(1.00, 0.00, -0.00, -1.00, 136.0, 441.0)">c</text><text xml:space="preserve" font-family="Monaco" font-size="25.0" fill="#323343" transform="matrix(1.00, 0.00, -0.00, -1.00, 151.0, 441.0)">o</text><text xml:space="preserve" font-family="Monaco" font-size="25.0" fill="#323343" transform="matrix(1.00, 0.00, -0.00, -1.00, 166.0, 441.0)">r</text><text xml:space="preserve" font-family="Monaco" font-size="25.0" fill="#323343" transform="matrix(1.00, 0.00, -0.00, -1.00, 181.0, 441.0)">e</text><text xml:space="preserve" font-family="Monaco" font-size="25.0" fill="#323343" transform="matrix(1.00, 0.00, -0.00, -1.00, 196.0, 441.0)"> </text><text xml:space="preserve" font-family="Monaco" font-size="25.0" fill="#0221B6" transform="matrix(1.00, 0.00, -0.00, -1.00, 211.0, 441.0)">&gt;</text><text xml:space="preserve" font-family="Monaco" font-size="25.0" fill="#0221B6" transform="matrix(1.00, 0.00, -0.00, -1.00, 226.0, 441.0)">=</text><text xml:space="preserve" font-family="Monaco" font-size="25.0" fill="#323343" transform="matrix(1.00, 0.00, -0.00, -1.00, 241.0, 441.0)"> </text><text xml:space="preserve" font-family="Monaco" font-size="25.0" fill="#CC1B00" transform="matrix(1.00, 0.00, -0.00, -1.00, 256.0, 441.0)">4</text><text xml:space="preserve" font-family="Monaco" font-size="25.0" fill="#323343" transform="matrix(1.00, 0.00, -0.00, -1.00, 271.0, 441.0)"> </text><text xml:space="preserve" font-family="Monaco" font-size="25.0" fill="#0221B6" transform="matrix(1.00, 0.00, -0.00, -1.00, 286.0, 441.0)">a</text><text xml:space="preserve" font-family="Monaco" font-size="25.0" fill="#0221B6" transform="matrix(1.00, 0.00, -0.00, -1.00, 301.0, 441.0)">n</text><text xml:space="preserve" font-family="Monaco" font-size="25.0" fill="#0221B6" transform="matrix(1.00, 0.00, -0.00, -1.00, 316.1, 441.0)">d</text><text xml:space="preserve" font-family="Monaco" font-size="25.0" fill="#323343" transform="matrix(1.00, 0.00, -0.00, -1.00, 331.0, 441.0)"> </text><text xml:space="preserve" font-family="Monaco" font-size="25.0" fill="#323343" transform="matrix(1.00, 0.00, -0.00, -1.00, 346.1, 441.0)">s</text><text xml:space="preserve" font-family="Monaco" font-size="25.0" fill="#323343" transform="matrix(1.00, 0.00, -0.00, -1.00, 361.1, 441.0)">c</text><text xml:space="preserve" font-family="Monaco" font-size="25.0" fill="#323343" transform="matrix(1.00, 0.00, -0.00, -1.00, 376.1, 441.0)">o</text><text xml:space="preserve" font-family="Monaco" font-size="25.0" fill="#323343" transform="matrix(1.00, 0.00, -0.00, -1.00, 391.1, 441.0)">r</text><text xml:space="preserve" font-family="Monaco" font-size="25.0" fill="#323343" transform="matrix(1.00, 0.00, -0.00, -1.00, 406.1, 441.0)">e</text><text xml:space="preserve" font-family="Monaco" font-size="25.0" fill="#323343" transform="matrix(1.00, 0.00, -0.00, -1.00, 421.1, 441.0)"> </text><text xml:space="preserve" font-family="Monaco" font-size="25.0" fill="#0221B6" transform="matrix(1.00, 0.00, -0.00, -1.00, 436.1, 441.0)">&lt;</text><text xml:space="preserve" font-family="Monaco" font-size="25.0" fill="#0221B6" transform="matrix(1.00, 0.00, -0.00, -1.00, 451.1, 441.0)">=</text><text xml:space="preserve" font-family="Monaco" font-size="25.0" fill="#323343" transform="matrix(1.00, 0.00, -0.00, -1.00, 466.1, 441.0)"> </text><text xml:space="preserve" font-family="Monaco" font-size="25.0" fill="#CC1B00" transform="matrix(1.00, 0.00, -0.00, -1.00, 481.1, 441.0)">7</text><text xml:space="preserve" font-family="Monaco" font-size="25.0" fill="#323343" transform="matrix(1.00, 0.00, -0.00, -1.00, 496.1, 441.0)"> </text><text xml:space="preserve" font-family="Monaco" font-size="25.0" fill="#0221B6" transform="matrix(1.00, 0.00, -0.00, -1.00, 511.1, 441.0)">%</text><text xml:space="preserve" font-family="Monaco" font-size="25.0" fill="#323343" transform="matrix(1.00, 0.00, -0.00, -1.00, 526.1, 441.0)">}</text><text xml:space="preserve" font-family="Monaco" font-size="25.0" fill="#323343" transform="matrix(1.00, 0.00, -0.00, -1.00, 31.0, 408.0)"> </text><text xml:space="preserve" font-family="Monaco" font-size="25.0" fill="#323343" transform="matrix(1.00, 0.00, -0.00, -1.00, 46.0, 408.0)"> </text><text xml:space="preserve" font-family="Monaco" font-size="25.0" fill="#323343" transform="matrix(1.00, 0.00, -0.00, -1.00, 61.0, 408.0)"> </text><text xml:space="preserve" font-family="Monaco" font-size="25.0" fill="#323343" transform="matrix(1.00, 0.00, -0.00, -1.00, 76.0, 408.0)"> </text><text xml:space="preserve" font-family="Monaco" font-size="25.0" fill="#323343" transform="matrix(1.00, 0.00, -0.00, -1.00, 91.0, 408.0)">{</text><text xml:space="preserve" font-family="Monaco" font-size="25.0" fill="#0221B6" transform="matrix(1.00, 0.00, -0.00, -1.00, 106.0, 408.0)">%</text><text xml:space="preserve" font-family="Monaco" font-size="25.0" fill="#323343" transform="matrix(1.00, 0.00, -0.00, -1.00, 121.0, 408.0)"> </text><text xml:space="preserve" font-family="Monaco" font-size="25.0" fill="#6D78DE" transform="matrix(1.00, 0.00, -0.00, -1.00, 136.0, 408.0)">s</text><text xml:space="preserve" font-family="Monaco" font-size="25.0" fill="#6D78DE" transform="matrix(1.00, 0.00, -0.00, -1.00, 151.0, 408.0)">e</text><text xml:space="preserve" font-family="Monaco" font-size="25.0" fill="#6D78DE" transform="matrix(1.00, 0.00, -0.00, -1.00, 166.0, 408.0)">t</text><text xml:space="preserve" font-family="Monaco" font-size="25.0" fill="#323343" transform="matrix(1.00, 0.00, -0.00, -1.00, 181.0, 408.0)"> </text><text xml:space="preserve" font-family="Monaco" font-size="25.0" fill="#323343" transform="matrix(1.00, 0.00, -0.00, -1.00, 196.0, 408.0)">c</text><text xml:space="preserve" font-family="Monaco" font-size="25.0" fill="#323343" transform="matrix(1.00, 0.00, -0.00, -1.00, 211.0, 408.0)">o</text><text xml:space="preserve" font-family="Monaco" font-size="25.0" fill="#323343" transform="matrix(1.00, 0.00, -0.00, -1.00, 226.0, 408.0)">l</text><text xml:space="preserve" font-family="Monaco" font-size="25.0" fill="#323343" transform="matrix(1.00, 0.00, -0.00, -1.00, 241.0, 408.0)">o</text><text xml:space="preserve" font-family="Monaco" font-size="25.0" fill="#323343" transform="matrix(1.00, 0.00, -0.00, -1.00, 256.0, 408.0)">u</text><text xml:space="preserve" font-family="Monaco" font-size="25.0" fill="#323343" transform="matrix(1.00, 0.00, -0.00, -1.00, 271.1, 408.0)">r</text><text xml:space="preserve" font-family="Monaco" font-size="25.0" fill="#323343" transform="matrix(1.00, 0.00, -0.00, -1.00, 286.1, 408.0)"> </text><text xml:space="preserve" font-family="Monaco" font-size="25.0" fill="#0221B6" transform="matrix(1.00, 0.00, -0.00, -1.00, 301.0, 408.0)">=</text><text xml:space="preserve" font-family="Monaco" font-size="25.0" fill="#323343" transform="matrix(1.00, 0.00, -0.00, -1.00, 316.0, 408.0)"> </text><text xml:space="preserve" font-family="Monaco" font-size="25.0" fill="#D71E00" transform="matrix(1.00, 0.00, -0.00, -1.00, 331.0, 408.0)">'</text><text xml:space="preserve" font-family="Monaco" font-size="25.0" fill="#D71E00" transform="matrix(1.00, 0.00, -0.00, -1.00, 346.1, 408.0)">o</text><text xml:space="preserve" font-family="Monaco" font-size="25.0" fill="#D71E00" transform="matrix(1.00, 0.00, -0.00, -1.00, 361.1, 408.0)">k</text><text xml:space="preserve" font-family="Monaco" font-size="25.0" fill="#D71E00" transform="matrix(1.00, 0.00, -0.00, -1.00, 376.1, 408.0)">'</text><text xml:space="preserve" font-family="Monaco" font-size="25.0" fill="#323343" transform="matrix(1.00, 0.00, -0.00, -1.00, 391.1, 408.0)"> </text><text xml:space="preserve" font-family="Monaco" font-size="25.0" fill="#0221B6" transform="matrix(1.00, 0.00, -0.00, -1.00, 406.1, 408.0)">%</text><text xml:space="preserve" font-family="Monaco" font-size="25.0" fill="#323343" transform="matrix(1.00, 0.00, -0.00, -1.00, 421.1, 408.0)">}</text><text xml:space="preserve" font-family="Monaco" font-size="25.0" fill="#323343" transform="matrix(1.00, 0.00, -0.00, -1.00, 31.0, 375.0)">{</text><text xml:space="preserve" font-family="Monaco" font-size="25.0" fill="#0221B6" transform="matrix(1.00, 0.00, -0.00, -1.00, 46.0, 375.0)">%</text><text xml:space="preserve" font-family="Monaco" font-size="25.0" fill="#323343" transform="matrix(1.00, 0.00, -0.00, -1.00, 61.0, 375.0)"> </text><text xml:space="preserve" font-family="Monaco" font-size="25.0" fill="#323343" transform="matrix(1.00, 0.00, -0.00, -1.00, 76.0, 375.0)">e</text><text xml:space="preserve" font-family="Monaco" font-size="25.0" fill="#323343" transform="matrix(1.00, 0.00, -0.00, -1.00, 91.0, 375.0)">l</text><text xml:space="preserve" font-family="Monaco" font-size="25.0" fill="#323343" transform="matrix(1.00, 0.00, -0.00, -1.00, 106.0, 375.0)">s</text><text xml:space="preserve" font-family="Monaco" font-size="25.0" fill="#323343" transform="matrix(1.00, 0.00, -0.00, -1.00, 121.0, 375.0)">e</text><text xml:space="preserve" font-family="Monaco" font-size="25.0" fill="#323343" transform="matrix(1.00, 0.00, -0.00, -1.00, 136.0, 375.0)">i</text><text xml:space="preserve" font-family="Monaco" font-size="25.0" fill="#323343" transform="matrix(1.00, 0.00, -0.00, -1.00, 151.0, 375.0)">f</text><text xml:space="preserve" font-family="Monaco" font-size="25.0" fill="#323343" transform="matrix(1.00, 0.00, -0.00, -1.00, 166.0, 375.0)"> </text><text xml:space="preserve" font-family="Monaco" font-size="25.0" fill="#323343" transform="matrix(1.00, 0.00, -0.00, -1.00, 181.0, 375.0)">s</text><text xml:space="preserve" font-family="Monaco" font-size="25.0" fill="#323343" transform="matrix(1.00, 0.00, -0.00, -1.00, 196.0, 375.0)">c</text><text xml:space="preserve" font-family="Monaco" font-size="25.0" fill="#323343" transform="matrix(1.00, 0.00, -0.00, -1.00, 211.1, 375.0)">o</text><text xml:space="preserve" font-family="Monaco" font-size="25.0" fill="#323343" transform="matrix(1.00, 0.00, -0.00, -1.00, 226.1, 375.0)">r</text><text xml:space="preserve" font-family="Monaco" font-size="25.0" fill="#323343" transform="matrix(1.00, 0.00, -0.00, -1.00, 241.1, 375.0)">e</text><text xml:space="preserve" font-family="Monaco" font-size="25.0" fill="#323343" transform="matrix(1.00, 0.00, -0.00, -1.00, 256.1, 375.0)"> </text><text xml:space="preserve" font-family="Monaco" font-size="25.0" fill="#0221B6" transform="matrix(1.00, 0.00, -0.00, -1.00, 271.0, 375.0)">&gt;</text><text xml:space="preserve" font-family="Monaco" font-size="25.0" fill="#0221B6" transform="matrix(1.00, 0.00, -0.00, -1.00, 286.0, 375.0)">=</text><text xml:space="preserve" font-family="Monaco" font-size="25.0" fill="#323343" transform="matrix(1.00, 0.00, -0.00, -1.00, 301.0, 375.0)"> </text><text xml:space="preserve" font-family="Monaco" font-size="25.0" fill="#CC1B00" transform="matrix(1.00, 0.00, -0.00, -1.00, 316.0, 375.0)">8</text><text xml:space="preserve" font-family="Monaco" font-size="25.0" fill="#323343" transform="matrix(1.00, 0.00, -0.00, -1.00, 331.0, 375.0)"> </text><text xml:space="preserve" font-family="Monaco" font-size="25.0" fill="#0221B6" transform="matrix(1.00, 0.00, -0.00, -1.00, 346.1, 375.0)">%</text><text xml:space="preserve" font-family="Monaco" font-size="25.0" fill="#323343" transform="matrix(1.00, 0.00, -0.00, -1.00, 361.1, 375.0)">}</text><text xml:space="preserve" font-family="Monaco" font-size="25.0" fill="#323343" transform="matrix(1.00, 0.00, -0.00, -1.00, 31.0, 342.0)"> </text><text xml:space="preserve" font-family="Monaco" font-size="25.0" fill="#323343" transform="matrix(1.00, 0.00, -0.00, -1.00, 46.0, 342.0)"> </text><text xml:space="preserve" font-family="Monaco" font-size="25.0" fill="#323343" transform="matrix(1.00, 0.00, -0.00, -1.00, 61.0, 342.0)"> </text><text xml:space="preserve" font-family="Monaco" font-size="25.0" fill="#323343" transform="matrix(1.00, 0.00, -0.00, -1.00, 76.0, 342.0)"> </text><text xml:space="preserve" font-family="Monaco" font-size="25.0" fill="#323343" transform="matrix(1.00, 0.00, -0.00, -1.00, 91.0, 342.0)">{</text><text xml:space="preserve" font-family="Monaco" font-size="25.0" fill="#0221B6" transform="matrix(1.00, 0.00, -0.00, -1.00, 106.0, 342.0)">%</text><text xml:space="preserve" font-family="Monaco" font-size="25.0" fill="#323343" transform="matrix(1.00, 0.00, -0.00, -1.00, 121.0, 342.0)"> </text><text xml:space="preserve" font-family="Monaco" font-size="25.0" fill="#6D78DE" transform="matrix(1.00, 0.00, -0.00, -1.00, 136.0, 342.0)">s</text><text xml:space="preserve" font-family="Monaco" font-size="25.0" fill="#6D78DE" transform="matrix(1.00, 0.00, -0.00, -1.00, 151.0, 342.0)">e</text><text xml:space="preserve" font-family="Monaco" font-size="25.0" fill="#6D78DE" transform="matrix(1.00, 0.00, -0.00, -1.00, 166.0, 342.0)">t</text><text xml:space="preserve" font-family="Monaco" font-size="25.0" fill="#323343" transform="matrix(1.00, 0.00, -0.00, -1.00, 181.0, 342.0)"> </text><text xml:space="preserve" font-family="Monaco" font-size="25.0" fill="#323343" transform="matrix(1.00, 0.00, -0.00, -1.00, 196.0, 342.0)">c</text><text xml:space="preserve" font-family="Monaco" font-size="25.0" fill="#323343" transform="matrix(1.00, 0.00, -0.00, -1.00, 211.0, 342.0)">o</text><text xml:space="preserve" font-family="Monaco" font-size="25.0" fill="#323343" transform="matrix(1.00, 0.00, -0.00, -1.00, 226.0, 342.0)">l</text><text xml:space="preserve" font-family="Monaco" font-size="25.0" fill="#323343" transform="matrix(1.00, 0.00, -0.00, -1.00, 241.0, 342.0)">o</text><text xml:space="preserve" font-family="Monaco" font-size="25.0" fill="#323343" transform="matrix(1.00, 0.00, -0.00, -1.00, 256.0, 342.0)">u</text><text xml:space="preserve" font-family="Monaco" font-size="25.0" fill="#323343" transform="matrix(1.00, 0.00, -0.00, -1.00, 271.1, 342.0)">r</text><text xml:space="preserve" font-family="Monaco" font-size="25.0" fill="#323343" transform="matrix(1.00, 0.00, -0.00, -1.00, 286.1, 342.0)"> </text><text xml:space="preserve" font-family="Monaco" font-size="25.0" fill="#0221B6" transform="matrix(1.00, 0.00, -0.00, -1.00, 301.0, 342.0)">=</text><text xml:space="preserve" font-family="Monaco" font-size="25.0" fill="#323343" transform="matrix(1.00, 0.00, -0.00, -1.00, 316.0, 342.0)"> </text><text xml:space="preserve" font-family="Monaco" font-size="25.0" fill="#D71E00" transform="matrix(1.00, 0.00, -0.00, -1.00, 331.0, 342.0)">'</text><text xml:space="preserve" font-family="Monaco" font-size="25.0" fill="#D71E00" transform="matrix(1.00, 0.00, -0.00, -1.00, 346.1, 342.0)">g</text><text xml:space="preserve" font-family="Monaco" font-size="25.0" fill="#D71E00" transform="matrix(1.00, 0.00, -0.00, -1.00, 361.1, 342.0)">o</text><text xml:space="preserve" font-family="Monaco" font-size="25.0" fill="#D71E00" transform="matrix(1.00, 0.00, -0.00, -1.00, 376.1, 342.0)">o</text><text xml:space="preserve" font-family="Monaco" font-size="25.0" fill="#D71E00" transform="matrix(1.00, 0.00, -0.00, -1.00, 391.1, 342.0)">d</text><text xml:space="preserve" font-family="Monaco" font-size="25.0" fill="#D71E00" transform="matrix(1.00, 0.00, -0.00, -1.00, 406.1, 342.0)">'</text><text xml:space="preserve" font-family="Monaco" font-size="25.0" fill="#323343" transform="matrix(1.00, 0.00, -0.00, -1.00, 421.1, 342.0)"> </text><text xml:space="preserve" font-family="Monaco" font-size="25.0" fill="#0221B6" transform="matrix(1.00, 0.00, -0.00, -1.00, 436.1, 342.0)">%</text><text xml:space="preserve" font-family="Monaco" font-size="25.0" fill="#323343" transform="matrix(1.00, 0.00, -0.00, -1.00, 451.1, 342.0)">}</text><text xml:space="preserve" font-family="Monaco" font-size="25.0" fill="#323343" transform="matrix(1.00, 0.00, -0.00, -1.00, 31.0, 309.0)">{</text><text xml:space="preserve" font-family="Monaco" font-size="25.0" fill="#0221B6" transform="matrix(1.00, 0.00, -0.00, -1.00, 46.0, 309.0)">%</text><text xml:space="preserve" font-family="Monaco" font-size="25.0" fill="#323343" transform="matrix(1.00, 0.00, -0.00, -1.00, 61.0, 309.0)"> </text><text xml:space="preserve" font-family="Monaco" font-size="25.0" fill="#323343" transform="matrix(1.00, 0.00, -0.00, -1.00, 76.0, 309.0)">e</text><text xml:space="preserve" font-family="Monaco" font-size="25.0" fill="#323343" transform="matrix(1.00, 0.00, -0.00, -1.00, 91.0, 309.0)">n</text><text xml:space="preserve" font-family="Monaco" font-size="25.0" fill="#323343" transform="matrix(1.00, 0.00, -0.00, -1.00, 106.0, 309.0)">d</text><text xml:space="preserve" font-family="Monaco" font-size="25.0" fill="#323343" transform="matrix(1.00, 0.00, -0.00, -1.00, 121.0, 309.0)">i</text><text xml:space="preserve" font-family="Monaco" font-size="25.0" fill="#323343" transform="matrix(1.00, 0.00, -0.00, -1.00, 136.0, 309.0)">f</text><text xml:space="preserve" font-family="Monaco" font-size="25.0" fill="#323343" transform="matrix(1.00, 0.00, -0.00, -1.00, 151.0, 309.0)"> </text><text xml:space="preserve" font-family="Monaco" font-size="25.0" fill="#0221B6" transform="matrix(1.00, 0.00, -0.00, -1.00, 166.0, 309.0)">%</text><text xml:space="preserve" font-family="Monaco" font-size="25.0" fill="#323343" transform="matrix(1.00, 0.00, -0.00, -1.00, 181.0, 309.0)">}</text><text xml:space="preserve" font-family="Monaco" font-size="25.0" fill="#0221B6" transform="matrix(1.00, 0.00, -0.00, -1.00, 31.0, 243.0)">&lt;</text><text xml:space="preserve" font-family="Monaco" font-size="25.0" fill="#323343" transform="matrix(1.00, 0.00, -0.00, -1.00, 46.0, 243.0)">d</text><text xml:space="preserve" font-family="Monaco" font-size="25.0" fill="#323343" transform="matrix(1.00, 0.00, -0.00, -1.00, 61.0, 243.0)">i</text><text xml:space="preserve" font-family="Monaco" font-size="25.0" fill="#323343" transform="matrix(1.00, 0.00, -0.00, -1.00, 76.0, 243.0)">v</text><text xml:space="preserve" font-family="Monaco" font-size="25.0" fill="#323343" transform="matrix(1.00, 0.00, -0.00, -1.00, 91.0, 243.0)"> </text><text xml:space="preserve" font-family="Monaco" font-size="25.0" fill="#323343" transform="matrix(1.00, 0.00, -0.00, -1.00, 106.0, 243.0)">c</text><text xml:space="preserve" font-family="Monaco" font-size="25.0" fill="#323343" transform="matrix(1.00, 0.00, -0.00, -1.00, 121.0, 243.0)">l</text><text xml:space="preserve" font-family="Monaco" font-size="25.0" fill="#323343" transform="matrix(1.00, 0.00, -0.00, -1.00, 136.0, 243.0)">a</text><text xml:space="preserve" font-family="Monaco" font-size="25.0" fill="#323343" transform="matrix(1.00, 0.00, -0.00, -1.00, 151.0, 243.0)">s</text><text xml:space="preserve" font-family="Monaco" font-size="25.0" fill="#323343" transform="matrix(1.00, 0.00, -0.00, -1.00, 166.0, 243.0)">s</text><text xml:space="preserve" font-family="Monaco" font-size="25.0" fill="#0221B6" transform="matrix(1.00, 0.00, -0.00, -1.00, 181.0, 243.0)">=</text><text xml:space="preserve" font-family="Monaco" font-size="25.0" fill="#D71E00" transform="matrix(1.00, 0.00, -0.00, -1.00, 196.0, 243.0)">"</text><text xml:space="preserve" font-family="Monaco" font-size="25.0" fill="#D71E00" transform="matrix(1.00, 0.00, -0.00, -1.00, 211.0, 243.0)">s</text><text xml:space="preserve" font-family="Monaco" font-size="25.0" fill="#D71E00" transform="matrix(1.00, 0.00, -0.00, -1.00, 226.0, 243.0)">c</text><text xml:space="preserve" font-family="Monaco" font-size="25.0" fill="#D71E00" transform="matrix(1.00, 0.00, -0.00, -1.00, 241.0, 243.0)">o</text><text xml:space="preserve" font-family="Monaco" font-size="25.0" fill="#D71E00" transform="matrix(1.00, 0.00, -0.00, -1.00, 256.0, 243.0)">r</text><text xml:space="preserve" font-family="Monaco" font-size="25.0" fill="#D71E00" transform="matrix(1.00, 0.00, -0.00, -1.00, 271.1, 243.0)">e</text><text xml:space="preserve" font-family="Monaco" font-size="25.0" fill="#D71E00" transform="matrix(1.00, 0.00, -0.00, -1.00, 286.1, 243.0)"> </text><text xml:space="preserve" font-family="Monaco" font-size="25.0" fill="#D71E00" transform="matrix(1.00, 0.00, -0.00, -1.00, 301.1, 243.0)">s</text><text xml:space="preserve" font-family="Monaco" font-size="25.0" fill="#D71E00" transform="matrix(1.00, 0.00, -0.00, -1.00, 316.1, 243.0)">c</text><text xml:space="preserve" font-family="Monaco" font-size="25.0" fill="#D71E00" transform="matrix(1.00, 0.00, -0.00, -1.00, 331.1, 243.0)">o</text><text xml:space="preserve" font-family="Monaco" font-size="25.0" fill="#D71E00" transform="matrix(1.00, 0.00, -0.00, -1.00, 346.1, 243.0)">r</text><text xml:space="preserve" font-family="Monaco" font-size="25.0" fill="#D71E00" transform="matrix(1.00, 0.00, -0.00, -1.00, 361.1, 243.0)">e</text><text xml:space="preserve" font-family="Monaco" font-size="25.0" fill="#D71E00" transform="matrix(1.00, 0.00, -0.00, -1.00, 376.1, 243.0)">-</text><text xml:space="preserve" font-family="Monaco" font-size="25.0" fill="#D71E00" transform="matrix(1.00, 0.00, -0.00, -1.00, 391.1, 243.0)">-</text><text xml:space="preserve" font-family="Monaco" font-size="25.0" fill="#D71E00" transform="matrix(1.00, 0.00, -0.00, -1.00, 406.1, 243.0)">{</text><text xml:space="preserve" font-family="Monaco" font-size="25.0" fill="#D71E00" transform="matrix(1.00, 0.00, -0.00, -1.00, 421.1, 243.0)">{</text><text xml:space="preserve" font-family="Monaco" font-size="25.0" fill="#D71E00" transform="matrix(1.00, 0.00, -0.00, -1.00, 436.1, 243.0)"> </text><text xml:space="preserve" font-family="Monaco" font-size="25.0" fill="#D71E00" transform="matrix(1.00, 0.00, -0.00, -1.00, 451.1, 243.0)">c</text><text xml:space="preserve" font-family="Monaco" font-size="25.0" fill="#D71E00" transform="matrix(1.00, 0.00, -0.00, -1.00, 466.1, 243.0)">o</text><text xml:space="preserve" font-family="Monaco" font-size="25.0" fill="#D71E00" transform="matrix(1.00, 0.00, -0.00, -1.00, 481.1, 243.0)">l</text><text xml:space="preserve" font-family="Monaco" font-size="25.0" fill="#D71E00" transform="matrix(1.00, 0.00, -0.00, -1.00, 496.1, 243.0)">o</text><text xml:space="preserve" font-family="Monaco" font-size="25.0" fill="#D71E00" transform="matrix(1.00, 0.00, -0.00, -1.00, 511.1, 243.0)">u</text><text xml:space="preserve" font-family="Monaco" font-size="25.0" fill="#D71E00" transform="matrix(1.00, 0.00, -0.00, -1.00, 526.1, 243.0)">r</text><text xml:space="preserve" font-family="Monaco" font-size="25.0" fill="#D71E00" transform="matrix(1.00, 0.00, -0.00, -1.00, 541.1, 243.0)"> </text><text xml:space="preserve" font-family="Monaco" font-size="25.0" fill="#D71E00" transform="matrix(1.00, 0.00, -0.00, -1.00, 556.1, 243.0)">}</text><text xml:space="preserve" font-family="Monaco" font-size="25.0" fill="#D71E00" transform="matrix(1.00, 0.00, -0.00, -1.00, 571.2, 243.0)">}</text><text xml:space="preserve" font-family="Monaco" font-size="25.0" fill="#D71E00" transform="matrix(1.00, 0.00, -0.00, -1.00, 586.2, 243.0)">"</text><text xml:space="preserve" font-family="Monaco" font-size="25.0" fill="#323343" transform="matrix(1.00, 0.00, -0.00, -1.00, 601.1, 243.0)"> </text><text xml:space="preserve" font-family="Monaco" font-size="25.0" fill="#323343" transform="matrix(1.00, 0.00, -0.00, -1.00, 616.1, 243.0)">d</text><text xml:space="preserve" font-family="Monaco" font-size="25.0" fill="#323343" transform="matrix(1.00, 0.00, -0.00, -1.00, 631.1, 243.0)">a</text><text xml:space="preserve" font-family="Monaco" font-size="25.0" fill="#323343" transform="matrix(1.00, 0.00, -0.00, -1.00, 646.1, 243.0)">t</text><text xml:space="preserve" font-family="Monaco" font-size="25.0" fill="#323343" transform="matrix(1.00, 0.00, -0.00, -1.00, 661.1, 243.0)">a</text><text xml:space="preserve" font-family="Monaco" font-size="25.0" fill="#0221B6" transform="matrix(1.00, 0.00, -0.00, -1.00, 676.1, 243.0)">-</text><text xml:space="preserve" font-family="Monaco" font-size="25.0" fill="#323343" transform="matrix(1.00, 0.00, -0.00, -1.00, 691.1, 243.0)">s</text><text xml:space="preserve" font-family="Monaco" font-size="25.0" fill="#323343" transform="matrix(1.00, 0.00, -0.00, -1.00, 706.1, 243.0)">c</text><text xml:space="preserve" font-family="Monaco" font-size="25.0" fill="#323343" transform="matrix(1.00, 0.00, -0.00, -1.00, 721.1, 243.0)">o</text><text xml:space="preserve" font-family="Monaco" font-size="25.0" fill="#323343" transform="matrix(1.00, 0.00, -0.00, -1.00, 736.1, 243.0)">r</text><text xml:space="preserve" font-family="Monaco" font-size="25.0" fill="#323343" transform="matrix(1.00, 0.00, -0.00, -1.00, 751.1, 243.0)">e</text><text xml:space="preserve" font-family="Monaco" font-size="25.0" fill="#0221B6" transform="matrix(1.00, 0.00, -0.00, -1.00, 766.1, 243.0)">=</text><text xml:space="preserve" font-family="Monaco" font-size="25.0" fill="#D71E00" transform="matrix(1.00, 0.00, -0.00, -1.00, 781.1, 243.0)">"</text><text xml:space="preserve" font-family="Monaco" font-size="25.0" fill="#D71E00" transform="matrix(1.00, 0.00, -0.00, -1.00, 796.1, 243.0)">{</text><text xml:space="preserve" font-family="Monaco" font-size="25.0" fill="#D71E00" transform="matrix(1.00, 0.00, -0.00, -1.00, 811.1, 243.0)">{</text><text xml:space="preserve" font-family="Monaco" font-size="25.0" fill="#D71E00" transform="matrix(1.00, 0.00, -0.00, -1.00, 826.1, 243.0)"> </text><text xml:space="preserve" font-family="Monaco" font-size="25.0" fill="#D71E00" transform="matrix(1.00, 0.00, -0.00, -1.00, 841.1, 243.0)">s</text><text xml:space="preserve" font-family="Monaco" font-size="25.0" fill="#D71E00" transform="matrix(1.00, 0.00, -0.00, -1.00, 856.1, 243.0)">c</text><text xml:space="preserve" font-family="Monaco" font-size="25.0" fill="#D71E00" transform="matrix(1.00, 0.00, -0.00, -1.00, 871.2, 243.0)">o</text><text xml:space="preserve" font-family="Monaco" font-size="25.0" fill="#D71E00" transform="matrix(1.00, 0.00, -0.00, -1.00, 886.2, 243.0)">r</text><text xml:space="preserve" font-family="Monaco" font-size="25.0" fill="#D71E00" transform="matrix(1.00, 0.00, -0.00, -1.00, 901.2, 243.0)">e</text><text xml:space="preserve" font-family="Monaco" font-size="25.0" fill="#D71E00" transform="matrix(1.00, 0.00, -0.00, -1.00, 916.2, 243.0)"> </text><text xml:space="preserve" font-family="Monaco" font-size="25.0" fill="#D71E00" transform="matrix(1.00, 0.00, -0.00, -1.00, 931.2, 243.0)">}</text><text xml:space="preserve" font-family="Monaco" font-size="25.0" fill="#D71E00" transform="matrix(1.00, 0.00, -0.00, -1.00, 946.2, 243.0)">}</text><text xml:space="preserve" font-family="Monaco" font-size="25.0" fill="#D71E00" transform="matrix(1.00, 0.00, -0.00, -1.00, 961.2, 243.0)">"</text><text xml:space="preserve" font-family="Monaco" font-size="25.0" fill="#0221B6" transform="matrix(1.00, 0.00, -0.00, -1.00, 976.2, 243.0)">&gt;</text></g></svg>