<?xml version="1.0" encoding="UTF-8" standalone="no"?><svg xmlns="http://www.w3.org/2000/svg" xmlns:xlink="http://www.w3.org/1999/xlink" clip-rule="evenodd" stroke-miterlimit="4.00" viewBox="0 0 1024 768"><desc>SVG generated by Keynote</desc><defs></defs><g transform="matrix(1.00, 0.00, -0.00, -1.00, 0.0, 768.0)"><path d="M 0.0 768.0 L 1024.0 768.0 L 1024.0 0.0 L 0.0 0.0 Z M 0.0 768.0 " fill="#FEFFFF"></path><text xml:space="preserve" font-family="Adventure" font-size="110.0" fill="#1BBAFF" transform="matrix(1.00, 0.00, -0.00, -1.00, 156.0, 601.0)">W</text><text xml:space="preserve" font-family="Adventure" font-size="110.0" fill="#1BBAFF" transform="matrix(1.00, 0.00, -0.00, -1.00, 252.7, 601.0)">E</text><text xml:space="preserve" font-family="Adventure" font-size="110.0" fill="#1BBAFF" transform="matrix(1.00, 0.00, -0.00, -1.00, 306.4, 601.0)">’</text><text xml:space="preserve" font-family="Adventure" font-size="110.0" fill="#1BBAFF" transform="matrix(1.00, 0.00, -0.00, -1.00, 333.2, 601.0)">R</text><text xml:space="preserve" font-family="Adventure" font-size="110.0" fill="#1BBAFF" transform="matrix(1.00, 0.00, -0.00, -1.00, 400.5, 601.0)">E</text><text xml:space="preserve" font-family="Adventure" font-size="110.0" fill="#1BBAFF" transform="matrix(1.00, 0.00, -0.00, -1.00, 454.2, 601.0)"> </text><text xml:space="preserve" font-family="Adventure" font-size="110.0" fill="#1BBAFF" transform="matrix(1.00, 0.00, -0.00, -1.00, 489.3, 601.0)">H</text><text xml:space="preserve" font-family="Adventure" font-size="110.0" fill="#1BBAFF" transform="matrix(1.00, 0.00, -0.00, -1.00, 556.5, 601.0)">I</text><text xml:space="preserve" font-family="Adventure" font-size="110.0" fill="#1BBAFF" transform="matrix(1.00, 0.00, -0.00, -1.00, 607.5, 601.0)">R</text><text xml:space="preserve" font-family="Adventure" font-size="110.0" fill="#1BBAFF" transform="matrix(1.00, 0.00, -0.00, -1.00, 674.8, 601.0)">I</text><text xml:space="preserve" font-family="Adventure" font-size="110.0" fill="#1BBAFF" transform="matrix(1.00, 0.00, -0.00, -1.00, 725.8, 601.0)">N</text><text xml:space="preserve" font-family="Adventure" font-size="110.0" fill="#1BBAFF" transform="matrix(1.00, 0.00, -0.00, -1.00, 790.2, 601.0)">G</text><text xml:space="preserve" font-family="Lato-Light" font-size="16.8" fill="#000000" transform="matrix(1.00, 0.00, -0.00, -1.00, 79.0, 458.5)">•</text><text xml:space="preserve" font-family="Lato-Light" font-size="22.4" fill="#000000" transform="matrix(1.00, 0.00, -0.00, -1.00, 109.0, 457.0)">L</text><text xml:space="preserve" font-family="Lato-Light" font-size="22.4" fill="#000000" transform="matrix(1.00, 0.00, -0.00, -1.00, 120.4, 457.0)">a</text><text xml:space="preserve" font-family="Lato-Light" font-size="22.4" fill="#000000" transform="matrix(1.00, 0.00, -0.00, -1.00, 131.3, 457.0)">r</text><text xml:space="preserve" font-family="Lato-Light" font-size="22.4" fill="#000000" transform="matrix(1.00, 0.00, -0.00, -1.00, 139.6, 457.0)">a</text><text xml:space="preserve" font-family="Lato-Light" font-size="22.4" fill="#000000" transform="matrix(1.00, 0.00, -0.00, -1.00, 150.2, 457.0)">v</text><text xml:space="preserve" font-family="Lato-Light" font-size="22.4" fill="#000000" transform="matrix(1.00, 0.00, -0.00, -1.00, 160.9, 457.0)">e</text><text xml:space="preserve" font-family="Lato-Light" font-size="22.4" fill="#000000" transform="matrix(1.00, 0.00, -0.00, -1.00, 172.3, 457.0)">l</text><text xml:space="preserve" font-family="Lato-Light" font-size="22.4" fill="#000000" transform="matrix(1.00, 0.00, -0.00, -1.00, 177.6, 457.0)"> </text><text xml:space="preserve" font-family="Lato-Light" font-size="16.8" fill="#000000" transform="matrix(1.00, 0.00, -0.00, -1.00, 79.0, 395.4)">•</text><text xml:space="preserve" font-family="Lato-Light" font-size="22.4" fill="#000000" transform="matrix(1.00, 0.00, -0.00, -1.00, 109.0, 394.0)">A</text><text xml:space="preserve" font-family="Lato-Light" font-size="22.4" fill="#000000" transform="matrix(1.00, 0.00, -0.00, -1.00, 123.4, 394.0)">n</text><text xml:space="preserve" font-family="Lato-Light" font-size="22.4" fill="#000000" transform="matrix(1.00, 0.00, -0.00, -1.00, 135.5, 394.0)">g</text><text xml:space="preserve" font-family="Lato-Light" font-size="22.4" fill="#000000" transform="matrix(1.00, 0.00, -0.00, -1.00, 146.8, 394.0)">u</text><text xml:space="preserve" font-family="Lato-Light" font-size="22.4" fill="#000000" transform="matrix(1.00, 0.00, -0.00, -1.00, 158.9, 394.0)">l</text><text xml:space="preserve" font-family="Lato-Light" font-size="22.4" fill="#000000" transform="matrix(1.00, 0.00, -0.00, -1.00, 164.2, 394.0)">a</text><text xml:space="preserve" font-family="Lato-Light" font-size="22.4" fill="#000000" transform="matrix(1.00, 0.00, -0.00, -1.00, 175.0, 394.0)">r</text><text xml:space="preserve" font-family="Lato-Light" font-size="22.4" fill="#000000" transform="matrix(1.00, 0.00, -0.00, -1.00, 183.9, 394.0)"> </text><text xml:space="preserve" font-family="Lato-Light" font-size="16.8" fill="#000000" transform="matrix(1.00, 0.00, -0.00, -1.00, 79.0, 332.2)">•</text><text xml:space="preserve" font-family="Lato-Light" font-size="22.4" fill="#000000" transform="matrix(1.00, 0.00, -0.00, -1.00, 109.0, 330.0)">W</text><text xml:space="preserve" font-family="Lato-Light" font-size="22.4" fill="#000000" transform="matrix(1.00, 0.00, -0.00, -1.00, 130.8, 330.0)">o</text><text xml:space="preserve" font-family="Lato-Light" font-size="22.4" fill="#000000" transform="matrix(1.00, 0.00, -0.00, -1.00, 142.9, 330.0)">r</text><text xml:space="preserve" font-family="Lato-Light" font-size="22.4" fill="#000000" transform="matrix(1.00, 0.00, -0.00, -1.00, 151.8, 330.0)">d</text><text xml:space="preserve" font-family="Lato-Light" font-size="22.4" fill="#000000" transform="matrix(1.00, 0.00, -0.00, -1.00, 164.0, 330.0)">P</text><text xml:space="preserve" font-family="Lato-Light" font-size="22.4" fill="#000000" transform="matrix(1.00, 0.00, -0.00, -1.00, 177.3, 330.0)">r</text><text xml:space="preserve" font-family="Lato-Light" font-size="22.4" fill="#000000" transform="matrix(1.00, 0.00, -0.00, -1.00, 186.2, 330.0)">e</text><text xml:space="preserve" font-family="Lato-Light" font-size="22.4" fill="#000000" transform="matrix(1.00, 0.00, -0.00, -1.00, 197.6, 330.0)">s</text><text xml:space="preserve" font-family="Lato-Light" font-size="22.4" fill="#000000" transform="matrix(1.00, 0.00, -0.00, -1.00, 207.2, 330.0)">s</text><text xml:space="preserve" font-family="Lato-Light" font-size="22.4" fill="#000000" transform="matrix(1.00, 0.00, -0.00, -1.00, 216.8, 330.0)"> </text><text xml:space="preserve" font-family="Lato-Light" font-size="22.4" fill="#000000" transform="matrix(1.00, 0.00, -0.00, -1.00, 221.1, 330.0)">(</text><text xml:space="preserve" font-family="Lato-Light" font-size="22.4" fill="#000000" transform="matrix(1.00, 0.00, -0.00, -1.00, 227.8, 330.0)">b</text><text xml:space="preserve" font-family="Lato-Light" font-size="22.4" fill="#000000" transform="matrix(1.00, 0.00, -0.00, -1.00, 240.1, 330.0)">u</text><text xml:space="preserve" font-family="Lato-Light" font-size="22.4" fill="#000000" transform="matrix(1.00, 0.00, -0.00, -1.00, 252.1, 330.0)">t</text><text xml:space="preserve" font-family="Lato-Light" font-size="22.4" fill="#000000" transform="matrix(1.00, 0.00, -0.00, -1.00, 260.1, 330.0)"> </text><text xml:space="preserve" font-family="Lato-Light" font-size="22.4" fill="#000000" transform="matrix(1.00, 0.00, -0.00, -1.00, 264.4, 330.0)">o</text><text xml:space="preserve" font-family="Lato-Light" font-size="22.4" fill="#000000" transform="matrix(1.00, 0.00, -0.00, -1.00, 276.5, 330.0)">p</text><text xml:space="preserve" font-family="Lato-Light" font-size="22.4" fill="#000000" transform="matrix(1.00, 0.00, -0.00, -1.00, 288.5, 330.0)">t</text><text xml:space="preserve" font-family="Lato-Light" font-size="22.4" fill="#000000" transform="matrix(1.00, 0.00, -0.00, -1.00, 296.4, 330.0)">i</text><text xml:space="preserve" font-family="Lato-Light" font-size="22.4" fill="#000000" transform="matrix(1.00, 0.00, -0.00, -1.00, 301.7, 330.0)">m</text><text xml:space="preserve" font-family="Lato-Light" font-size="22.4" fill="#000000" transform="matrix(1.00, 0.00, -0.00, -1.00, 319.5, 330.0)">i</text><text xml:space="preserve" font-family="Lato-Light" font-size="22.4" fill="#000000" transform="matrix(1.00, 0.00, -0.00, -1.00, 324.8, 330.0)">s</text><text xml:space="preserve" font-family="Lato-Light" font-size="22.4" fill="#000000" transform="matrix(1.00, 0.00, -0.00, -1.00, 334.4, 330.0)">e</text><text xml:space="preserve" font-family="Lato-Light" font-size="22.4" fill="#000000" transform="matrix(1.00, 0.00, -0.00, -1.00, 345.9, 330.0)">d</text><text xml:space="preserve" font-family="Lato-Light" font-size="22.4" fill="#000000" transform="matrix(1.00, 0.00, -0.00, -1.00, 358.1, 330.0)">)</text><text xml:space="preserve" font-family="Lato-Light" font-size="22.4" fill="#000000" transform="matrix(1.00, 0.00, -0.00, -1.00, 364.8, 330.0)"> </text><text xml:space="preserve" font-family="Lato-Light" font-size="16.8" fill="#000000" transform="matrix(1.00, 0.00, -0.00, -1.00, 79.0, 269.1)">•</text><text xml:space="preserve" font-family="Lato-Light" font-size="22.4" fill="#000000" transform="matrix(1.00, 0.00, -0.00, -1.00, 109.0, 267.0)">P</text><text xml:space="preserve" font-family="Lato-Light" font-size="22.4" fill="#000000" transform="matrix(1.00, 0.00, -0.00, -1.00, 122.3, 267.0)">r</text><text xml:space="preserve" font-family="Lato-Light" font-size="22.4" fill="#000000" transform="matrix(1.00, 0.00, -0.00, -1.00, 131.1, 267.0)">i</text><text xml:space="preserve" font-family="Lato-Light" font-size="22.4" fill="#000000" transform="matrix(1.00, 0.00, -0.00, -1.00, 136.4, 267.0)">m</text><text xml:space="preserve" font-family="Lato-Light" font-size="22.4" fill="#000000" transform="matrix(1.00, 0.00, -0.00, -1.00, 154.2, 267.0)">e</text><text xml:space="preserve" font-family="Lato-Light" font-size="22.4" fill="#000000" transform="matrix(1.00, 0.00, -0.00, -1.00, 165.6, 267.0)">r</text><text xml:space="preserve" font-family="Lato-Light" font-size="22.4" fill="#000000" transform="matrix(1.00, 0.00, -0.00, -1.00, 174.5, 267.0)"> </text><text xml:space="preserve" font-family="Lato-Light" font-size="16.8" fill="#000000" transform="matrix(1.00, 0.00, -0.00, -1.00, 79.0, 206.0)">•</text><text xml:space="preserve" font-family="Lato-Light" font-size="22.4" fill="#000000" transform="matrix(1.00, 0.00, -0.00, -1.00, 109.0, 204.0)">C</text><text xml:space="preserve" font-family="Lato-Light" font-size="22.4" fill="#000000" transform="matrix(1.00, 0.00, -0.00, -1.00, 124.7, 204.0)">o</text><text xml:space="preserve" font-family="Lato-Light" font-size="22.4" fill="#000000" transform="matrix(1.00, 0.00, -0.00, -1.00, 136.8, 204.0)">r</text><text xml:space="preserve" font-family="Lato-Light" font-size="22.4" fill="#000000" transform="matrix(1.00, 0.00, -0.00, -1.00, 145.7, 204.0)">d</text><text xml:space="preserve" font-family="Lato-Light" font-size="22.4" fill="#000000" transform="matrix(1.00, 0.00, -0.00, -1.00, 157.9, 204.0)">o</text><text xml:space="preserve" font-family="Lato-Light" font-size="22.4" fill="#000000" transform="matrix(1.00, 0.00, -0.00, -1.00, 169.8, 204.0)">v</text><text xml:space="preserve" font-family="Lato-Light" font-size="22.4" fill="#000000" transform="matrix(1.00, 0.00, -0.00, -1.00, 180.7, 204.0)">a</text><text xml:space="preserve" font-family="Lato-Light" font-size="22.4" fill="#000000" transform="matrix(1.00, 0.00, -0.00, -1.00, 191.6, 204.0)"> </text><text xml:space="preserve" font-family="Lato-Light" font-size="16.8" fill="#000000" transform="matrix(1.00, 0.00, -0.00, -1.00, 79.0, 142.9)">•</text><text xml:space="preserve" font-family="Lato-Light" font-size="22.4" fill="#000000" transform="matrix(1.00, 0.00, -0.00, -1.00, 109.0, 141.0)">J</text><text xml:space="preserve" font-family="Lato-Light" font-size="22.4" fill="#000000" transform="matrix(1.00, 0.00, -0.00, -1.00, 119.2, 141.0)">a</text><text xml:space="preserve" font-family="Lato-Light" font-size="22.4" fill="#000000" transform="matrix(1.00, 0.00, -0.00, -1.00, 129.7, 141.0)">v</text><text xml:space="preserve" font-family="Lato-Light" font-size="22.4" fill="#000000" transform="matrix(1.00, 0.00, -0.00, -1.00, 140.6, 141.0)">a</text><text xml:space="preserve" font-family="Lato-Light" font-size="22.4" fill="#000000" transform="matrix(1.00, 0.00, -0.00, -1.00, 151.5, 141.0)">S</text><text xml:space="preserve" font-family="Lato-Light" font-size="22.4" fill="#000000" transform="matrix(1.00, 0.00, -0.00, -1.00, 163.2, 141.0)">c</text><text xml:space="preserve" font-family="Lato-Light" font-size="22.4" fill="#000000" transform="matrix(1.00, 0.00, -0.00, -1.00, 173.3, 141.0)">r</text><text xml:space="preserve" font-family="Lato-Light" font-size="22.4" fill="#000000" transform="matrix(1.00, 0.00, -0.00, -1.00, 182.2, 141.0)">i</text><text xml:space="preserve" font-family="Lato-Light" font-size="22.4" fill="#000000" transform="matrix(1.00, 0.00, -0.00, -1.00, 187.5, 141.0)">p</text><text xml:space="preserve" font-family="Lato-Light" font-size="22.4" fill="#000000" transform="matrix(1.00, 0.00, -0.00, -1.00, 199.5, 141.0)">t</text><text xml:space="preserve" font-family="Lato-Light" font-size="22.4" fill="#000000" transform="matrix(1.00, 0.00, -0.00, -1.00, 207.4, 141.0)"> </text><text xml:space="preserve" font-family="Lato-Light" font-size="22.4" fill="#000000" transform="matrix(1.00, 0.00, -0.00, -1.00, 211.8, 141.0)">E</text><text xml:space="preserve" font-family="Lato-Light" font-size="22.4" fill="#000000" transform="matrix(1.00, 0.00, -0.00, -1.00, 225.0, 141.0)">S</text><text xml:space="preserve" font-family="Lato-Light" font-size="22.4" fill="#000000" transform="matrix(1.00, 0.00, -0.00, -1.00, 236.6, 141.0)">2</text><text xml:space="preserve" font-family="Lato-Light" font-size="22.4" fill="#000000" transform="matrix(1.00, 0.00, -0.00, -1.00, 249.6, 141.0)">0</text><text xml:space="preserve" font-family="Lato-Light" font-size="22.4" fill="#000000" transform="matrix(1.00, 0.00, -0.00, -1.00, 262.6, 141.0)">1</text><text xml:space="preserve" font-family="Lato-Light" font-size="22.4" fill="#000000" transform="matrix(1.00, 0.00, -0.00, -1.00, 275.5, 141.0)">5</text><text xml:space="preserve" font-family="Lato-Light" font-size="22.4" fill="#000000" transform="matrix(1.00, 0.00, -0.00, -1.00, 288.5, 141.0)"> </text><text xml:space="preserve" font-family="Lato-Light" font-size="16.8" fill="#000000" transform="matrix(1.00, 0.00, -0.00, -1.00, 79.0, 79.8)">•</text><text xml:space="preserve" font-family="Lato-Light" font-size="22.4" fill="#000000" transform="matrix(1.00, 0.00, -0.00, -1.00, 109.0, 78.0)">G</text><text xml:space="preserve" font-family="Lato-Light" font-size="22.4" fill="#000000" transform="matrix(1.00, 0.00, -0.00, -1.00, 125.7, 78.0)">u</text><text xml:space="preserve" font-family="Lato-Light" font-size="22.4" fill="#000000" transform="matrix(1.00, 0.00, -0.00, -1.00, 137.8, 78.0)">l</text><text xml:space="preserve" font-family="Lato-Light" font-size="22.4" fill="#000000" transform="matrix(1.00, 0.00, -0.00, -1.00, 143.1, 78.0)">p</text><text xml:space="preserve" font-family="Adventure" font-size="48.0" fill="#000000" transform="matrix(1.00, 0.00, -0.00, -1.00, 260.0, 527.0)">F</text><text xml:space="preserve" font-family="Adventure" font-size="48.0" fill="#000000" transform="matrix(1.00, 0.00, -0.00, -1.00, 283.5, 527.0)">U</text><text xml:space="preserve" font-family="Adventure" font-size="48.0" fill="#000000" transform="matrix(1.00, 0.00, -0.00, -1.00, 313.9, 527.0)">L</text><text xml:space="preserve" font-family="Adventure" font-size="48.0" fill="#000000" transform="matrix(1.00, 0.00, -0.00, -1.00, 337.3, 527.0)">L</text><text xml:space="preserve" font-family="Adventure" font-size="48.0" fill="#000000" transform="matrix(1.00, 0.00, -0.00, -1.00, 360.8, 527.0)"> </text><text xml:space="preserve" font-family="Adventure" font-size="48.0" fill="#000000" transform="matrix(1.00, 0.00, -0.00, -1.00, 376.1, 527.0)">S</text><text xml:space="preserve" font-family="Adventure" font-size="48.0" fill="#000000" transform="matrix(1.00, 0.00, -0.00, -1.00, 394.8, 527.0)">T</text><text xml:space="preserve" font-family="Adventure" font-size="48.0" fill="#000000" transform="matrix(1.00, 0.00, -0.00, -1.00, 420.6, 527.0)">A</text><text xml:space="preserve" font-family="Adventure" font-size="48.0" fill="#000000" transform="matrix(1.00, 0.00, -0.00, -1.00, 448.7, 527.0)">C</text><text xml:space="preserve" font-family="Adventure" font-size="48.0" fill="#000000" transform="matrix(1.00, 0.00, -0.00, -1.00, 480.4, 527.0)">K</text><text xml:space="preserve" font-family="Adventure" font-size="48.0" fill="#000000" transform="matrix(1.00, 0.00, -0.00, -1.00, 508.5, 527.0)"> </text><text xml:space="preserve" font-family="Adventure" font-size="48.0" fill="#000000" transform="matrix(1.00, 0.00, -0.00, -1.00, 523.8, 527.0)">D</text><text xml:space="preserve" font-family="Adventure" font-size="48.0" fill="#000000" transform="matrix(1.00, 0.00, -0.00, -1.00, 552.0, 527.0)">E</text><text xml:space="preserve" font-family="Adventure" font-size="48.0" fill="#000000" transform="matrix(1.00, 0.00, -0.00, -1.00, 575.4, 527.0)">V</text><text xml:space="preserve" font-family="Adventure" font-size="48.0" fill="#000000" transform="matrix(1.00, 0.00, -0.00, -1.00, 603.6, 527.0)">E</text><text xml:space="preserve" font-family="Adventure" font-size="48.0" fill="#000000" transform="matrix(1.00, 0.00, -0.00, -1.00, 627.0, 527.0)">L</text><text xml:space="preserve" font-family="Adventure" font-size="48.0" fill="#000000" transform="matrix(1.00, 0.00, -0.00, -1.00, 650.5, 527.0)">O</text><text xml:space="preserve" font-family="Adventure" font-size="48.0" fill="#000000" transform="matrix(1.00, 0.00, -0.00, -1.00, 683.2, 527.0)">P</text><text xml:space="preserve" font-family="Adventure" font-size="48.0" fill="#000000" transform="matrix(1.00, 0.00, -0.00, -1.00, 711.4, 527.0)">E</text><text xml:space="preserve" font-family="Adventure" font-size="48.0" fill="#000000" transform="matrix(1.00, 0.00, -0.00, -1.00, 734.8, 527.0)">R</text><text xml:space="preserve" font-family="Lato-Regular" font-size="16.0" fill="#000000" transform="matrix(1.00, 0.00, -0.00, -1.00, 629.0, 37.0)">h</text><text xml:space="preserve" font-family="Lato-Regular" font-size="16.0" fill="#000000" transform="matrix(1.00, 0.00, -0.00, -1.00, 637.9, 37.0)">t</text><text xml:space="preserve" font-family="Lato-Regular" font-size="16.0" fill="#000000" transform="matrix(1.00, 0.00, -0.00, -1.00, 643.9, 37.0)">t</text><text xml:space="preserve" font-family="Lato-Regular" font-size="16.0" fill="#000000" transform="matrix(1.00, 0.00, -0.00, -1.00, 649.8, 37.0)">p</text><text xml:space="preserve" font-family="Lato-Regular" font-size="16.0" fill="#000000" transform="matrix(1.00, 0.00, -0.00, -1.00, 658.7, 37.0)">s</text><text xml:space="preserve" font-family="Lato-Regular" font-size="16.0" fill="#000000" transform="matrix(1.00, 0.00, -0.00, -1.00, 665.6, 37.0)">:</text><text xml:space="preserve" font-family="Lato-Regular" font-size="16.0" fill="#000000" transform="matrix(1.00, 0.00, -0.00, -1.00, 669.6, 37.0)">/</text><text xml:space="preserve" font-family="Lato-Regular" font-size="16.0" fill="#000000" transform="matrix(1.00, 0.00, -0.00, -1.00, 674.5, 37.0)">/</text><text xml:space="preserve" font-family="Lato-Regular" font-size="16.0" fill="#000000" transform="matrix(1.00, 0.00, -0.00, -1.00, 680.5, 37.0)">w</text><text xml:space="preserve" font-family="Lato-Regular" font-size="16.0" fill="#000000" transform="matrix(1.00, 0.00, -0.00, -1.00, 692.7, 37.0)">w</text><text xml:space="preserve" font-family="Lato-Regular" font-size="16.0" fill="#000000" transform="matrix(1.00, 0.00, -0.00, -1.00, 705.0, 37.0)">w</text><text xml:space="preserve" font-family="Lato-Regular" font-size="16.0" fill="#000000" transform="matrix(1.00, 0.00, -0.00, -1.00, 716.8, 37.0)">.</text><text xml:space="preserve" font-family="Lato-Regular" font-size="16.0" fill="#000000" transform="matrix(1.00, 0.00, -0.00, -1.00, 720.2, 37.0)">r</text><text xml:space="preserve" font-family="Lato-Regular" font-size="16.0" fill="#000000" transform="matrix(1.00, 0.00, -0.00, -1.00, 726.3, 37.0)">a</text><text xml:space="preserve" font-family="Lato-Regular" font-size="16.0" fill="#000000" transform="matrix(1.00, 0.00, -0.00, -1.00, 734.4, 37.0)">r</text><text xml:space="preserve" font-family="Lato-Regular" font-size="16.0" fill="#000000" transform="matrix(1.00, 0.00, -0.00, -1.00, 740.9, 37.0)">e</text><text xml:space="preserve" font-family="Lato-Regular" font-size="16.0" fill="#000000" transform="matrix(1.00, 0.00, -0.00, -1.00, 749.2, 37.0)">l</text><text xml:space="preserve" font-family="Lato-Regular" font-size="16.0" fill="#000000" transform="matrix(1.00, 0.00, -0.00, -1.00, 753.3, 37.0)">o</text><text xml:space="preserve" font-family="Lato-Regular" font-size="16.0" fill="#000000" transform="matrix(1.00, 0.00, -0.00, -1.00, 762.2, 37.0)">o</text><text xml:space="preserve" font-family="Lato-Regular" font-size="16.0" fill="#000000" transform="matrix(1.00, 0.00, -0.00, -1.00, 771.1, 37.0)">p</text><text xml:space="preserve" font-family="Lato-Regular" font-size="16.0" fill="#000000" transform="matrix(1.00, 0.00, -0.00, -1.00, 780.0, 37.0)">.</text><text xml:space="preserve" font-family="Lato-Regular" font-size="16.0" fill="#000000" transform="matrix(1.00, 0.00, -0.00, -1.00, 783.4, 37.0)">c</text><text xml:space="preserve" font-family="Lato-Regular" font-size="16.0" fill="#000000" transform="matrix(1.00, 0.00, -0.00, -1.00, 790.8, 37.0)">o</text><text xml:space="preserve" font-family="Lato-Regular" font-size="16.0" fill="#000000" transform="matrix(1.00, 0.00, -0.00, -1.00, 799.7, 37.0)">m</text><text xml:space="preserve" font-family="Lato-Regular" font-size="16.0" fill="#000000" transform="matrix(1.00, 0.00, -0.00, -1.00, 812.9, 37.0)">/</text><text xml:space="preserve" font-family="Lato-Regular" font-size="16.0" fill="#000000" transform="matrix(1.00, 0.00, -0.00, -1.00, 818.8, 37.0)">j</text><text xml:space="preserve" font-family="Lato-Regular" font-size="16.0" fill="#000000" transform="matrix(1.00, 0.00, -0.00, -1.00, 822.9, 37.0)">o</text><text xml:space="preserve" font-family="Lato-Regular" font-size="16.0" fill="#000000" transform="matrix(1.00, 0.00, -0.00, -1.00, 831.8, 37.0)">b</text><text xml:space="preserve" font-family="Lato-Regular" font-size="16.0" fill="#000000" transform="matrix(1.00, 0.00, -0.00, -1.00, 840.7, 37.0)">/</text><text xml:space="preserve" font-family="Lato-Regular" font-size="16.0" fill="#000000" transform="matrix(1.00, 0.00, -0.00, -1.00, 846.5, 37.0)">f</text><text xml:space="preserve" font-family="Lato-Regular" font-size="16.0" fill="#000000" transform="matrix(1.00, 0.00, -0.00, -1.00, 851.8, 37.0)">u</text><text xml:space="preserve" font-family="Lato-Regular" font-size="16.0" fill="#000000" transform="matrix(1.00, 0.00, -0.00, -1.00, 860.7, 37.0)">l</text><text xml:space="preserve" font-family="Lato-Regular" font-size="16.0" fill="#000000" transform="matrix(1.00, 0.00, -0.00, -1.00, 864.8, 37.0)">l</text><text xml:space="preserve" font-family="Lato-Regular" font-size="16.0" fill="#000000" transform="matrix(1.00, 0.00, -0.00, -1.00, 868.9, 37.0)">-</text><text xml:space="preserve" font-family="Lato-Regular" font-size="16.0" fill="#000000" transform="matrix(1.00, 0.00, -0.00, -1.00, 874.5, 37.0)">s</text><text xml:space="preserve" font-family="Lato-Regular" font-size="16.0" fill="#000000" transform="matrix(1.00, 0.00, -0.00, -1.00, 881.4, 37.0)">t</text><text xml:space="preserve" font-family="Lato-Regular" font-size="16.0" fill="#000000" transform="matrix(1.00, 0.00, -0.00, -1.00, 887.4, 37.0)">a</text><text xml:space="preserve" font-family="Lato-Regular" font-size="16.0" fill="#000000" transform="matrix(1.00, 0.00, -0.00, -1.00, 895.5, 37.0)">c</text><text xml:space="preserve" font-family="Lato-Regular" font-size="16.0" fill="#000000" transform="matrix(1.00, 0.00, -0.00, -1.00, 903.0, 37.0)">k</text><text xml:space="preserve" font-family="Lato-Regular" font-size="16.0" fill="#000000" transform="matrix(1.00, 0.00, -0.00, -1.00, 911.4, 37.0)">-</text><text xml:space="preserve" font-family="Lato-Regular" font-size="16.0" fill="#000000" transform="matrix(1.00, 0.00, -0.00, -1.00, 916.9, 37.0)">d</text><text xml:space="preserve" font-family="Lato-Regular" font-size="16.0" fill="#000000" transform="matrix(1.00, 0.00, -0.00, -1.00, 925.9, 37.0)">e</text><text xml:space="preserve" font-family="Lato-Regular" font-size="16.0" fill="#000000" transform="matrix(1.00, 0.00, -0.00, -1.00, 934.0, 37.0)">v</text><text xml:space="preserve" font-family="Lato-Regular" font-size="16.0" fill="#000000" transform="matrix(1.00, 0.00, -0.00, -1.00, 942.0, 37.0)">e</text><text xml:space="preserve" font-family="Lato-Regular" font-size="16.0" fill="#000000" transform="matrix(1.00, 0.00, -0.00, -1.00, 950.4, 37.0)">l</text><text xml:space="preserve" font-family="Lato-Regular" font-size="16.0" fill="#000000" transform="matrix(1.00, 0.00, -0.00, -1.00, 954.5, 37.0)">o</text><text xml:space="preserve" font-family="Lato-Regular" font-size="16.0" fill="#000000" transform="matrix(1.00, 0.00, -0.00, -1.00, 963.4, 37.0)">p</text><text xml:space="preserve" font-family="Lato-Regular" font-size="16.0" fill="#000000" transform="matrix(1.00, 0.00, -0.00, -1.00, 972.2, 37.0)">e</text><text xml:space="preserve" font-family="Lato-Regular" font-size="16.0" fill="#000000" transform="matrix(1.00, 0.00, -0.00, -1.00, 980.6, 37.0)">r</text><g><clipPath id="clip-35"><path d="M 627.8 34.1 L 986.9 34.1 L 986.9 37.0 L 627.8 37.0 Z M 627.8 34.1 "></path></clipPath><g clip-path="url(#clip-35)"><path d="M 4.5 20.7 L 362.6 20.7 " fill="none" stroke="#000000" stroke-width="0.96" stroke-miterlimit="0.00" transform="matrix(1.00, 0.00, 0.00, -1.00, 624.3, 56.3)"></path></g></g></g></svg>