<?xml version="1.0" encoding="UTF-8" standalone="no"?><svg xmlns="http://www.w3.org/2000/svg" xmlns:xlink="http://www.w3.org/1999/xlink" clip-rule="evenodd" stroke-miterlimit="4.00" viewBox="0 0 1024 768"><desc>SVG generated by Keynote</desc><defs></defs><g transform="matrix(1.00, 0.00, -0.00, -1.00, 0.0, 768.0)"><path d="M 0.0 768.0 L 1024.0 768.0 L 1024.0 0.0 L 0.0 0.0 Z M 0.0 768.0 " fill="#FEFFFF"></path><text xml:space="preserve" font-family="Monaco" font-size="32.0" fill="#323343" transform="matrix(1.00, 0.00, -0.00, -1.00, 147.0, 522.0)">&lt;</text><text xml:space="preserve" font-family="Monaco" font-size="32.0" fill="#323343" transform="matrix(1.00, 0.00, -0.00, -1.00, 166.2, 522.0)">?</text><text xml:space="preserve" font-family="Monaco" font-size="32.0" fill="#323343" transform="matrix(1.00, 0.00, -0.00, -1.00, 185.4, 522.0)">p</text><text xml:space="preserve" font-family="Monaco" font-size="32.0" fill="#323343" transform="matrix(1.00, 0.00, -0.00, -1.00, 204.6, 522.0)">h</text><text xml:space="preserve" font-family="Monaco" font-size="32.0" fill="#323343" transform="matrix(1.00, 0.00, -0.00, -1.00, 223.8, 522.0)">p</text><text xml:space="preserve" font-family="Monaco" font-size="32.0" fill="#00B418" transform="matrix(1.00, 0.00, -0.00, -1.00, 147.0, 479.0)">/</text><text xml:space="preserve" font-family="Monaco" font-size="32.0" fill="#00B418" transform="matrix(1.00, 0.00, -0.00, -1.00, 166.2, 479.0)">/</text><text xml:space="preserve" font-family="Monaco" font-size="32.0" fill="#00B418" transform="matrix(1.00, 0.00, -0.00, -1.00, 185.4, 479.0)"> </text><text xml:space="preserve" font-family="Monaco" font-size="32.0" fill="#00B418" transform="matrix(1.00, 0.00, -0.00, -1.00, 204.6, 479.0)">p</text><text xml:space="preserve" font-family="Monaco" font-size="32.0" fill="#00B418" transform="matrix(1.00, 0.00, -0.00, -1.00, 223.8, 479.0)">a</text><text xml:space="preserve" font-family="Monaco" font-size="32.0" fill="#00B418" transform="matrix(1.00, 0.00, -0.00, -1.00, 243.0, 479.0)">g</text><text xml:space="preserve" font-family="Monaco" font-size="32.0" fill="#00B418" transform="matrix(1.00, 0.00, -0.00, -1.00, 262.2, 479.0)">e</text><text xml:space="preserve" font-family="Monaco" font-size="32.0" fill="#00B418" transform="matrix(1.00, 0.00, -0.00, -1.00, 281.4, 479.0)">-</text><text xml:space="preserve" font-family="Monaco" font-size="32.0" fill="#00B418" transform="matrix(1.00, 0.00, -0.00, -1.00, 300.7, 479.0)">h</text><text xml:space="preserve" font-family="Monaco" font-size="32.0" fill="#00B418" transform="matrix(1.00, 0.00, -0.00, -1.00, 319.9, 479.0)">o</text><text xml:space="preserve" font-family="Monaco" font-size="32.0" fill="#00B418" transform="matrix(1.00, 0.00, -0.00, -1.00, 339.1, 479.0)">m</text><text xml:space="preserve" font-family="Monaco" font-size="32.0" fill="#00B418" transform="matrix(1.00, 0.00, -0.00, -1.00, 358.3, 479.0)">e</text><text xml:space="preserve" font-family="Monaco" font-size="32.0" fill="#00B418" transform="matrix(1.00, 0.00, -0.00, -1.00, 377.5, 479.0)">.</text><text xml:space="preserve" font-family="Monaco" font-size="32.0" fill="#00B418" transform="matrix(1.00, 0.00, -0.00, -1.00, 396.7, 479.0)">p</text><text xml:space="preserve" font-family="Monaco" font-size="32.0" fill="#00B418" transform="matrix(1.00, 0.00, -0.00, -1.00, 415.9, 479.0)">h</text><text xml:space="preserve" font-family="Monaco" font-size="32.0" fill="#00B418" transform="matrix(1.00, 0.00, -0.00, -1.00, 435.1, 479.0)">p</text><text xml:space="preserve" font-family="Monaco" font-size="32.0" fill="#0432FF" transform="matrix(1.00, 0.00, -0.00, -1.00, 147.0, 436.0)">$</text><text xml:space="preserve" font-family="Monaco" font-size="32.0" fill="#0432FF" transform="matrix(1.00, 0.00, -0.00, -1.00, 166.2, 436.0)">c</text><text xml:space="preserve" font-family="Monaco" font-size="32.0" fill="#0432FF" transform="matrix(1.00, 0.00, -0.00, -1.00, 185.4, 436.0)">o</text><text xml:space="preserve" font-family="Monaco" font-size="32.0" fill="#0432FF" transform="matrix(1.00, 0.00, -0.00, -1.00, 204.6, 436.0)">n</text><text xml:space="preserve" font-family="Monaco" font-size="32.0" fill="#0432FF" transform="matrix(1.00, 0.00, -0.00, -1.00, 223.8, 436.0)">t</text><text xml:space="preserve" font-family="Monaco" font-size="32.0" fill="#0432FF" transform="matrix(1.00, 0.00, -0.00, -1.00, 243.0, 436.0)">e</text><text xml:space="preserve" font-family="Monaco" font-size="32.0" fill="#0432FF" transform="matrix(1.00, 0.00, -0.00, -1.00, 262.2, 436.0)">x</text><text xml:space="preserve" font-family="Monaco" font-size="32.0" fill="#0432FF" transform="matrix(1.00, 0.00, -0.00, -1.00, 281.4, 436.0)">t</text><text xml:space="preserve" font-family="Monaco" font-size="32.0" fill="#323343" transform="matrix(1.00, 0.00, -0.00, -1.00, 300.6, 436.0)"> </text><text xml:space="preserve" font-family="Monaco" font-size="32.0" fill="#0221B6" transform="matrix(1.00, 0.00, -0.00, -1.00, 319.8, 436.0)">=</text><text xml:space="preserve" font-family="Monaco" font-size="32.0" fill="#323343" transform="matrix(1.00, 0.00, -0.00, -1.00, 339.0, 436.0)"> </text><text xml:space="preserve" font-family="Monaco" font-size="32.0" fill="#6D78DE" transform="matrix(1.00, 0.00, -0.00, -1.00, 358.2, 436.0)">T</text><text xml:space="preserve" font-family="Monaco" font-size="32.0" fill="#6D78DE" transform="matrix(1.00, 0.00, -0.00, -1.00, 377.4, 436.0)">i</text><text xml:space="preserve" font-family="Monaco" font-size="32.0" fill="#6D78DE" transform="matrix(1.00, 0.00, -0.00, -1.00, 396.6, 436.0)">m</text><text xml:space="preserve" font-family="Monaco" font-size="32.0" fill="#6D78DE" transform="matrix(1.00, 0.00, -0.00, -1.00, 415.9, 436.0)">b</text><text xml:space="preserve" font-family="Monaco" font-size="32.0" fill="#6D78DE" transform="matrix(1.00, 0.00, -0.00, -1.00, 435.1, 436.0)">e</text><text xml:space="preserve" font-family="Monaco" font-size="32.0" fill="#6D78DE" transform="matrix(1.00, 0.00, -0.00, -1.00, 454.3, 436.0)">r</text><text xml:space="preserve" font-family="Monaco" font-size="32.0" fill="#0221B6" transform="matrix(1.00, 0.00, -0.00, -1.00, 473.5, 436.0)">:</text><text xml:space="preserve" font-family="Monaco" font-size="32.0" fill="#0221B6" transform="matrix(1.00, 0.00, -0.00, -1.00, 492.7, 436.0)">:</text><text xml:space="preserve" font-family="Monaco" font-size="32.0" fill="#323343" transform="matrix(1.00, 0.00, -0.00, -1.00, 511.9, 436.0)">g</text><text xml:space="preserve" font-family="Monaco" font-size="32.0" fill="#323343" transform="matrix(1.00, 0.00, -0.00, -1.00, 531.1, 436.0)">e</text><text xml:space="preserve" font-family="Monaco" font-size="32.0" fill="#323343" transform="matrix(1.00, 0.00, -0.00, -1.00, 550.3, 436.0)">t</text><text xml:space="preserve" font-family="Monaco" font-size="32.0" fill="#323343" transform="matrix(1.00, 0.00, -0.00, -1.00, 569.5, 436.0)">_</text><text xml:space="preserve" font-family="Monaco" font-size="32.0" fill="#323343" transform="matrix(1.00, 0.00, -0.00, -1.00, 588.7, 436.0)">c</text><text xml:space="preserve" font-family="Monaco" font-size="32.0" fill="#323343" transform="matrix(1.00, 0.00, -0.00, -1.00, 607.9, 436.0)">o</text><text xml:space="preserve" font-family="Monaco" font-size="32.0" fill="#323343" transform="matrix(1.00, 0.00, -0.00, -1.00, 627.1, 436.0)">n</text><text xml:space="preserve" font-family="Monaco" font-size="32.0" fill="#323343" transform="matrix(1.00, 0.00, -0.00, -1.00, 646.3, 436.0)">t</text><text xml:space="preserve" font-family="Monaco" font-size="32.0" fill="#323343" transform="matrix(1.00, 0.00, -0.00, -1.00, 665.5, 436.0)">e</text><text xml:space="preserve" font-family="Monaco" font-size="32.0" fill="#323343" transform="matrix(1.00, 0.00, -0.00, -1.00, 684.7, 436.0)">x</text><text xml:space="preserve" font-family="Monaco" font-size="32.0" fill="#323343" transform="matrix(1.00, 0.00, -0.00, -1.00, 703.9, 436.0)">t</text><text xml:space="preserve" font-family="Monaco" font-size="32.0" fill="#323343" transform="matrix(1.00, 0.00, -0.00, -1.00, 723.1, 436.0)">(</text><text xml:space="preserve" font-family="Monaco" font-size="32.0" fill="#323343" transform="matrix(1.00, 0.00, -0.00, -1.00, 742.3, 436.0)">)</text><text xml:space="preserve" font-family="Monaco" font-size="32.0" fill="#323343" transform="matrix(1.00, 0.00, -0.00, -1.00, 761.5, 436.0)">;</text><text xml:space="preserve" font-family="Monaco" font-size="32.0" fill="#0432FF" transform="matrix(1.00, 0.00, -0.00, -1.00, 147.0, 350.0)">$</text><text xml:space="preserve" font-family="Monaco" font-size="32.0" fill="#0432FF" transform="matrix(1.00, 0.00, -0.00, -1.00, 166.2, 350.0)">a</text><text xml:space="preserve" font-family="Monaco" font-size="32.0" fill="#0432FF" transform="matrix(1.00, 0.00, -0.00, -1.00, 185.4, 350.0)">b</text><text xml:space="preserve" font-family="Monaco" font-size="32.0" fill="#0432FF" transform="matrix(1.00, 0.00, -0.00, -1.00, 204.6, 350.0)">o</text><text xml:space="preserve" font-family="Monaco" font-size="32.0" fill="#0432FF" transform="matrix(1.00, 0.00, -0.00, -1.00, 223.8, 350.0)">u</text><text xml:space="preserve" font-family="Monaco" font-size="32.0" fill="#0432FF" transform="matrix(1.00, 0.00, -0.00, -1.00, 243.0, 350.0)">t</text><text xml:space="preserve" font-family="Monaco" font-size="32.0" fill="#0432FF" transform="matrix(1.00, 0.00, -0.00, -1.00, 262.2, 350.0)">P</text><text xml:space="preserve" font-family="Monaco" font-size="32.0" fill="#0432FF" transform="matrix(1.00, 0.00, -0.00, -1.00, 281.4, 350.0)">a</text><text xml:space="preserve" font-family="Monaco" font-size="32.0" fill="#0432FF" transform="matrix(1.00, 0.00, -0.00, -1.00, 300.7, 350.0)">g</text><text xml:space="preserve" font-family="Monaco" font-size="32.0" fill="#0432FF" transform="matrix(1.00, 0.00, -0.00, -1.00, 319.9, 350.0)">e</text><text xml:space="preserve" font-family="Monaco" font-size="32.0" fill="#323343" transform="matrix(1.00, 0.00, -0.00, -1.00, 339.0, 350.0)"> </text><text xml:space="preserve" font-family="Monaco" font-size="32.0" fill="#0221B6" transform="matrix(1.00, 0.00, -0.00, -1.00, 358.2, 350.0)">=</text><text xml:space="preserve" font-family="Monaco" font-size="32.0" fill="#323343" transform="matrix(1.00, 0.00, -0.00, -1.00, 377.4, 350.0)"> </text><text xml:space="preserve" font-family="Monaco" font-size="32.0" fill="#0221B6" transform="matrix(1.00, 0.00, -0.00, -1.00, 396.6, 350.0)">n</text><text xml:space="preserve" font-family="Monaco" font-size="32.0" fill="#0221B6" transform="matrix(1.00, 0.00, -0.00, -1.00, 415.8, 350.0)">e</text><text xml:space="preserve" font-family="Monaco" font-size="32.0" fill="#0221B6" transform="matrix(1.00, 0.00, -0.00, -1.00, 435.1, 350.0)">w</text><text xml:space="preserve" font-family="Monaco" font-size="32.0" fill="#323343" transform="matrix(1.00, 0.00, -0.00, -1.00, 454.2, 350.0)"> </text><text xml:space="preserve" font-family="Monaco" font-size="32.0" fill="#6D78DE" transform="matrix(1.00, 0.00, -0.00, -1.00, 473.5, 350.0)">T</text><text xml:space="preserve" font-family="Monaco" font-size="32.0" fill="#6D78DE" transform="matrix(1.00, 0.00, -0.00, -1.00, 492.7, 350.0)">i</text><text xml:space="preserve" font-family="Monaco" font-size="32.0" fill="#6D78DE" transform="matrix(1.00, 0.00, -0.00, -1.00, 511.9, 350.0)">m</text><text xml:space="preserve" font-family="Monaco" font-size="32.0" fill="#6D78DE" transform="matrix(1.00, 0.00, -0.00, -1.00, 531.1, 350.0)">b</text><text xml:space="preserve" font-family="Monaco" font-size="32.0" fill="#6D78DE" transform="matrix(1.00, 0.00, -0.00, -1.00, 550.3, 350.0)">e</text><text xml:space="preserve" font-family="Monaco" font-size="32.0" fill="#6D78DE" transform="matrix(1.00, 0.00, -0.00, -1.00, 569.5, 350.0)">r</text><text xml:space="preserve" font-family="Monaco" font-size="32.0" fill="#0221B6" transform="matrix(1.00, 0.00, -0.00, -1.00, 588.7, 350.0)">/</text><text xml:space="preserve" font-family="Monaco" font-size="32.0" fill="#323343" transform="matrix(1.00, 0.00, -0.00, -1.00, 607.9, 350.0)">P</text><text xml:space="preserve" font-family="Monaco" font-size="32.0" fill="#323343" transform="matrix(1.00, 0.00, -0.00, -1.00, 627.1, 350.0)">o</text><text xml:space="preserve" font-family="Monaco" font-size="32.0" fill="#323343" transform="matrix(1.00, 0.00, -0.00, -1.00, 646.3, 350.0)">s</text><text xml:space="preserve" font-family="Monaco" font-size="32.0" fill="#323343" transform="matrix(1.00, 0.00, -0.00, -1.00, 665.5, 350.0)">t</text><text xml:space="preserve" font-family="Monaco" font-size="32.0" fill="#323343" transform="matrix(1.00, 0.00, -0.00, -1.00, 684.7, 350.0)">(</text><text xml:space="preserve" font-family="Monaco" font-size="32.0" fill="#CC1B00" transform="matrix(1.00, 0.00, -0.00, -1.00, 703.9, 350.0)">2</text><text xml:space="preserve" font-family="Monaco" font-size="32.0" fill="#323343" transform="matrix(1.00, 0.00, -0.00, -1.00, 723.1, 350.0)">)</text><text xml:space="preserve" font-family="Monaco" font-size="32.0" fill="#323343" transform="matrix(1.00, 0.00, -0.00, -1.00, 742.3, 350.0)">;</text><text xml:space="preserve" font-family="Monaco" font-size="32.0" fill="#0432FF" transform="matrix(1.00, 0.00, -0.00, -1.00, 147.0, 307.0)">$</text><text xml:space="preserve" font-family="Monaco" font-size="32.0" fill="#0432FF" transform="matrix(1.00, 0.00, -0.00, -1.00, 166.2, 307.0)">c</text><text xml:space="preserve" font-family="Monaco" font-size="32.0" fill="#0432FF" transform="matrix(1.00, 0.00, -0.00, -1.00, 185.4, 307.0)">o</text><text xml:space="preserve" font-family="Monaco" font-size="32.0" fill="#0432FF" transform="matrix(1.00, 0.00, -0.00, -1.00, 204.6, 307.0)">n</text><text xml:space="preserve" font-family="Monaco" font-size="32.0" fill="#0432FF" transform="matrix(1.00, 0.00, -0.00, -1.00, 223.8, 307.0)">t</text><text xml:space="preserve" font-family="Monaco" font-size="32.0" fill="#0432FF" transform="matrix(1.00, 0.00, -0.00, -1.00, 243.0, 307.0)">e</text><text xml:space="preserve" font-family="Monaco" font-size="32.0" fill="#0432FF" transform="matrix(1.00, 0.00, -0.00, -1.00, 262.2, 307.0)">x</text><text xml:space="preserve" font-family="Monaco" font-size="32.0" fill="#0432FF" transform="matrix(1.00, 0.00, -0.00, -1.00, 281.4, 307.0)">t</text><text xml:space="preserve" font-family="Monaco" font-size="32.0" fill="#323343" transform="matrix(1.00, 0.00, -0.00, -1.00, 300.6, 307.0)">[</text><text xml:space="preserve" font-family="Monaco" font-size="32.0" fill="#D71E00" transform="matrix(1.00, 0.00, -0.00, -1.00, 319.8, 307.0)">'</text><text xml:space="preserve" font-family="Monaco" font-size="32.0" fill="#D71E00" transform="matrix(1.00, 0.00, -0.00, -1.00, 339.0, 307.0)">l</text><text xml:space="preserve" font-family="Monaco" font-size="32.0" fill="#D71E00" transform="matrix(1.00, 0.00, -0.00, -1.00, 358.2, 307.0)">i</text><text xml:space="preserve" font-family="Monaco" font-size="32.0" fill="#D71E00" transform="matrix(1.00, 0.00, -0.00, -1.00, 377.4, 307.0)">n</text><text xml:space="preserve" font-family="Monaco" font-size="32.0" fill="#D71E00" transform="matrix(1.00, 0.00, -0.00, -1.00, 396.7, 307.0)">k</text><text xml:space="preserve" font-family="Monaco" font-size="32.0" fill="#D71E00" transform="matrix(1.00, 0.00, -0.00, -1.00, 415.9, 307.0)">'</text><text xml:space="preserve" font-family="Monaco" font-size="32.0" fill="#323343" transform="matrix(1.00, 0.00, -0.00, -1.00, 435.0, 307.0)">]</text><text xml:space="preserve" font-family="Monaco" font-size="32.0" fill="#323343" transform="matrix(1.00, 0.00, -0.00, -1.00, 454.3, 307.0)"> </text><text xml:space="preserve" font-family="Monaco" font-size="32.0" fill="#0221B6" transform="matrix(1.00, 0.00, -0.00, -1.00, 473.5, 307.0)">=</text><text xml:space="preserve" font-family="Monaco" font-size="32.0" fill="#323343" transform="matrix(1.00, 0.00, -0.00, -1.00, 492.7, 307.0)"> </text><text xml:space="preserve" font-family="Monaco" font-size="32.0" fill="#0432FF" transform="matrix(1.00, 0.00, -0.00, -1.00, 511.9, 307.0)">$</text><text xml:space="preserve" font-family="Monaco" font-size="32.0" fill="#0432FF" transform="matrix(1.00, 0.00, -0.00, -1.00, 531.1, 307.0)">a</text><text xml:space="preserve" font-family="Monaco" font-size="32.0" fill="#0432FF" transform="matrix(1.00, 0.00, -0.00, -1.00, 550.3, 307.0)">b</text><text xml:space="preserve" font-family="Monaco" font-size="32.0" fill="#0432FF" transform="matrix(1.00, 0.00, -0.00, -1.00, 569.5, 307.0)">o</text><text xml:space="preserve" font-family="Monaco" font-size="32.0" fill="#0432FF" transform="matrix(1.00, 0.00, -0.00, -1.00, 588.7, 307.0)">u</text><text xml:space="preserve" font-family="Monaco" font-size="32.0" fill="#0432FF" transform="matrix(1.00, 0.00, -0.00, -1.00, 607.9, 307.0)">t</text><text xml:space="preserve" font-family="Monaco" font-size="32.0" fill="#0432FF" transform="matrix(1.00, 0.00, -0.00, -1.00, 627.1, 307.0)">P</text><text xml:space="preserve" font-family="Monaco" font-size="32.0" fill="#0432FF" transform="matrix(1.00, 0.00, -0.00, -1.00, 646.3, 307.0)">a</text><text xml:space="preserve" font-family="Monaco" font-size="32.0" fill="#0432FF" transform="matrix(1.00, 0.00, -0.00, -1.00, 665.5, 307.0)">g</text><text xml:space="preserve" font-family="Monaco" font-size="32.0" fill="#0432FF" transform="matrix(1.00, 0.00, -0.00, -1.00, 684.7, 307.0)">e</text><text xml:space="preserve" font-family="Monaco" font-size="32.0" fill="#0221B6" transform="matrix(1.00, 0.00, -0.00, -1.00, 703.9, 307.0)">-</text><text xml:space="preserve" font-family="Monaco" font-size="32.0" fill="#0221B6" transform="matrix(1.00, 0.00, -0.00, -1.00, 723.1, 307.0)">&gt;</text><text xml:space="preserve" font-family="Monaco" font-size="32.0" fill="#323343" transform="matrix(1.00, 0.00, -0.00, -1.00, 742.3, 307.0)">l</text><text xml:space="preserve" font-family="Monaco" font-size="32.0" fill="#323343" transform="matrix(1.00, 0.00, -0.00, -1.00, 761.5, 307.0)">i</text><text xml:space="preserve" font-family="Monaco" font-size="32.0" fill="#323343" transform="matrix(1.00, 0.00, -0.00, -1.00, 780.7, 307.0)">n</text><text xml:space="preserve" font-family="Monaco" font-size="32.0" fill="#323343" transform="matrix(1.00, 0.00, -0.00, -1.00, 799.9, 307.0)">k</text><text xml:space="preserve" font-family="Monaco" font-size="32.0" fill="#323343" transform="matrix(1.00, 0.00, -0.00, -1.00, 819.1, 307.0)">;</text><text xml:space="preserve" font-family="Monaco" font-size="32.0" fill="#6D78DE" transform="matrix(1.00, 0.00, -0.00, -1.00, 147.0, 221.0)">T</text><text xml:space="preserve" font-family="Monaco" font-size="32.0" fill="#6D78DE" transform="matrix(1.00, 0.00, -0.00, -1.00, 166.2, 221.0)">i</text><text xml:space="preserve" font-family="Monaco" font-size="32.0" fill="#6D78DE" transform="matrix(1.00, 0.00, -0.00, -1.00, 185.4, 221.0)">m</text><text xml:space="preserve" font-family="Monaco" font-size="32.0" fill="#6D78DE" transform="matrix(1.00, 0.00, -0.00, -1.00, 204.6, 221.0)">b</text><text xml:space="preserve" font-family="Monaco" font-size="32.0" fill="#6D78DE" transform="matrix(1.00, 0.00, -0.00, -1.00, 223.8, 221.0)">e</text><text xml:space="preserve" font-family="Monaco" font-size="32.0" fill="#6D78DE" transform="matrix(1.00, 0.00, -0.00, -1.00, 243.0, 221.0)">r</text><text xml:space="preserve" font-family="Monaco" font-size="32.0" fill="#0221B6" transform="matrix(1.00, 0.00, -0.00, -1.00, 262.2, 221.0)">:</text><text xml:space="preserve" font-family="Monaco" font-size="32.0" fill="#0221B6" transform="matrix(1.00, 0.00, -0.00, -1.00, 281.4, 221.0)">:</text><text xml:space="preserve" font-family="Monaco" font-size="32.0" fill="#323343" transform="matrix(1.00, 0.00, -0.00, -1.00, 300.6, 221.0)">r</text><text xml:space="preserve" font-family="Monaco" font-size="32.0" fill="#323343" transform="matrix(1.00, 0.00, -0.00, -1.00, 319.8, 221.0)">e</text><text xml:space="preserve" font-family="Monaco" font-size="32.0" fill="#323343" transform="matrix(1.00, 0.00, -0.00, -1.00, 339.0, 221.0)">n</text><text xml:space="preserve" font-family="Monaco" font-size="32.0" fill="#323343" transform="matrix(1.00, 0.00, -0.00, -1.00, 358.2, 221.0)">d</text><text xml:space="preserve" font-family="Monaco" font-size="32.0" fill="#323343" transform="matrix(1.00, 0.00, -0.00, -1.00, 377.5, 221.0)">e</text><text xml:space="preserve" font-family="Monaco" font-size="32.0" fill="#323343" transform="matrix(1.00, 0.00, -0.00, -1.00, 396.7, 221.0)">r</text><text xml:space="preserve" font-family="Monaco" font-size="32.0" fill="#323343" transform="matrix(1.00, 0.00, -0.00, -1.00, 415.9, 221.0)">(</text><text xml:space="preserve" font-family="Monaco" font-size="32.0" fill="#D71E00" transform="matrix(1.00, 0.00, -0.00, -1.00, 435.0, 221.0)">'</text><text xml:space="preserve" font-family="Monaco" font-size="32.0" fill="#D71E00" transform="matrix(1.00, 0.00, -0.00, -1.00, 454.3, 221.0)">h</text><text xml:space="preserve" font-family="Monaco" font-size="32.0" fill="#D71E00" transform="matrix(1.00, 0.00, -0.00, -1.00, 473.5, 221.0)">o</text><text xml:space="preserve" font-family="Monaco" font-size="32.0" fill="#D71E00" transform="matrix(1.00, 0.00, -0.00, -1.00, 492.7, 221.0)">m</text><text xml:space="preserve" font-family="Monaco" font-size="32.0" fill="#D71E00" transform="matrix(1.00, 0.00, -0.00, -1.00, 511.9, 221.0)">e</text><text xml:space="preserve" font-family="Monaco" font-size="32.0" fill="#D71E00" transform="matrix(1.00, 0.00, -0.00, -1.00, 531.1, 221.0)">.</text><text xml:space="preserve" font-family="Monaco" font-size="32.0" fill="#D71E00" transform="matrix(1.00, 0.00, -0.00, -1.00, 550.3, 221.0)">t</text><text xml:space="preserve" font-family="Monaco" font-size="32.0" fill="#D71E00" transform="matrix(1.00, 0.00, -0.00, -1.00, 569.5, 221.0)">w</text><text xml:space="preserve" font-family="Monaco" font-size="32.0" fill="#D71E00" transform="matrix(1.00, 0.00, -0.00, -1.00, 588.7, 221.0)">i</text><text xml:space="preserve" font-family="Monaco" font-size="32.0" fill="#D71E00" transform="matrix(1.00, 0.00, -0.00, -1.00, 607.9, 221.0)">g</text><text xml:space="preserve" font-family="Monaco" font-size="32.0" fill="#D71E00" transform="matrix(1.00, 0.00, -0.00, -1.00, 627.1, 221.0)">'</text><text xml:space="preserve" font-family="Monaco" font-size="32.0" fill="#323343" transform="matrix(1.00, 0.00, -0.00, -1.00, 646.3, 221.0)">,</text><text xml:space="preserve" font-family="Monaco" font-size="32.0" fill="#323343" transform="matrix(1.00, 0.00, -0.00, -1.00, 665.5, 221.0)"> </text><text xml:space="preserve" font-family="Monaco" font-size="32.0" fill="#0432FF" transform="matrix(1.00, 0.00, -0.00, -1.00, 684.7, 221.0)">$</text><text xml:space="preserve" font-family="Monaco" font-size="32.0" fill="#0432FF" transform="matrix(1.00, 0.00, -0.00, -1.00, 703.9, 221.0)">c</text><text xml:space="preserve" font-family="Monaco" font-size="32.0" fill="#0432FF" transform="matrix(1.00, 0.00, -0.00, -1.00, 723.1, 221.0)">o</text><text xml:space="preserve" font-family="Monaco" font-size="32.0" fill="#0432FF" transform="matrix(1.00, 0.00, -0.00, -1.00, 742.3, 221.0)">n</text><text xml:space="preserve" font-family="Monaco" font-size="32.0" fill="#0432FF" transform="matrix(1.00, 0.00, -0.00, -1.00, 761.5, 221.0)">t</text><text xml:space="preserve" font-family="Monaco" font-size="32.0" fill="#0432FF" transform="matrix(1.00, 0.00, -0.00, -1.00, 780.7, 221.0)">e</text><text xml:space="preserve" font-family="Monaco" font-size="32.0" fill="#0432FF" transform="matrix(1.00, 0.00, -0.00, -1.00, 799.9, 221.0)">x</text><text xml:space="preserve" font-family="Monaco" font-size="32.0" fill="#0432FF" transform="matrix(1.00, 0.00, -0.00, -1.00, 819.1, 221.0)">t</text><text xml:space="preserve" font-family="Monaco" font-size="32.0" fill="#323343" transform="matrix(1.00, 0.00, -0.00, -1.00, 838.3, 221.0)">)</text><text xml:space="preserve" font-family="Monaco" font-size="32.0" fill="#323343" transform="matrix(1.00, 0.00, -0.00, -1.00, 857.5, 221.0)">;</text></g></svg>