<?xml version="1.0" encoding="UTF-8" standalone="no"?><svg xmlns="http://www.w3.org/2000/svg" xmlns:xlink="http://www.w3.org/1999/xlink" clip-rule="evenodd" stroke-miterlimit="4.00" viewBox="0 0 1024 768"><desc>SVG generated by Keynote</desc><defs></defs><g transform="matrix(1.00, 0.00, -0.00, -1.00, 0.0, 768.0)"><path d="M 0.0 768.0 L 1024.0 768.0 L 1024.0 0.0 L 0.0 0.0 Z M 0.0 768.0 " fill="#FEFFFF"></path><text xml:space="preserve" font-family="Adventure" font-size="44.0" fill="#000000" transform="matrix(1.00, 0.00, -0.00, -1.00, 293.0, 648.0)">S</text><text xml:space="preserve" font-family="Adventure" font-size="44.0" fill="#000000" transform="matrix(1.00, 0.00, -0.00, -1.00, 310.2, 648.0)">O</text><text xml:space="preserve" font-family="Adventure" font-size="44.0" fill="#000000" transform="matrix(1.00, 0.00, -0.00, -1.00, 340.2, 648.0)">M</text><text xml:space="preserve" font-family="Adventure" font-size="44.0" fill="#000000" transform="matrix(1.00, 0.00, -0.00, -1.00, 381.0, 648.0)">E</text><text xml:space="preserve" font-family="Adventure" font-size="44.0" fill="#000000" transform="matrix(1.00, 0.00, -0.00, -1.00, 402.5, 648.0)">T</text><text xml:space="preserve" font-family="Adventure" font-size="44.0" fill="#000000" transform="matrix(1.00, 0.00, -0.00, -1.00, 426.2, 648.0)">I</text><text xml:space="preserve" font-family="Adventure" font-size="44.0" fill="#000000" transform="matrix(1.00, 0.00, -0.00, -1.00, 446.6, 648.0)">M</text><text xml:space="preserve" font-family="Adventure" font-size="44.0" fill="#000000" transform="matrix(1.00, 0.00, -0.00, -1.00, 487.4, 648.0)">E</text><text xml:space="preserve" font-family="Adventure" font-size="44.0" fill="#000000" transform="matrix(1.00, 0.00, -0.00, -1.00, 508.9, 648.0)">S</text><text xml:space="preserve" font-family="Adventure" font-size="44.0" fill="#000000" transform="matrix(1.00, 0.00, -0.00, -1.00, 526.1, 648.0)"> </text><text xml:space="preserve" font-family="Adventure" font-size="44.0" fill="#000000" transform="matrix(1.00, 0.00, -0.00, -1.00, 540.1, 648.0)">I</text><text xml:space="preserve" font-family="Adventure" font-size="44.0" fill="#000000" transform="matrix(1.00, 0.00, -0.00, -1.00, 560.5, 648.0)">T</text><text xml:space="preserve" font-family="Adventure" font-size="44.0" fill="#000000" transform="matrix(1.00, 0.00, -0.00, -1.00, 584.2, 648.0)">'</text><text xml:space="preserve" font-family="Adventure" font-size="44.0" fill="#000000" transform="matrix(1.00, 0.00, -0.00, -1.00, 594.9, 648.0)">S</text><text xml:space="preserve" font-family="Adventure" font-size="44.0" fill="#000000" transform="matrix(1.00, 0.00, -0.00, -1.00, 612.1, 648.0)"> </text><text xml:space="preserve" font-family="Adventure" font-size="44.0" fill="#000000" transform="matrix(1.00, 0.00, -0.00, -1.00, 626.1, 648.0)">O</text><text xml:space="preserve" font-family="Adventure" font-size="44.0" fill="#000000" transform="matrix(1.00, 0.00, -0.00, -1.00, 656.2, 648.0)">K</text><text xml:space="preserve" font-family="Adventure" font-size="44.0" fill="#000000" transform="matrix(1.00, 0.00, -0.00, -1.00, 682.0, 648.0)">A</text><text xml:space="preserve" font-family="Adventure" font-size="44.0" fill="#000000" transform="matrix(1.00, 0.00, -0.00, -1.00, 707.7, 648.0)">Y</text><text xml:space="preserve" font-family="Adventure" font-size="44.0" fill="#000000" transform="matrix(1.00, 0.00, -0.00, -1.00, 731.4, 648.0)"> </text><text xml:space="preserve" font-family="Adventure" font-size="44.0" fill="#000000" transform="matrix(1.00, 0.00, -0.00, -1.00, 140.0, 592.0)">(</text><text xml:space="preserve" font-family="Adventure" font-size="44.0" fill="#000000" transform="matrix(1.00, 0.00, -0.00, -1.00, 161.5, 592.0)">T</text><text xml:space="preserve" font-family="Adventure" font-size="44.0" fill="#000000" transform="matrix(1.00, 0.00, -0.00, -1.00, 185.1, 592.0)">H</text><text xml:space="preserve" font-family="Adventure" font-size="44.0" fill="#000000" transform="matrix(1.00, 0.00, -0.00, -1.00, 212.0, 592.0)">A</text><text xml:space="preserve" font-family="Adventure" font-size="44.0" fill="#000000" transform="matrix(1.00, 0.00, -0.00, -1.00, 237.8, 592.0)">T</text><text xml:space="preserve" font-family="Adventure" font-size="44.0" fill="#000000" transform="matrix(1.00, 0.00, -0.00, -1.00, 261.5, 592.0)"> </text><text xml:space="preserve" font-family="Adventure" font-size="44.0" fill="#000000" transform="matrix(1.00, 0.00, -0.00, -1.00, 275.5, 592.0)">I</text><text xml:space="preserve" font-family="Adventure" font-size="44.0" fill="#000000" transform="matrix(1.00, 0.00, -0.00, -1.00, 295.9, 592.0)">T</text><text xml:space="preserve" font-family="Adventure" font-size="44.0" fill="#000000" transform="matrix(1.00, 0.00, -0.00, -1.00, 319.5, 592.0)"> </text><text xml:space="preserve" font-family="Adventure" font-size="44.0" fill="#000000" transform="matrix(1.00, 0.00, -0.00, -1.00, 333.6, 592.0)">K</text><text xml:space="preserve" font-family="Adventure" font-size="44.0" fill="#000000" transform="matrix(1.00, 0.00, -0.00, -1.00, 359.4, 592.0)">N</text><text xml:space="preserve" font-family="Adventure" font-size="44.0" fill="#000000" transform="matrix(1.00, 0.00, -0.00, -1.00, 385.2, 592.0)">O</text><text xml:space="preserve" font-family="Adventure" font-size="44.0" fill="#000000" transform="matrix(1.00, 0.00, -0.00, -1.00, 415.2, 592.0)">W</text><text xml:space="preserve" font-family="Adventure" font-size="44.0" fill="#000000" transform="matrix(1.00, 0.00, -0.00, -1.00, 453.9, 592.0)">S</text><text xml:space="preserve" font-family="Adventure" font-size="44.0" fill="#000000" transform="matrix(1.00, 0.00, -0.00, -1.00, 471.0, 592.0)"> </text><text xml:space="preserve" font-family="Adventure" font-size="44.0" fill="#000000" transform="matrix(1.00, 0.00, -0.00, -1.00, 485.1, 592.0)">A</text><text xml:space="preserve" font-family="Adventure" font-size="44.0" fill="#000000" transform="matrix(1.00, 0.00, -0.00, -1.00, 510.9, 592.0)">B</text><text xml:space="preserve" font-family="Adventure" font-size="44.0" fill="#000000" transform="matrix(1.00, 0.00, -0.00, -1.00, 536.7, 592.0)">O</text><text xml:space="preserve" font-family="Adventure" font-size="44.0" fill="#000000" transform="matrix(1.00, 0.00, -0.00, -1.00, 566.7, 592.0)">U</text><text xml:space="preserve" font-family="Adventure" font-size="44.0" fill="#000000" transform="matrix(1.00, 0.00, -0.00, -1.00, 594.6, 592.0)">T</text><text xml:space="preserve" font-family="Adventure" font-size="44.0" fill="#000000" transform="matrix(1.00, 0.00, -0.00, -1.00, 618.2, 592.0)"> </text><text xml:space="preserve" font-family="Adventure" font-size="44.0" fill="#000000" transform="matrix(1.00, 0.00, -0.00, -1.00, 632.3, 592.0)">W</text><text xml:space="preserve" font-family="Adventure" font-size="44.0" fill="#000000" transform="matrix(1.00, 0.00, -0.00, -1.00, 671.0, 592.0)">O</text><text xml:space="preserve" font-family="Adventure" font-size="44.0" fill="#000000" transform="matrix(1.00, 0.00, -0.00, -1.00, 701.0, 592.0)">R</text><text xml:space="preserve" font-family="Adventure" font-size="44.0" fill="#000000" transform="matrix(1.00, 0.00, -0.00, -1.00, 727.9, 592.0)">D</text><text xml:space="preserve" font-family="Adventure" font-size="44.0" fill="#000000" transform="matrix(1.00, 0.00, -0.00, -1.00, 753.7, 592.0)">P</text><text xml:space="preserve" font-family="Adventure" font-size="44.0" fill="#000000" transform="matrix(1.00, 0.00, -0.00, -1.00, 779.5, 592.0)">R</text><text xml:space="preserve" font-family="Adventure" font-size="44.0" fill="#000000" transform="matrix(1.00, 0.00, -0.00, -1.00, 806.3, 592.0)">E</text><text xml:space="preserve" font-family="Adventure" font-size="44.0" fill="#000000" transform="matrix(1.00, 0.00, -0.00, -1.00, 827.8, 592.0)">S</text><text xml:space="preserve" font-family="Adventure" font-size="44.0" fill="#000000" transform="matrix(1.00, 0.00, -0.00, -1.00, 845.0, 592.0)">S</text><text xml:space="preserve" font-family="Adventure" font-size="44.0" fill="#000000" transform="matrix(1.00, 0.00, -0.00, -1.00, 862.1, 592.0)">)</text><image xlink:href="3436BE212742958A1BD0654FB701ED14.png" width="450.00" height="253.00" transform="matrix(1.47, 0.00, -0.00, -1.47, 181.5, 500.5)"></image></g></svg>