<?xml version="1.0" encoding="UTF-8" standalone="no"?><svg xmlns="http://www.w3.org/2000/svg" xmlns:xlink="http://www.w3.org/1999/xlink" clip-rule="evenodd" stroke-miterlimit="4.00" viewBox="0 0 740 94"><desc>SVG generated by Keynote</desc><defs></defs><g transform="matrix(1.00, 0.00, -0.00, -1.00, 0.0, 94.0)"><text xml:space="preserve" font-family="Adventure" font-size="44.0" fill="#000000" transform="matrix(1.00, 0.00, -0.00, -1.00, 149.0, 58.0)">S</text><text xml:space="preserve" font-family="Adventure" font-size="44.0" fill="#000000" transform="matrix(1.00, 0.00, -0.00, -1.00, 166.2, 58.0)">O</text><text xml:space="preserve" font-family="Adventure" font-size="44.0" fill="#000000" transform="matrix(1.00, 0.00, -0.00, -1.00, 196.2, 58.0)">M</text><text xml:space="preserve" font-family="Adventure" font-size="44.0" fill="#000000" transform="matrix(1.00, 0.00, -0.00, -1.00, 237.0, 58.0)">E</text><text xml:space="preserve" font-family="Adventure" font-size="44.0" fill="#000000" transform="matrix(1.00, 0.00, -0.00, -1.00, 258.5, 58.0)">T</text><text xml:space="preserve" font-family="Adventure" font-size="44.0" fill="#000000" transform="matrix(1.00, 0.00, -0.00, -1.00, 282.2, 58.0)">I</text><text xml:space="preserve" font-family="Adventure" font-size="44.0" fill="#000000" transform="matrix(1.00, 0.00, -0.00, -1.00, 302.6, 58.0)">M</text><text xml:space="preserve" font-family="Adventure" font-size="44.0" fill="#000000" transform="matrix(1.00, 0.00, -0.00, -1.00, 343.4, 58.0)">E</text><text xml:space="preserve" font-family="Adventure" font-size="44.0" fill="#000000" transform="matrix(1.00, 0.00, -0.00, -1.00, 364.9, 58.0)">S</text><text xml:space="preserve" font-family="Adventure" font-size="44.0" fill="#000000" transform="matrix(1.00, 0.00, -0.00, -1.00, 382.1, 58.0)"> </text><text xml:space="preserve" font-family="Adventure" font-size="44.0" fill="#000000" transform="matrix(1.00, 0.00, -0.00, -1.00, 396.1, 58.0)">I</text><text xml:space="preserve" font-family="Adventure" font-size="44.0" fill="#000000" transform="matrix(1.00, 0.00, -0.00, -1.00, 416.5, 58.0)">T</text><text xml:space="preserve" font-family="Adventure" font-size="44.0" fill="#000000" transform="matrix(1.00, 0.00, -0.00, -1.00, 440.2, 58.0)">'</text><text xml:space="preserve" font-family="Adventure" font-size="44.0" fill="#000000" transform="matrix(1.00, 0.00, -0.00, -1.00, 450.9, 58.0)">S</text><text xml:space="preserve" font-family="Adventure" font-size="44.0" fill="#000000" transform="matrix(1.00, 0.00, -0.00, -1.00, 468.1, 58.0)"> </text><text xml:space="preserve" font-family="Adventure" font-size="44.0" fill="#000000" transform="matrix(1.00, 0.00, -0.00, -1.00, 482.1, 58.0)">O</text><text xml:space="preserve" font-family="Adventure" font-size="44.0" fill="#000000" transform="matrix(1.00, 0.00, -0.00, -1.00, 512.2, 58.0)">K</text><text xml:space="preserve" font-family="Adventure" font-size="44.0" fill="#000000" transform="matrix(1.00, 0.00, -0.00, -1.00, 538.0, 58.0)">A</text><text xml:space="preserve" font-family="Adventure" font-size="44.0" fill="#000000" transform="matrix(1.00, 0.00, -0.00, -1.00, 563.7, 58.0)">Y</text><text xml:space="preserve" font-family="Adventure" font-size="44.0" fill="#000000" transform="matrix(1.00, 0.00, -0.00, -1.00, 587.4, 58.0)"> </text><text xml:space="preserve" font-family="Adventure" font-size="44.0" fill="#000000" transform="matrix(1.00, 0.00, -0.00, -1.00, -4.0, 2.0)">(</text><text xml:space="preserve" font-family="Adventure" font-size="44.0" fill="#000000" transform="matrix(1.00, 0.00, -0.00, -1.00, 17.5, 2.0)">T</text><text xml:space="preserve" font-family="Adventure" font-size="44.0" fill="#000000" transform="matrix(1.00, 0.00, -0.00, -1.00, 41.1, 2.0)">H</text><text xml:space="preserve" font-family="Adventure" font-size="44.0" fill="#000000" transform="matrix(1.00, 0.00, -0.00, -1.00, 68.0, 2.0)">A</text><text xml:space="preserve" font-family="Adventure" font-size="44.0" fill="#000000" transform="matrix(1.00, 0.00, -0.00, -1.00, 93.8, 2.0)">T</text><text xml:space="preserve" font-family="Adventure" font-size="44.0" fill="#000000" transform="matrix(1.00, 0.00, -0.00, -1.00, 117.5, 2.0)"> </text><text xml:space="preserve" font-family="Adventure" font-size="44.0" fill="#000000" transform="matrix(1.00, 0.00, -0.00, -1.00, 131.5, 2.0)">I</text><text xml:space="preserve" font-family="Adventure" font-size="44.0" fill="#000000" transform="matrix(1.00, 0.00, -0.00, -1.00, 151.9, 2.0)">T</text><text xml:space="preserve" font-family="Adventure" font-size="44.0" fill="#000000" transform="matrix(1.00, 0.00, -0.00, -1.00, 175.5, 2.0)"> </text><text xml:space="preserve" font-family="Adventure" font-size="44.0" fill="#000000" transform="matrix(1.00, 0.00, -0.00, -1.00, 189.6, 2.0)">K</text><text xml:space="preserve" font-family="Adventure" font-size="44.0" fill="#000000" transform="matrix(1.00, 0.00, -0.00, -1.00, 215.4, 2.0)">N</text><text xml:space="preserve" font-family="Adventure" font-size="44.0" fill="#000000" transform="matrix(1.00, 0.00, -0.00, -1.00, 241.2, 2.0)">O</text><text xml:space="preserve" font-family="Adventure" font-size="44.0" fill="#000000" transform="matrix(1.00, 0.00, -0.00, -1.00, 271.2, 2.0)">W</text><text xml:space="preserve" font-family="Adventure" font-size="44.0" fill="#000000" transform="matrix(1.00, 0.00, -0.00, -1.00, 309.9, 2.0)">S</text><text xml:space="preserve" font-family="Adventure" font-size="44.0" fill="#000000" transform="matrix(1.00, 0.00, -0.00, -1.00, 327.0, 2.0)"> </text><text xml:space="preserve" font-family="Adventure" font-size="44.0" fill="#000000" transform="matrix(1.00, 0.00, -0.00, -1.00, 341.1, 2.0)">A</text><text xml:space="preserve" font-family="Adventure" font-size="44.0" fill="#000000" transform="matrix(1.00, 0.00, -0.00, -1.00, 366.9, 2.0)">B</text><text xml:space="preserve" font-family="Adventure" font-size="44.0" fill="#000000" transform="matrix(1.00, 0.00, -0.00, -1.00, 392.7, 2.0)">O</text><text xml:space="preserve" font-family="Adventure" font-size="44.0" fill="#000000" transform="matrix(1.00, 0.00, -0.00, -1.00, 422.7, 2.0)">U</text><text xml:space="preserve" font-family="Adventure" font-size="44.0" fill="#000000" transform="matrix(1.00, 0.00, -0.00, -1.00, 450.6, 2.0)">T</text><text xml:space="preserve" font-family="Adventure" font-size="44.0" fill="#000000" transform="matrix(1.00, 0.00, -0.00, -1.00, 474.2, 2.0)"> </text><text xml:space="preserve" font-family="Adventure" font-size="44.0" fill="#000000" transform="matrix(1.00, 0.00, -0.00, -1.00, 488.3, 2.0)">W</text><text xml:space="preserve" font-family="Adventure" font-size="44.0" fill="#000000" transform="matrix(1.00, 0.00, -0.00, -1.00, 527.0, 2.0)">O</text><text xml:space="preserve" font-family="Adventure" font-size="44.0" fill="#000000" transform="matrix(1.00, 0.00, -0.00, -1.00, 557.0, 2.0)">R</text><text xml:space="preserve" font-family="Adventure" font-size="44.0" fill="#000000" transform="matrix(1.00, 0.00, -0.00, -1.00, 583.9, 2.0)">D</text><text xml:space="preserve" font-family="Adventure" font-size="44.0" fill="#000000" transform="matrix(1.00, 0.00, -0.00, -1.00, 609.7, 2.0)">P</text><text xml:space="preserve" font-family="Adventure" font-size="44.0" fill="#000000" transform="matrix(1.00, 0.00, -0.00, -1.00, 635.5, 2.0)">R</text><text xml:space="preserve" font-family="Adventure" font-size="44.0" fill="#000000" transform="matrix(1.00, 0.00, -0.00, -1.00, 662.3, 2.0)">E</text><text xml:space="preserve" font-family="Adventure" font-size="44.0" fill="#000000" transform="matrix(1.00, 0.00, -0.00, -1.00, 683.8, 2.0)">S</text><text xml:space="preserve" font-family="Adventure" font-size="44.0" fill="#000000" transform="matrix(1.00, 0.00, -0.00, -1.00, 701.0, 2.0)">S</text><text xml:space="preserve" font-family="Adventure" font-size="44.0" fill="#000000" transform="matrix(1.00, 0.00, -0.00, -1.00, 718.1, 2.0)">)</text></g></svg>