<?xml version="1.0" encoding="UTF-8" standalone="no"?><svg xmlns="http://www.w3.org/2000/svg" xmlns:xlink="http://www.w3.org/1999/xlink" clip-rule="evenodd" stroke-miterlimit="4.00" viewBox="0 0 269 29"><desc>SVG generated by Keynote</desc><defs></defs><g transform="matrix(1.00, 0.00, -0.00, -1.00, 0.0, 29.0)"><text xml:space="preserve" font-family="Lato-Light" font-size="19.5" fill="#000000" transform="matrix(1.00, 0.00, -0.00, -1.00, 0.0, 9.7)">•</text><text xml:space="preserve" font-family="Lato-Light" font-size="26.0" fill="#000000" transform="matrix(1.00, 0.00, -0.00, -1.00, 35.0, 7.0)">I</text><text xml:space="preserve" font-family="Lato-Light" font-size="26.0" fill="#000000" transform="matrix(1.00, 0.00, -0.00, -1.00, 42.8, 7.0)">m</text><text xml:space="preserve" font-family="Lato-Light" font-size="26.0" fill="#000000" transform="matrix(1.00, 0.00, -0.00, -1.00, 63.4, 7.0)">p</text><text xml:space="preserve" font-family="Lato-Light" font-size="26.0" fill="#000000" transform="matrix(1.00, 0.00, -0.00, -1.00, 77.4, 7.0)">l</text><text xml:space="preserve" font-family="Lato-Light" font-size="26.0" fill="#000000" transform="matrix(1.00, 0.00, -0.00, -1.00, 83.5, 7.0)">e</text><text xml:space="preserve" font-family="Lato-Light" font-size="26.0" fill="#000000" transform="matrix(1.00, 0.00, -0.00, -1.00, 96.8, 7.0)">m</text><text xml:space="preserve" font-family="Lato-Light" font-size="26.0" fill="#000000" transform="matrix(1.00, 0.00, -0.00, -1.00, 117.5, 7.0)">e</text><text xml:space="preserve" font-family="Lato-Light" font-size="26.0" fill="#000000" transform="matrix(1.00, 0.00, -0.00, -1.00, 130.8, 7.0)">n</text><text xml:space="preserve" font-family="Lato-Light" font-size="26.0" fill="#000000" transform="matrix(1.00, 0.00, -0.00, -1.00, 144.8, 7.0)">t</text><text xml:space="preserve" font-family="Lato-Light" font-size="26.0" fill="#000000" transform="matrix(1.00, 0.00, -0.00, -1.00, 154.1, 7.0)"> </text><text xml:space="preserve" font-family="Lato-Light" font-size="26.0" fill="#000000" transform="matrix(1.00, 0.00, -0.00, -1.00, 159.1, 7.0)">c</text><text xml:space="preserve" font-family="Lato-Light" font-size="26.0" fill="#000000" transform="matrix(1.00, 0.00, -0.00, -1.00, 170.9, 7.0)">o</text><text xml:space="preserve" font-family="Lato-Light" font-size="26.0" fill="#000000" transform="matrix(1.00, 0.00, -0.00, -1.00, 185.0, 7.0)">n</text><text xml:space="preserve" font-family="Lato-Light" font-size="26.0" fill="#000000" transform="matrix(1.00, 0.00, -0.00, -1.00, 199.1, 7.0)">t</text><text xml:space="preserve" font-family="Lato-Light" font-size="26.0" fill="#000000" transform="matrix(1.00, 0.00, -0.00, -1.00, 208.3, 7.0)">r</text><text xml:space="preserve" font-family="Lato-Light" font-size="26.0" fill="#000000" transform="matrix(1.00, 0.00, -0.00, -1.00, 218.6, 7.0)">o</text><text xml:space="preserve" font-family="Lato-Light" font-size="26.0" fill="#000000" transform="matrix(1.00, 0.00, -0.00, -1.00, 232.7, 7.0)">l</text><text xml:space="preserve" font-family="Lato-Light" font-size="26.0" fill="#000000" transform="matrix(1.00, 0.00, -0.00, -1.00, 238.9, 7.0)">l</text><text xml:space="preserve" font-family="Lato-Light" font-size="26.0" fill="#000000" transform="matrix(1.00, 0.00, -0.00, -1.00, 245.0, 7.0)">e</text><text xml:space="preserve" font-family="Lato-Light" font-size="26.0" fill="#000000" transform="matrix(1.00, 0.00, -0.00, -1.00, 258.3, 7.0)">r</text></g></svg>