<?xml version="1.0" encoding="UTF-8" standalone="no"?><svg xmlns="http://www.w3.org/2000/svg" xmlns:xlink="http://www.w3.org/1999/xlink" clip-rule="evenodd" stroke-miterlimit="4.00" viewBox="0 0 1024 768"><desc>SVG generated by Keynote</desc><defs></defs><g transform="matrix(1.00, 0.00, -0.00, -1.00, 0.0, 768.0)"><path d="M 0.0 768.0 L 1024.0 768.0 L 1024.0 0.0 L 0.0 0.0 Z M 0.0 768.0 " fill="#FEFFFF"></path><text xml:space="preserve" font-family="Monaco" font-size="26.0" fill="#323343" transform="matrix(1.00, 0.00, -0.00, -1.00, 75.0, 532.0)">&lt;</text><text xml:space="preserve" font-family="Monaco" font-size="26.0" fill="#323343" transform="matrix(1.00, 0.00, -0.00, -1.00, 90.6, 532.0)">?</text><text xml:space="preserve" font-family="Monaco" font-size="26.0" fill="#323343" transform="matrix(1.00, 0.00, -0.00, -1.00, 106.2, 532.0)">p</text><text xml:space="preserve" font-family="Monaco" font-size="26.0" fill="#323343" transform="matrix(1.00, 0.00, -0.00, -1.00, 121.8, 532.0)">h</text><text xml:space="preserve" font-family="Monaco" font-size="26.0" fill="#323343" transform="matrix(1.00, 0.00, -0.00, -1.00, 137.4, 532.0)">p</text><text xml:space="preserve" font-family="Monaco" font-size="26.0" fill="#00B418" transform="matrix(1.00, 0.00, -0.00, -1.00, 75.0, 497.0)">/</text><text xml:space="preserve" font-family="Monaco" font-size="26.0" fill="#00B418" transform="matrix(1.00, 0.00, -0.00, -1.00, 90.6, 497.0)">/</text><text xml:space="preserve" font-family="Monaco" font-size="26.0" fill="#00B418" transform="matrix(1.00, 0.00, -0.00, -1.00, 106.2, 497.0)"> </text><text xml:space="preserve" font-family="Monaco" font-size="26.0" fill="#00B418" transform="matrix(1.00, 0.00, -0.00, -1.00, 121.8, 497.0)">4</text><text xml:space="preserve" font-family="Monaco" font-size="26.0" fill="#00B418" transform="matrix(1.00, 0.00, -0.00, -1.00, 137.4, 497.0)">0</text><text xml:space="preserve" font-family="Monaco" font-size="26.0" fill="#00B418" transform="matrix(1.00, 0.00, -0.00, -1.00, 153.0, 497.0)">4</text><text xml:space="preserve" font-family="Monaco" font-size="26.0" fill="#00B418" transform="matrix(1.00, 0.00, -0.00, -1.00, 168.6, 497.0)">.</text><text xml:space="preserve" font-family="Monaco" font-size="26.0" fill="#00B418" transform="matrix(1.00, 0.00, -0.00, -1.00, 184.2, 497.0)">p</text><text xml:space="preserve" font-family="Monaco" font-size="26.0" fill="#00B418" transform="matrix(1.00, 0.00, -0.00, -1.00, 199.8, 497.0)">h</text><text xml:space="preserve" font-family="Monaco" font-size="26.0" fill="#00B418" transform="matrix(1.00, 0.00, -0.00, -1.00, 215.4, 497.0)">p</text><text xml:space="preserve" font-family="Monaco" font-size="26.0" fill="#0432FF" transform="matrix(1.00, 0.00, -0.00, -1.00, 75.0, 462.0)">$</text><text xml:space="preserve" font-family="Monaco" font-size="26.0" fill="#0432FF" transform="matrix(1.00, 0.00, -0.00, -1.00, 90.6, 462.0)">c</text><text xml:space="preserve" font-family="Monaco" font-size="26.0" fill="#0432FF" transform="matrix(1.00, 0.00, -0.00, -1.00, 106.2, 462.0)">o</text><text xml:space="preserve" font-family="Monaco" font-size="26.0" fill="#0432FF" transform="matrix(1.00, 0.00, -0.00, -1.00, 121.8, 462.0)">n</text><text xml:space="preserve" font-family="Monaco" font-size="26.0" fill="#0432FF" transform="matrix(1.00, 0.00, -0.00, -1.00, 137.4, 462.0)">t</text><text xml:space="preserve" font-family="Monaco" font-size="26.0" fill="#0432FF" transform="matrix(1.00, 0.00, -0.00, -1.00, 153.0, 462.0)">e</text><text xml:space="preserve" font-family="Monaco" font-size="26.0" fill="#0432FF" transform="matrix(1.00, 0.00, -0.00, -1.00, 168.6, 462.0)">x</text><text xml:space="preserve" font-family="Monaco" font-size="26.0" fill="#0432FF" transform="matrix(1.00, 0.00, -0.00, -1.00, 184.2, 462.0)">t</text><text xml:space="preserve" font-family="Monaco" font-size="26.0" fill="#323343" transform="matrix(1.00, 0.00, -0.00, -1.00, 199.8, 462.0)"> </text><text xml:space="preserve" font-family="Monaco" font-size="26.0" fill="#0221B6" transform="matrix(1.00, 0.00, -0.00, -1.00, 215.4, 462.0)">=</text><text xml:space="preserve" font-family="Monaco" font-size="26.0" fill="#323343" transform="matrix(1.00, 0.00, -0.00, -1.00, 231.0, 462.0)"> </text><text xml:space="preserve" font-family="Monaco" font-size="26.0" fill="#6D78DE" transform="matrix(1.00, 0.00, -0.00, -1.00, 246.6, 462.0)">T</text><text xml:space="preserve" font-family="Monaco" font-size="26.0" fill="#6D78DE" transform="matrix(1.00, 0.00, -0.00, -1.00, 262.2, 462.0)">i</text><text xml:space="preserve" font-family="Monaco" font-size="26.0" fill="#6D78DE" transform="matrix(1.00, 0.00, -0.00, -1.00, 277.8, 462.0)">m</text><text xml:space="preserve" font-family="Monaco" font-size="26.0" fill="#6D78DE" transform="matrix(1.00, 0.00, -0.00, -1.00, 293.4, 462.0)">b</text><text xml:space="preserve" font-family="Monaco" font-size="26.0" fill="#6D78DE" transform="matrix(1.00, 0.00, -0.00, -1.00, 309.0, 462.0)">e</text><text xml:space="preserve" font-family="Monaco" font-size="26.0" fill="#6D78DE" transform="matrix(1.00, 0.00, -0.00, -1.00, 324.7, 462.0)">r</text><text xml:space="preserve" font-family="Monaco" font-size="26.0" fill="#0221B6" transform="matrix(1.00, 0.00, -0.00, -1.00, 340.2, 462.0)">:</text><text xml:space="preserve" font-family="Monaco" font-size="26.0" fill="#0221B6" transform="matrix(1.00, 0.00, -0.00, -1.00, 355.8, 462.0)">:</text><text xml:space="preserve" font-family="Monaco" font-size="26.0" fill="#323343" transform="matrix(1.00, 0.00, -0.00, -1.00, 371.4, 462.0)">g</text><text xml:space="preserve" font-family="Monaco" font-size="26.0" fill="#323343" transform="matrix(1.00, 0.00, -0.00, -1.00, 387.1, 462.0)">e</text><text xml:space="preserve" font-family="Monaco" font-size="26.0" fill="#323343" transform="matrix(1.00, 0.00, -0.00, -1.00, 402.7, 462.0)">t</text><text xml:space="preserve" font-family="Monaco" font-size="26.0" fill="#323343" transform="matrix(1.00, 0.00, -0.00, -1.00, 418.3, 462.0)">_</text><text xml:space="preserve" font-family="Monaco" font-size="26.0" fill="#323343" transform="matrix(1.00, 0.00, -0.00, -1.00, 433.9, 462.0)">c</text><text xml:space="preserve" font-family="Monaco" font-size="26.0" fill="#323343" transform="matrix(1.00, 0.00, -0.00, -1.00, 449.5, 462.0)">o</text><text xml:space="preserve" font-family="Monaco" font-size="26.0" fill="#323343" transform="matrix(1.00, 0.00, -0.00, -1.00, 465.1, 462.0)">n</text><text xml:space="preserve" font-family="Monaco" font-size="26.0" fill="#323343" transform="matrix(1.00, 0.00, -0.00, -1.00, 480.7, 462.0)">t</text><text xml:space="preserve" font-family="Monaco" font-size="26.0" fill="#323343" transform="matrix(1.00, 0.00, -0.00, -1.00, 496.3, 462.0)">e</text><text xml:space="preserve" font-family="Monaco" font-size="26.0" fill="#323343" transform="matrix(1.00, 0.00, -0.00, -1.00, 511.9, 462.0)">x</text><text xml:space="preserve" font-family="Monaco" font-size="26.0" fill="#323343" transform="matrix(1.00, 0.00, -0.00, -1.00, 527.5, 462.0)">t</text><text xml:space="preserve" font-family="Monaco" font-size="26.0" fill="#323343" transform="matrix(1.00, 0.00, -0.00, -1.00, 543.1, 462.0)">(</text><text xml:space="preserve" font-family="Monaco" font-size="26.0" fill="#323343" transform="matrix(1.00, 0.00, -0.00, -1.00, 558.7, 462.0)">)</text><text xml:space="preserve" font-family="Monaco" font-size="26.0" fill="#323343" transform="matrix(1.00, 0.00, -0.00, -1.00, 574.3, 462.0)">;</text><text xml:space="preserve" font-family="Monaco" font-size="26.0" fill="#0432FF" transform="matrix(1.00, 0.00, -0.00, -1.00, 75.0, 392.0)">$</text><text xml:space="preserve" font-family="Monaco" font-size="26.0" fill="#0432FF" transform="matrix(1.00, 0.00, -0.00, -1.00, 90.6, 392.0)">c</text><text xml:space="preserve" font-family="Monaco" font-size="26.0" fill="#0432FF" transform="matrix(1.00, 0.00, -0.00, -1.00, 106.2, 392.0)">o</text><text xml:space="preserve" font-family="Monaco" font-size="26.0" fill="#0432FF" transform="matrix(1.00, 0.00, -0.00, -1.00, 121.8, 392.0)">n</text><text xml:space="preserve" font-family="Monaco" font-size="26.0" fill="#0432FF" transform="matrix(1.00, 0.00, -0.00, -1.00, 137.4, 392.0)">t</text><text xml:space="preserve" font-family="Monaco" font-size="26.0" fill="#0432FF" transform="matrix(1.00, 0.00, -0.00, -1.00, 153.0, 392.0)">e</text><text xml:space="preserve" font-family="Monaco" font-size="26.0" fill="#0432FF" transform="matrix(1.00, 0.00, -0.00, -1.00, 168.6, 392.0)">x</text><text xml:space="preserve" font-family="Monaco" font-size="26.0" fill="#0432FF" transform="matrix(1.00, 0.00, -0.00, -1.00, 184.2, 392.0)">t</text><text xml:space="preserve" font-family="Monaco" font-size="26.0" fill="#323343" transform="matrix(1.00, 0.00, -0.00, -1.00, 199.8, 392.0)">[</text><text xml:space="preserve" font-family="Monaco" font-size="26.0" fill="#D71E00" transform="matrix(1.00, 0.00, -0.00, -1.00, 215.4, 392.0)">'</text><text xml:space="preserve" font-family="Monaco" font-size="26.0" fill="#D71E00" transform="matrix(1.00, 0.00, -0.00, -1.00, 231.0, 392.0)">t</text><text xml:space="preserve" font-family="Monaco" font-size="26.0" fill="#D71E00" transform="matrix(1.00, 0.00, -0.00, -1.00, 246.6, 392.0)">i</text><text xml:space="preserve" font-family="Monaco" font-size="26.0" fill="#D71E00" transform="matrix(1.00, 0.00, -0.00, -1.00, 262.2, 392.0)">t</text><text xml:space="preserve" font-family="Monaco" font-size="26.0" fill="#D71E00" transform="matrix(1.00, 0.00, -0.00, -1.00, 277.8, 392.0)">l</text><text xml:space="preserve" font-family="Monaco" font-size="26.0" fill="#D71E00" transform="matrix(1.00, 0.00, -0.00, -1.00, 293.4, 392.0)">e</text><text xml:space="preserve" font-family="Monaco" font-size="26.0" fill="#D71E00" transform="matrix(1.00, 0.00, -0.00, -1.00, 309.1, 392.0)">'</text><text xml:space="preserve" font-family="Monaco" font-size="26.0" fill="#323343" transform="matrix(1.00, 0.00, -0.00, -1.00, 324.6, 392.0)">]</text><text xml:space="preserve" font-family="Monaco" font-size="26.0" fill="#323343" transform="matrix(1.00, 0.00, -0.00, -1.00, 340.2, 392.0)"> </text><text xml:space="preserve" font-family="Monaco" font-size="26.0" fill="#0221B6" transform="matrix(1.00, 0.00, -0.00, -1.00, 355.8, 392.0)">=</text><text xml:space="preserve" font-family="Monaco" font-size="26.0" fill="#323343" transform="matrix(1.00, 0.00, -0.00, -1.00, 371.4, 392.0)"> </text><text xml:space="preserve" font-family="Monaco" font-size="26.0" fill="#D71E00" transform="matrix(1.00, 0.00, -0.00, -1.00, 387.1, 392.0)">'</text><text xml:space="preserve" font-family="Monaco" font-size="26.0" fill="#D71E00" transform="matrix(1.00, 0.00, -0.00, -1.00, 402.7, 392.0)">P</text><text xml:space="preserve" font-family="Monaco" font-size="26.0" fill="#D71E00" transform="matrix(1.00, 0.00, -0.00, -1.00, 418.3, 392.0)">a</text><text xml:space="preserve" font-family="Monaco" font-size="26.0" fill="#D71E00" transform="matrix(1.00, 0.00, -0.00, -1.00, 433.9, 392.0)">g</text><text xml:space="preserve" font-family="Monaco" font-size="26.0" fill="#D71E00" transform="matrix(1.00, 0.00, -0.00, -1.00, 449.5, 392.0)">e</text><text xml:space="preserve" font-family="Monaco" font-size="26.0" fill="#D71E00" transform="matrix(1.00, 0.00, -0.00, -1.00, 465.1, 392.0)"> </text><text xml:space="preserve" font-family="Monaco" font-size="26.0" fill="#D71E00" transform="matrix(1.00, 0.00, -0.00, -1.00, 480.7, 392.0)">n</text><text xml:space="preserve" font-family="Monaco" font-size="26.0" fill="#D71E00" transform="matrix(1.00, 0.00, -0.00, -1.00, 496.3, 392.0)">o</text><text xml:space="preserve" font-family="Monaco" font-size="26.0" fill="#D71E00" transform="matrix(1.00, 0.00, -0.00, -1.00, 511.9, 392.0)">t</text><text xml:space="preserve" font-family="Monaco" font-size="26.0" fill="#D71E00" transform="matrix(1.00, 0.00, -0.00, -1.00, 527.5, 392.0)"> </text><text xml:space="preserve" font-family="Monaco" font-size="26.0" fill="#D71E00" transform="matrix(1.00, 0.00, -0.00, -1.00, 543.1, 392.0)">f</text><text xml:space="preserve" font-family="Monaco" font-size="26.0" fill="#D71E00" transform="matrix(1.00, 0.00, -0.00, -1.00, 558.7, 392.0)">o</text><text xml:space="preserve" font-family="Monaco" font-size="26.0" fill="#D71E00" transform="matrix(1.00, 0.00, -0.00, -1.00, 574.3, 392.0)">u</text><text xml:space="preserve" font-family="Monaco" font-size="26.0" fill="#D71E00" transform="matrix(1.00, 0.00, -0.00, -1.00, 589.9, 392.0)">n</text><text xml:space="preserve" font-family="Monaco" font-size="26.0" fill="#D71E00" transform="matrix(1.00, 0.00, -0.00, -1.00, 605.5, 392.0)">d</text><text xml:space="preserve" font-family="Monaco" font-size="26.0" fill="#D71E00" transform="matrix(1.00, 0.00, -0.00, -1.00, 621.1, 392.0)">!</text><text xml:space="preserve" font-family="Monaco" font-size="26.0" fill="#D71E00" transform="matrix(1.00, 0.00, -0.00, -1.00, 636.7, 392.0)">'</text><text xml:space="preserve" font-family="Monaco" font-size="26.0" fill="#323343" transform="matrix(1.00, 0.00, -0.00, -1.00, 652.3, 392.0)">;</text><text xml:space="preserve" font-family="Monaco" font-size="26.0" fill="#0432FF" transform="matrix(1.00, 0.00, -0.00, -1.00, 75.0, 357.0)">$</text><text xml:space="preserve" font-family="Monaco" font-size="26.0" fill="#0432FF" transform="matrix(1.00, 0.00, -0.00, -1.00, 90.6, 357.0)">c</text><text xml:space="preserve" font-family="Monaco" font-size="26.0" fill="#0432FF" transform="matrix(1.00, 0.00, -0.00, -1.00, 106.2, 357.0)">o</text><text xml:space="preserve" font-family="Monaco" font-size="26.0" fill="#0432FF" transform="matrix(1.00, 0.00, -0.00, -1.00, 121.8, 357.0)">n</text><text xml:space="preserve" font-family="Monaco" font-size="26.0" fill="#0432FF" transform="matrix(1.00, 0.00, -0.00, -1.00, 137.4, 357.0)">t</text><text xml:space="preserve" font-family="Monaco" font-size="26.0" fill="#0432FF" transform="matrix(1.00, 0.00, -0.00, -1.00, 153.0, 357.0)">e</text><text xml:space="preserve" font-family="Monaco" font-size="26.0" fill="#0432FF" transform="matrix(1.00, 0.00, -0.00, -1.00, 168.6, 357.0)">x</text><text xml:space="preserve" font-family="Monaco" font-size="26.0" fill="#0432FF" transform="matrix(1.00, 0.00, -0.00, -1.00, 184.2, 357.0)">t</text><text xml:space="preserve" font-family="Monaco" font-size="26.0" fill="#323343" transform="matrix(1.00, 0.00, -0.00, -1.00, 199.8, 357.0)">[</text><text xml:space="preserve" font-family="Monaco" font-size="26.0" fill="#D71E00" transform="matrix(1.00, 0.00, -0.00, -1.00, 215.4, 357.0)">'</text><text xml:space="preserve" font-family="Monaco" font-size="26.0" fill="#D71E00" transform="matrix(1.00, 0.00, -0.00, -1.00, 231.0, 357.0)">s</text><text xml:space="preserve" font-family="Monaco" font-size="26.0" fill="#D71E00" transform="matrix(1.00, 0.00, -0.00, -1.00, 246.6, 357.0)">u</text><text xml:space="preserve" font-family="Monaco" font-size="26.0" fill="#D71E00" transform="matrix(1.00, 0.00, -0.00, -1.00, 262.2, 357.0)">b</text><text xml:space="preserve" font-family="Monaco" font-size="26.0" fill="#D71E00" transform="matrix(1.00, 0.00, -0.00, -1.00, 277.8, 357.0)">T</text><text xml:space="preserve" font-family="Monaco" font-size="26.0" fill="#D71E00" transform="matrix(1.00, 0.00, -0.00, -1.00, 293.4, 357.0)">i</text><text xml:space="preserve" font-family="Monaco" font-size="26.0" fill="#D71E00" transform="matrix(1.00, 0.00, -0.00, -1.00, 309.1, 357.0)">t</text><text xml:space="preserve" font-family="Monaco" font-size="26.0" fill="#D71E00" transform="matrix(1.00, 0.00, -0.00, -1.00, 324.7, 357.0)">l</text><text xml:space="preserve" font-family="Monaco" font-size="26.0" fill="#D71E00" transform="matrix(1.00, 0.00, -0.00, -1.00, 340.3, 357.0)">e</text><text xml:space="preserve" font-family="Monaco" font-size="26.0" fill="#D71E00" transform="matrix(1.00, 0.00, -0.00, -1.00, 355.9, 357.0)">'</text><text xml:space="preserve" font-family="Monaco" font-size="26.0" fill="#323343" transform="matrix(1.00, 0.00, -0.00, -1.00, 371.4, 357.0)">]</text><text xml:space="preserve" font-family="Monaco" font-size="26.0" fill="#323343" transform="matrix(1.00, 0.00, -0.00, -1.00, 387.1, 357.0)"> </text><text xml:space="preserve" font-family="Monaco" font-size="26.0" fill="#0221B6" transform="matrix(1.00, 0.00, -0.00, -1.00, 402.7, 357.0)">=</text><text xml:space="preserve" font-family="Monaco" font-size="26.0" fill="#323343" transform="matrix(1.00, 0.00, -0.00, -1.00, 418.3, 357.0)"> </text><text xml:space="preserve" font-family="Monaco" font-size="26.0" fill="#D71E00" transform="matrix(1.00, 0.00, -0.00, -1.00, 433.9, 357.0)">'</text><text xml:space="preserve" font-family="Monaco" font-size="26.0" fill="#D71E00" transform="matrix(1.00, 0.00, -0.00, -1.00, 449.5, 357.0)">E</text><text xml:space="preserve" font-family="Monaco" font-size="26.0" fill="#D71E00" transform="matrix(1.00, 0.00, -0.00, -1.00, 465.1, 357.0)">r</text><text xml:space="preserve" font-family="Monaco" font-size="26.0" fill="#D71E00" transform="matrix(1.00, 0.00, -0.00, -1.00, 480.7, 357.0)">r</text><text xml:space="preserve" font-family="Monaco" font-size="26.0" fill="#D71E00" transform="matrix(1.00, 0.00, -0.00, -1.00, 496.3, 357.0)">o</text><text xml:space="preserve" font-family="Monaco" font-size="26.0" fill="#D71E00" transform="matrix(1.00, 0.00, -0.00, -1.00, 511.9, 357.0)">r</text><text xml:space="preserve" font-family="Monaco" font-size="26.0" fill="#D71E00" transform="matrix(1.00, 0.00, -0.00, -1.00, 527.5, 357.0)"> </text><text xml:space="preserve" font-family="Monaco" font-size="26.0" fill="#D71E00" transform="matrix(1.00, 0.00, -0.00, -1.00, 543.1, 357.0)">4</text><text xml:space="preserve" font-family="Monaco" font-size="26.0" fill="#D71E00" transform="matrix(1.00, 0.00, -0.00, -1.00, 558.7, 357.0)">0</text><text xml:space="preserve" font-family="Monaco" font-size="26.0" fill="#D71E00" transform="matrix(1.00, 0.00, -0.00, -1.00, 574.3, 357.0)">4</text><text xml:space="preserve" font-family="Monaco" font-size="26.0" fill="#D71E00" transform="matrix(1.00, 0.00, -0.00, -1.00, 589.9, 357.0)">'</text><text xml:space="preserve" font-family="Monaco" font-size="26.0" fill="#323343" transform="matrix(1.00, 0.00, -0.00, -1.00, 605.5, 357.0)">;</text><text xml:space="preserve" font-family="Monaco" font-size="26.0" fill="#0432FF" transform="matrix(1.00, 0.00, -0.00, -1.00, 75.0, 322.0)">$</text><text xml:space="preserve" font-family="Monaco" font-size="26.0" fill="#0432FF" transform="matrix(1.00, 0.00, -0.00, -1.00, 90.6, 322.0)">c</text><text xml:space="preserve" font-family="Monaco" font-size="26.0" fill="#0432FF" transform="matrix(1.00, 0.00, -0.00, -1.00, 106.2, 322.0)">o</text><text xml:space="preserve" font-family="Monaco" font-size="26.0" fill="#0432FF" transform="matrix(1.00, 0.00, -0.00, -1.00, 121.8, 322.0)">n</text><text xml:space="preserve" font-family="Monaco" font-size="26.0" fill="#0432FF" transform="matrix(1.00, 0.00, -0.00, -1.00, 137.4, 322.0)">t</text><text xml:space="preserve" font-family="Monaco" font-size="26.0" fill="#0432FF" transform="matrix(1.00, 0.00, -0.00, -1.00, 153.0, 322.0)">e</text><text xml:space="preserve" font-family="Monaco" font-size="26.0" fill="#0432FF" transform="matrix(1.00, 0.00, -0.00, -1.00, 168.6, 322.0)">x</text><text xml:space="preserve" font-family="Monaco" font-size="26.0" fill="#0432FF" transform="matrix(1.00, 0.00, -0.00, -1.00, 184.2, 322.0)">t</text><text xml:space="preserve" font-family="Monaco" font-size="26.0" fill="#323343" transform="matrix(1.00, 0.00, -0.00, -1.00, 199.8, 322.0)">[</text><text xml:space="preserve" font-family="Monaco" font-size="26.0" fill="#D71E00" transform="matrix(1.00, 0.00, -0.00, -1.00, 215.4, 322.0)">'</text><text xml:space="preserve" font-family="Monaco" font-size="26.0" fill="#D71E00" transform="matrix(1.00, 0.00, -0.00, -1.00, 231.0, 322.0)">i</text><text xml:space="preserve" font-family="Monaco" font-size="26.0" fill="#D71E00" transform="matrix(1.00, 0.00, -0.00, -1.00, 246.6, 322.0)">m</text><text xml:space="preserve" font-family="Monaco" font-size="26.0" fill="#D71E00" transform="matrix(1.00, 0.00, -0.00, -1.00, 262.2, 322.0)">a</text><text xml:space="preserve" font-family="Monaco" font-size="26.0" fill="#D71E00" transform="matrix(1.00, 0.00, -0.00, -1.00, 277.8, 322.0)">g</text><text xml:space="preserve" font-family="Monaco" font-size="26.0" fill="#D71E00" transform="matrix(1.00, 0.00, -0.00, -1.00, 293.4, 322.0)">e</text><text xml:space="preserve" font-family="Monaco" font-size="26.0" fill="#D71E00" transform="matrix(1.00, 0.00, -0.00, -1.00, 309.1, 322.0)">'</text><text xml:space="preserve" font-family="Monaco" font-size="26.0" fill="#323343" transform="matrix(1.00, 0.00, -0.00, -1.00, 324.6, 322.0)">]</text><text xml:space="preserve" font-family="Monaco" font-size="26.0" fill="#323343" transform="matrix(1.00, 0.00, -0.00, -1.00, 340.2, 322.0)"> </text><text xml:space="preserve" font-family="Monaco" font-size="26.0" fill="#0221B6" transform="matrix(1.00, 0.00, -0.00, -1.00, 355.8, 322.0)">=</text><text xml:space="preserve" font-family="Monaco" font-size="26.0" fill="#323343" transform="matrix(1.00, 0.00, -0.00, -1.00, 371.4, 322.0)"> </text><text xml:space="preserve" font-family="Monaco" font-size="26.0" fill="#D71E00" transform="matrix(1.00, 0.00, -0.00, -1.00, 387.1, 322.0)">'</text><text xml:space="preserve" font-family="Monaco" font-size="26.0" fill="#D71E00" transform="matrix(1.00, 0.00, -0.00, -1.00, 402.7, 322.0)">s</text><text xml:space="preserve" font-family="Monaco" font-size="26.0" fill="#D71E00" transform="matrix(1.00, 0.00, -0.00, -1.00, 418.3, 322.0)">o</text><text xml:space="preserve" font-family="Monaco" font-size="26.0" fill="#D71E00" transform="matrix(1.00, 0.00, -0.00, -1.00, 433.9, 322.0)">m</text><text xml:space="preserve" font-family="Monaco" font-size="26.0" fill="#D71E00" transform="matrix(1.00, 0.00, -0.00, -1.00, 449.5, 322.0)">e</text><text xml:space="preserve" font-family="Monaco" font-size="26.0" fill="#D71E00" transform="matrix(1.00, 0.00, -0.00, -1.00, 465.1, 322.0)">/</text><text xml:space="preserve" font-family="Monaco" font-size="26.0" fill="#D71E00" transform="matrix(1.00, 0.00, -0.00, -1.00, 480.7, 322.0)">u</text><text xml:space="preserve" font-family="Monaco" font-size="26.0" fill="#D71E00" transform="matrix(1.00, 0.00, -0.00, -1.00, 496.3, 322.0)">r</text><text xml:space="preserve" font-family="Monaco" font-size="26.0" fill="#D71E00" transform="matrix(1.00, 0.00, -0.00, -1.00, 511.9, 322.0)">l</text><text xml:space="preserve" font-family="Monaco" font-size="26.0" fill="#D71E00" transform="matrix(1.00, 0.00, -0.00, -1.00, 527.5, 322.0)">/</text><text xml:space="preserve" font-family="Monaco" font-size="26.0" fill="#D71E00" transform="matrix(1.00, 0.00, -0.00, -1.00, 543.1, 322.0)">4</text><text xml:space="preserve" font-family="Monaco" font-size="26.0" fill="#D71E00" transform="matrix(1.00, 0.00, -0.00, -1.00, 558.7, 322.0)">0</text><text xml:space="preserve" font-family="Monaco" font-size="26.0" fill="#D71E00" transform="matrix(1.00, 0.00, -0.00, -1.00, 574.3, 322.0)">4</text><text xml:space="preserve" font-family="Monaco" font-size="26.0" fill="#D71E00" transform="matrix(1.00, 0.00, -0.00, -1.00, 589.9, 322.0)">.</text><text xml:space="preserve" font-family="Monaco" font-size="26.0" fill="#D71E00" transform="matrix(1.00, 0.00, -0.00, -1.00, 605.5, 322.0)">j</text><text xml:space="preserve" font-family="Monaco" font-size="26.0" fill="#D71E00" transform="matrix(1.00, 0.00, -0.00, -1.00, 621.1, 322.0)">p</text><text xml:space="preserve" font-family="Monaco" font-size="26.0" fill="#D71E00" transform="matrix(1.00, 0.00, -0.00, -1.00, 636.7, 322.0)">g</text><text xml:space="preserve" font-family="Monaco" font-size="26.0" fill="#D71E00" transform="matrix(1.00, 0.00, -0.00, -1.00, 652.3, 322.0)">'</text><text xml:space="preserve" font-family="Monaco" font-size="26.0" fill="#323343" transform="matrix(1.00, 0.00, -0.00, -1.00, 667.9, 322.0)">;</text><text xml:space="preserve" font-family="Monaco" font-size="26.0" fill="#0432FF" transform="matrix(1.00, 0.00, -0.00, -1.00, 75.0, 287.0)">$</text><text xml:space="preserve" font-family="Monaco" font-size="26.0" fill="#0432FF" transform="matrix(1.00, 0.00, -0.00, -1.00, 90.6, 287.0)">c</text><text xml:space="preserve" font-family="Monaco" font-size="26.0" fill="#0432FF" transform="matrix(1.00, 0.00, -0.00, -1.00, 106.2, 287.0)">o</text><text xml:space="preserve" font-family="Monaco" font-size="26.0" fill="#0432FF" transform="matrix(1.00, 0.00, -0.00, -1.00, 121.8, 287.0)">n</text><text xml:space="preserve" font-family="Monaco" font-size="26.0" fill="#0432FF" transform="matrix(1.00, 0.00, -0.00, -1.00, 137.4, 287.0)">t</text><text xml:space="preserve" font-family="Monaco" font-size="26.0" fill="#0432FF" transform="matrix(1.00, 0.00, -0.00, -1.00, 153.0, 287.0)">e</text><text xml:space="preserve" font-family="Monaco" font-size="26.0" fill="#0432FF" transform="matrix(1.00, 0.00, -0.00, -1.00, 168.6, 287.0)">x</text><text xml:space="preserve" font-family="Monaco" font-size="26.0" fill="#0432FF" transform="matrix(1.00, 0.00, -0.00, -1.00, 184.2, 287.0)">t</text><text xml:space="preserve" font-family="Monaco" font-size="26.0" fill="#323343" transform="matrix(1.00, 0.00, -0.00, -1.00, 199.8, 287.0)">[</text><text xml:space="preserve" font-family="Monaco" font-size="26.0" fill="#D71E00" transform="matrix(1.00, 0.00, -0.00, -1.00, 215.4, 287.0)">'</text><text xml:space="preserve" font-family="Monaco" font-size="26.0" fill="#D71E00" transform="matrix(1.00, 0.00, -0.00, -1.00, 231.0, 287.0)">c</text><text xml:space="preserve" font-family="Monaco" font-size="26.0" fill="#D71E00" transform="matrix(1.00, 0.00, -0.00, -1.00, 246.6, 287.0)">o</text><text xml:space="preserve" font-family="Monaco" font-size="26.0" fill="#D71E00" transform="matrix(1.00, 0.00, -0.00, -1.00, 262.2, 287.0)">n</text><text xml:space="preserve" font-family="Monaco" font-size="26.0" fill="#D71E00" transform="matrix(1.00, 0.00, -0.00, -1.00, 277.8, 287.0)">t</text><text xml:space="preserve" font-family="Monaco" font-size="26.0" fill="#D71E00" transform="matrix(1.00, 0.00, -0.00, -1.00, 293.4, 287.0)">e</text><text xml:space="preserve" font-family="Monaco" font-size="26.0" fill="#D71E00" transform="matrix(1.00, 0.00, -0.00, -1.00, 309.1, 287.0)">n</text><text xml:space="preserve" font-family="Monaco" font-size="26.0" fill="#D71E00" transform="matrix(1.00, 0.00, -0.00, -1.00, 324.7, 287.0)">t</text><text xml:space="preserve" font-family="Monaco" font-size="26.0" fill="#D71E00" transform="matrix(1.00, 0.00, -0.00, -1.00, 340.3, 287.0)">'</text><text xml:space="preserve" font-family="Monaco" font-size="26.0" fill="#323343" transform="matrix(1.00, 0.00, -0.00, -1.00, 355.8, 287.0)">]</text><text xml:space="preserve" font-family="Monaco" font-size="26.0" fill="#323343" transform="matrix(1.00, 0.00, -0.00, -1.00, 371.5, 287.0)"> </text><text xml:space="preserve" font-family="Monaco" font-size="26.0" fill="#0221B6" transform="matrix(1.00, 0.00, -0.00, -1.00, 387.1, 287.0)">=</text><text xml:space="preserve" font-family="Monaco" font-size="26.0" fill="#323343" transform="matrix(1.00, 0.00, -0.00, -1.00, 402.7, 287.0)"> </text><text xml:space="preserve" font-family="Monaco" font-size="26.0" fill="#D71E00" transform="matrix(1.00, 0.00, -0.00, -1.00, 418.3, 287.0)">'</text><text xml:space="preserve" font-family="Monaco" font-size="26.0" fill="#D71E00" transform="matrix(1.00, 0.00, -0.00, -1.00, 433.9, 287.0)">O</text><text xml:space="preserve" font-family="Monaco" font-size="26.0" fill="#D71E00" transform="matrix(1.00, 0.00, -0.00, -1.00, 449.5, 287.0)">o</text><text xml:space="preserve" font-family="Monaco" font-size="26.0" fill="#D71E00" transform="matrix(1.00, 0.00, -0.00, -1.00, 465.1, 287.0)">p</text><text xml:space="preserve" font-family="Monaco" font-size="26.0" fill="#D71E00" transform="matrix(1.00, 0.00, -0.00, -1.00, 480.7, 287.0)">s</text><text xml:space="preserve" font-family="Monaco" font-size="26.0" fill="#D71E00" transform="matrix(1.00, 0.00, -0.00, -1.00, 496.3, 287.0)">,</text><text xml:space="preserve" font-family="Monaco" font-size="26.0" fill="#D71E00" transform="matrix(1.00, 0.00, -0.00, -1.00, 511.9, 287.0)"> </text><text xml:space="preserve" font-family="Monaco" font-size="26.0" fill="#D71E00" transform="matrix(1.00, 0.00, -0.00, -1.00, 527.5, 287.0)">c</text><text xml:space="preserve" font-family="Monaco" font-size="26.0" fill="#D71E00" transform="matrix(1.00, 0.00, -0.00, -1.00, 543.1, 287.0)">a</text><text xml:space="preserve" font-family="Monaco" font-size="26.0" fill="#D71E00" transform="matrix(1.00, 0.00, -0.00, -1.00, 558.7, 287.0)">n</text><text xml:space="preserve" font-family="Monaco" font-size="26.0" fill="#D71E00" transform="matrix(1.00, 0.00, -0.00, -1.00, 574.3, 287.0)">n</text><text xml:space="preserve" font-family="Monaco" font-size="26.0" fill="#D71E00" transform="matrix(1.00, 0.00, -0.00, -1.00, 589.9, 287.0)">o</text><text xml:space="preserve" font-family="Monaco" font-size="26.0" fill="#D71E00" transform="matrix(1.00, 0.00, -0.00, -1.00, 605.5, 287.0)">t</text><text xml:space="preserve" font-family="Monaco" font-size="26.0" fill="#D71E00" transform="matrix(1.00, 0.00, -0.00, -1.00, 621.1, 287.0)"> </text><text xml:space="preserve" font-family="Monaco" font-size="26.0" fill="#D71E00" transform="matrix(1.00, 0.00, -0.00, -1.00, 636.7, 287.0)">f</text><text xml:space="preserve" font-family="Monaco" font-size="26.0" fill="#D71E00" transform="matrix(1.00, 0.00, -0.00, -1.00, 652.3, 287.0)">i</text><text xml:space="preserve" font-family="Monaco" font-size="26.0" fill="#D71E00" transform="matrix(1.00, 0.00, -0.00, -1.00, 667.9, 287.0)">n</text><text xml:space="preserve" font-family="Monaco" font-size="26.0" fill="#D71E00" transform="matrix(1.00, 0.00, -0.00, -1.00, 683.5, 287.0)">d</text><text xml:space="preserve" font-family="Monaco" font-size="26.0" fill="#D71E00" transform="matrix(1.00, 0.00, -0.00, -1.00, 699.1, 287.0)"> </text><text xml:space="preserve" font-family="Monaco" font-size="26.0" fill="#D71E00" transform="matrix(1.00, 0.00, -0.00, -1.00, 714.8, 287.0)">t</text><text xml:space="preserve" font-family="Monaco" font-size="26.0" fill="#D71E00" transform="matrix(1.00, 0.00, -0.00, -1.00, 730.4, 287.0)">h</text><text xml:space="preserve" font-family="Monaco" font-size="26.0" fill="#D71E00" transform="matrix(1.00, 0.00, -0.00, -1.00, 746.0, 287.0)">i</text><text xml:space="preserve" font-family="Monaco" font-size="26.0" fill="#D71E00" transform="matrix(1.00, 0.00, -0.00, -1.00, 761.6, 287.0)">s</text><text xml:space="preserve" font-family="Monaco" font-size="26.0" fill="#D71E00" transform="matrix(1.00, 0.00, -0.00, -1.00, 777.2, 287.0)"> </text><text xml:space="preserve" font-family="Monaco" font-size="26.0" fill="#D71E00" transform="matrix(1.00, 0.00, -0.00, -1.00, 792.8, 287.0)">p</text><text xml:space="preserve" font-family="Monaco" font-size="26.0" fill="#D71E00" transform="matrix(1.00, 0.00, -0.00, -1.00, 808.4, 287.0)">a</text><text xml:space="preserve" font-family="Monaco" font-size="26.0" fill="#D71E00" transform="matrix(1.00, 0.00, -0.00, -1.00, 824.0, 287.0)">g</text><text xml:space="preserve" font-family="Monaco" font-size="26.0" fill="#D71E00" transform="matrix(1.00, 0.00, -0.00, -1.00, 839.6, 287.0)">e</text><text xml:space="preserve" font-family="Monaco" font-size="26.0" fill="#D71E00" transform="matrix(1.00, 0.00, -0.00, -1.00, 855.2, 287.0)"> </text><text xml:space="preserve" font-family="Monaco" font-size="26.0" fill="#D71E00" transform="matrix(1.00, 0.00, -0.00, -1.00, 870.8, 287.0)">:</text><text xml:space="preserve" font-family="Monaco" font-size="26.0" fill="#D71E00" transform="matrix(1.00, 0.00, -0.00, -1.00, 886.4, 287.0)">(</text><text xml:space="preserve" font-family="Monaco" font-size="26.0" fill="#D71E00" transform="matrix(1.00, 0.00, -0.00, -1.00, 902.0, 287.0)">'</text><text xml:space="preserve" font-family="Monaco" font-size="26.0" fill="#323343" transform="matrix(1.00, 0.00, -0.00, -1.00, 917.5, 287.0)">;</text><text xml:space="preserve" font-family="Monaco" font-size="26.0" fill="#6D78DE" transform="matrix(1.00, 0.00, -0.00, -1.00, 75.0, 217.0)">T</text><text xml:space="preserve" font-family="Monaco" font-size="26.0" fill="#6D78DE" transform="matrix(1.00, 0.00, -0.00, -1.00, 90.6, 217.0)">i</text><text xml:space="preserve" font-family="Monaco" font-size="26.0" fill="#6D78DE" transform="matrix(1.00, 0.00, -0.00, -1.00, 106.2, 217.0)">m</text><text xml:space="preserve" font-family="Monaco" font-size="26.0" fill="#6D78DE" transform="matrix(1.00, 0.00, -0.00, -1.00, 121.8, 217.0)">b</text><text xml:space="preserve" font-family="Monaco" font-size="26.0" fill="#6D78DE" transform="matrix(1.00, 0.00, -0.00, -1.00, 137.4, 217.0)">e</text><text xml:space="preserve" font-family="Monaco" font-size="26.0" fill="#6D78DE" transform="matrix(1.00, 0.00, -0.00, -1.00, 153.0, 217.0)">r</text><text xml:space="preserve" font-family="Monaco" font-size="26.0" fill="#0221B6" transform="matrix(1.00, 0.00, -0.00, -1.00, 168.6, 217.0)">:</text><text xml:space="preserve" font-family="Monaco" font-size="26.0" fill="#0221B6" transform="matrix(1.00, 0.00, -0.00, -1.00, 184.2, 217.0)">:</text><text xml:space="preserve" font-family="Monaco" font-size="26.0" fill="#323343" transform="matrix(1.00, 0.00, -0.00, -1.00, 199.8, 217.0)">r</text><text xml:space="preserve" font-family="Monaco" font-size="26.0" fill="#323343" transform="matrix(1.00, 0.00, -0.00, -1.00, 215.4, 217.0)">e</text><text xml:space="preserve" font-family="Monaco" font-size="26.0" fill="#323343" transform="matrix(1.00, 0.00, -0.00, -1.00, 231.0, 217.0)">n</text><text xml:space="preserve" font-family="Monaco" font-size="26.0" fill="#323343" transform="matrix(1.00, 0.00, -0.00, -1.00, 246.6, 217.0)">d</text><text xml:space="preserve" font-family="Monaco" font-size="26.0" fill="#323343" transform="matrix(1.00, 0.00, -0.00, -1.00, 262.2, 217.0)">e</text><text xml:space="preserve" font-family="Monaco" font-size="26.0" fill="#323343" transform="matrix(1.00, 0.00, -0.00, -1.00, 277.8, 217.0)">r</text><text xml:space="preserve" font-family="Monaco" font-size="26.0" fill="#323343" transform="matrix(1.00, 0.00, -0.00, -1.00, 293.5, 217.0)">(</text><text xml:space="preserve" font-family="Monaco" font-size="26.0" fill="#D71E00" transform="matrix(1.00, 0.00, -0.00, -1.00, 309.0, 217.0)">'</text><text xml:space="preserve" font-family="Monaco" font-size="26.0" fill="#D71E00" transform="matrix(1.00, 0.00, -0.00, -1.00, 324.6, 217.0)">s</text><text xml:space="preserve" font-family="Monaco" font-size="26.0" fill="#D71E00" transform="matrix(1.00, 0.00, -0.00, -1.00, 340.2, 217.0)">i</text><text xml:space="preserve" font-family="Monaco" font-size="26.0" fill="#D71E00" transform="matrix(1.00, 0.00, -0.00, -1.00, 355.9, 217.0)">n</text><text xml:space="preserve" font-family="Monaco" font-size="26.0" fill="#D71E00" transform="matrix(1.00, 0.00, -0.00, -1.00, 371.5, 217.0)">g</text><text xml:space="preserve" font-family="Monaco" font-size="26.0" fill="#D71E00" transform="matrix(1.00, 0.00, -0.00, -1.00, 387.1, 217.0)">l</text><text xml:space="preserve" font-family="Monaco" font-size="26.0" fill="#D71E00" transform="matrix(1.00, 0.00, -0.00, -1.00, 402.7, 217.0)">e</text><text xml:space="preserve" font-family="Monaco" font-size="26.0" fill="#D71E00" transform="matrix(1.00, 0.00, -0.00, -1.00, 418.3, 217.0)">.</text><text xml:space="preserve" font-family="Monaco" font-size="26.0" fill="#D71E00" transform="matrix(1.00, 0.00, -0.00, -1.00, 433.9, 217.0)">t</text><text xml:space="preserve" font-family="Monaco" font-size="26.0" fill="#D71E00" transform="matrix(1.00, 0.00, -0.00, -1.00, 449.5, 217.0)">w</text><text xml:space="preserve" font-family="Monaco" font-size="26.0" fill="#D71E00" transform="matrix(1.00, 0.00, -0.00, -1.00, 465.1, 217.0)">i</text><text xml:space="preserve" font-family="Monaco" font-size="26.0" fill="#D71E00" transform="matrix(1.00, 0.00, -0.00, -1.00, 480.7, 217.0)">g</text><text xml:space="preserve" font-family="Monaco" font-size="26.0" fill="#D71E00" transform="matrix(1.00, 0.00, -0.00, -1.00, 496.3, 217.0)">'</text><text xml:space="preserve" font-family="Monaco" font-size="26.0" fill="#323343" transform="matrix(1.00, 0.00, -0.00, -1.00, 511.9, 217.0)">,</text><text xml:space="preserve" font-family="Monaco" font-size="26.0" fill="#323343" transform="matrix(1.00, 0.00, -0.00, -1.00, 527.5, 217.0)"> </text><text xml:space="preserve" font-family="Monaco" font-size="26.0" fill="#0432FF" transform="matrix(1.00, 0.00, -0.00, -1.00, 543.1, 217.0)">$</text><text xml:space="preserve" font-family="Monaco" font-size="26.0" fill="#0432FF" transform="matrix(1.00, 0.00, -0.00, -1.00, 558.7, 217.0)">c</text><text xml:space="preserve" font-family="Monaco" font-size="26.0" fill="#0432FF" transform="matrix(1.00, 0.00, -0.00, -1.00, 574.3, 217.0)">o</text><text xml:space="preserve" font-family="Monaco" font-size="26.0" fill="#0432FF" transform="matrix(1.00, 0.00, -0.00, -1.00, 589.9, 217.0)">n</text><text xml:space="preserve" font-family="Monaco" font-size="26.0" fill="#0432FF" transform="matrix(1.00, 0.00, -0.00, -1.00, 605.5, 217.0)">t</text><text xml:space="preserve" font-family="Monaco" font-size="26.0" fill="#0432FF" transform="matrix(1.00, 0.00, -0.00, -1.00, 621.1, 217.0)">e</text><text xml:space="preserve" font-family="Monaco" font-size="26.0" fill="#0432FF" transform="matrix(1.00, 0.00, -0.00, -1.00, 636.7, 217.0)">x</text><text xml:space="preserve" font-family="Monaco" font-size="26.0" fill="#0432FF" transform="matrix(1.00, 0.00, -0.00, -1.00, 652.3, 217.0)">t</text><text xml:space="preserve" font-family="Monaco" font-size="26.0" fill="#323343" transform="matrix(1.00, 0.00, -0.00, -1.00, 667.9, 217.0)">)</text><text xml:space="preserve" font-family="Monaco" font-size="26.0" fill="#323343" transform="matrix(1.00, 0.00, -0.00, -1.00, 683.5, 217.0)">;</text></g></svg>