<?xml version="1.0" encoding="UTF-8" standalone="no"?><svg xmlns="http://www.w3.org/2000/svg" xmlns:xlink="http://www.w3.org/1999/xlink" clip-rule="evenodd" stroke-miterlimit="4.00" viewBox="0 0 1024 768"><desc>SVG generated by Keynote</desc><defs></defs><g transform="matrix(1.00, 0.00, -0.00, -1.00, 0.0, 768.0)"><path d="M 0.0 768.0 L 1024.0 768.0 L 1024.0 0.0 L 0.0 0.0 Z M 0.0 768.0 " fill="#FEFFFF"></path><text xml:space="preserve" font-family="Lato-Regular" font-size="36.0" fill="#000000" transform="matrix(1.00, 0.00, -0.00, -1.00, 445.0, 370.0)">E</text><text xml:space="preserve" font-family="Lato-Regular" font-size="36.0" fill="#000000" transform="matrix(1.00, 0.00, -0.00, -1.00, 465.9, 370.0)">x</text><text xml:space="preserve" font-family="Lato-Regular" font-size="36.0" fill="#000000" transform="matrix(1.00, 0.00, -0.00, -1.00, 484.1, 370.0)">a</text><text xml:space="preserve" font-family="Lato-Regular" font-size="36.0" fill="#000000" transform="matrix(1.00, 0.00, -0.00, -1.00, 502.3, 370.0)">m</text><text xml:space="preserve" font-family="Lato-Regular" font-size="36.0" fill="#000000" transform="matrix(1.00, 0.00, -0.00, -1.00, 531.9, 370.0)">p</text><text xml:space="preserve" font-family="Lato-Regular" font-size="36.0" fill="#000000" transform="matrix(1.00, 0.00, -0.00, -1.00, 551.7, 370.0)">l</text><text xml:space="preserve" font-family="Lato-Regular" font-size="36.0" fill="#000000" transform="matrix(1.00, 0.00, -0.00, -1.00, 561.0, 370.0)">e</text><g><clipPath id="clip-25"><path d="M 443.6 365.1 L 579.4 365.1 L 579.4 369.2 L 443.6 369.2 Z M 443.6 365.1 "></path></clipPath><g clip-path="url(#clip-25)"><path d="M 4.5 42.9 L 139.3 42.9 " fill="none" stroke="#000000" stroke-width="2.16" stroke-miterlimit="0.00" transform="matrix(1.00, 0.00, 0.00, -1.00, 440.1, 410.0)"></path></g></g></g></svg>