<?xml version="1.0" encoding="UTF-8" standalone="no"?><svg xmlns="http://www.w3.org/2000/svg" xmlns:xlink="http://www.w3.org/1999/xlink" clip-rule="evenodd" stroke-miterlimit="4.00" viewBox="0 0 368 33"><desc>SVG generated by Keynote</desc><defs></defs><g transform="matrix(1.00, 0.00, -0.00, -1.00, 0.0, 33.0)"><text xml:space="preserve" font-family="Lato-Light" font-size="19.5" fill="#000000" transform="matrix(1.00, 0.00, -0.00, -1.00, 0.0, 9.7)">•</text><text xml:space="preserve" font-family="Lato-Light" font-size="26.0" fill="#000000" transform="matrix(1.00, 0.00, -0.00, -1.00, 35.0, 7.0)">C</text><text xml:space="preserve" font-family="Lato-Light" font-size="26.0" fill="#000000" transform="matrix(1.00, 0.00, -0.00, -1.00, 53.3, 7.0)">o</text><text xml:space="preserve" font-family="Lato-Light" font-size="26.0" fill="#000000" transform="matrix(1.00, 0.00, -0.00, -1.00, 67.3, 7.0)">p</text><text xml:space="preserve" font-family="Lato-Light" font-size="26.0" fill="#000000" transform="matrix(1.00, 0.00, -0.00, -1.00, 81.0, 7.0)">y</text><text xml:space="preserve" font-family="Lato-Light" font-size="26.0" fill="#000000" transform="matrix(1.00, 0.00, -0.00, -1.00, 93.7, 7.0)"> </text><text xml:space="preserve" font-family="Lato-Light" font-size="26.0" fill="#000000" transform="matrix(1.00, 0.00, -0.00, -1.00, 98.7, 7.0)">a</text><text xml:space="preserve" font-family="Lato-Light" font-size="26.0" fill="#000000" transform="matrix(1.00, 0.00, -0.00, -1.00, 111.3, 7.0)">c</text><text xml:space="preserve" font-family="Lato-Light" font-size="26.0" fill="#000000" transform="matrix(1.00, 0.00, -0.00, -1.00, 123.2, 7.0)">r</text><text xml:space="preserve" font-family="Lato-Light" font-size="26.0" fill="#000000" transform="matrix(1.00, 0.00, -0.00, -1.00, 133.5, 7.0)">o</text><text xml:space="preserve" font-family="Lato-Light" font-size="26.0" fill="#000000" transform="matrix(1.00, 0.00, -0.00, -1.00, 147.6, 7.0)">s</text><text xml:space="preserve" font-family="Lato-Light" font-size="26.0" fill="#000000" transform="matrix(1.00, 0.00, -0.00, -1.00, 158.7, 7.0)">s</text><text xml:space="preserve" font-family="Lato-Light" font-size="26.0" fill="#000000" transform="matrix(1.00, 0.00, -0.00, -1.00, 169.9, 7.0)"> </text><text xml:space="preserve" font-family="Lato-Light" font-size="26.0" fill="#000000" transform="matrix(1.00, 0.00, -0.00, -1.00, 174.9, 7.0)">a</text><text xml:space="preserve" font-family="Lato-Light" font-size="26.0" fill="#000000" transform="matrix(1.00, 0.00, -0.00, -1.00, 187.6, 7.0)">l</text><text xml:space="preserve" font-family="Lato-Light" font-size="26.0" fill="#000000" transform="matrix(1.00, 0.00, -0.00, -1.00, 193.7, 7.0)">l</text><text xml:space="preserve" font-family="Lato-Light" font-size="26.0" fill="#000000" transform="matrix(1.00, 0.00, -0.00, -1.00, 199.9, 7.0)"> </text><text xml:space="preserve" font-family="Lato-Light" font-size="26.0" fill="#000000" transform="matrix(1.00, 0.00, -0.00, -1.00, 204.9, 7.0)">t</text><text xml:space="preserve" font-family="Lato-Light" font-size="26.0" fill="#000000" transform="matrix(1.00, 0.00, -0.00, -1.00, 214.2, 7.0)">w</text><text xml:space="preserve" font-family="Lato-Light" font-size="26.0" fill="#000000" transform="matrix(1.00, 0.00, -0.00, -1.00, 233.3, 7.0)">i</text><text xml:space="preserve" font-family="Lato-Light" font-size="26.0" fill="#000000" transform="matrix(1.00, 0.00, -0.00, -1.00, 239.5, 7.0)">g</text><text xml:space="preserve" font-family="Lato-Light" font-size="26.0" fill="#000000" transform="matrix(1.00, 0.00, -0.00, -1.00, 252.6, 7.0)"> </text><text xml:space="preserve" font-family="Lato-Light" font-size="26.0" fill="#000000" transform="matrix(1.00, 0.00, -0.00, -1.00, 257.6, 7.0)">t</text><text xml:space="preserve" font-family="Lato-Light" font-size="26.0" fill="#000000" transform="matrix(1.00, 0.00, -0.00, -1.00, 266.9, 7.0)">e</text><text xml:space="preserve" font-family="Lato-Light" font-size="26.0" fill="#000000" transform="matrix(1.00, 0.00, -0.00, -1.00, 280.2, 7.0)">m</text><text xml:space="preserve" font-family="Lato-Light" font-size="26.0" fill="#000000" transform="matrix(1.00, 0.00, -0.00, -1.00, 300.8, 7.0)">p</text><text xml:space="preserve" font-family="Lato-Light" font-size="26.0" fill="#000000" transform="matrix(1.00, 0.00, -0.00, -1.00, 314.7, 7.0)">l</text><text xml:space="preserve" font-family="Lato-Light" font-size="26.0" fill="#000000" transform="matrix(1.00, 0.00, -0.00, -1.00, 320.9, 7.0)">a</text><text xml:space="preserve" font-family="Lato-Light" font-size="26.0" fill="#000000" transform="matrix(1.00, 0.00, -0.00, -1.00, 333.5, 7.0)">t</text><text xml:space="preserve" font-family="Lato-Light" font-size="26.0" fill="#000000" transform="matrix(1.00, 0.00, -0.00, -1.00, 342.8, 7.0)">e</text><text xml:space="preserve" font-family="Lato-Light" font-size="26.0" fill="#000000" transform="matrix(1.00, 0.00, -0.00, -1.00, 356.1, 7.0)">s</text><g><clipPath id="clip-30"><path d="M 34.0 11.4 L 367.4 11.4 L 367.4 14.8 L 34.0 14.8 Z M 34.0 11.4 "></path></clipPath><g clip-path="url(#clip-30)"><path d="M 39.0 177.9 L 371.4 177.9 " fill="none" stroke="#000000" stroke-width="1.41" stroke-miterlimit="0.00" transform="matrix(1.00, 0.00, 0.00, -1.00, -4.0, 191.0)"></path></g></g></g></svg>