<?xml version="1.0" encoding="UTF-8" standalone="no"?><svg xmlns="http://www.w3.org/2000/svg" xmlns:xlink="http://www.w3.org/1999/xlink" clip-rule="evenodd" stroke-miterlimit="4.00" viewBox="0 0 573 75"><desc>SVG generated by Keynote</desc><defs></defs><g transform="matrix(1.00, 0.00, -0.00, -1.00, 0.0, 75.0)"><text xml:space="preserve" font-family="Lato-Light" font-size="19.5" fill="#000000" transform="matrix(1.00, 0.00, -0.00, -1.00, 0.0, 9.7)">•</text><text xml:space="preserve" font-family="Lato-Light" font-size="26.0" fill="#000000" transform="matrix(1.00, 0.00, -0.00, -1.00, 35.0, 7.0)">C</text><text xml:space="preserve" font-family="Lato-Light" font-size="26.0" fill="#000000" transform="matrix(1.00, 0.00, -0.00, -1.00, 53.3, 7.0)">o</text><text xml:space="preserve" font-family="Lato-Light" font-size="26.0" fill="#000000" transform="matrix(1.00, 0.00, -0.00, -1.00, 67.3, 7.0)">p</text><text xml:space="preserve" font-family="Lato-Light" font-size="26.0" fill="#000000" transform="matrix(1.00, 0.00, -0.00, -1.00, 81.0, 7.0)">y</text><text xml:space="preserve" font-family="Lato-Light" font-size="26.0" fill="#000000" transform="matrix(1.00, 0.00, -0.00, -1.00, 93.7, 7.0)"> </text><text xml:space="preserve" font-family="Lato-Light" font-size="26.0" fill="#000000" transform="matrix(1.00, 0.00, -0.00, -1.00, 98.7, 7.0)">a</text><text xml:space="preserve" font-family="Lato-Light" font-size="26.0" fill="#000000" transform="matrix(1.00, 0.00, -0.00, -1.00, 111.3, 7.0)">c</text><text xml:space="preserve" font-family="Lato-Light" font-size="26.0" fill="#000000" transform="matrix(1.00, 0.00, -0.00, -1.00, 123.2, 7.0)">r</text><text xml:space="preserve" font-family="Lato-Light" font-size="26.0" fill="#000000" transform="matrix(1.00, 0.00, -0.00, -1.00, 133.5, 7.0)">o</text><text xml:space="preserve" font-family="Lato-Light" font-size="26.0" fill="#000000" transform="matrix(1.00, 0.00, -0.00, -1.00, 147.6, 7.0)">s</text><text xml:space="preserve" font-family="Lato-Light" font-size="26.0" fill="#000000" transform="matrix(1.00, 0.00, -0.00, -1.00, 158.7, 7.0)">s</text><text xml:space="preserve" font-family="Lato-Light" font-size="26.0" fill="#000000" transform="matrix(1.00, 0.00, -0.00, -1.00, 169.9, 7.0)"> </text><text xml:space="preserve" font-family="Lato-Light" font-size="26.0" fill="#000000" transform="matrix(1.00, 0.00, -0.00, -1.00, 174.9, 7.0)">a</text><text xml:space="preserve" font-family="Lato-Light" font-size="26.0" fill="#000000" transform="matrix(1.00, 0.00, -0.00, -1.00, 187.6, 7.0)">s</text><text xml:space="preserve" font-family="Lato-Light" font-size="26.0" fill="#000000" transform="matrix(1.00, 0.00, -0.00, -1.00, 198.7, 7.0)">s</text><text xml:space="preserve" font-family="Lato-Light" font-size="26.0" fill="#000000" transform="matrix(1.00, 0.00, -0.00, -1.00, 209.9, 7.0)">e</text><text xml:space="preserve" font-family="Lato-Light" font-size="26.0" fill="#000000" transform="matrix(1.00, 0.00, -0.00, -1.00, 223.2, 7.0)">t</text><text xml:space="preserve" font-family="Lato-Light" font-size="26.0" fill="#000000" transform="matrix(1.00, 0.00, -0.00, -1.00, 232.5, 7.0)">s</text><text xml:space="preserve" font-family="Lato-Light" font-size="26.0" fill="#000000" transform="matrix(1.00, 0.00, -0.00, -1.00, 243.7, 7.0)"> </text><text xml:space="preserve" font-family="Lato-Light" font-size="26.0" fill="#000000" transform="matrix(1.00, 0.00, -0.00, -1.00, 248.7, 7.0)">(</text><text xml:space="preserve" font-family="Lato-Light" font-size="26.0" fill="#000000" transform="matrix(1.00, 0.00, -0.00, -1.00, 256.5, 7.0)">m</text><text xml:space="preserve" font-family="Lato-Light" font-size="26.0" fill="#000000" transform="matrix(1.00, 0.00, -0.00, -1.00, 277.1, 7.0)">i</text><text xml:space="preserve" font-family="Lato-Light" font-size="26.0" fill="#000000" transform="matrix(1.00, 0.00, -0.00, -1.00, 283.3, 7.0)">n</text><text xml:space="preserve" font-family="Lato-Light" font-size="26.0" fill="#000000" transform="matrix(1.00, 0.00, -0.00, -1.00, 297.4, 7.0)">i</text><text xml:space="preserve" font-family="Lato-Light" font-size="26.0" fill="#000000" transform="matrix(1.00, 0.00, -0.00, -1.00, 303.5, 7.0)">ﬁ</text><text xml:space="preserve" font-family="Lato-Light" font-size="26.0" fill="#000000" transform="matrix(1.00, 0.00, -0.00, -1.00, 317.4, 7.0)">e</text><text xml:space="preserve" font-family="Lato-Light" font-size="26.0" fill="#000000" transform="matrix(1.00, 0.00, -0.00, -1.00, 330.7, 7.0)">d</text><text xml:space="preserve" font-family="Lato-Light" font-size="26.0" fill="#000000" transform="matrix(1.00, 0.00, -0.00, -1.00, 344.9, 7.0)"> </text><text xml:space="preserve" font-family="Lato-Light" font-size="26.0" fill="#000000" transform="matrix(1.00, 0.00, -0.00, -1.00, 349.9, 7.0)">c</text><text xml:space="preserve" font-family="Lato-Light" font-size="26.0" fill="#000000" transform="matrix(1.00, 0.00, -0.00, -1.00, 361.7, 7.0)">s</text><text xml:space="preserve" font-family="Lato-Light" font-size="26.0" fill="#000000" transform="matrix(1.00, 0.00, -0.00, -1.00, 372.9, 7.0)">s</text><text xml:space="preserve" font-family="Lato-Light" font-size="26.0" fill="#000000" transform="matrix(1.00, 0.00, -0.00, -1.00, 384.1, 7.0)">/</text><text xml:space="preserve" font-family="Lato-Light" font-size="26.0" fill="#000000" transform="matrix(1.00, 0.00, -0.00, -1.00, 393.3, 7.0)">j</text><text xml:space="preserve" font-family="Lato-Light" font-size="26.0" fill="#000000" transform="matrix(1.00, 0.00, -0.00, -1.00, 399.4, 7.0)">s</text><text xml:space="preserve" font-family="Lato-Light" font-size="26.0" fill="#000000" transform="matrix(1.00, 0.00, -0.00, -1.00, 410.6, 7.0)">,</text><text xml:space="preserve" font-family="Lato-Light" font-size="26.0" fill="#000000" transform="matrix(1.00, 0.00, -0.00, -1.00, 415.7, 7.0)"> </text><text xml:space="preserve" font-family="Lato-Light" font-size="26.0" fill="#000000" transform="matrix(1.00, 0.00, -0.00, -1.00, 420.8, 7.0)">i</text><text xml:space="preserve" font-family="Lato-Light" font-size="26.0" fill="#000000" transform="matrix(1.00, 0.00, -0.00, -1.00, 426.9, 7.0)">m</text><text xml:space="preserve" font-family="Lato-Light" font-size="26.0" fill="#000000" transform="matrix(1.00, 0.00, -0.00, -1.00, 447.6, 7.0)">a</text><text xml:space="preserve" font-family="Lato-Light" font-size="26.0" fill="#000000" transform="matrix(1.00, 0.00, -0.00, -1.00, 460.2, 7.0)">g</text><text xml:space="preserve" font-family="Lato-Light" font-size="26.0" fill="#000000" transform="matrix(1.00, 0.00, -0.00, -1.00, 473.3, 7.0)">e</text><text xml:space="preserve" font-family="Lato-Light" font-size="26.0" fill="#000000" transform="matrix(1.00, 0.00, -0.00, -1.00, 486.6, 7.0)">s</text><text xml:space="preserve" font-family="Lato-Light" font-size="26.0" fill="#000000" transform="matrix(1.00, 0.00, -0.00, -1.00, 497.8, 7.0)">,</text><text xml:space="preserve" font-family="Lato-Light" font-size="26.0" fill="#000000" transform="matrix(1.00, 0.00, -0.00, -1.00, 502.9, 7.0)"> </text><text xml:space="preserve" font-family="Lato-Light" font-size="26.0" fill="#000000" transform="matrix(1.00, 0.00, -0.00, -1.00, 507.9, 7.0)">f</text><text xml:space="preserve" font-family="Lato-Light" font-size="26.0" fill="#000000" transform="matrix(1.00, 0.00, -0.00, -1.00, 516.3, 7.0)">o</text><text xml:space="preserve" font-family="Lato-Light" font-size="26.0" fill="#000000" transform="matrix(1.00, 0.00, -0.00, -1.00, 530.4, 7.0)">n</text><text xml:space="preserve" font-family="Lato-Light" font-size="26.0" fill="#000000" transform="matrix(1.00, 0.00, -0.00, -1.00, 544.4, 7.0)">t</text><text xml:space="preserve" font-family="Lato-Light" font-size="26.0" fill="#000000" transform="matrix(1.00, 0.00, -0.00, -1.00, 553.7, 7.0)">s</text><text xml:space="preserve" font-family="Lato-Light" font-size="26.0" fill="#000000" transform="matrix(1.00, 0.00, -0.00, -1.00, 564.9, 7.0)">)</text><g><clipPath id="clip-31"><path d="M 34.0 11.4 L 572.9 11.4 L 572.9 14.8 L 34.0 14.8 Z M 34.0 11.4 "></path></clipPath><g clip-path="url(#clip-31)"><path d="M 39.0 251.9 L 576.9 251.9 " fill="none" stroke="#000000" stroke-width="1.41" stroke-miterlimit="0.00" transform="matrix(1.00, 0.00, 0.00, -1.00, -4.0, 265.0)"></path></g></g></g></svg>