<?xml version="1.0" encoding="UTF-8" standalone="no"?><svg xmlns="http://www.w3.org/2000/svg" xmlns:xlink="http://www.w3.org/1999/xlink" clip-rule="evenodd" stroke-miterlimit="4.00" viewBox="0 0 180 25"><desc>SVG generated by Keynote</desc><defs></defs><g transform="matrix(1.00, 0.00, -0.00, -1.00, 0.0, 25.0)"><text xml:space="preserve" font-family="Lato-Light" font-size="19.5" fill="#000000" transform="matrix(1.00, 0.00, -0.00, -1.00, 0.0, 5.7)">•</text><text xml:space="preserve" font-family="Lato-Light" font-size="26.0" fill="#000000" transform="matrix(1.00, 0.00, -0.00, -1.00, 35.0, 3.0)">R</text><text xml:space="preserve" font-family="Lato-Light" font-size="26.0" fill="#000000" transform="matrix(1.00, 0.00, -0.00, -1.00, 51.4, 3.0)">u</text><text xml:space="preserve" font-family="Lato-Light" font-size="26.0" fill="#000000" transform="matrix(1.00, 0.00, -0.00, -1.00, 65.5, 3.0)">n</text><text xml:space="preserve" font-family="Lato-Light" font-size="26.0" fill="#000000" transform="matrix(1.00, 0.00, -0.00, -1.00, 79.5, 3.0)">s</text><text xml:space="preserve" font-family="Lato-Light" font-size="26.0" fill="#000000" transform="matrix(1.00, 0.00, -0.00, -1.00, 90.7, 3.0)"> </text><text xml:space="preserve" font-family="Lato-Light" font-size="26.0" fill="#000000" transform="matrix(1.00, 0.00, -0.00, -1.00, 95.7, 3.0)">o</text><text xml:space="preserve" font-family="Lato-Light" font-size="26.0" fill="#000000" transform="matrix(1.00, 0.00, -0.00, -1.00, 109.8, 3.0)">n</text><text xml:space="preserve" font-family="Lato-Light" font-size="26.0" fill="#000000" transform="matrix(1.00, 0.00, -0.00, -1.00, 123.9, 3.0)"> </text><text xml:space="preserve" font-family="Lato-Light" font-size="26.0" fill="#000000" transform="matrix(1.00, 0.00, -0.00, -1.00, 128.9, 3.0)">P</text><text xml:space="preserve" font-family="Lato-Light" font-size="26.0" fill="#000000" transform="matrix(1.00, 0.00, -0.00, -1.00, 144.3, 3.0)">H</text><text xml:space="preserve" font-family="Lato-Light" font-size="26.0" fill="#000000" transform="matrix(1.00, 0.00, -0.00, -1.00, 164.0, 3.0)">P</text></g></svg>