<?xml version="1.0" encoding="UTF-8" standalone="no"?><svg xmlns="http://www.w3.org/2000/svg" xmlns:xlink="http://www.w3.org/1999/xlink" clip-rule="evenodd" stroke-miterlimit="4.00" viewBox="0 0 1024 768"><desc>SVG generated by Keynote</desc><defs></defs><g transform="matrix(1.00, 0.00, -0.00, -1.00, 0.0, 768.0)"><path d="M 0.0 768.0 L 1024.0 768.0 L 1024.0 0.0 L 0.0 0.0 Z M 0.0 768.0 " fill="#FEFFFF"></path><text xml:space="preserve" font-family="Adventure" font-size="48.0" fill="#000000" transform="matrix(1.00, 0.00, -0.00, -1.00, 424.0, 627.0)">P</text><text xml:space="preserve" font-family="Adventure" font-size="48.0" fill="#000000" transform="matrix(1.00, 0.00, -0.00, -1.00, 452.1, 627.0)">R</text><text xml:space="preserve" font-family="Adventure" font-size="48.0" fill="#000000" transform="matrix(1.00, 0.00, -0.00, -1.00, 481.5, 627.0)">I</text><text xml:space="preserve" font-family="Adventure" font-size="48.0" fill="#000000" transform="matrix(1.00, 0.00, -0.00, -1.00, 503.7, 627.0)">M</text><text xml:space="preserve" font-family="Adventure" font-size="48.0" fill="#000000" transform="matrix(1.00, 0.00, -0.00, -1.00, 548.2, 627.0)">E</text><text xml:space="preserve" font-family="Adventure" font-size="48.0" fill="#000000" transform="matrix(1.00, 0.00, -0.00, -1.00, 571.7, 627.0)">R</text><text xml:space="preserve" font-family="Lato-Light" font-size="19.5" fill="#000000" transform="matrix(1.00, 0.00, -0.00, -1.00, 79.0, 418.7)">•</text><text xml:space="preserve" font-family="Lato-Light" font-size="26.0" fill="#000000" transform="matrix(1.00, 0.00, -0.00, -1.00, 114.0, 416.0)">R</text><text xml:space="preserve" font-family="Lato-Light" font-size="26.0" fill="#000000" transform="matrix(1.00, 0.00, -0.00, -1.00, 130.4, 416.0)">u</text><text xml:space="preserve" font-family="Lato-Light" font-size="26.0" fill="#000000" transform="matrix(1.00, 0.00, -0.00, -1.00, 144.5, 416.0)">n</text><text xml:space="preserve" font-family="Lato-Light" font-size="26.0" fill="#000000" transform="matrix(1.00, 0.00, -0.00, -1.00, 158.5, 416.0)">s</text><text xml:space="preserve" font-family="Lato-Light" font-size="26.0" fill="#000000" transform="matrix(1.00, 0.00, -0.00, -1.00, 169.7, 416.0)"> </text><text xml:space="preserve" font-family="Lato-Light" font-size="26.0" fill="#000000" transform="matrix(1.00, 0.00, -0.00, -1.00, 174.7, 416.0)">o</text><text xml:space="preserve" font-family="Lato-Light" font-size="26.0" fill="#000000" transform="matrix(1.00, 0.00, -0.00, -1.00, 188.8, 416.0)">n</text><text xml:space="preserve" font-family="Lato-Light" font-size="26.0" fill="#000000" transform="matrix(1.00, 0.00, -0.00, -1.00, 202.9, 416.0)"> </text><text xml:space="preserve" font-family="Lato-Light" font-size="26.0" fill="#000000" transform="matrix(1.00, 0.00, -0.00, -1.00, 207.9, 416.0)">P</text><text xml:space="preserve" font-family="Lato-Light" font-size="26.0" fill="#000000" transform="matrix(1.00, 0.00, -0.00, -1.00, 223.3, 416.0)">H</text><text xml:space="preserve" font-family="Lato-Light" font-size="26.0" fill="#000000" transform="matrix(1.00, 0.00, -0.00, -1.00, 243.0, 416.0)">P</text><text xml:space="preserve" font-family="Lato-Light" font-size="19.5" fill="#000000" transform="matrix(1.00, 0.00, -0.00, -1.00, 79.0, 344.7)">•</text><text xml:space="preserve" font-family="Lato-Light" font-size="26.0" fill="#000000" transform="matrix(1.00, 0.00, -0.00, -1.00, 114.0, 342.0)">S</text><text xml:space="preserve" font-family="Lato-Light" font-size="26.0" fill="#000000" transform="matrix(1.00, 0.00, -0.00, -1.00, 127.6, 342.0)">u</text><text xml:space="preserve" font-family="Lato-Light" font-size="26.0" fill="#000000" transform="matrix(1.00, 0.00, -0.00, -1.00, 141.6, 342.0)">p</text><text xml:space="preserve" font-family="Lato-Light" font-size="26.0" fill="#000000" transform="matrix(1.00, 0.00, -0.00, -1.00, 155.5, 342.0)">p</text><text xml:space="preserve" font-family="Lato-Light" font-size="26.0" fill="#000000" transform="matrix(1.00, 0.00, -0.00, -1.00, 169.5, 342.0)">o</text><text xml:space="preserve" font-family="Lato-Light" font-size="26.0" fill="#000000" transform="matrix(1.00, 0.00, -0.00, -1.00, 183.5, 342.0)">r</text><text xml:space="preserve" font-family="Lato-Light" font-size="26.0" fill="#000000" transform="matrix(1.00, 0.00, -0.00, -1.00, 193.8, 342.0)">t</text><text xml:space="preserve" font-family="Lato-Light" font-size="26.0" fill="#000000" transform="matrix(1.00, 0.00, -0.00, -1.00, 203.1, 342.0)">s</text><text xml:space="preserve" font-family="Lato-Light" font-size="26.0" fill="#000000" transform="matrix(1.00, 0.00, -0.00, -1.00, 214.3, 342.0)"> </text><text xml:space="preserve" font-family="Lato-Light" font-size="26.0" fill="#000000" transform="matrix(1.00, 0.00, -0.00, -1.00, 219.3, 342.0)">m</text><text xml:space="preserve" font-family="Lato-Light" font-size="26.0" fill="#000000" transform="matrix(1.00, 0.00, -0.00, -1.00, 240.0, 342.0)">u</text><text xml:space="preserve" font-family="Lato-Light" font-size="26.0" fill="#000000" transform="matrix(1.00, 0.00, -0.00, -1.00, 254.0, 342.0)">l</text><text xml:space="preserve" font-family="Lato-Light" font-size="26.0" fill="#000000" transform="matrix(1.00, 0.00, -0.00, -1.00, 260.2, 342.0)">t</text><text xml:space="preserve" font-family="Lato-Light" font-size="26.0" fill="#000000" transform="matrix(1.00, 0.00, -0.00, -1.00, 269.5, 342.0)">i</text><text xml:space="preserve" font-family="Lato-Light" font-size="26.0" fill="#000000" transform="matrix(1.00, 0.00, -0.00, -1.00, 275.6, 342.0)">p</text><text xml:space="preserve" font-family="Lato-Light" font-size="26.0" fill="#000000" transform="matrix(1.00, 0.00, -0.00, -1.00, 289.5, 342.0)">l</text><text xml:space="preserve" font-family="Lato-Light" font-size="26.0" fill="#000000" transform="matrix(1.00, 0.00, -0.00, -1.00, 295.7, 342.0)">e</text><text xml:space="preserve" font-family="Lato-Light" font-size="26.0" fill="#000000" transform="matrix(1.00, 0.00, -0.00, -1.00, 309.0, 342.0)"> </text><text xml:space="preserve" font-family="Lato-Light" font-size="26.0" fill="#000000" transform="matrix(1.00, 0.00, -0.00, -1.00, 314.0, 342.0)">t</text><text xml:space="preserve" font-family="Lato-Light" font-size="26.0" fill="#000000" transform="matrix(1.00, 0.00, -0.00, -1.00, 323.2, 342.0)">e</text><text xml:space="preserve" font-family="Lato-Light" font-size="26.0" fill="#000000" transform="matrix(1.00, 0.00, -0.00, -1.00, 336.5, 342.0)">m</text><text xml:space="preserve" font-family="Lato-Light" font-size="26.0" fill="#000000" transform="matrix(1.00, 0.00, -0.00, -1.00, 357.2, 342.0)">p</text><text xml:space="preserve" font-family="Lato-Light" font-size="26.0" fill="#000000" transform="matrix(1.00, 0.00, -0.00, -1.00, 371.1, 342.0)">l</text><text xml:space="preserve" font-family="Lato-Light" font-size="26.0" fill="#000000" transform="matrix(1.00, 0.00, -0.00, -1.00, 377.3, 342.0)">a</text><text xml:space="preserve" font-family="Lato-Light" font-size="26.0" fill="#000000" transform="matrix(1.00, 0.00, -0.00, -1.00, 389.9, 342.0)">t</text><text xml:space="preserve" font-family="Lato-Light" font-size="26.0" fill="#000000" transform="matrix(1.00, 0.00, -0.00, -1.00, 399.2, 342.0)">i</text><text xml:space="preserve" font-family="Lato-Light" font-size="26.0" fill="#000000" transform="matrix(1.00, 0.00, -0.00, -1.00, 405.3, 342.0)">n</text><text xml:space="preserve" font-family="Lato-Light" font-size="26.0" fill="#000000" transform="matrix(1.00, 0.00, -0.00, -1.00, 419.4, 342.0)">g</text><text xml:space="preserve" font-family="Lato-Light" font-size="26.0" fill="#000000" transform="matrix(1.00, 0.00, -0.00, -1.00, 432.5, 342.0)"> </text><text xml:space="preserve" font-family="Lato-Light" font-size="26.0" fill="#000000" transform="matrix(1.00, 0.00, -0.00, -1.00, 437.5, 342.0)">l</text><text xml:space="preserve" font-family="Lato-Light" font-size="26.0" fill="#000000" transform="matrix(1.00, 0.00, -0.00, -1.00, 443.7, 342.0)">a</text><text xml:space="preserve" font-family="Lato-Light" font-size="26.0" fill="#000000" transform="matrix(1.00, 0.00, -0.00, -1.00, 456.3, 342.0)">n</text><text xml:space="preserve" font-family="Lato-Light" font-size="26.0" fill="#000000" transform="matrix(1.00, 0.00, -0.00, -1.00, 470.4, 342.0)">g</text><text xml:space="preserve" font-family="Lato-Light" font-size="26.0" fill="#000000" transform="matrix(1.00, 0.00, -0.00, -1.00, 483.5, 342.0)">u</text><text xml:space="preserve" font-family="Lato-Light" font-size="26.0" fill="#000000" transform="matrix(1.00, 0.00, -0.00, -1.00, 497.6, 342.0)">a</text><text xml:space="preserve" font-family="Lato-Light" font-size="26.0" fill="#000000" transform="matrix(1.00, 0.00, -0.00, -1.00, 510.2, 342.0)">g</text><text xml:space="preserve" font-family="Lato-Light" font-size="26.0" fill="#000000" transform="matrix(1.00, 0.00, -0.00, -1.00, 523.3, 342.0)">e</text><text xml:space="preserve" font-family="Lato-Light" font-size="26.0" fill="#000000" transform="matrix(1.00, 0.00, -0.00, -1.00, 536.6, 342.0)">s</text><text xml:space="preserve" font-family="Lato-Light" font-size="26.0" fill="#000000" transform="matrix(1.00, 0.00, -0.00, -1.00, 547.8, 342.0)">,</text><text xml:space="preserve" font-family="Lato-Light" font-size="26.0" fill="#000000" transform="matrix(1.00, 0.00, -0.00, -1.00, 552.9, 342.0)"> </text><text xml:space="preserve" font-family="Lato-Light" font-size="26.0" fill="#000000" transform="matrix(1.00, 0.00, -0.00, -1.00, 557.9, 342.0)">i</text><text xml:space="preserve" font-family="Lato-Light" font-size="26.0" fill="#000000" transform="matrix(1.00, 0.00, -0.00, -1.00, 564.1, 342.0)">n</text><text xml:space="preserve" font-family="Lato-Light" font-size="26.0" fill="#000000" transform="matrix(1.00, 0.00, -0.00, -1.00, 578.1, 342.0)">c</text><text xml:space="preserve" font-family="Lato-Light" font-size="26.0" fill="#000000" transform="matrix(1.00, 0.00, -0.00, -1.00, 590.0, 342.0)">l</text><text xml:space="preserve" font-family="Lato-Light" font-size="26.0" fill="#000000" transform="matrix(1.00, 0.00, -0.00, -1.00, 596.1, 342.0)">u</text><text xml:space="preserve" font-family="Lato-Light" font-size="26.0" fill="#000000" transform="matrix(1.00, 0.00, -0.00, -1.00, 610.2, 342.0)">d</text><text xml:space="preserve" font-family="Lato-Light" font-size="26.0" fill="#000000" transform="matrix(1.00, 0.00, -0.00, -1.00, 624.4, 342.0)">i</text><text xml:space="preserve" font-family="Lato-Light" font-size="26.0" fill="#000000" transform="matrix(1.00, 0.00, -0.00, -1.00, 630.5, 342.0)">n</text><text xml:space="preserve" font-family="Lato-Light" font-size="26.0" fill="#000000" transform="matrix(1.00, 0.00, -0.00, -1.00, 644.6, 342.0)">g</text><text xml:space="preserve" font-family="Lato-Light" font-size="26.0" fill="#000000" transform="matrix(1.00, 0.00, -0.00, -1.00, 657.7, 342.0)"> </text><text xml:space="preserve" font-family="Lato-Light" font-size="26.0" fill="#000000" transform="matrix(1.00, 0.00, -0.00, -1.00, 662.7, 342.0)">T</text><text xml:space="preserve" font-family="Lato-Light" font-size="26.0" fill="#000000" transform="matrix(1.00, 0.00, -0.00, -1.00, 676.1, 342.0)">w</text><text xml:space="preserve" font-family="Lato-Light" font-size="26.0" fill="#000000" transform="matrix(1.00, 0.00, -0.00, -1.00, 695.3, 342.0)">i</text><text xml:space="preserve" font-family="Lato-Light" font-size="26.0" fill="#000000" transform="matrix(1.00, 0.00, -0.00, -1.00, 701.4, 342.0)">g</text><text xml:space="preserve" font-family="Lato-Light" font-size="19.5" fill="#000000" transform="matrix(1.00, 0.00, -0.00, -1.00, 79.0, 270.7)">•</text><text xml:space="preserve" font-family="Lato-Light" font-size="26.0" fill="#000000" transform="matrix(1.00, 0.00, -0.00, -1.00, 114.0, 268.0)">D</text><text xml:space="preserve" font-family="Lato-Light" font-size="26.0" fill="#000000" transform="matrix(1.00, 0.00, -0.00, -1.00, 133.8, 268.0)">a</text><text xml:space="preserve" font-family="Lato-Light" font-size="26.0" fill="#000000" transform="matrix(1.00, 0.00, -0.00, -1.00, 146.4, 268.0)">t</text><text xml:space="preserve" font-family="Lato-Light" font-size="26.0" fill="#000000" transform="matrix(1.00, 0.00, -0.00, -1.00, 155.7, 268.0)">a</text><text xml:space="preserve" font-family="Lato-Light" font-size="26.0" fill="#000000" transform="matrix(1.00, 0.00, -0.00, -1.00, 168.3, 268.0)"> </text><text xml:space="preserve" font-family="Lato-Light" font-size="26.0" fill="#000000" transform="matrix(1.00, 0.00, -0.00, -1.00, 173.3, 268.0)">i</text><text xml:space="preserve" font-family="Lato-Light" font-size="26.0" fill="#000000" transform="matrix(1.00, 0.00, -0.00, -1.00, 179.5, 268.0)">s</text><text xml:space="preserve" font-family="Lato-Light" font-size="26.0" fill="#000000" transform="matrix(1.00, 0.00, -0.00, -1.00, 190.6, 268.0)"> </text><text xml:space="preserve" font-family="Lato-Light" font-size="26.0" fill="#000000" transform="matrix(1.00, 0.00, -0.00, -1.00, 195.7, 268.0)">d</text><text xml:space="preserve" font-family="Lato-Light" font-size="26.0" fill="#000000" transform="matrix(1.00, 0.00, -0.00, -1.00, 209.9, 268.0)">e</text><text xml:space="preserve" font-family="Lato-Light" font-size="26.0" fill="#000000" transform="matrix(1.00, 0.00, -0.00, -1.00, 223.1, 268.0)">ﬁ</text><text xml:space="preserve" font-family="Lato-Light" font-size="26.0" fill="#000000" transform="matrix(1.00, 0.00, -0.00, -1.00, 237.0, 268.0)">n</text><text xml:space="preserve" font-family="Lato-Light" font-size="26.0" fill="#000000" transform="matrix(1.00, 0.00, -0.00, -1.00, 251.1, 268.0)">e</text><text xml:space="preserve" font-family="Lato-Light" font-size="26.0" fill="#000000" transform="matrix(1.00, 0.00, -0.00, -1.00, 264.4, 268.0)">d</text><text xml:space="preserve" font-family="Lato-Light" font-size="26.0" fill="#000000" transform="matrix(1.00, 0.00, -0.00, -1.00, 278.6, 268.0)"> </text><text xml:space="preserve" font-family="Lato-Light" font-size="26.0" fill="#000000" transform="matrix(1.00, 0.00, -0.00, -1.00, 283.6, 268.0)">f</text><text xml:space="preserve" font-family="Lato-Light" font-size="26.0" fill="#000000" transform="matrix(1.00, 0.00, -0.00, -1.00, 291.9, 268.0)">o</text><text xml:space="preserve" font-family="Lato-Light" font-size="26.0" fill="#000000" transform="matrix(1.00, 0.00, -0.00, -1.00, 306.0, 268.0)">r</text><text xml:space="preserve" font-family="Lato-Light" font-size="26.0" fill="#000000" transform="matrix(1.00, 0.00, -0.00, -1.00, 316.3, 268.0)"> </text><text xml:space="preserve" font-family="Lato-Light" font-size="26.0" fill="#000000" transform="matrix(1.00, 0.00, -0.00, -1.00, 321.4, 268.0)">a</text><text xml:space="preserve" font-family="Lato-Light" font-size="26.0" fill="#000000" transform="matrix(1.00, 0.00, -0.00, -1.00, 334.0, 268.0)"> </text><text xml:space="preserve" font-family="Lato-Light" font-size="26.0" fill="#000000" transform="matrix(1.00, 0.00, -0.00, -1.00, 339.0, 268.0)">v</text><text xml:space="preserve" font-family="Lato-Light" font-size="26.0" fill="#000000" transform="matrix(1.00, 0.00, -0.00, -1.00, 351.7, 268.0)">i</text><text xml:space="preserve" font-family="Lato-Light" font-size="26.0" fill="#000000" transform="matrix(1.00, 0.00, -0.00, -1.00, 357.8, 268.0)">e</text><text xml:space="preserve" font-family="Lato-Light" font-size="26.0" fill="#000000" transform="matrix(1.00, 0.00, -0.00, -1.00, 371.1, 268.0)">w</text><text xml:space="preserve" font-family="Lato-Light" font-size="26.0" fill="#000000" transform="matrix(1.00, 0.00, -0.00, -1.00, 390.3, 268.0)"> </text><text xml:space="preserve" font-family="Lato-Light" font-size="26.0" fill="#000000" transform="matrix(1.00, 0.00, -0.00, -1.00, 395.3, 268.0)">a</text><text xml:space="preserve" font-family="Lato-Light" font-size="26.0" fill="#000000" transform="matrix(1.00, 0.00, -0.00, -1.00, 407.9, 268.0)">s</text><text xml:space="preserve" font-family="Lato-Light" font-size="26.0" fill="#000000" transform="matrix(1.00, 0.00, -0.00, -1.00, 419.1, 268.0)"> </text><text xml:space="preserve" font-family="Lato-Light" font-size="26.0" fill="#000000" transform="matrix(1.00, 0.00, -0.00, -1.00, 424.1, 268.0)">j</text><text xml:space="preserve" font-family="Lato-Light" font-size="26.0" fill="#000000" transform="matrix(1.00, 0.00, -0.00, -1.00, 430.2, 268.0)">s</text><text xml:space="preserve" font-family="Lato-Light" font-size="26.0" fill="#000000" transform="matrix(1.00, 0.00, -0.00, -1.00, 441.4, 268.0)">o</text><text xml:space="preserve" font-family="Lato-Light" font-size="26.0" fill="#000000" transform="matrix(1.00, 0.00, -0.00, -1.00, 455.5, 268.0)">n</text><text xml:space="preserve" font-family="Lato-Light" font-size="26.0" fill="#000000" transform="matrix(1.00, 0.00, -0.00, -1.00, 469.5, 268.0)">,</text><text xml:space="preserve" font-family="Lato-Light" font-size="26.0" fill="#000000" transform="matrix(1.00, 0.00, -0.00, -1.00, 474.7, 268.0)"> </text><text xml:space="preserve" font-family="Lato-Light" font-size="26.0" fill="#000000" transform="matrix(1.00, 0.00, -0.00, -1.00, 479.7, 268.0)">a</text><text xml:space="preserve" font-family="Lato-Light" font-size="26.0" fill="#000000" transform="matrix(1.00, 0.00, -0.00, -1.00, 492.3, 268.0)">n</text><text xml:space="preserve" font-family="Lato-Light" font-size="26.0" fill="#000000" transform="matrix(1.00, 0.00, -0.00, -1.00, 506.4, 268.0)">d</text><text xml:space="preserve" font-family="Lato-Light" font-size="26.0" fill="#000000" transform="matrix(1.00, 0.00, -0.00, -1.00, 520.6, 268.0)"> </text><text xml:space="preserve" font-family="Lato-Light" font-size="26.0" fill="#000000" transform="matrix(1.00, 0.00, -0.00, -1.00, 525.6, 268.0)">i</text><text xml:space="preserve" font-family="Lato-Light" font-size="26.0" fill="#000000" transform="matrix(1.00, 0.00, -0.00, -1.00, 531.8, 268.0)">s</text><text xml:space="preserve" font-family="Lato-Light" font-size="26.0" fill="#000000" transform="matrix(1.00, 0.00, -0.00, -1.00, 542.9, 268.0)"> </text><text xml:space="preserve" font-family="Lato-Light" font-size="26.0" fill="#000000" transform="matrix(1.00, 0.00, -0.00, -1.00, 548.0, 268.0)">a</text><text xml:space="preserve" font-family="Lato-Light" font-size="26.0" fill="#000000" transform="matrix(1.00, 0.00, -0.00, -1.00, 560.6, 268.0)">u</text><text xml:space="preserve" font-family="Lato-Light" font-size="26.0" fill="#000000" transform="matrix(1.00, 0.00, -0.00, -1.00, 574.7, 268.0)">t</text><text xml:space="preserve" font-family="Lato-Light" font-size="26.0" fill="#000000" transform="matrix(1.00, 0.00, -0.00, -1.00, 583.9, 268.0)">o</text><text xml:space="preserve" font-family="Lato-Light" font-size="26.0" fill="#000000" transform="matrix(1.00, 0.00, -0.00, -1.00, 598.0, 268.0)">m</text><text xml:space="preserve" font-family="Lato-Light" font-size="26.0" fill="#000000" transform="matrix(1.00, 0.00, -0.00, -1.00, 618.7, 268.0)">a</text><text xml:space="preserve" font-family="Lato-Light" font-size="26.0" fill="#000000" transform="matrix(1.00, 0.00, -0.00, -1.00, 631.3, 268.0)">t</text><text xml:space="preserve" font-family="Lato-Light" font-size="26.0" fill="#000000" transform="matrix(1.00, 0.00, -0.00, -1.00, 640.6, 268.0)">i</text><text xml:space="preserve" font-family="Lato-Light" font-size="26.0" fill="#000000" transform="matrix(1.00, 0.00, -0.00, -1.00, 646.7, 268.0)">c</text><text xml:space="preserve" font-family="Lato-Light" font-size="26.0" fill="#000000" transform="matrix(1.00, 0.00, -0.00, -1.00, 658.5, 268.0)">a</text><text xml:space="preserve" font-family="Lato-Light" font-size="26.0" fill="#000000" transform="matrix(1.00, 0.00, -0.00, -1.00, 671.2, 268.0)">l</text><text xml:space="preserve" font-family="Lato-Light" font-size="26.0" fill="#000000" transform="matrix(1.00, 0.00, -0.00, -1.00, 677.3, 268.0)">l</text><text xml:space="preserve" font-family="Lato-Light" font-size="26.0" fill="#000000" transform="matrix(1.00, 0.00, -0.00, -1.00, 683.5, 268.0)">y</text><text xml:space="preserve" font-family="Lato-Light" font-size="26.0" fill="#000000" transform="matrix(1.00, 0.00, -0.00, -1.00, 696.2, 268.0)"> </text><text xml:space="preserve" font-family="Lato-Light" font-size="26.0" fill="#000000" transform="matrix(1.00, 0.00, -0.00, -1.00, 701.2, 268.0)">p</text><text xml:space="preserve" font-family="Lato-Light" font-size="26.0" fill="#000000" transform="matrix(1.00, 0.00, -0.00, -1.00, 715.1, 268.0)">a</text><text xml:space="preserve" font-family="Lato-Light" font-size="26.0" fill="#000000" transform="matrix(1.00, 0.00, -0.00, -1.00, 727.7, 268.0)">s</text><text xml:space="preserve" font-family="Lato-Light" font-size="26.0" fill="#000000" transform="matrix(1.00, 0.00, -0.00, -1.00, 738.9, 268.0)">s</text><text xml:space="preserve" font-family="Lato-Light" font-size="26.0" fill="#000000" transform="matrix(1.00, 0.00, -0.00, -1.00, 750.1, 268.0)">e</text><text xml:space="preserve" font-family="Lato-Light" font-size="26.0" fill="#000000" transform="matrix(1.00, 0.00, -0.00, -1.00, 763.4, 268.0)">d</text><text xml:space="preserve" font-family="Lato-Light" font-size="26.0" fill="#000000" transform="matrix(1.00, 0.00, -0.00, -1.00, 777.6, 268.0)"> </text><text xml:space="preserve" font-family="Lato-Light" font-size="26.0" fill="#000000" transform="matrix(1.00, 0.00, -0.00, -1.00, 782.6, 268.0)">i</text><text xml:space="preserve" font-family="Lato-Light" font-size="26.0" fill="#000000" transform="matrix(1.00, 0.00, -0.00, -1.00, 788.8, 268.0)">n</text><text xml:space="preserve" font-family="Lato-Light" font-size="26.0" fill="#000000" transform="matrix(1.00, 0.00, -0.00, -1.00, 802.8, 268.0)">t</text><text xml:space="preserve" font-family="Lato-Light" font-size="26.0" fill="#000000" transform="matrix(1.00, 0.00, -0.00, -1.00, 812.1, 268.0)">o</text><text xml:space="preserve" font-family="Lato-Light" font-size="26.0" fill="#000000" transform="matrix(1.00, 0.00, -0.00, -1.00, 826.1, 268.0)"> </text><text xml:space="preserve" font-family="Lato-Light" font-size="26.0" fill="#000000" transform="matrix(1.00, 0.00, -0.00, -1.00, 831.2, 268.0)">t</text><text xml:space="preserve" font-family="Lato-Light" font-size="26.0" fill="#000000" transform="matrix(1.00, 0.00, -0.00, -1.00, 840.4, 268.0)">h</text><text xml:space="preserve" font-family="Lato-Light" font-size="26.0" fill="#000000" transform="matrix(1.00, 0.00, -0.00, -1.00, 854.5, 268.0)">e</text><text xml:space="preserve" font-family="Lato-Light" font-size="26.0" fill="#000000" transform="matrix(1.00, 0.00, -0.00, -1.00, 867.8, 268.0)"> </text><text xml:space="preserve" font-family="Lato-Light" font-size="26.0" fill="#000000" transform="matrix(1.00, 0.00, -0.00, -1.00, 872.8, 268.0)">v</text><text xml:space="preserve" font-family="Lato-Light" font-size="26.0" fill="#000000" transform="matrix(1.00, 0.00, -0.00, -1.00, 885.4, 268.0)">i</text><text xml:space="preserve" font-family="Lato-Light" font-size="26.0" fill="#000000" transform="matrix(1.00, 0.00, -0.00, -1.00, 891.6, 268.0)">e</text><text xml:space="preserve" font-family="Lato-Light" font-size="26.0" fill="#000000" transform="matrix(1.00, 0.00, -0.00, -1.00, 904.9, 268.0)">w</text><text xml:space="preserve" font-family="Lato-Light" font-size="19.5" fill="#000000" transform="matrix(1.00, 0.00, -0.00, -1.00, 79.0, 196.7)">•</text><text xml:space="preserve" font-family="Lato-Light" font-size="26.0" fill="#000000" transform="matrix(1.00, 0.00, -0.00, -1.00, 114.0, 194.0)">S</text><text xml:space="preserve" font-family="Lato-Light" font-size="26.0" fill="#000000" transform="matrix(1.00, 0.00, -0.00, -1.00, 127.6, 194.0)">h</text><text xml:space="preserve" font-family="Lato-Light" font-size="26.0" fill="#000000" transform="matrix(1.00, 0.00, -0.00, -1.00, 141.6, 194.0)">o</text><text xml:space="preserve" font-family="Lato-Light" font-size="26.0" fill="#000000" transform="matrix(1.00, 0.00, -0.00, -1.00, 155.7, 194.0)">w</text><text xml:space="preserve" font-family="Lato-Light" font-size="26.0" fill="#000000" transform="matrix(1.00, 0.00, -0.00, -1.00, 174.9, 194.0)"> </text><text xml:space="preserve" font-family="Lato-Light" font-size="26.0" fill="#000000" transform="matrix(1.00, 0.00, -0.00, -1.00, 179.9, 194.0)">m</text><text xml:space="preserve" font-family="Lato-Light" font-size="26.0" fill="#000000" transform="matrix(1.00, 0.00, -0.00, -1.00, 200.6, 194.0)">e</text><text xml:space="preserve" font-family="Lato-Light" font-size="26.0" fill="#000000" transform="matrix(1.00, 0.00, -0.00, -1.00, 213.8, 194.0)"> </text><text xml:space="preserve" font-family="Lato-Light" font-size="26.0" fill="#000000" transform="matrix(1.00, 0.00, -0.00, -1.00, 218.9, 194.0)">o</text><text xml:space="preserve" font-family="Lato-Light" font-size="26.0" fill="#000000" transform="matrix(1.00, 0.00, -0.00, -1.00, 232.9, 194.0)">n</text><text xml:space="preserve" font-family="Lato-Light" font-size="26.0" fill="#000000" transform="matrix(1.00, 0.00, -0.00, -1.00, 247.0, 194.0)">e</text><g><clipPath id="clip-21"><path d="M 113.0 189.9 L 260.3 189.9 L 260.3 192.8 L 113.0 192.8 Z M 113.0 189.9 "></path></clipPath><g clip-path="url(#clip-21)"><path d="M 39.0 371.6 L 185.3 371.6 " fill="none" stroke="#000000" stroke-width="0.88" stroke-miterlimit="0.00" transform="matrix(1.00, 0.00, 0.00, -1.00, 75.0, 563.0)"></path></g></g></g></svg>