<?xml version="1.0" encoding="UTF-8" standalone="no"?><svg xmlns="http://www.w3.org/2000/svg" xmlns:xlink="http://www.w3.org/1999/xlink" clip-rule="evenodd" stroke-miterlimit="4.00" viewBox="0 0 1024 768"><desc>SVG generated by Keynote</desc><defs></defs><g transform="matrix(1.00, 0.00, -0.00, -1.00, 0.0, 768.0)"><path d="M 0.0 768.0 L 1024.0 768.0 L 1024.0 0.0 L 0.0 0.0 Z M 0.0 768.0 " fill="#FEFFFF"></path><text xml:space="preserve" font-family="Adventure" font-size="110.0" fill="#52575F" transform="matrix(1.00, 0.00, -0.00, -1.00, 152.0, 428.0)">M</text><text xml:space="preserve" font-family="Adventure" font-size="110.0" fill="#52575F" transform="matrix(1.00, 0.00, -0.00, -1.00, 254.0, 428.0)">A</text><text xml:space="preserve" font-family="Adventure" font-size="110.0" fill="#52575F" transform="matrix(1.00, 0.00, -0.00, -1.00, 318.5, 428.0)">K</text><text xml:space="preserve" font-family="Adventure" font-size="110.0" fill="#52575F" transform="matrix(1.00, 0.00, -0.00, -1.00, 382.9, 428.0)">E</text><text xml:space="preserve" font-family="Adventure" font-size="110.0" fill="#52575F" transform="matrix(1.00, 0.00, -0.00, -1.00, 436.6, 428.0)"> </text><text xml:space="preserve" font-family="Adventure" font-size="110.0" fill="#52575F" transform="matrix(1.00, 0.00, -0.00, -1.00, 471.7, 428.0)">C</text><text xml:space="preserve" font-family="Adventure" font-size="110.0" fill="#52575F" transform="matrix(1.00, 0.00, -0.00, -1.00, 544.2, 428.0)">H</text><text xml:space="preserve" font-family="Adventure" font-size="110.0" fill="#52575F" transform="matrix(1.00, 0.00, -0.00, -1.00, 611.4, 428.0)">A</text><text xml:space="preserve" font-family="Adventure" font-size="110.0" fill="#52575F" transform="matrix(1.00, 0.00, -0.00, -1.00, 675.9, 428.0)">N</text><text xml:space="preserve" font-family="Adventure" font-size="110.0" fill="#52575F" transform="matrix(1.00, 0.00, -0.00, -1.00, 740.3, 428.0)">G</text><text xml:space="preserve" font-family="Adventure" font-size="110.0" fill="#52575F" transform="matrix(1.00, 0.00, -0.00, -1.00, 818.2, 428.0)">E</text><text xml:space="preserve" font-family="Adventure" font-size="110.0" fill="#1BBAFF" transform="matrix(1.00, 0.00, -0.00, -1.00, 871.8, 428.0)"> </text><text xml:space="preserve" font-family="Adventure" font-size="145.0" fill="#1BBAFF" transform="matrix(1.00, 0.00, -0.00, -1.00, 293.0, 252.0)">E</text><text xml:space="preserve" font-family="Adventure" font-size="145.0" fill="#1BBAFF" transform="matrix(1.00, 0.00, -0.00, -1.00, 363.8, 252.0)">A</text><text xml:space="preserve" font-family="Adventure" font-size="145.0" fill="#1BBAFF" transform="matrix(1.00, 0.00, -0.00, -1.00, 448.8, 252.0)">S</text><text xml:space="preserve" font-family="Adventure" font-size="145.0" fill="#1BBAFF" transform="matrix(1.00, 0.00, -0.00, -1.00, 505.4, 252.0)">I</text><text xml:space="preserve" font-family="Adventure" font-size="145.0" fill="#1BBAFF" transform="matrix(1.00, 0.00, -0.00, -1.00, 572.7, 252.0)">E</text><text xml:space="preserve" font-family="Adventure" font-size="145.0" fill="#1BBAFF" transform="matrix(1.00, 0.00, -0.00, -1.00, 643.5, 252.0)">R</text></g></svg>