<?xml version="1.0" encoding="UTF-8" standalone="no"?><svg xmlns="http://www.w3.org/2000/svg" xmlns:xlink="http://www.w3.org/1999/xlink" clip-rule="evenodd" stroke-miterlimit="4.00" viewBox="0 0 1024 768"><desc>SVG generated by Keynote</desc><defs></defs><g transform="matrix(1.00, 0.00, -0.00, -1.00, 0.0, 768.0)"><path d="M 0.0 768.0 L 1024.0 768.0 L 1024.0 0.0 L 0.0 0.0 Z M 0.0 768.0 " fill="#FEFFFF"></path><text xml:space="preserve" font-family="Adventure" font-size="110.0" fill="#1BBAFF" transform="matrix(1.00, 0.00, -0.00, -1.00, 239.0, 601.0)">R</text><text xml:space="preserve" font-family="Adventure" font-size="110.0" fill="#1BBAFF" transform="matrix(1.00, 0.00, -0.00, -1.00, 306.2, 601.0)">E</text><text xml:space="preserve" font-family="Adventure" font-size="110.0" fill="#1BBAFF" transform="matrix(1.00, 0.00, -0.00, -1.00, 359.9, 601.0)">S</text><text xml:space="preserve" font-family="Adventure" font-size="110.0" fill="#1BBAFF" transform="matrix(1.00, 0.00, -0.00, -1.00, 402.8, 601.0)">O</text><text xml:space="preserve" font-family="Adventure" font-size="110.0" fill="#1BBAFF" transform="matrix(1.00, 0.00, -0.00, -1.00, 478.0, 601.0)">U</text><text xml:space="preserve" font-family="Adventure" font-size="110.0" fill="#1BBAFF" transform="matrix(1.00, 0.00, -0.00, -1.00, 547.7, 601.0)">R</text><text xml:space="preserve" font-family="Adventure" font-size="110.0" fill="#1BBAFF" transform="matrix(1.00, 0.00, -0.00, -1.00, 614.9, 601.0)">C</text><text xml:space="preserve" font-family="Adventure" font-size="110.0" fill="#1BBAFF" transform="matrix(1.00, 0.00, -0.00, -1.00, 687.5, 601.0)">E</text><text xml:space="preserve" font-family="Adventure" font-size="110.0" fill="#1BBAFF" transform="matrix(1.00, 0.00, -0.00, -1.00, 741.2, 601.0)">S</text><text xml:space="preserve" font-family="Lato-Light" font-size="19.5" fill="#000000" transform="matrix(1.00, 0.00, -0.00, -1.00, 79.0, 418.7)">•</text><text xml:space="preserve" font-family="Lato-Light" font-size="26.0" fill="#000000" transform="matrix(1.00, 0.00, -0.00, -1.00, 114.0, 416.0)">P</text><text xml:space="preserve" font-family="Lato-Light" font-size="26.0" fill="#000000" transform="matrix(1.00, 0.00, -0.00, -1.00, 129.4, 416.0)">r</text><text xml:space="preserve" font-family="Lato-Light" font-size="26.0" fill="#000000" transform="matrix(1.00, 0.00, -0.00, -1.00, 139.7, 416.0)">i</text><text xml:space="preserve" font-family="Lato-Light" font-size="26.0" fill="#000000" transform="matrix(1.00, 0.00, -0.00, -1.00, 145.9, 416.0)">m</text><text xml:space="preserve" font-family="Lato-Light" font-size="26.0" fill="#000000" transform="matrix(1.00, 0.00, -0.00, -1.00, 166.6, 416.0)">e</text><text xml:space="preserve" font-family="Lato-Light" font-size="26.0" fill="#000000" transform="matrix(1.00, 0.00, -0.00, -1.00, 179.9, 416.0)">r</text><text xml:space="preserve" font-family="Lato-Light" font-size="26.0" fill="#000000" transform="matrix(1.00, 0.00, -0.00, -1.00, 190.2, 416.0)"> </text><g><clipPath id="clip-36"><path d="M 113.0 411.9 L 190.2 411.9 L 190.2 414.8 L 113.0 414.8 Z M 113.0 411.9 "></path></clipPath><g clip-path="url(#clip-36)"><path d="M 39.0 149.6 L 115.2 149.6 " fill="none" stroke="#000000" stroke-width="0.88" stroke-miterlimit="0.00" transform="matrix(1.00, 0.00, 0.00, -1.00, 75.0, 563.0)"></path></g></g><text xml:space="preserve" font-family="Lato-Light" font-size="19.5" fill="#000000" transform="matrix(1.00, 0.00, -0.00, -1.00, 79.0, 344.7)">•</text><text xml:space="preserve" font-family="Lato-Light" font-size="26.0" fill="#000000" transform="matrix(1.00, 0.00, -0.00, -1.00, 114.0, 342.0)">L</text><text xml:space="preserve" font-family="Lato-Light" font-size="26.0" fill="#000000" transform="matrix(1.00, 0.00, -0.00, -1.00, 127.3, 342.0)">u</text><text xml:space="preserve" font-family="Lato-Light" font-size="26.0" fill="#000000" transform="matrix(1.00, 0.00, -0.00, -1.00, 141.4, 342.0)">m</text><text xml:space="preserve" font-family="Lato-Light" font-size="26.0" fill="#000000" transform="matrix(1.00, 0.00, -0.00, -1.00, 162.0, 342.0)">b</text><text xml:space="preserve" font-family="Lato-Light" font-size="26.0" fill="#000000" transform="matrix(1.00, 0.00, -0.00, -1.00, 176.2, 342.0)">e</text><text xml:space="preserve" font-family="Lato-Light" font-size="26.0" fill="#000000" transform="matrix(1.00, 0.00, -0.00, -1.00, 189.5, 342.0)">r</text><text xml:space="preserve" font-family="Lato-Light" font-size="26.0" fill="#000000" transform="matrix(1.00, 0.00, -0.00, -1.00, 199.8, 342.0)">j</text><text xml:space="preserve" font-family="Lato-Light" font-size="26.0" fill="#000000" transform="matrix(1.00, 0.00, -0.00, -1.00, 205.9, 342.0)">a</text><text xml:space="preserve" font-family="Lato-Light" font-size="26.0" fill="#000000" transform="matrix(1.00, 0.00, -0.00, -1.00, 218.6, 342.0)">c</text><text xml:space="preserve" font-family="Lato-Light" font-size="26.0" fill="#000000" transform="matrix(1.00, 0.00, -0.00, -1.00, 230.4, 342.0)">k</text><text xml:space="preserve" font-family="Lato-Light" font-size="26.0" fill="#000000" transform="matrix(1.00, 0.00, -0.00, -1.00, 243.2, 342.0)"> </text><g><clipPath id="clip-37"><path d="M 113.0 337.9 L 243.2 337.9 L 243.2 340.8 L 113.0 340.8 Z M 113.0 337.9 "></path></clipPath><g clip-path="url(#clip-37)"><path d="M 39.0 223.6 L 168.2 223.6 " fill="none" stroke="#000000" stroke-width="0.88" stroke-miterlimit="0.00" transform="matrix(1.00, 0.00, 0.00, -1.00, 75.0, 563.0)"></path></g></g><text xml:space="preserve" font-family="Lato-Light" font-size="19.5" fill="#000000" transform="matrix(1.00, 0.00, -0.00, -1.00, 79.0, 270.7)">•</text><text xml:space="preserve" font-family="Lato-Light" font-size="26.0" fill="#000000" transform="matrix(1.00, 0.00, -0.00, -1.00, 114.0, 268.0)">T</text><text xml:space="preserve" font-family="Lato-Light" font-size="26.0" fill="#000000" transform="matrix(1.00, 0.00, -0.00, -1.00, 129.2, 268.0)">i</text><text xml:space="preserve" font-family="Lato-Light" font-size="26.0" fill="#000000" transform="matrix(1.00, 0.00, -0.00, -1.00, 135.3, 268.0)">m</text><text xml:space="preserve" font-family="Lato-Light" font-size="26.0" fill="#000000" transform="matrix(1.00, 0.00, -0.00, -1.00, 156.0, 268.0)">b</text><text xml:space="preserve" font-family="Lato-Light" font-size="26.0" fill="#000000" transform="matrix(1.00, 0.00, -0.00, -1.00, 170.2, 268.0)">e</text><text xml:space="preserve" font-family="Lato-Light" font-size="26.0" fill="#000000" transform="matrix(1.00, 0.00, -0.00, -1.00, 183.5, 268.0)">r</text><text xml:space="preserve" font-family="Lato-Light" font-size="26.0" fill="#000000" transform="matrix(1.00, 0.00, -0.00, -1.00, 193.9, 268.0)"> </text><g><clipPath id="clip-38"><path d="M 113.0 263.9 L 193.9 263.9 L 193.9 266.8 L 113.0 266.8 Z M 113.0 263.9 "></path></clipPath><g clip-path="url(#clip-38)"><path d="M 39.0 297.6 L 118.9 297.6 " fill="none" stroke="#000000" stroke-width="0.88" stroke-miterlimit="0.00" transform="matrix(1.00, 0.00, 0.00, -1.00, 75.0, 563.0)"></path></g></g><text xml:space="preserve" font-family="Lato-Light" font-size="19.5" fill="#000000" transform="matrix(1.00, 0.00, -0.00, -1.00, 79.0, 196.7)">•</text><text xml:space="preserve" font-family="Lato-Light" font-size="26.0" fill="#000000" transform="matrix(1.00, 0.00, -0.00, -1.00, 114.0, 194.0)">B</text><text xml:space="preserve" font-family="Lato-Light" font-size="26.0" fill="#000000" transform="matrix(1.00, 0.00, -0.00, -1.00, 130.7, 194.0)">e</text><text xml:space="preserve" font-family="Lato-Light" font-size="26.0" fill="#000000" transform="matrix(1.00, 0.00, -0.00, -1.00, 144.0, 194.0)">d</text><text xml:space="preserve" font-family="Lato-Light" font-size="26.0" fill="#000000" transform="matrix(1.00, 0.00, -0.00, -1.00, 158.1, 194.0)">r</text><text xml:space="preserve" font-family="Lato-Light" font-size="26.0" fill="#000000" transform="matrix(1.00, 0.00, -0.00, -1.00, 168.5, 194.0)">o</text><text xml:space="preserve" font-family="Lato-Light" font-size="26.0" fill="#000000" transform="matrix(1.00, 0.00, -0.00, -1.00, 182.5, 194.0)">c</text><text xml:space="preserve" font-family="Lato-Light" font-size="26.0" fill="#000000" transform="matrix(1.00, 0.00, -0.00, -1.00, 194.4, 194.0)">k</text><g><clipPath id="clip-39"><path d="M 113.0 189.9 L 207.2 189.9 L 207.2 192.8 L 113.0 192.8 Z M 113.0 189.9 "></path></clipPath><g clip-path="url(#clip-39)"><path d="M 39.0 371.6 L 132.2 371.6 " fill="none" stroke="#000000" stroke-width="0.88" stroke-miterlimit="0.00" transform="matrix(1.00, 0.00, 0.00, -1.00, 75.0, 563.0)"></path></g></g></g></svg>